<svg width="1200" height="300" viewBox="0 0 1901 371" fill="none" xmlns="http://www.w3.org/2000/svg">
<path d="M202.142 219H189.784L208.614 164.455H223.476L242.279 219H229.921L216.258 176.919H215.832L202.142 219ZM201.37 197.56H230.56V206.562H201.37V197.56ZM253.131 219V178.091H264.131V185.229H264.557C265.303 182.69 266.555 180.772 268.312 179.476C270.07 178.162 272.094 177.505 274.385 177.505C274.953 177.505 275.566 177.54 276.222 177.612C276.879 177.683 277.456 177.78 277.954 177.904V187.972C277.421 187.812 276.684 187.67 275.743 187.546C274.802 187.422 273.941 187.359 273.16 187.359C271.491 187.359 269.999 187.723 268.685 188.451C267.389 189.162 266.359 190.156 265.596 191.434C264.85 192.713 264.477 194.186 264.477 195.855V219H253.131ZM312.13 178.091V186.614H287.494V178.091H312.13ZM293.087 168.29H304.433V206.429C304.433 207.477 304.593 208.293 304.912 208.879C305.232 209.447 305.676 209.847 306.244 210.078C306.83 210.309 307.505 210.424 308.268 210.424C308.801 210.424 309.334 210.38 309.866 210.291C310.399 210.184 310.807 210.104 311.091 210.051L312.876 218.494C312.308 218.672 311.509 218.876 310.479 219.107C309.449 219.355 308.197 219.506 306.723 219.559C303.989 219.666 301.592 219.302 299.532 218.467C297.491 217.633 295.901 216.337 294.765 214.579C293.629 212.821 293.069 210.602 293.087 207.92V168.29ZM324.021 219V178.091H335.367V219H324.021ZM329.72 172.817C328.034 172.817 326.587 172.258 325.379 171.14C324.19 170.003 323.595 168.645 323.595 167.065C323.595 165.502 324.19 164.162 325.379 163.043C326.587 161.907 328.034 161.338 329.72 161.338C331.407 161.338 332.845 161.907 334.035 163.043C335.242 164.162 335.846 165.502 335.846 167.065C335.846 168.645 335.242 170.003 334.035 171.14C332.845 172.258 331.407 172.817 329.72 172.817ZM367.439 219.799C363.249 219.799 359.644 218.911 356.626 217.136C353.625 215.342 351.317 212.857 349.701 209.678C348.103 206.5 347.304 202.842 347.304 198.705C347.304 194.515 348.112 190.839 349.728 187.679C351.361 184.501 353.678 182.024 356.679 180.248C359.68 178.455 363.249 177.558 367.386 177.558C370.955 177.558 374.08 178.206 376.761 179.502C379.442 180.799 381.564 182.619 383.126 184.962C384.689 187.306 385.55 190.058 385.71 193.219H375.003C374.701 191.177 373.902 189.534 372.606 188.292C371.328 187.031 369.65 186.401 367.572 186.401C365.814 186.401 364.279 186.88 362.965 187.839C361.669 188.78 360.656 190.156 359.928 191.967C359.2 193.778 358.836 195.971 358.836 198.545C358.836 201.156 359.192 203.375 359.902 205.204C360.63 207.033 361.651 208.426 362.965 209.385C364.279 210.344 365.814 210.824 367.572 210.824C368.868 210.824 370.031 210.557 371.061 210.025C372.109 209.492 372.97 208.719 373.645 207.707C374.337 206.678 374.79 205.444 375.003 204.005H385.71C385.532 207.13 384.68 209.882 383.153 212.262C381.644 214.623 379.557 216.47 376.894 217.801C374.231 219.133 371.079 219.799 367.439 219.799ZM408.82 164.455V219H397.474V164.455H408.82ZM441.052 219.799C436.844 219.799 433.222 218.947 430.186 217.242C427.167 215.52 424.841 213.087 423.208 209.945C421.574 206.784 420.757 203.047 420.757 198.732C420.757 194.524 421.574 190.831 423.208 187.652C424.841 184.474 427.14 181.997 430.106 180.222C433.089 178.446 436.586 177.558 440.599 177.558C443.298 177.558 445.811 177.993 448.137 178.863C450.48 179.716 452.522 181.003 454.262 182.725C456.02 184.447 457.387 186.614 458.364 189.224C459.34 191.816 459.829 194.852 459.829 198.332V201.449H425.285V194.417H449.149C449.149 192.784 448.794 191.337 448.083 190.076C447.373 188.815 446.388 187.83 445.127 187.12C443.884 186.392 442.437 186.028 440.786 186.028C439.063 186.028 437.536 186.427 436.205 187.226C434.891 188.007 433.861 189.064 433.115 190.396C432.369 191.71 431.988 193.174 431.97 194.79V201.475C431.97 203.499 432.343 205.248 433.089 206.722C433.852 208.196 434.926 209.332 436.311 210.131C437.696 210.93 439.339 211.33 441.238 211.33C442.499 211.33 443.653 211.152 444.701 210.797C445.748 210.442 446.645 209.909 447.391 209.199C448.137 208.489 448.705 207.619 449.095 206.589L459.589 207.281C459.056 209.803 457.964 212.004 456.313 213.886C454.68 215.751 452.567 217.207 449.974 218.254C447.4 219.284 444.426 219.799 441.052 219.799ZM505.77 189.756L495.383 190.396C495.206 189.508 494.824 188.709 494.238 187.999C493.652 187.271 492.88 186.694 491.921 186.267C490.98 185.824 489.852 185.602 488.539 185.602C486.781 185.602 485.298 185.974 484.091 186.72C482.883 187.448 482.28 188.425 482.28 189.65C482.28 190.626 482.67 191.452 483.452 192.127C484.233 192.801 485.573 193.343 487.473 193.751L494.877 195.243C498.855 196.06 501.82 197.374 503.773 199.185C505.726 200.996 506.703 203.375 506.703 206.322C506.703 209.004 505.912 211.356 504.332 213.38C502.77 215.404 500.621 216.985 497.887 218.121C495.17 219.24 492.036 219.799 488.485 219.799C483.07 219.799 478.755 218.672 475.541 216.417C472.345 214.144 470.472 211.054 469.922 207.148L481.081 206.562C481.419 208.213 482.235 209.474 483.531 210.344C484.828 211.196 486.488 211.623 488.512 211.623C490.501 211.623 492.099 211.241 493.306 210.477C494.531 209.696 495.153 208.693 495.17 207.468C495.153 206.438 494.718 205.594 493.865 204.938C493.013 204.263 491.699 203.748 489.923 203.393L482.839 201.981C478.844 201.182 475.87 199.797 473.917 197.826C471.981 195.855 471.014 193.343 471.014 190.289C471.014 187.661 471.724 185.397 473.144 183.498C474.583 181.598 476.598 180.133 479.19 179.103C481.8 178.073 484.854 177.558 488.352 177.558C493.519 177.558 497.585 178.65 500.55 180.834C503.533 183.018 505.273 185.992 505.77 189.756Z" fill="#3D3D3D" fill-opacity="0.19"/>
<path d="M523.142 100H510.784L529.614 45.4545H544.476L563.279 100H550.921L537.258 57.919H536.832L523.142 100ZM522.37 78.56H551.56V87.5621H522.37V78.56ZM574.131 100V59.0909H585.131V66.2287H585.557C586.303 63.6896 587.555 61.772 589.312 60.4759C591.07 59.1619 593.094 58.505 595.385 58.505C595.953 58.505 596.566 58.5405 597.222 58.6115C597.879 58.6825 598.456 58.7802 598.954 58.9045V68.9719C598.421 68.8121 597.684 68.6701 596.743 68.5458C595.802 68.4215 594.941 68.3594 594.16 68.3594C592.491 68.3594 590.999 68.7234 589.685 69.4513C588.389 70.1616 587.359 71.1559 586.596 72.4343C585.85 73.7127 585.477 75.1864 585.477 76.8555V100H574.131ZM633.13 59.0909V67.6136H608.494V59.0909H633.13ZM614.087 49.2898H625.433V87.429C625.433 88.4766 625.593 89.2933 625.912 89.8793C626.232 90.4474 626.676 90.8469 627.244 91.0778C627.83 91.3086 628.505 91.424 629.268 91.424C629.801 91.424 630.334 91.3796 630.866 91.2908C631.399 91.1843 631.807 91.1044 632.091 91.0511L633.876 99.494C633.308 99.6715 632.509 99.8757 631.479 100.107C630.449 100.355 629.197 100.506 627.723 100.559C624.989 100.666 622.592 100.302 620.532 99.4673C618.491 98.6328 616.901 97.3366 615.765 95.5788C614.629 93.821 614.069 91.6016 614.087 88.9205V49.2898ZM645.021 100V59.0909H656.367V100H645.021ZM650.72 53.8175C649.034 53.8175 647.587 53.2582 646.379 52.1396C645.19 51.0032 644.595 49.6449 644.595 48.0646C644.595 46.5021 645.19 45.1616 646.379 44.043C647.587 42.9066 649.034 42.3384 650.72 42.3384C652.407 42.3384 653.845 42.9066 655.035 44.043C656.242 45.1616 656.846 46.5021 656.846 48.0646C656.846 49.6449 656.242 51.0032 655.035 52.1396C653.845 53.2582 652.407 53.8175 650.72 53.8175ZM688.439 100.799C684.249 100.799 680.644 99.9112 677.626 98.1357C674.625 96.3423 672.317 93.8565 670.701 90.6783C669.103 87.5 668.304 83.8423 668.304 79.7053C668.304 75.5149 669.112 71.8395 670.728 68.679C672.361 65.5007 674.678 63.0238 677.679 61.2482C680.68 59.4549 684.249 58.5582 688.386 58.5582C691.955 58.5582 695.08 59.2063 697.761 60.5025C700.442 61.7986 702.564 63.6186 704.126 65.9624C705.689 68.3061 706.55 71.0582 706.71 74.2188H696.003C695.701 72.1768 694.902 70.5344 693.606 69.2915C692.328 68.0309 690.65 67.4006 688.572 67.4006C686.814 67.4006 685.279 67.88 683.965 68.8388C682.669 69.7798 681.656 71.1559 680.928 72.967C680.2 74.7781 679.836 76.9709 679.836 79.5455C679.836 82.1555 680.192 84.375 680.902 86.2038C681.63 88.0327 682.651 89.4265 683.965 90.3853C685.279 91.3441 686.814 91.8235 688.572 91.8235C689.868 91.8235 691.031 91.5572 692.061 91.0245C693.109 90.4918 693.97 89.7195 694.645 88.7074C695.337 87.6776 695.79 86.4435 696.003 85.0053H706.71C706.532 88.1303 705.68 90.8825 704.153 93.2617C702.644 95.6232 700.557 97.4698 697.894 98.8015C695.231 100.133 692.079 100.799 688.439 100.799ZM729.82 45.4545V100H718.474V45.4545H729.82ZM762.052 100.799C757.844 100.799 754.222 99.9467 751.186 98.2422C748.167 96.5199 745.841 94.0874 744.208 90.9446C742.574 87.7841 741.757 84.0465 741.757 79.7319C741.757 75.5238 742.574 71.8306 744.208 68.6523C745.841 65.4741 748.14 62.9972 751.106 61.2216C754.089 59.446 757.586 58.5582 761.599 58.5582C764.298 58.5582 766.811 58.9933 769.137 59.8633C771.48 60.7156 773.522 62.0028 775.262 63.7251C777.02 65.4474 778.387 67.6136 779.364 70.2237C780.34 72.8161 780.829 75.8523 780.829 79.3324V82.4485H746.285V75.4173H770.149C770.149 73.7837 769.794 72.3366 769.083 71.076C768.373 69.8153 767.388 68.8299 766.127 68.1197C764.884 67.3917 763.437 67.0277 761.786 67.0277C760.063 67.0277 758.536 67.4272 757.205 68.2262C755.891 69.0075 754.861 70.0639 754.115 71.3956C753.369 72.7095 752.988 74.1744 752.97 75.7901V82.4751C752.97 84.4993 753.343 86.2482 754.089 87.7219C754.852 89.1957 755.926 90.332 757.311 91.131C758.696 91.93 760.339 92.3295 762.238 92.3295C763.499 92.3295 764.653 92.152 765.701 91.7969C766.748 91.4418 767.645 90.9091 768.391 90.1989C769.137 89.4886 769.705 88.6186 770.095 87.5888L780.589 88.2812C780.056 90.8026 778.964 93.0043 777.313 94.8864C775.68 96.7507 773.567 98.2067 770.974 99.2543C768.4 100.284 765.426 100.799 762.052 100.799ZM826.77 70.7564L816.383 71.3956C816.206 70.5078 815.824 69.7088 815.238 68.9986C814.652 68.2706 813.88 67.6935 812.921 67.2674C811.98 66.8235 810.852 66.6016 809.539 66.6016C807.781 66.6016 806.298 66.9744 805.091 67.7202C803.883 68.4482 803.28 69.4247 803.28 70.6499C803.28 71.6264 803.67 72.4521 804.452 73.1268C805.233 73.8015 806.573 74.343 808.473 74.7514L815.877 76.2429C819.855 77.0597 822.82 78.3736 824.773 80.1847C826.726 81.9957 827.703 84.375 827.703 87.3224C827.703 90.0036 826.912 92.3562 825.332 94.3803C823.77 96.4045 821.621 97.9847 818.887 99.1211C816.17 100.24 813.036 100.799 809.485 100.799C804.07 100.799 799.755 99.6715 796.541 97.4165C793.345 95.1438 791.472 92.0543 790.922 88.1481L802.081 87.5621C802.419 89.2134 803.235 90.4741 804.531 91.3441C805.828 92.1964 807.488 92.6225 809.512 92.6225C811.501 92.6225 813.099 92.2408 814.306 91.4773C815.531 90.696 816.153 89.6928 816.17 88.4677C816.153 87.4379 815.718 86.5945 814.865 85.9375C814.013 85.2628 812.699 84.7479 810.923 84.3928L803.839 82.9812C799.844 82.1822 796.87 80.7972 794.917 78.8263C792.981 76.8555 792.014 74.343 792.014 71.2891C792.014 68.6612 792.724 66.3974 794.144 64.4975C795.583 62.5977 797.598 61.1328 800.19 60.103C802.8 59.0732 805.854 58.5582 809.352 58.5582C814.519 58.5582 818.585 59.6502 821.55 61.8342C824.533 64.0181 826.273 66.9922 826.77 70.7564Z" fill="#3D3D3D" fill-opacity="0.19"/>
<path d="M1032.14 325H1019.78L1038.61 270.455H1053.48L1072.28 325H1059.92L1046.26 282.919H1045.83L1032.14 325ZM1031.37 303.56H1060.56V312.562H1031.37V303.56ZM1083.13 325V284.091H1094.13V291.229H1094.56C1095.3 288.69 1096.55 286.772 1098.31 285.476C1100.07 284.162 1102.09 283.505 1104.38 283.505C1104.95 283.505 1105.57 283.54 1106.22 283.612C1106.88 283.683 1107.46 283.78 1107.95 283.904V293.972C1107.42 293.812 1106.68 293.67 1105.74 293.546C1104.8 293.422 1103.94 293.359 1103.16 293.359C1101.49 293.359 1100 293.723 1098.69 294.451C1097.39 295.162 1096.36 296.156 1095.6 297.434C1094.85 298.713 1094.48 300.186 1094.48 301.855V325H1083.13ZM1142.13 284.091V292.614H1117.49V284.091H1142.13ZM1123.09 274.29H1134.43V312.429C1134.43 313.477 1134.59 314.293 1134.91 314.879C1135.23 315.447 1135.68 315.847 1136.24 316.078C1136.83 316.309 1137.5 316.424 1138.27 316.424C1138.8 316.424 1139.33 316.38 1139.87 316.291C1140.4 316.184 1140.81 316.104 1141.09 316.051L1142.88 324.494C1142.31 324.672 1141.51 324.876 1140.48 325.107C1139.45 325.355 1138.2 325.506 1136.72 325.559C1133.99 325.666 1131.59 325.302 1129.53 324.467C1127.49 323.633 1125.9 322.337 1124.77 320.579C1123.63 318.821 1123.07 316.602 1123.09 313.92V274.29ZM1154.02 325V284.091H1165.37V325H1154.02ZM1159.72 278.817C1158.03 278.817 1156.59 278.258 1155.38 277.14C1154.19 276.003 1153.59 274.645 1153.59 273.065C1153.59 271.502 1154.19 270.162 1155.38 269.043C1156.59 267.907 1158.03 267.338 1159.72 267.338C1161.41 267.338 1162.85 267.907 1164.04 269.043C1165.24 270.162 1165.85 271.502 1165.85 273.065C1165.85 274.645 1165.24 276.003 1164.04 277.14C1162.85 278.258 1161.41 278.817 1159.72 278.817ZM1197.44 325.799C1193.25 325.799 1189.64 324.911 1186.63 323.136C1183.63 321.342 1181.32 318.857 1179.7 315.678C1178.1 312.5 1177.3 308.842 1177.3 304.705C1177.3 300.515 1178.11 296.839 1179.73 293.679C1181.36 290.501 1183.68 288.024 1186.68 286.248C1189.68 284.455 1193.25 283.558 1197.39 283.558C1200.95 283.558 1204.08 284.206 1206.76 285.502C1209.44 286.799 1211.56 288.619 1213.13 290.962C1214.69 293.306 1215.55 296.058 1215.71 299.219H1205C1204.7 297.177 1203.9 295.534 1202.61 294.292C1201.33 293.031 1199.65 292.401 1197.57 292.401C1195.81 292.401 1194.28 292.88 1192.96 293.839C1191.67 294.78 1190.66 296.156 1189.93 297.967C1189.2 299.778 1188.84 301.971 1188.84 304.545C1188.84 307.156 1189.19 309.375 1189.9 311.204C1190.63 313.033 1191.65 314.426 1192.96 315.385C1194.28 316.344 1195.81 316.824 1197.57 316.824C1198.87 316.824 1200.03 316.557 1201.06 316.025C1202.11 315.492 1202.97 314.719 1203.64 313.707C1204.34 312.678 1204.79 311.444 1205 310.005H1215.71C1215.53 313.13 1214.68 315.882 1213.15 318.262C1211.64 320.623 1209.56 322.47 1206.89 323.801C1204.23 325.133 1201.08 325.799 1197.44 325.799ZM1238.82 270.455V325H1227.47V270.455H1238.82ZM1271.05 325.799C1266.84 325.799 1263.22 324.947 1260.19 323.242C1257.17 321.52 1254.84 319.087 1253.21 315.945C1251.57 312.784 1250.76 309.047 1250.76 304.732C1250.76 300.524 1251.57 296.831 1253.21 293.652C1254.84 290.474 1257.14 287.997 1260.11 286.222C1263.09 284.446 1266.59 283.558 1270.6 283.558C1273.3 283.558 1275.81 283.993 1278.14 284.863C1280.48 285.716 1282.52 287.003 1284.26 288.725C1286.02 290.447 1287.39 292.614 1288.36 295.224C1289.34 297.816 1289.83 300.852 1289.83 304.332V307.449H1255.28V300.417H1279.15C1279.15 298.784 1278.79 297.337 1278.08 296.076C1277.37 294.815 1276.39 293.83 1275.13 293.12C1273.88 292.392 1272.44 292.028 1270.79 292.028C1269.06 292.028 1267.54 292.427 1266.2 293.226C1264.89 294.007 1263.86 295.064 1263.12 296.396C1262.37 297.71 1261.99 299.174 1261.97 300.79V307.475C1261.97 309.499 1262.34 311.248 1263.09 312.722C1263.85 314.196 1264.93 315.332 1266.31 316.131C1267.7 316.93 1269.34 317.33 1271.24 317.33C1272.5 317.33 1273.65 317.152 1274.7 316.797C1275.75 316.442 1276.65 315.909 1277.39 315.199C1278.14 314.489 1278.7 313.619 1279.1 312.589L1289.59 313.281C1289.06 315.803 1287.96 318.004 1286.31 319.886C1284.68 321.751 1282.57 323.207 1279.97 324.254C1277.4 325.284 1274.43 325.799 1271.05 325.799ZM1335.77 295.756L1325.38 296.396C1325.21 295.508 1324.82 294.709 1324.24 293.999C1323.65 293.271 1322.88 292.694 1321.92 292.267C1320.98 291.824 1319.85 291.602 1318.54 291.602C1316.78 291.602 1315.3 291.974 1314.09 292.72C1312.88 293.448 1312.28 294.425 1312.28 295.65C1312.28 296.626 1312.67 297.452 1313.45 298.127C1314.23 298.801 1315.57 299.343 1317.47 299.751L1324.88 301.243C1328.85 302.06 1331.82 303.374 1333.77 305.185C1335.73 306.996 1336.7 309.375 1336.7 312.322C1336.7 315.004 1335.91 317.356 1334.33 319.38C1332.77 321.404 1330.62 322.985 1327.89 324.121C1325.17 325.24 1322.04 325.799 1318.49 325.799C1313.07 325.799 1308.76 324.672 1305.54 322.417C1302.35 320.144 1300.47 317.054 1299.92 313.148L1311.08 312.562C1311.42 314.213 1312.24 315.474 1313.53 316.344C1314.83 317.196 1316.49 317.623 1318.51 317.623C1320.5 317.623 1322.1 317.241 1323.31 316.477C1324.53 315.696 1325.15 314.693 1325.17 313.468C1325.15 312.438 1324.72 311.594 1323.87 310.938C1323.01 310.263 1321.7 309.748 1319.92 309.393L1312.84 307.981C1308.84 307.182 1305.87 305.797 1303.92 303.826C1301.98 301.855 1301.01 299.343 1301.01 296.289C1301.01 293.661 1301.72 291.397 1303.14 289.498C1304.58 287.598 1306.6 286.133 1309.19 285.103C1311.8 284.073 1314.85 283.558 1318.35 283.558C1323.52 283.558 1327.59 284.65 1330.55 286.834C1333.53 289.018 1335.27 291.992 1335.77 295.756Z" fill="#3D3D3D" fill-opacity="0.19"/>
<path d="M1051.14 100H1038.78L1057.61 45.4545H1072.48L1091.28 100H1078.92L1065.26 57.919H1064.83L1051.14 100ZM1050.37 78.56H1079.56V87.5621H1050.37V78.56ZM1102.13 100V59.0909H1113.13V66.2287H1113.56C1114.3 63.6896 1115.55 61.772 1117.31 60.4759C1119.07 59.1619 1121.09 58.505 1123.38 58.505C1123.95 58.505 1124.57 58.5405 1125.22 58.6115C1125.88 58.6825 1126.46 58.7802 1126.95 58.9045V68.9719C1126.42 68.8121 1125.68 68.6701 1124.74 68.5458C1123.8 68.4215 1122.94 68.3594 1122.16 68.3594C1120.49 68.3594 1119 68.7234 1117.69 69.4513C1116.39 70.1616 1115.36 71.1559 1114.6 72.4343C1113.85 73.7127 1113.48 75.1864 1113.48 76.8555V100H1102.13ZM1161.13 59.0909V67.6136H1136.49V59.0909H1161.13ZM1142.09 49.2898H1153.43V87.429C1153.43 88.4766 1153.59 89.2933 1153.91 89.8793C1154.23 90.4474 1154.68 90.8469 1155.24 91.0778C1155.83 91.3086 1156.5 91.424 1157.27 91.424C1157.8 91.424 1158.33 91.3796 1158.87 91.2908C1159.4 91.1843 1159.81 91.1044 1160.09 91.0511L1161.88 99.494C1161.31 99.6715 1160.51 99.8757 1159.48 100.107C1158.45 100.355 1157.2 100.506 1155.72 100.559C1152.99 100.666 1150.59 100.302 1148.53 99.4673C1146.49 98.6328 1144.9 97.3366 1143.77 95.5788C1142.63 93.821 1142.07 91.6016 1142.09 88.9205V49.2898ZM1173.02 100V59.0909H1184.37V100H1173.02ZM1178.72 53.8175C1177.03 53.8175 1175.59 53.2582 1174.38 52.1396C1173.19 51.0032 1172.59 49.6449 1172.59 48.0646C1172.59 46.5021 1173.19 45.1616 1174.38 44.043C1175.59 42.9066 1177.03 42.3384 1178.72 42.3384C1180.41 42.3384 1181.85 42.9066 1183.04 44.043C1184.24 45.1616 1184.85 46.5021 1184.85 48.0646C1184.85 49.6449 1184.24 51.0032 1183.04 52.1396C1181.85 53.2582 1180.41 53.8175 1178.72 53.8175ZM1216.44 100.799C1212.25 100.799 1208.64 99.9112 1205.63 98.1357C1202.63 96.3423 1200.32 93.8565 1198.7 90.6783C1197.1 87.5 1196.3 83.8423 1196.3 79.7053C1196.3 75.5149 1197.11 71.8395 1198.73 68.679C1200.36 65.5007 1202.68 63.0238 1205.68 61.2482C1208.68 59.4549 1212.25 58.5582 1216.39 58.5582C1219.95 58.5582 1223.08 59.2063 1225.76 60.5025C1228.44 61.7986 1230.56 63.6186 1232.13 65.9624C1233.69 68.3061 1234.55 71.0582 1234.71 74.2188H1224C1223.7 72.1768 1222.9 70.5344 1221.61 69.2915C1220.33 68.0309 1218.65 67.4006 1216.57 67.4006C1214.81 67.4006 1213.28 67.88 1211.96 68.8388C1210.67 69.7798 1209.66 71.1559 1208.93 72.967C1208.2 74.7781 1207.84 76.9709 1207.84 79.5455C1207.84 82.1555 1208.19 84.375 1208.9 86.2038C1209.63 88.0327 1210.65 89.4265 1211.96 90.3853C1213.28 91.3441 1214.81 91.8235 1216.57 91.8235C1217.87 91.8235 1219.03 91.5572 1220.06 91.0245C1221.11 90.4918 1221.97 89.7195 1222.64 88.7074C1223.34 87.6776 1223.79 86.4435 1224 85.0053H1234.71C1234.53 88.1303 1233.68 90.8825 1232.15 93.2617C1230.64 95.6232 1228.56 97.4698 1225.89 98.8015C1223.23 100.133 1220.08 100.799 1216.44 100.799ZM1257.82 45.4545V100H1246.47V45.4545H1257.82ZM1290.05 100.799C1285.84 100.799 1282.22 99.9467 1279.19 98.2422C1276.17 96.5199 1273.84 94.0874 1272.21 90.9446C1270.57 87.7841 1269.76 84.0465 1269.76 79.7319C1269.76 75.5238 1270.57 71.8306 1272.21 68.6523C1273.84 65.4741 1276.14 62.9972 1279.11 61.2216C1282.09 59.446 1285.59 58.5582 1289.6 58.5582C1292.3 58.5582 1294.81 58.9933 1297.14 59.8633C1299.48 60.7156 1301.52 62.0028 1303.26 63.7251C1305.02 65.4474 1306.39 67.6136 1307.36 70.2237C1308.34 72.8161 1308.83 75.8523 1308.83 79.3324V82.4485H1274.28V75.4173H1298.15C1298.15 73.7837 1297.79 72.3366 1297.08 71.076C1296.37 69.8153 1295.39 68.8299 1294.13 68.1197C1292.88 67.3917 1291.44 67.0277 1289.79 67.0277C1288.06 67.0277 1286.54 67.4272 1285.2 68.2262C1283.89 69.0075 1282.86 70.0639 1282.12 71.3956C1281.37 72.7095 1280.99 74.1744 1280.97 75.7901V82.4751C1280.97 84.4993 1281.34 86.2482 1282.09 87.7219C1282.85 89.1957 1283.93 90.332 1285.31 91.131C1286.7 91.93 1288.34 92.3295 1290.24 92.3295C1291.5 92.3295 1292.65 92.152 1293.7 91.7969C1294.75 91.4418 1295.65 90.9091 1296.39 90.1989C1297.14 89.4886 1297.7 88.6186 1298.1 87.5888L1308.59 88.2812C1308.06 90.8026 1306.96 93.0043 1305.31 94.8864C1303.68 96.7507 1301.57 98.2067 1298.97 99.2543C1296.4 100.284 1293.43 100.799 1290.05 100.799ZM1354.77 70.7564L1344.38 71.3956C1344.21 70.5078 1343.82 69.7088 1343.24 68.9986C1342.65 68.2706 1341.88 67.6935 1340.92 67.2674C1339.98 66.8235 1338.85 66.6016 1337.54 66.6016C1335.78 66.6016 1334.3 66.9744 1333.09 67.7202C1331.88 68.4482 1331.28 69.4247 1331.28 70.6499C1331.28 71.6264 1331.67 72.4521 1332.45 73.1268C1333.23 73.8015 1334.57 74.343 1336.47 74.7514L1343.88 76.2429C1347.85 77.0597 1350.82 78.3736 1352.77 80.1847C1354.73 81.9957 1355.7 84.375 1355.7 87.3224C1355.7 90.0036 1354.91 92.3562 1353.33 94.3803C1351.77 96.4045 1349.62 97.9847 1346.89 99.1211C1344.17 100.24 1341.04 100.799 1337.49 100.799C1332.07 100.799 1327.76 99.6715 1324.54 97.4165C1321.35 95.1438 1319.47 92.0543 1318.92 88.1481L1330.08 87.5621C1330.42 89.2134 1331.24 90.4741 1332.53 91.3441C1333.83 92.1964 1335.49 92.6225 1337.51 92.6225C1339.5 92.6225 1341.1 92.2408 1342.31 91.4773C1343.53 90.696 1344.15 89.6928 1344.17 88.4677C1344.15 87.4379 1343.72 86.5945 1342.87 85.9375C1342.01 85.2628 1340.7 84.7479 1338.92 84.3928L1331.84 82.9812C1327.84 82.1822 1324.87 80.7972 1322.92 78.8263C1320.98 76.8555 1320.01 74.343 1320.01 71.2891C1320.01 68.6612 1320.72 66.3974 1322.14 64.4975C1323.58 62.5977 1325.6 61.1328 1328.19 60.103C1330.8 59.0732 1333.85 58.5582 1337.35 58.5582C1342.52 58.5582 1346.59 59.6502 1349.55 61.8342C1352.53 64.0181 1354.27 66.9922 1354.77 70.7564Z" fill="#3D3D3D" fill-opacity="0.19"/>
<path d="M1204.14 219H1191.78L1210.61 164.455H1225.48L1244.28 219H1231.92L1218.26 176.919H1217.83L1204.14 219ZM1203.37 197.56H1232.56V206.562H1203.37V197.56ZM1255.13 219V178.091H1266.13V185.229H1266.56C1267.3 182.69 1268.55 180.772 1270.31 179.476C1272.07 178.162 1274.09 177.505 1276.38 177.505C1276.95 177.505 1277.57 177.54 1278.22 177.612C1278.88 177.683 1279.46 177.78 1279.95 177.904V187.972C1279.42 187.812 1278.68 187.67 1277.74 187.546C1276.8 187.422 1275.94 187.359 1275.16 187.359C1273.49 187.359 1272 187.723 1270.69 188.451C1269.39 189.162 1268.36 190.156 1267.6 191.434C1266.85 192.713 1266.48 194.186 1266.48 195.855V219H1255.13ZM1314.13 178.091V186.614H1289.49V178.091H1314.13ZM1295.09 168.29H1306.43V206.429C1306.43 207.477 1306.59 208.293 1306.91 208.879C1307.23 209.447 1307.68 209.847 1308.24 210.078C1308.83 210.309 1309.5 210.424 1310.27 210.424C1310.8 210.424 1311.33 210.38 1311.87 210.291C1312.4 210.184 1312.81 210.104 1313.09 210.051L1314.88 218.494C1314.31 218.672 1313.51 218.876 1312.48 219.107C1311.45 219.355 1310.2 219.506 1308.72 219.559C1305.99 219.666 1303.59 219.302 1301.53 218.467C1299.49 217.633 1297.9 216.337 1296.77 214.579C1295.63 212.821 1295.07 210.602 1295.09 207.92V168.29ZM1326.02 219V178.091H1337.37V219H1326.02ZM1331.72 172.817C1330.03 172.817 1328.59 172.258 1327.38 171.14C1326.19 170.003 1325.59 168.645 1325.59 167.065C1325.59 165.502 1326.19 164.162 1327.38 163.043C1328.59 161.907 1330.03 161.338 1331.72 161.338C1333.41 161.338 1334.85 161.907 1336.04 163.043C1337.24 164.162 1337.85 165.502 1337.85 167.065C1337.85 168.645 1337.24 170.003 1336.04 171.14C1334.85 172.258 1333.41 172.817 1331.72 172.817ZM1369.44 219.799C1365.25 219.799 1361.64 218.911 1358.63 217.136C1355.63 215.342 1353.32 212.857 1351.7 209.678C1350.1 206.5 1349.3 202.842 1349.3 198.705C1349.3 194.515 1350.11 190.839 1351.73 187.679C1353.36 184.501 1355.68 182.024 1358.68 180.248C1361.68 178.455 1365.25 177.558 1369.39 177.558C1372.95 177.558 1376.08 178.206 1378.76 179.502C1381.44 180.799 1383.56 182.619 1385.13 184.962C1386.69 187.306 1387.55 190.058 1387.71 193.219H1377C1376.7 191.177 1375.9 189.534 1374.61 188.292C1373.33 187.031 1371.65 186.401 1369.57 186.401C1367.81 186.401 1366.28 186.88 1364.96 187.839C1363.67 188.78 1362.66 190.156 1361.93 191.967C1361.2 193.778 1360.84 195.971 1360.84 198.545C1360.84 201.156 1361.19 203.375 1361.9 205.204C1362.63 207.033 1363.65 208.426 1364.96 209.385C1366.28 210.344 1367.81 210.824 1369.57 210.824C1370.87 210.824 1372.03 210.557 1373.06 210.025C1374.11 209.492 1374.97 208.719 1375.64 207.707C1376.34 206.678 1376.79 205.444 1377 204.005H1387.71C1387.53 207.13 1386.68 209.882 1385.15 212.262C1383.64 214.623 1381.56 216.47 1378.89 217.801C1376.23 219.133 1373.08 219.799 1369.44 219.799ZM1410.82 164.455V219H1399.47V164.455H1410.82ZM1443.05 219.799C1438.84 219.799 1435.22 218.947 1432.19 217.242C1429.17 215.52 1426.84 213.087 1425.21 209.945C1423.57 206.784 1422.76 203.047 1422.76 198.732C1422.76 194.524 1423.57 190.831 1425.21 187.652C1426.84 184.474 1429.14 181.997 1432.11 180.222C1435.09 178.446 1438.59 177.558 1442.6 177.558C1445.3 177.558 1447.81 177.993 1450.14 178.863C1452.48 179.716 1454.52 181.003 1456.26 182.725C1458.02 184.447 1459.39 186.614 1460.36 189.224C1461.34 191.816 1461.83 194.852 1461.83 198.332V201.449H1427.28V194.417H1451.15C1451.15 192.784 1450.79 191.337 1450.08 190.076C1449.37 188.815 1448.39 187.83 1447.13 187.12C1445.88 186.392 1444.44 186.028 1442.79 186.028C1441.06 186.028 1439.54 186.427 1438.2 187.226C1436.89 188.007 1435.86 189.064 1435.12 190.396C1434.37 191.71 1433.99 193.174 1433.97 194.79V201.475C1433.97 203.499 1434.34 205.248 1435.09 206.722C1435.85 208.196 1436.93 209.332 1438.31 210.131C1439.7 210.93 1441.34 211.33 1443.24 211.33C1444.5 211.33 1445.65 211.152 1446.7 210.797C1447.75 210.442 1448.65 209.909 1449.39 209.199C1450.14 208.489 1450.7 207.619 1451.1 206.589L1461.59 207.281C1461.06 209.803 1459.96 212.004 1458.31 213.886C1456.68 215.751 1454.57 217.207 1451.97 218.254C1449.4 219.284 1446.43 219.799 1443.05 219.799ZM1507.77 189.756L1497.38 190.396C1497.21 189.508 1496.82 188.709 1496.24 187.999C1495.65 187.271 1494.88 186.694 1493.92 186.267C1492.98 185.824 1491.85 185.602 1490.54 185.602C1488.78 185.602 1487.3 185.974 1486.09 186.72C1484.88 187.448 1484.28 188.425 1484.28 189.65C1484.28 190.626 1484.67 191.452 1485.45 192.127C1486.23 192.801 1487.57 193.343 1489.47 193.751L1496.88 195.243C1500.85 196.06 1503.82 197.374 1505.77 199.185C1507.73 200.996 1508.7 203.375 1508.7 206.322C1508.7 209.004 1507.91 211.356 1506.33 213.38C1504.77 215.404 1502.62 216.985 1499.89 218.121C1497.17 219.24 1494.04 219.799 1490.49 219.799C1485.07 219.799 1480.76 218.672 1477.54 216.417C1474.35 214.144 1472.47 211.054 1471.92 207.148L1483.08 206.562C1483.42 208.213 1484.24 209.474 1485.53 210.344C1486.83 211.196 1488.49 211.623 1490.51 211.623C1492.5 211.623 1494.1 211.241 1495.31 210.477C1496.53 209.696 1497.15 208.693 1497.17 207.468C1497.15 206.438 1496.72 205.594 1495.87 204.938C1495.01 204.263 1493.7 203.748 1491.92 203.393L1484.84 201.981C1480.84 201.182 1477.87 199.797 1475.92 197.826C1473.98 195.855 1473.01 193.343 1473.01 190.289C1473.01 187.661 1473.72 185.397 1475.14 183.498C1476.58 181.598 1478.6 180.133 1481.19 179.103C1483.8 178.073 1486.85 177.558 1490.35 177.558C1495.52 177.558 1499.59 178.65 1502.55 180.834C1505.53 183.018 1507.27 185.992 1507.77 189.756Z" fill="#3D3D3D" fill-opacity="0.19"/>
<path d="M1497.14 100H1484.78L1503.61 45.4545H1518.48L1537.28 100H1524.92L1511.26 57.919H1510.83L1497.14 100ZM1496.37 78.56H1525.56V87.5621H1496.37V78.56ZM1548.13 100V59.0909H1559.13V66.2287H1559.56C1560.3 63.6896 1561.55 61.772 1563.31 60.4759C1565.07 59.1619 1567.09 58.505 1569.38 58.505C1569.95 58.505 1570.57 58.5405 1571.22 58.6115C1571.88 58.6825 1572.46 58.7802 1572.95 58.9045V68.9719C1572.42 68.8121 1571.68 68.6701 1570.74 68.5458C1569.8 68.4215 1568.94 68.3594 1568.16 68.3594C1566.49 68.3594 1565 68.7234 1563.69 69.4513C1562.39 70.1616 1561.36 71.1559 1560.6 72.4343C1559.85 73.7127 1559.48 75.1864 1559.48 76.8555V100H1548.13ZM1607.13 59.0909V67.6136H1582.49V59.0909H1607.13ZM1588.09 49.2898H1599.43V87.429C1599.43 88.4766 1599.59 89.2933 1599.91 89.8793C1600.23 90.4474 1600.68 90.8469 1601.24 91.0778C1601.83 91.3086 1602.5 91.424 1603.27 91.424C1603.8 91.424 1604.33 91.3796 1604.87 91.2908C1605.4 91.1843 1605.81 91.1044 1606.09 91.0511L1607.88 99.494C1607.31 99.6715 1606.51 99.8757 1605.48 100.107C1604.45 100.355 1603.2 100.506 1601.72 100.559C1598.99 100.666 1596.59 100.302 1594.53 99.4673C1592.49 98.6328 1590.9 97.3366 1589.77 95.5788C1588.63 93.821 1588.07 91.6016 1588.09 88.9205V49.2898ZM1619.02 100V59.0909H1630.37V100H1619.02ZM1624.72 53.8175C1623.03 53.8175 1621.59 53.2582 1620.38 52.1396C1619.19 51.0032 1618.59 49.6449 1618.59 48.0646C1618.59 46.5021 1619.19 45.1616 1620.38 44.043C1621.59 42.9066 1623.03 42.3384 1624.72 42.3384C1626.41 42.3384 1627.85 42.9066 1629.04 44.043C1630.24 45.1616 1630.85 46.5021 1630.85 48.0646C1630.85 49.6449 1630.24 51.0032 1629.04 52.1396C1627.85 53.2582 1626.41 53.8175 1624.72 53.8175ZM1662.44 100.799C1658.25 100.799 1654.64 99.9112 1651.63 98.1357C1648.63 96.3423 1646.32 93.8565 1644.7 90.6783C1643.1 87.5 1642.3 83.8423 1642.3 79.7053C1642.3 75.5149 1643.11 71.8395 1644.73 68.679C1646.36 65.5007 1648.68 63.0238 1651.68 61.2482C1654.68 59.4549 1658.25 58.5582 1662.39 58.5582C1665.95 58.5582 1669.08 59.2063 1671.76 60.5025C1674.44 61.7986 1676.56 63.6186 1678.13 65.9624C1679.69 68.3061 1680.55 71.0582 1680.71 74.2188H1670C1669.7 72.1768 1668.9 70.5344 1667.61 69.2915C1666.33 68.0309 1664.65 67.4006 1662.57 67.4006C1660.81 67.4006 1659.28 67.88 1657.96 68.8388C1656.67 69.7798 1655.66 71.1559 1654.93 72.967C1654.2 74.7781 1653.84 76.9709 1653.84 79.5455C1653.84 82.1555 1654.19 84.375 1654.9 86.2038C1655.63 88.0327 1656.65 89.4265 1657.96 90.3853C1659.28 91.3441 1660.81 91.8235 1662.57 91.8235C1663.87 91.8235 1665.03 91.5572 1666.06 91.0245C1667.11 90.4918 1667.97 89.7195 1668.64 88.7074C1669.34 87.6776 1669.79 86.4435 1670 85.0053H1680.71C1680.53 88.1303 1679.68 90.8825 1678.15 93.2617C1676.64 95.6232 1674.56 97.4698 1671.89 98.8015C1669.23 100.133 1666.08 100.799 1662.44 100.799ZM1703.82 45.4545V100H1692.47V45.4545H1703.82ZM1736.05 100.799C1731.84 100.799 1728.22 99.9467 1725.19 98.2422C1722.17 96.5199 1719.84 94.0874 1718.21 90.9446C1716.57 87.7841 1715.76 84.0465 1715.76 79.7319C1715.76 75.5238 1716.57 71.8306 1718.21 68.6523C1719.84 65.4741 1722.14 62.9972 1725.11 61.2216C1728.09 59.446 1731.59 58.5582 1735.6 58.5582C1738.3 58.5582 1740.81 58.9933 1743.14 59.8633C1745.48 60.7156 1747.52 62.0028 1749.26 63.7251C1751.02 65.4474 1752.39 67.6136 1753.36 70.2237C1754.34 72.8161 1754.83 75.8523 1754.83 79.3324V82.4485H1720.28V75.4173H1744.15C1744.15 73.7837 1743.79 72.3366 1743.08 71.076C1742.37 69.8153 1741.39 68.8299 1740.13 68.1197C1738.88 67.3917 1737.44 67.0277 1735.79 67.0277C1734.06 67.0277 1732.54 67.4272 1731.2 68.2262C1729.89 69.0075 1728.86 70.0639 1728.12 71.3956C1727.37 72.7095 1726.99 74.1744 1726.97 75.7901V82.4751C1726.97 84.4993 1727.34 86.2482 1728.09 87.7219C1728.85 89.1957 1729.93 90.332 1731.31 91.131C1732.7 91.93 1734.34 92.3295 1736.24 92.3295C1737.5 92.3295 1738.65 92.152 1739.7 91.7969C1740.75 91.4418 1741.65 90.9091 1742.39 90.1989C1743.14 89.4886 1743.7 88.6186 1744.1 87.5888L1754.59 88.2812C1754.06 90.8026 1752.96 93.0043 1751.31 94.8864C1749.68 96.7507 1747.57 98.2067 1744.97 99.2543C1742.4 100.284 1739.43 100.799 1736.05 100.799ZM1800.77 70.7564L1790.38 71.3956C1790.21 70.5078 1789.82 69.7088 1789.24 68.9986C1788.65 68.2706 1787.88 67.6935 1786.92 67.2674C1785.98 66.8235 1784.85 66.6016 1783.54 66.6016C1781.78 66.6016 1780.3 66.9744 1779.09 67.7202C1777.88 68.4482 1777.28 69.4247 1777.28 70.6499C1777.28 71.6264 1777.67 72.4521 1778.45 73.1268C1779.23 73.8015 1780.57 74.343 1782.47 74.7514L1789.88 76.2429C1793.85 77.0597 1796.82 78.3736 1798.77 80.1847C1800.73 81.9957 1801.7 84.375 1801.7 87.3224C1801.7 90.0036 1800.91 92.3562 1799.33 94.3803C1797.77 96.4045 1795.62 97.9847 1792.89 99.1211C1790.17 100.24 1787.04 100.799 1783.49 100.799C1778.07 100.799 1773.76 99.6715 1770.54 97.4165C1767.35 95.1438 1765.47 92.0543 1764.92 88.1481L1776.08 87.5621C1776.42 89.2134 1777.24 90.4741 1778.53 91.3441C1779.83 92.1964 1781.49 92.6225 1783.51 92.6225C1785.5 92.6225 1787.1 92.2408 1788.31 91.4773C1789.53 90.696 1790.15 89.6928 1790.17 88.4677C1790.15 87.4379 1789.72 86.5945 1788.87 85.9375C1788.01 85.2628 1786.7 84.7479 1784.92 84.3928L1777.84 82.9812C1773.84 82.1822 1770.87 80.7972 1768.92 78.8263C1766.98 76.8555 1766.01 74.343 1766.01 71.2891C1766.01 68.6612 1766.72 66.3974 1768.14 64.4975C1769.58 62.5977 1771.6 61.1328 1774.19 60.103C1776.8 59.0732 1779.85 58.5582 1783.35 58.5582C1788.52 58.5582 1792.59 59.6502 1795.55 61.8342C1798.53 64.0181 1800.27 66.9922 1800.77 70.7564Z" fill="#3D3D3D" fill-opacity="0.19"/>
<path d="M1617.14 219H1604.78L1623.61 164.455H1638.48L1657.28 219H1644.92L1631.26 176.919H1630.83L1617.14 219ZM1616.37 197.56H1645.56V206.562H1616.37V197.56ZM1668.13 219V178.091H1679.13V185.229H1679.56C1680.3 182.69 1681.55 180.772 1683.31 179.476C1685.07 178.162 1687.09 177.505 1689.38 177.505C1689.95 177.505 1690.57 177.54 1691.22 177.612C1691.88 177.683 1692.46 177.78 1692.95 177.904V187.972C1692.42 187.812 1691.68 187.67 1690.74 187.546C1689.8 187.422 1688.94 187.359 1688.16 187.359C1686.49 187.359 1685 187.723 1683.69 188.451C1682.39 189.162 1681.36 190.156 1680.6 191.434C1679.85 192.713 1679.48 194.186 1679.48 195.855V219H1668.13ZM1727.13 178.091V186.614H1702.49V178.091H1727.13ZM1708.09 168.29H1719.43V206.429C1719.43 207.477 1719.59 208.293 1719.91 208.879C1720.23 209.447 1720.68 209.847 1721.24 210.078C1721.83 210.309 1722.5 210.424 1723.27 210.424C1723.8 210.424 1724.33 210.38 1724.87 210.291C1725.4 210.184 1725.81 210.104 1726.09 210.051L1727.88 218.494C1727.31 218.672 1726.51 218.876 1725.48 219.107C1724.45 219.355 1723.2 219.506 1721.72 219.559C1718.99 219.666 1716.59 219.302 1714.53 218.467C1712.49 217.633 1710.9 216.337 1709.77 214.579C1708.63 212.821 1708.07 210.602 1708.09 207.92V168.29ZM1739.02 219V178.091H1750.37V219H1739.02ZM1744.72 172.817C1743.03 172.817 1741.59 172.258 1740.38 171.14C1739.19 170.003 1738.59 168.645 1738.59 167.065C1738.59 165.502 1739.19 164.162 1740.38 163.043C1741.59 161.907 1743.03 161.338 1744.72 161.338C1746.41 161.338 1747.85 161.907 1749.04 163.043C1750.24 164.162 1750.85 165.502 1750.85 167.065C1750.85 168.645 1750.24 170.003 1749.04 171.14C1747.85 172.258 1746.41 172.817 1744.72 172.817ZM1782.44 219.799C1778.25 219.799 1774.64 218.911 1771.63 217.136C1768.63 215.342 1766.32 212.857 1764.7 209.678C1763.1 206.5 1762.3 202.842 1762.3 198.705C1762.3 194.515 1763.11 190.839 1764.73 187.679C1766.36 184.501 1768.68 182.024 1771.68 180.248C1774.68 178.455 1778.25 177.558 1782.39 177.558C1785.95 177.558 1789.08 178.206 1791.76 179.502C1794.44 180.799 1796.56 182.619 1798.13 184.962C1799.69 187.306 1800.55 190.058 1800.71 193.219H1790C1789.7 191.177 1788.9 189.534 1787.61 188.292C1786.33 187.031 1784.65 186.401 1782.57 186.401C1780.81 186.401 1779.28 186.88 1777.96 187.839C1776.67 188.78 1775.66 190.156 1774.93 191.967C1774.2 193.778 1773.84 195.971 1773.84 198.545C1773.84 201.156 1774.19 203.375 1774.9 205.204C1775.63 207.033 1776.65 208.426 1777.96 209.385C1779.28 210.344 1780.81 210.824 1782.57 210.824C1783.87 210.824 1785.03 210.557 1786.06 210.025C1787.11 209.492 1787.97 208.719 1788.64 207.707C1789.34 206.678 1789.79 205.444 1790 204.005H1800.71C1800.53 207.13 1799.68 209.882 1798.15 212.262C1796.64 214.623 1794.56 216.47 1791.89 217.801C1789.23 219.133 1786.08 219.799 1782.44 219.799ZM1823.82 164.455V219H1812.47V164.455H1823.82ZM1856.05 219.799C1851.84 219.799 1848.22 218.947 1845.19 217.242C1842.17 215.52 1839.84 213.087 1838.21 209.945C1836.57 206.784 1835.76 203.047 1835.76 198.732C1835.76 194.524 1836.57 190.831 1838.21 187.652C1839.84 184.474 1842.14 181.997 1845.11 180.222C1848.09 178.446 1851.59 177.558 1855.6 177.558C1858.3 177.558 1860.81 177.993 1863.14 178.863C1865.48 179.716 1867.52 181.003 1869.26 182.725C1871.02 184.447 1872.39 186.614 1873.36 189.224C1874.34 191.816 1874.83 194.852 1874.83 198.332V201.449H1840.28V194.417H1864.15C1864.15 192.784 1863.79 191.337 1863.08 190.076C1862.37 188.815 1861.39 187.83 1860.13 187.12C1858.88 186.392 1857.44 186.028 1855.79 186.028C1854.06 186.028 1852.54 186.427 1851.2 187.226C1849.89 188.007 1848.86 189.064 1848.12 190.396C1847.37 191.71 1846.99 193.174 1846.97 194.79V201.475C1846.97 203.499 1847.34 205.248 1848.09 206.722C1848.85 208.196 1849.93 209.332 1851.31 210.131C1852.7 210.93 1854.34 211.33 1856.24 211.33C1857.5 211.33 1858.65 211.152 1859.7 210.797C1860.75 210.442 1861.65 209.909 1862.39 209.199C1863.14 208.489 1863.7 207.619 1864.1 206.589L1874.59 207.281C1874.06 209.803 1872.96 212.004 1871.31 213.886C1869.68 215.751 1867.57 217.207 1864.97 218.254C1862.4 219.284 1859.43 219.799 1856.05 219.799ZM1920.77 189.756L1910.38 190.396C1910.21 189.508 1909.82 188.709 1909.24 187.999C1908.65 187.271 1907.88 186.694 1906.92 186.267C1905.98 185.824 1904.85 185.602 1903.54 185.602C1901.78 185.602 1900.3 185.974 1899.09 186.72C1897.88 187.448 1897.28 188.425 1897.28 189.65C1897.28 190.626 1897.67 191.452 1898.45 192.127C1899.23 192.801 1900.57 193.343 1902.47 193.751L1909.88 195.243C1913.85 196.06 1916.82 197.374 1918.77 199.185C1920.73 200.996 1921.7 203.375 1921.7 206.322C1921.7 209.004 1920.91 211.356 1919.33 213.38C1917.77 215.404 1915.62 216.985 1912.89 218.121C1910.17 219.24 1907.04 219.799 1903.49 219.799C1898.07 219.799 1893.76 218.672 1890.54 216.417C1887.35 214.144 1885.47 211.054 1884.92 207.148L1896.08 206.562C1896.42 208.213 1897.24 209.474 1898.53 210.344C1899.83 211.196 1901.49 211.623 1903.51 211.623C1905.5 211.623 1907.1 211.241 1908.31 210.477C1909.53 209.696 1910.15 208.693 1910.17 207.468C1910.15 206.438 1909.72 205.594 1908.87 204.938C1908.01 204.263 1906.7 203.748 1904.92 203.393L1897.84 201.981C1893.84 201.182 1890.87 199.797 1888.92 197.826C1886.98 195.855 1886.01 193.343 1886.01 190.289C1886.01 187.661 1886.72 185.397 1888.14 183.498C1889.58 181.598 1891.6 180.133 1894.19 179.103C1896.8 178.073 1899.85 177.558 1903.35 177.558C1908.52 177.558 1912.59 178.65 1915.55 180.834C1918.53 183.018 1920.27 185.992 1920.77 189.756Z" fill="#3D3D3D" fill-opacity="0.19"/>
<path d="M1450.14 326H1437.78L1456.61 271.455H1471.48L1490.28 326H1477.92L1464.26 283.919H1463.83L1450.14 326ZM1449.37 304.56H1478.56V313.562H1449.37V304.56ZM1501.13 326V285.091H1512.13V292.229H1512.56C1513.3 289.69 1514.55 287.772 1516.31 286.476C1518.07 285.162 1520.09 284.505 1522.38 284.505C1522.95 284.505 1523.57 284.54 1524.22 284.612C1524.88 284.683 1525.46 284.78 1525.95 284.904V294.972C1525.42 294.812 1524.68 294.67 1523.74 294.546C1522.8 294.422 1521.94 294.359 1521.16 294.359C1519.49 294.359 1518 294.723 1516.69 295.451C1515.39 296.162 1514.36 297.156 1513.6 298.434C1512.85 299.713 1512.48 301.186 1512.48 302.855V326H1501.13ZM1560.13 285.091V293.614H1535.49V285.091H1560.13ZM1541.09 275.29H1552.43V313.429C1552.43 314.477 1552.59 315.293 1552.91 315.879C1553.23 316.447 1553.68 316.847 1554.24 317.078C1554.83 317.309 1555.5 317.424 1556.27 317.424C1556.8 317.424 1557.33 317.38 1557.87 317.291C1558.4 317.184 1558.81 317.104 1559.09 317.051L1560.88 325.494C1560.31 325.672 1559.51 325.876 1558.48 326.107C1557.45 326.355 1556.2 326.506 1554.72 326.559C1551.99 326.666 1549.59 326.302 1547.53 325.467C1545.49 324.633 1543.9 323.337 1542.77 321.579C1541.63 319.821 1541.07 317.602 1541.09 314.92V275.29ZM1572.02 326V285.091H1583.37V326H1572.02ZM1577.72 279.817C1576.03 279.817 1574.59 279.258 1573.38 278.14C1572.19 277.003 1571.59 275.645 1571.59 274.065C1571.59 272.502 1572.19 271.162 1573.38 270.043C1574.59 268.907 1576.03 268.338 1577.72 268.338C1579.41 268.338 1580.85 268.907 1582.04 270.043C1583.24 271.162 1583.85 272.502 1583.85 274.065C1583.85 275.645 1583.24 277.003 1582.04 278.14C1580.85 279.258 1579.41 279.817 1577.72 279.817ZM1615.44 326.799C1611.25 326.799 1607.64 325.911 1604.63 324.136C1601.63 322.342 1599.32 319.857 1597.7 316.678C1596.1 313.5 1595.3 309.842 1595.3 305.705C1595.3 301.515 1596.11 297.839 1597.73 294.679C1599.36 291.501 1601.68 289.024 1604.68 287.248C1607.68 285.455 1611.25 284.558 1615.39 284.558C1618.95 284.558 1622.08 285.206 1624.76 286.502C1627.44 287.799 1629.56 289.619 1631.13 291.962C1632.69 294.306 1633.55 297.058 1633.71 300.219H1623C1622.7 298.177 1621.9 296.534 1620.61 295.292C1619.33 294.031 1617.65 293.401 1615.57 293.401C1613.81 293.401 1612.28 293.88 1610.96 294.839C1609.67 295.78 1608.66 297.156 1607.93 298.967C1607.2 300.778 1606.84 302.971 1606.84 305.545C1606.84 308.156 1607.19 310.375 1607.9 312.204C1608.63 314.033 1609.65 315.426 1610.96 316.385C1612.28 317.344 1613.81 317.824 1615.57 317.824C1616.87 317.824 1618.03 317.557 1619.06 317.025C1620.11 316.492 1620.97 315.719 1621.64 314.707C1622.34 313.678 1622.79 312.444 1623 311.005H1633.71C1633.53 314.13 1632.68 316.882 1631.15 319.262C1629.64 321.623 1627.56 323.47 1624.89 324.801C1622.23 326.133 1619.08 326.799 1615.44 326.799ZM1656.82 271.455V326H1645.47V271.455H1656.82ZM1689.05 326.799C1684.84 326.799 1681.22 325.947 1678.19 324.242C1675.17 322.52 1672.84 320.087 1671.21 316.945C1669.57 313.784 1668.76 310.047 1668.76 305.732C1668.76 301.524 1669.57 297.831 1671.21 294.652C1672.84 291.474 1675.14 288.997 1678.11 287.222C1681.09 285.446 1684.59 284.558 1688.6 284.558C1691.3 284.558 1693.81 284.993 1696.14 285.863C1698.48 286.716 1700.52 288.003 1702.26 289.725C1704.02 291.447 1705.39 293.614 1706.36 296.224C1707.34 298.816 1707.83 301.852 1707.83 305.332V308.449H1673.28V301.417H1697.15C1697.15 299.784 1696.79 298.337 1696.08 297.076C1695.37 295.815 1694.39 294.83 1693.13 294.12C1691.88 293.392 1690.44 293.028 1688.79 293.028C1687.06 293.028 1685.54 293.427 1684.2 294.226C1682.89 295.007 1681.86 296.064 1681.12 297.396C1680.37 298.71 1679.99 300.174 1679.97 301.79V308.475C1679.97 310.499 1680.34 312.248 1681.09 313.722C1681.85 315.196 1682.93 316.332 1684.31 317.131C1685.7 317.93 1687.34 318.33 1689.24 318.33C1690.5 318.33 1691.65 318.152 1692.7 317.797C1693.75 317.442 1694.65 316.909 1695.39 316.199C1696.14 315.489 1696.7 314.619 1697.1 313.589L1707.59 314.281C1707.06 316.803 1705.96 319.004 1704.31 320.886C1702.68 322.751 1700.57 324.207 1697.97 325.254C1695.4 326.284 1692.43 326.799 1689.05 326.799ZM1753.77 296.756L1743.38 297.396C1743.21 296.508 1742.82 295.709 1742.24 294.999C1741.65 294.271 1740.88 293.694 1739.92 293.267C1738.98 292.824 1737.85 292.602 1736.54 292.602C1734.78 292.602 1733.3 292.974 1732.09 293.72C1730.88 294.448 1730.28 295.425 1730.28 296.65C1730.28 297.626 1730.67 298.452 1731.45 299.127C1732.23 299.801 1733.57 300.343 1735.47 300.751L1742.88 302.243C1746.85 303.06 1749.82 304.374 1751.77 306.185C1753.73 307.996 1754.7 310.375 1754.7 313.322C1754.7 316.004 1753.91 318.356 1752.33 320.38C1750.77 322.404 1748.62 323.985 1745.89 325.121C1743.17 326.24 1740.04 326.799 1736.49 326.799C1731.07 326.799 1726.76 325.672 1723.54 323.417C1720.35 321.144 1718.47 318.054 1717.92 314.148L1729.08 313.562C1729.42 315.213 1730.24 316.474 1731.53 317.344C1732.83 318.196 1734.49 318.623 1736.51 318.623C1738.5 318.623 1740.1 318.241 1741.31 317.477C1742.53 316.696 1743.15 315.693 1743.17 314.468C1743.15 313.438 1742.72 312.594 1741.87 311.938C1741.01 311.263 1739.7 310.748 1737.92 310.393L1730.84 308.981C1726.84 308.182 1723.87 306.797 1721.92 304.826C1719.98 302.855 1719.01 300.343 1719.01 297.289C1719.01 294.661 1719.72 292.397 1721.14 290.498C1722.58 288.598 1724.6 287.133 1727.19 286.103C1729.8 285.073 1732.85 284.558 1736.35 284.558C1741.52 284.558 1745.59 285.65 1748.55 287.834C1751.53 290.018 1753.27 292.992 1753.77 296.756Z" fill="#3D3D3D" fill-opacity="0.19"/>
<path d="M14.1424 113H1.78445L20.6143 58.4545H35.4759L54.2791 113H41.9212L28.2582 70.919H27.832L14.1424 113ZM13.37 91.56H42.5604V100.562H13.37V91.56ZM65.1312 113V72.0909H76.1309V79.2287H76.557C77.3027 76.6896 78.5545 74.772 80.3123 73.4759C82.0701 72.1619 84.0943 71.505 86.3848 71.505C86.9529 71.505 87.5655 71.5405 88.2225 71.6115C88.8794 71.6825 89.4565 71.7802 89.9537 71.9045V81.9719C89.421 81.8121 88.6841 81.6701 87.7431 81.5458C86.802 81.4215 85.9409 81.3594 85.1596 81.3594C83.4906 81.3594 81.9991 81.7234 80.6852 82.4513C79.389 83.1616 78.3592 84.1559 77.5957 85.4343C76.85 86.7127 76.4771 88.1864 76.4771 89.8555V113H65.1312ZM124.13 72.0909V80.6136H99.4941V72.0909H124.13ZM105.087 62.2898H116.433V100.429C116.433 101.477 116.593 102.293 116.912 102.879C117.232 103.447 117.676 103.847 118.244 104.078C118.83 104.309 119.505 104.424 120.268 104.424C120.801 104.424 121.334 104.38 121.866 104.291C122.399 104.184 122.807 104.104 123.091 104.051L124.876 112.494C124.308 112.672 123.509 112.876 122.479 113.107C121.449 113.355 120.197 113.506 118.723 113.559C115.989 113.666 113.592 113.302 111.532 112.467C109.491 111.633 107.901 110.337 106.765 108.579C105.629 106.821 105.069 104.602 105.087 101.92V62.2898ZM136.021 113V72.0909H147.367V113H136.021ZM141.72 66.8175C140.034 66.8175 138.587 66.2582 137.379 65.1396C136.19 64.0032 135.595 62.6449 135.595 61.0646C135.595 59.5021 136.19 58.1616 137.379 57.043C138.587 55.9066 140.034 55.3384 141.72 55.3384C143.407 55.3384 144.845 55.9066 146.035 57.043C147.242 58.1616 147.846 59.5021 147.846 61.0646C147.846 62.6449 147.242 64.0032 146.035 65.1396C144.845 66.2582 143.407 66.8175 141.72 66.8175ZM179.439 113.799C175.249 113.799 171.644 112.911 168.626 111.136C165.625 109.342 163.317 106.857 161.701 103.678C160.103 100.5 159.304 96.8423 159.304 92.7053C159.304 88.5149 160.112 84.8395 161.728 81.679C163.361 78.5007 165.678 76.0238 168.679 74.2482C171.68 72.4549 175.249 71.5582 179.386 71.5582C182.955 71.5582 186.08 72.2063 188.761 73.5025C191.442 74.7986 193.564 76.6186 195.126 78.9624C196.689 81.3061 197.55 84.0582 197.71 87.2188H187.003C186.701 85.1768 185.902 83.5344 184.606 82.2915C183.328 81.0309 181.65 80.4006 179.572 80.4006C177.814 80.4006 176.279 80.88 174.965 81.8388C173.669 82.7798 172.656 84.1559 171.928 85.967C171.2 87.7781 170.836 89.9709 170.836 92.5455C170.836 95.1555 171.192 97.375 171.902 99.2038C172.63 101.033 173.651 102.426 174.965 103.385C176.279 104.344 177.814 104.824 179.572 104.824C180.868 104.824 182.031 104.557 183.061 104.025C184.109 103.492 184.97 102.719 185.645 101.707C186.337 100.678 186.79 99.4435 187.003 98.0053H197.71C197.532 101.13 196.68 103.882 195.153 106.262C193.644 108.623 191.557 110.47 188.894 111.801C186.231 113.133 183.079 113.799 179.439 113.799ZM220.82 58.4545V113H209.474V58.4545H220.82ZM253.052 113.799C248.844 113.799 245.222 112.947 242.186 111.242C239.167 109.52 236.841 107.087 235.208 103.945C233.574 100.784 232.757 97.0465 232.757 92.7319C232.757 88.5238 233.574 84.8306 235.208 81.6523C236.841 78.4741 239.14 75.9972 242.106 74.2216C245.089 72.446 248.586 71.5582 252.599 71.5582C255.298 71.5582 257.811 71.9933 260.137 72.8633C262.48 73.7156 264.522 75.0028 266.262 76.7251C268.02 78.4474 269.387 80.6136 270.364 83.2237C271.34 85.8161 271.829 88.8523 271.829 92.3324V95.4485H237.285V88.4173H261.149C261.149 86.7837 260.794 85.3366 260.083 84.076C259.373 82.8153 258.388 81.8299 257.127 81.1197C255.884 80.3917 254.437 80.0277 252.786 80.0277C251.063 80.0277 249.536 80.4272 248.205 81.2262C246.891 82.0075 245.861 83.0639 245.115 84.3956C244.369 85.7095 243.988 87.1744 243.97 88.7901V95.4751C243.97 97.4993 244.343 99.2482 245.089 100.722C245.852 102.196 246.926 103.332 248.311 104.131C249.696 104.93 251.339 105.33 253.238 105.33C254.499 105.33 255.653 105.152 256.701 104.797C257.748 104.442 258.645 103.909 259.391 103.199C260.137 102.489 260.705 101.619 261.095 100.589L271.589 101.281C271.056 103.803 269.964 106.004 268.313 107.886C266.68 109.751 264.567 111.207 261.974 112.254C259.4 113.284 256.426 113.799 253.052 113.799ZM317.77 83.7564L307.383 84.3956C307.206 83.5078 306.824 82.7088 306.238 81.9986C305.652 81.2706 304.88 80.6935 303.921 80.2674C302.98 79.8235 301.852 79.6016 300.539 79.6016C298.781 79.6016 297.298 79.9744 296.091 80.7202C294.883 81.4482 294.28 82.4247 294.28 83.6499C294.28 84.6264 294.67 85.4521 295.452 86.1268C296.233 86.8015 297.573 87.343 299.473 87.7514L306.877 89.2429C310.855 90.0597 313.82 91.3736 315.773 93.1847C317.726 94.9957 318.703 97.375 318.703 100.322C318.703 103.004 317.912 105.356 316.332 107.38C314.77 109.404 312.621 110.985 309.887 112.121C307.17 113.24 304.036 113.799 300.485 113.799C295.07 113.799 290.755 112.672 287.541 110.417C284.345 108.144 282.472 105.054 281.922 101.148L293.081 100.562C293.419 102.213 294.235 103.474 295.531 104.344C296.828 105.196 298.488 105.623 300.512 105.623C302.501 105.623 304.099 105.241 305.306 104.477C306.531 103.696 307.153 102.693 307.17 101.468C307.153 100.438 306.718 99.5945 305.865 98.9375C305.013 98.2628 303.699 97.7479 301.923 97.3928L294.839 95.9812C290.844 95.1822 287.87 93.7972 285.917 91.8263C283.981 89.8555 283.014 87.343 283.014 84.2891C283.014 81.6612 283.724 79.3974 285.144 77.4975C286.583 75.5977 288.598 74.1328 291.19 73.103C293.8 72.0732 296.854 71.5582 300.352 71.5582C305.519 71.5582 309.585 72.6502 312.55 74.8342C315.533 77.0181 317.273 79.9922 317.77 83.7564Z" fill="#3D3D3D" fill-opacity="0.19"/>
<path d="M523.142 325H510.784L529.614 270.455H544.476L563.279 325H550.921L537.258 282.919H536.832L523.142 325ZM522.37 303.56H551.56V312.562H522.37V303.56ZM574.131 325V284.091H585.131V291.229H585.557C586.303 288.69 587.555 286.772 589.312 285.476C591.07 284.162 593.094 283.505 595.385 283.505C595.953 283.505 596.566 283.54 597.222 283.612C597.879 283.683 598.456 283.78 598.954 283.904V293.972C598.421 293.812 597.684 293.67 596.743 293.546C595.802 293.422 594.941 293.359 594.16 293.359C592.491 293.359 590.999 293.723 589.685 294.451C588.389 295.162 587.359 296.156 586.596 297.434C585.85 298.713 585.477 300.186 585.477 301.855V325H574.131ZM633.13 284.091V292.614H608.494V284.091H633.13ZM614.087 274.29H625.433V312.429C625.433 313.477 625.593 314.293 625.912 314.879C626.232 315.447 626.676 315.847 627.244 316.078C627.83 316.309 628.505 316.424 629.268 316.424C629.801 316.424 630.334 316.38 630.866 316.291C631.399 316.184 631.807 316.104 632.091 316.051L633.876 324.494C633.308 324.672 632.509 324.876 631.479 325.107C630.449 325.355 629.197 325.506 627.723 325.559C624.989 325.666 622.592 325.302 620.532 324.467C618.491 323.633 616.901 322.337 615.765 320.579C614.629 318.821 614.069 316.602 614.087 313.92V274.29ZM645.021 325V284.091H656.367V325H645.021ZM650.72 278.817C649.034 278.817 647.587 278.258 646.379 277.14C645.19 276.003 644.595 274.645 644.595 273.065C644.595 271.502 645.19 270.162 646.379 269.043C647.587 267.907 649.034 267.338 650.72 267.338C652.407 267.338 653.845 267.907 655.035 269.043C656.242 270.162 656.846 271.502 656.846 273.065C656.846 274.645 656.242 276.003 655.035 277.14C653.845 278.258 652.407 278.817 650.72 278.817ZM688.439 325.799C684.249 325.799 680.644 324.911 677.626 323.136C674.625 321.342 672.317 318.857 670.701 315.678C669.103 312.5 668.304 308.842 668.304 304.705C668.304 300.515 669.112 296.839 670.728 293.679C672.361 290.501 674.678 288.024 677.679 286.248C680.68 284.455 684.249 283.558 688.386 283.558C691.955 283.558 695.08 284.206 697.761 285.502C700.442 286.799 702.564 288.619 704.126 290.962C705.689 293.306 706.55 296.058 706.71 299.219H696.003C695.701 297.177 694.902 295.534 693.606 294.292C692.328 293.031 690.65 292.401 688.572 292.401C686.814 292.401 685.279 292.88 683.965 293.839C682.669 294.78 681.656 296.156 680.928 297.967C680.2 299.778 679.836 301.971 679.836 304.545C679.836 307.156 680.192 309.375 680.902 311.204C681.63 313.033 682.651 314.426 683.965 315.385C685.279 316.344 686.814 316.824 688.572 316.824C689.868 316.824 691.031 316.557 692.061 316.025C693.109 315.492 693.97 314.719 694.645 313.707C695.337 312.678 695.79 311.444 696.003 310.005H706.71C706.532 313.13 705.68 315.882 704.153 318.262C702.644 320.623 700.557 322.47 697.894 323.801C695.231 325.133 692.079 325.799 688.439 325.799ZM729.82 270.455V325H718.474V270.455H729.82ZM762.052 325.799C757.844 325.799 754.222 324.947 751.186 323.242C748.167 321.52 745.841 319.087 744.208 315.945C742.574 312.784 741.757 309.047 741.757 304.732C741.757 300.524 742.574 296.831 744.208 293.652C745.841 290.474 748.14 287.997 751.106 286.222C754.089 284.446 757.586 283.558 761.599 283.558C764.298 283.558 766.811 283.993 769.137 284.863C771.48 285.716 773.522 287.003 775.262 288.725C777.02 290.447 778.387 292.614 779.364 295.224C780.34 297.816 780.829 300.852 780.829 304.332V307.449H746.285V300.417H770.149C770.149 298.784 769.794 297.337 769.083 296.076C768.373 294.815 767.388 293.83 766.127 293.12C764.884 292.392 763.437 292.028 761.786 292.028C760.063 292.028 758.536 292.427 757.205 293.226C755.891 294.007 754.861 295.064 754.115 296.396C753.369 297.71 752.988 299.174 752.97 300.79V307.475C752.97 309.499 753.343 311.248 754.089 312.722C754.852 314.196 755.926 315.332 757.311 316.131C758.696 316.93 760.339 317.33 762.238 317.33C763.499 317.33 764.653 317.152 765.701 316.797C766.748 316.442 767.645 315.909 768.391 315.199C769.137 314.489 769.705 313.619 770.095 312.589L780.589 313.281C780.056 315.803 778.964 318.004 777.313 319.886C775.68 321.751 773.567 323.207 770.974 324.254C768.4 325.284 765.426 325.799 762.052 325.799ZM826.77 295.756L816.383 296.396C816.206 295.508 815.824 294.709 815.238 293.999C814.652 293.271 813.88 292.694 812.921 292.267C811.98 291.824 810.852 291.602 809.539 291.602C807.781 291.602 806.298 291.974 805.091 292.72C803.883 293.448 803.28 294.425 803.28 295.65C803.28 296.626 803.67 297.452 804.452 298.127C805.233 298.801 806.573 299.343 808.473 299.751L815.877 301.243C819.855 302.06 822.82 303.374 824.773 305.185C826.726 306.996 827.703 309.375 827.703 312.322C827.703 315.004 826.912 317.356 825.332 319.38C823.77 321.404 821.621 322.985 818.887 324.121C816.17 325.24 813.036 325.799 809.485 325.799C804.07 325.799 799.755 324.672 796.541 322.417C793.345 320.144 791.472 317.054 790.922 313.148L802.081 312.562C802.419 314.213 803.235 315.474 804.531 316.344C805.828 317.196 807.488 317.623 809.512 317.623C811.501 317.623 813.099 317.241 814.306 316.477C815.531 315.696 816.153 314.693 816.17 313.468C816.153 312.438 815.718 311.594 814.865 310.938C814.013 310.263 812.699 309.748 810.923 309.393L803.839 307.981C799.844 307.182 796.87 305.797 794.917 303.826C792.981 301.855 792.014 299.343 792.014 296.289C792.014 293.661 792.724 291.397 794.144 289.498C795.583 287.598 797.598 286.133 800.19 285.103C802.8 284.073 805.854 283.558 809.352 283.558C814.519 283.558 818.585 284.65 821.55 286.834C824.533 289.018 826.273 291.992 826.77 295.756Z" fill="#3D3D3D" fill-opacity="0.19"/>
<path d="M759.142 219H746.784L765.614 164.455H780.476L799.279 219H786.921L773.258 176.919H772.832L759.142 219ZM758.37 197.56H787.56V206.562H758.37V197.56ZM810.131 219V178.091H821.131V185.229H821.557C822.303 182.69 823.555 180.772 825.312 179.476C827.07 178.162 829.094 177.505 831.385 177.505C831.953 177.505 832.566 177.54 833.222 177.612C833.879 177.683 834.456 177.78 834.954 177.904V187.972C834.421 187.812 833.684 187.67 832.743 187.546C831.802 187.422 830.941 187.359 830.16 187.359C828.491 187.359 826.999 187.723 825.685 188.451C824.389 189.162 823.359 190.156 822.596 191.434C821.85 192.713 821.477 194.186 821.477 195.855V219H810.131ZM869.13 178.091V186.614H844.494V178.091H869.13ZM850.087 168.29H861.433V206.429C861.433 207.477 861.593 208.293 861.912 208.879C862.232 209.447 862.676 209.847 863.244 210.078C863.83 210.309 864.505 210.424 865.268 210.424C865.801 210.424 866.334 210.38 866.866 210.291C867.399 210.184 867.807 210.104 868.091 210.051L869.876 218.494C869.308 218.672 868.509 218.876 867.479 219.107C866.449 219.355 865.197 219.506 863.723 219.559C860.989 219.666 858.592 219.302 856.532 218.467C854.491 217.633 852.901 216.337 851.765 214.579C850.629 212.821 850.069 210.602 850.087 207.92V168.29ZM881.021 219V178.091H892.367V219H881.021ZM886.72 172.817C885.034 172.817 883.587 172.258 882.379 171.14C881.19 170.003 880.595 168.645 880.595 167.065C880.595 165.502 881.19 164.162 882.379 163.043C883.587 161.907 885.034 161.338 886.72 161.338C888.407 161.338 889.845 161.907 891.035 163.043C892.242 164.162 892.846 165.502 892.846 167.065C892.846 168.645 892.242 170.003 891.035 171.14C889.845 172.258 888.407 172.817 886.72 172.817ZM924.439 219.799C920.249 219.799 916.644 218.911 913.626 217.136C910.625 215.342 908.317 212.857 906.701 209.678C905.103 206.5 904.304 202.842 904.304 198.705C904.304 194.515 905.112 190.839 906.728 187.679C908.361 184.501 910.678 182.024 913.679 180.248C916.68 178.455 920.249 177.558 924.386 177.558C927.955 177.558 931.08 178.206 933.761 179.502C936.442 180.799 938.564 182.619 940.126 184.962C941.689 187.306 942.55 190.058 942.71 193.219H932.003C931.701 191.177 930.902 189.534 929.606 188.292C928.328 187.031 926.65 186.401 924.572 186.401C922.814 186.401 921.279 186.88 919.965 187.839C918.669 188.78 917.656 190.156 916.928 191.967C916.2 193.778 915.836 195.971 915.836 198.545C915.836 201.156 916.192 203.375 916.902 205.204C917.63 207.033 918.651 208.426 919.965 209.385C921.279 210.344 922.814 210.824 924.572 210.824C925.868 210.824 927.031 210.557 928.061 210.025C929.109 209.492 929.97 208.719 930.645 207.707C931.337 206.678 931.79 205.444 932.003 204.005H942.71C942.532 207.13 941.68 209.882 940.153 212.262C938.644 214.623 936.557 216.47 933.894 217.801C931.231 219.133 928.079 219.799 924.439 219.799ZM965.82 164.455V219H954.474V164.455H965.82ZM998.052 219.799C993.844 219.799 990.222 218.947 987.186 217.242C984.167 215.52 981.841 213.087 980.208 209.945C978.574 206.784 977.757 203.047 977.757 198.732C977.757 194.524 978.574 190.831 980.208 187.652C981.841 184.474 984.14 181.997 987.106 180.222C990.089 178.446 993.586 177.558 997.599 177.558C1000.3 177.558 1002.81 177.993 1005.14 178.863C1007.48 179.716 1009.52 181.003 1011.26 182.725C1013.02 184.447 1014.39 186.614 1015.36 189.224C1016.34 191.816 1016.83 194.852 1016.83 198.332V201.449H982.285V194.417H1006.15C1006.15 192.784 1005.79 191.337 1005.08 190.076C1004.37 188.815 1003.39 187.83 1002.13 187.12C1000.88 186.392 999.437 186.028 997.786 186.028C996.063 186.028 994.536 186.427 993.205 187.226C991.891 188.007 990.861 189.064 990.115 190.396C989.369 191.71 988.988 193.174 988.97 194.79V201.475C988.97 203.499 989.343 205.248 990.089 206.722C990.852 208.196 991.926 209.332 993.311 210.131C994.696 210.93 996.339 211.33 998.238 211.33C999.499 211.33 1000.65 211.152 1001.7 210.797C1002.75 210.442 1003.65 209.909 1004.39 209.199C1005.14 208.489 1005.7 207.619 1006.1 206.589L1016.59 207.281C1016.06 209.803 1014.96 212.004 1013.31 213.886C1011.68 215.751 1009.57 217.207 1006.97 218.254C1004.4 219.284 1001.43 219.799 998.052 219.799ZM1062.77 189.756L1052.38 190.396C1052.21 189.508 1051.82 188.709 1051.24 187.999C1050.65 187.271 1049.88 186.694 1048.92 186.267C1047.98 185.824 1046.85 185.602 1045.54 185.602C1043.78 185.602 1042.3 185.974 1041.09 186.72C1039.88 187.448 1039.28 188.425 1039.28 189.65C1039.28 190.626 1039.67 191.452 1040.45 192.127C1041.23 192.801 1042.57 193.343 1044.47 193.751L1051.88 195.243C1055.85 196.06 1058.82 197.374 1060.77 199.185C1062.73 200.996 1063.7 203.375 1063.7 206.322C1063.7 209.004 1062.91 211.356 1061.33 213.38C1059.77 215.404 1057.62 216.985 1054.89 218.121C1052.17 219.24 1049.04 219.799 1045.49 219.799C1040.07 219.799 1035.76 218.672 1032.54 216.417C1029.35 214.144 1027.47 211.054 1026.92 207.148L1038.08 206.562C1038.42 208.213 1039.24 209.474 1040.53 210.344C1041.83 211.196 1043.49 211.623 1045.51 211.623C1047.5 211.623 1049.1 211.241 1050.31 210.477C1051.53 209.696 1052.15 208.693 1052.17 207.468C1052.15 206.438 1051.72 205.594 1050.87 204.938C1050.01 204.263 1048.7 203.748 1046.92 203.393L1039.84 201.981C1035.84 201.182 1032.87 199.797 1030.92 197.826C1028.98 195.855 1028.01 193.343 1028.01 190.289C1028.01 187.661 1028.72 185.397 1030.14 183.498C1031.58 181.598 1033.6 180.133 1036.19 179.103C1038.8 178.073 1041.85 177.558 1045.35 177.558C1050.52 177.558 1054.59 178.65 1057.55 180.834C1060.53 183.018 1062.27 185.992 1062.77 189.756Z" fill="#3D3D3D" fill-opacity="0.19"/>
<path d="M14.1424 325H1.78445L20.6143 270.455H35.4759L54.2791 325H41.9212L28.2582 282.919H27.832L14.1424 325ZM13.37 303.56H42.5604V312.562H13.37V303.56ZM65.1312 325V284.091H76.1309V291.229H76.557C77.3027 288.69 78.5545 286.772 80.3123 285.476C82.0701 284.162 84.0943 283.505 86.3848 283.505C86.9529 283.505 87.5655 283.54 88.2225 283.612C88.8794 283.683 89.4565 283.78 89.9537 283.904V293.972C89.421 293.812 88.6841 293.67 87.7431 293.546C86.802 293.422 85.9409 293.359 85.1596 293.359C83.4906 293.359 81.9991 293.723 80.6852 294.451C79.389 295.162 78.3592 296.156 77.5957 297.434C76.85 298.713 76.4771 300.186 76.4771 301.855V325H65.1312ZM124.13 284.091V292.614H99.4941V284.091H124.13ZM105.087 274.29H116.433V312.429C116.433 313.477 116.593 314.293 116.912 314.879C117.232 315.447 117.676 315.847 118.244 316.078C118.83 316.309 119.505 316.424 120.268 316.424C120.801 316.424 121.334 316.38 121.866 316.291C122.399 316.184 122.807 316.104 123.091 316.051L124.876 324.494C124.308 324.672 123.509 324.876 122.479 325.107C121.449 325.355 120.197 325.506 118.723 325.559C115.989 325.666 113.592 325.302 111.532 324.467C109.491 323.633 107.901 322.337 106.765 320.579C105.629 318.821 105.069 316.602 105.087 313.92V274.29ZM136.021 325V284.091H147.367V325H136.021ZM141.72 278.817C140.034 278.817 138.587 278.258 137.379 277.14C136.19 276.003 135.595 274.645 135.595 273.065C135.595 271.502 136.19 270.162 137.379 269.043C138.587 267.907 140.034 267.338 141.72 267.338C143.407 267.338 144.845 267.907 146.035 269.043C147.242 270.162 147.846 271.502 147.846 273.065C147.846 274.645 147.242 276.003 146.035 277.14C144.845 278.258 143.407 278.817 141.72 278.817ZM179.439 325.799C175.249 325.799 171.644 324.911 168.626 323.136C165.625 321.342 163.317 318.857 161.701 315.678C160.103 312.5 159.304 308.842 159.304 304.705C159.304 300.515 160.112 296.839 161.728 293.679C163.361 290.501 165.678 288.024 168.679 286.248C171.68 284.455 175.249 283.558 179.386 283.558C182.955 283.558 186.08 284.206 188.761 285.502C191.442 286.799 193.564 288.619 195.126 290.962C196.689 293.306 197.55 296.058 197.71 299.219H187.003C186.701 297.177 185.902 295.534 184.606 294.292C183.328 293.031 181.65 292.401 179.572 292.401C177.814 292.401 176.279 292.88 174.965 293.839C173.669 294.78 172.656 296.156 171.928 297.967C171.2 299.778 170.836 301.971 170.836 304.545C170.836 307.156 171.192 309.375 171.902 311.204C172.63 313.033 173.651 314.426 174.965 315.385C176.279 316.344 177.814 316.824 179.572 316.824C180.868 316.824 182.031 316.557 183.061 316.025C184.109 315.492 184.97 314.719 185.645 313.707C186.337 312.678 186.79 311.444 187.003 310.005H197.71C197.532 313.13 196.68 315.882 195.153 318.262C193.644 320.623 191.557 322.47 188.894 323.801C186.231 325.133 183.079 325.799 179.439 325.799ZM220.82 270.455V325H209.474V270.455H220.82ZM253.052 325.799C248.844 325.799 245.222 324.947 242.186 323.242C239.167 321.52 236.841 319.087 235.208 315.945C233.574 312.784 232.757 309.047 232.757 304.732C232.757 300.524 233.574 296.831 235.208 293.652C236.841 290.474 239.14 287.997 242.106 286.222C245.089 284.446 248.586 283.558 252.599 283.558C255.298 283.558 257.811 283.993 260.137 284.863C262.48 285.716 264.522 287.003 266.262 288.725C268.02 290.447 269.387 292.614 270.364 295.224C271.34 297.816 271.829 300.852 271.829 304.332V307.449H237.285V300.417H261.149C261.149 298.784 260.794 297.337 260.083 296.076C259.373 294.815 258.388 293.83 257.127 293.12C255.884 292.392 254.437 292.028 252.786 292.028C251.063 292.028 249.536 292.427 248.205 293.226C246.891 294.007 245.861 295.064 245.115 296.396C244.369 297.71 243.988 299.174 243.97 300.79V307.475C243.97 309.499 244.343 311.248 245.089 312.722C245.852 314.196 246.926 315.332 248.311 316.131C249.696 316.93 251.339 317.33 253.238 317.33C254.499 317.33 255.653 317.152 256.701 316.797C257.748 316.442 258.645 315.909 259.391 315.199C260.137 314.489 260.705 313.619 261.095 312.589L271.589 313.281C271.056 315.803 269.964 318.004 268.313 319.886C266.68 321.751 264.567 323.207 261.974 324.254C259.4 325.284 256.426 325.799 253.052 325.799ZM317.77 295.756L307.383 296.396C307.206 295.508 306.824 294.709 306.238 293.999C305.652 293.271 304.88 292.694 303.921 292.267C302.98 291.824 301.852 291.602 300.539 291.602C298.781 291.602 297.298 291.974 296.091 292.72C294.883 293.448 294.28 294.425 294.28 295.65C294.28 296.626 294.67 297.452 295.452 298.127C296.233 298.801 297.573 299.343 299.473 299.751L306.877 301.243C310.855 302.06 313.82 303.374 315.773 305.185C317.726 306.996 318.703 309.375 318.703 312.322C318.703 315.004 317.912 317.356 316.332 319.38C314.77 321.404 312.621 322.985 309.887 324.121C307.17 325.24 304.036 325.799 300.485 325.799C295.07 325.799 290.755 324.672 287.541 322.417C284.345 320.144 282.472 317.054 281.922 313.148L293.081 312.562C293.419 314.213 294.235 315.474 295.531 316.344C296.828 317.196 298.488 317.623 300.512 317.623C302.501 317.623 304.099 317.241 305.306 316.477C306.531 315.696 307.153 314.693 307.17 313.468C307.153 312.438 306.718 311.594 305.865 310.938C305.013 310.263 303.699 309.748 301.923 309.393L294.839 307.981C290.844 307.182 287.87 305.797 285.917 303.826C283.981 301.855 283.014 299.343 283.014 296.289C283.014 293.661 283.724 291.397 285.144 289.498C286.583 287.598 288.598 286.133 291.19 285.103C293.8 284.073 296.854 283.558 300.352 283.558C305.519 283.558 309.585 284.65 312.55 286.834C315.533 289.018 317.273 291.992 317.77 295.756Z" fill="#3D3D3D" fill-opacity="0.19"/>
</svg>
