<svg width="2518" height="397" viewBox="0 0 2518 397" fill="none" xmlns="http://www.w3.org/2000/svg">
<path d="M660.546 103H648.188L667.018 48.4545H681.88L700.683 103H688.325L674.662 60.919H674.236L660.546 103ZM659.774 81.56H688.964V90.5621H659.774V81.56ZM711.535 103V62.0909H722.535V69.2287H722.961C723.707 66.6896 724.958 64.772 726.716 63.4759C728.474 62.1619 730.498 61.505 732.789 61.505C733.357 61.505 733.969 61.5405 734.626 61.6115C735.283 61.6825 735.86 61.7802 736.357 61.9045V71.9719C735.825 71.8121 735.088 71.6701 734.147 71.5458C733.206 71.4215 732.345 71.3594 731.563 71.3594C729.894 71.3594 728.403 71.7234 727.089 72.4513C725.793 73.1616 724.763 74.1559 724 75.4343C723.254 76.7127 722.881 78.1864 722.881 79.8555V103H711.535ZM770.534 62.0909V70.6136H745.898V62.0909H770.534ZM751.491 52.2898H762.837V90.429C762.837 91.4766 762.997 92.2933 763.316 92.8793C763.636 93.4474 764.08 93.8469 764.648 94.0778C765.234 94.3086 765.909 94.424 766.672 94.424C767.205 94.424 767.737 94.3796 768.27 94.2908C768.803 94.1843 769.211 94.1044 769.495 94.0511L771.28 102.494C770.711 102.672 769.912 102.876 768.883 103.107C767.853 103.355 766.601 103.506 765.127 103.559C762.393 103.666 759.996 103.302 757.936 102.467C755.894 101.633 754.305 100.337 753.169 98.5788C752.032 96.821 751.473 94.6016 751.491 91.9205V52.2898ZM782.425 103V62.0909H793.771V103H782.425ZM788.124 56.8175C786.437 56.8175 784.99 56.2582 783.783 55.1396C782.593 54.0032 781.999 52.6449 781.999 51.0646C781.999 49.5021 782.593 48.1616 783.783 47.043C784.99 45.9066 786.437 45.3384 788.124 45.3384C789.811 45.3384 791.249 45.9066 792.439 47.043C793.646 48.1616 794.25 49.5021 794.25 51.0646C794.25 52.6449 793.646 54.0032 792.439 55.1396C791.249 56.2582 789.811 56.8175 788.124 56.8175ZM841.397 73.7564L831.01 74.3956C830.832 73.5078 830.451 72.7088 829.865 71.9986C829.279 71.2706 828.506 70.6935 827.547 70.2674C826.606 69.8235 825.479 69.6016 824.165 69.6016C822.407 69.6016 820.925 69.9744 819.717 70.7202C818.51 71.4482 817.906 72.4247 817.906 73.6499C817.906 74.6264 818.297 75.4521 819.078 76.1268C819.859 76.8015 821.2 77.343 823.1 77.7514L830.504 79.2429C834.481 80.0597 837.446 81.3736 839.399 83.1847C841.352 84.9957 842.329 87.375 842.329 90.3224C842.329 93.0036 841.539 95.3562 839.959 97.3803C838.396 99.4045 836.248 100.985 833.513 102.121C830.797 103.24 827.663 103.799 824.112 103.799C818.696 103.799 814.382 102.672 811.168 100.417C807.972 98.1438 806.099 95.0543 805.548 91.1481L816.708 90.5621C817.045 92.2134 817.862 93.4741 819.158 94.3441C820.454 95.1964 822.114 95.6225 824.138 95.6225C826.127 95.6225 827.725 95.2408 828.932 94.4773C830.158 93.696 830.779 92.6928 830.797 91.4677C830.779 90.4379 830.344 89.5945 829.492 88.9375C828.639 88.2628 827.326 87.7479 825.55 87.3928L818.465 85.9812C814.47 85.1822 811.496 83.7972 809.543 81.8263C807.608 79.8555 806.64 77.343 806.64 74.2891C806.64 71.6612 807.35 69.3974 808.771 67.4975C810.209 65.5977 812.224 64.1328 814.817 63.103C817.427 62.0732 820.481 61.5582 823.979 61.5582C829.145 61.5582 833.212 62.6502 836.177 64.8342C839.16 67.0181 840.9 69.9922 841.397 73.7564ZM875.733 62.0909V70.6136H851.097V62.0909H875.733ZM856.69 52.2898H868.036V90.429C868.036 91.4766 868.196 92.2933 868.515 92.8793C868.835 93.4474 869.279 93.8469 869.847 94.0778C870.433 94.3086 871.108 94.424 871.871 94.424C872.404 94.424 872.937 94.3796 873.469 94.2908C874.002 94.1843 874.41 94.1044 874.694 94.0511L876.479 102.494C875.911 102.672 875.112 102.876 874.082 103.107C873.052 103.355 871.8 103.506 870.326 103.559C867.592 103.666 865.195 103.302 863.135 102.467C861.094 101.633 859.504 100.337 858.368 98.5788C857.232 96.821 856.672 94.6016 856.69 91.9205V52.2898Z" fill="#3D3D3D" fill-opacity="0.19"/>
<path d="M4.74077 100V45.4545H26.2607C30.38 45.4545 33.8956 46.1914 36.8075 47.6651C39.7372 49.1211 41.9656 51.1896 43.4925 53.8707C45.0373 56.5341 45.8097 59.668 45.8097 63.2724C45.8097 66.8945 45.0284 70.0107 43.4659 72.6207C41.9034 75.2131 39.6396 77.2017 36.6744 78.5866C33.7269 79.9716 30.158 80.6641 25.9677 80.6641H11.5589V71.3956H24.1033C26.305 71.3956 28.1339 71.0937 29.5898 70.4901C31.0458 69.8864 32.1289 68.9808 32.8391 67.7734C33.5671 66.5661 33.9311 65.0657 33.9311 63.2724C33.9311 61.4613 33.5671 59.9343 32.8391 58.6914C32.1289 57.4485 31.0369 56.5075 29.5632 55.8683C28.1072 55.2113 26.2695 54.8828 24.0501 54.8828H16.2731V100H4.74077ZM34.1974 75.1776L47.7539 100H35.0231L21.7596 75.1776H34.1974ZM76.2307 100.799C72.0226 100.799 68.4005 99.9467 65.3643 98.2422C62.3458 96.5199 60.0198 94.0874 58.3863 90.9446C56.7528 87.7841 55.936 84.0465 55.936 79.7319C55.936 75.5238 56.7528 71.8306 58.3863 68.6523C60.0198 65.4741 62.3192 62.9972 65.2844 61.2216C68.2673 59.446 71.7652 58.5582 75.778 58.5582C78.4768 58.5582 80.9893 58.9933 83.3153 59.8633C85.659 60.7156 87.7009 62.0028 89.441 63.7251C91.1988 65.4474 92.566 67.6136 93.5425 70.2237C94.5191 72.8161 95.0074 75.8523 95.0074 79.3324V82.4485H60.4637V75.4173H84.3273C84.3273 73.7837 83.9722 72.3366 83.262 71.076C82.5518 69.8153 81.5663 68.8299 80.3057 68.1197C79.0628 67.3917 77.6157 67.0277 75.9644 67.0277C74.2421 67.0277 72.7151 67.4272 71.3834 68.2262C70.0695 69.0075 69.0397 70.0639 68.2939 71.3956C67.5482 72.7095 67.1665 74.1744 67.1487 75.7901V82.4751C67.1487 84.4993 67.5216 86.2482 68.2673 87.7219C69.0308 89.1957 70.105 90.332 71.49 91.131C72.8749 91.93 74.5173 92.3295 76.4172 92.3295C77.6778 92.3295 78.8319 92.152 79.8795 91.7969C80.9271 91.4418 81.8238 90.9091 82.5695 90.1989C83.3153 89.4886 83.8834 88.6186 84.2741 87.5888L94.7677 88.2812C94.235 90.8026 93.143 93.0043 91.4917 94.8864C89.8582 96.7507 87.7453 98.2067 85.153 99.2543C82.5784 100.284 79.6043 100.799 76.2307 100.799ZM128.911 59.0909V67.6136H103.662V59.0909H128.911ZM109.442 100V56.1346C109.442 53.1694 110.019 50.7102 111.173 48.7571C112.345 46.804 113.943 45.3391 115.967 44.3626C117.991 43.386 120.29 42.8977 122.865 42.8977C124.605 42.8977 126.194 43.0309 127.632 43.2972C129.088 43.5636 130.171 43.8033 130.882 44.0163L128.858 52.5391C128.414 52.397 127.863 52.2638 127.206 52.1396C126.567 52.0153 125.91 51.9531 125.235 51.9531C123.566 51.9531 122.403 52.3438 121.746 53.125C121.089 53.8885 120.761 54.9627 120.761 56.3477V100H109.442ZM157.521 100.799C153.313 100.799 149.691 99.9467 146.654 98.2422C143.636 96.5199 141.31 94.0874 139.676 90.9446C138.043 87.7841 137.226 84.0465 137.226 79.7319C137.226 75.5238 138.043 71.8306 139.676 68.6523C141.31 65.4741 143.609 62.9972 146.574 61.2216C149.557 59.446 153.055 58.5582 157.068 58.5582C159.767 58.5582 162.279 58.9933 164.605 59.8633C166.949 60.7156 168.991 62.0028 170.731 63.7251C172.489 65.4474 173.856 67.6136 174.833 70.2237C175.809 72.8161 176.297 75.8523 176.297 79.3324V82.4485H141.754V75.4173H165.617C165.617 73.7837 165.262 72.3366 164.552 71.076C163.842 69.8153 162.856 68.8299 161.596 68.1197C160.353 67.3917 158.906 67.0277 157.254 67.0277C155.532 67.0277 154.005 67.4272 152.673 68.2262C151.36 69.0075 150.33 70.0639 149.584 71.3956C148.838 72.7095 148.456 74.1744 148.439 75.7901V82.4751C148.439 84.4993 148.812 86.2482 149.557 87.7219C150.321 89.1957 151.395 90.332 152.78 91.131C154.165 91.93 155.807 92.3295 157.707 92.3295C158.968 92.3295 160.122 92.152 161.17 91.7969C162.217 91.4418 163.114 90.9091 163.86 90.1989C164.605 89.4886 165.173 88.6186 165.564 87.5888L176.058 88.2812C175.525 90.8026 174.433 93.0043 172.782 94.8864C171.148 96.7507 169.035 98.2067 166.443 99.2543C163.868 100.284 160.894 100.799 157.521 100.799ZM188.202 100V59.0909H199.201V66.2287H199.627C200.373 63.6896 201.625 61.772 203.383 60.4759C205.14 59.1619 207.165 58.505 209.455 58.505C210.023 58.505 210.636 58.5405 211.293 58.6115C211.95 58.6825 212.527 58.7802 213.024 58.9045V68.9719C212.491 68.8121 211.754 68.6701 210.813 68.5458C209.872 68.4215 209.011 68.3594 208.23 68.3594C206.561 68.3594 205.069 68.7234 203.756 69.4513C202.459 70.1616 201.43 71.1559 200.666 72.4343C199.92 73.7127 199.547 75.1864 199.547 76.8555V100H188.202ZM240.129 100.799C235.921 100.799 232.299 99.9467 229.263 98.2422C226.244 96.5199 223.918 94.0874 222.285 90.9446C220.651 87.7841 219.834 84.0465 219.834 79.7319C219.834 75.5238 220.651 71.8306 222.285 68.6523C223.918 65.4741 226.218 62.9972 229.183 61.2216C232.166 59.446 235.664 58.5582 239.676 58.5582C242.375 58.5582 244.888 58.9933 247.214 59.8633C249.557 60.7156 251.599 62.0028 253.339 63.7251C255.097 65.4474 256.464 67.6136 257.441 70.2237C258.418 72.8161 258.906 75.8523 258.906 79.3324V82.4485H224.362V75.4173H248.226C248.226 73.7837 247.871 72.3366 247.16 71.076C246.45 69.8153 245.465 68.8299 244.204 68.1197C242.961 67.3917 241.514 67.0277 239.863 67.0277C238.141 67.0277 236.614 67.4272 235.282 68.2262C233.968 69.0075 232.938 70.0639 232.192 71.3956C231.447 72.7095 231.065 74.1744 231.047 75.7901V82.4751C231.047 84.4993 231.42 86.2482 232.166 87.7219C232.929 89.1957 234.003 90.332 235.388 91.131C236.773 91.93 238.416 92.3295 240.316 92.3295C241.576 92.3295 242.73 92.152 243.778 91.7969C244.826 91.4418 245.722 90.9091 246.468 90.1989C247.214 89.4886 247.782 88.6186 248.172 87.5888L258.666 88.2812C258.133 90.8026 257.041 93.0043 255.39 94.8864C253.757 96.7507 251.644 98.2067 249.051 99.2543C246.477 100.284 243.503 100.799 240.129 100.799ZM282.156 76.3494V100H270.81V59.0909H281.623V66.3086H282.103C283.008 63.9293 284.526 62.0472 286.657 60.6623C288.788 59.2596 291.371 58.5582 294.407 58.5582C297.248 58.5582 299.725 59.1797 301.838 60.4226C303.951 61.6655 305.593 63.441 306.765 65.7493C307.937 68.0398 308.523 70.7741 308.523 73.9524V100H297.177V75.9766C297.195 73.473 296.556 71.5199 295.26 70.1172C293.963 68.6967 292.179 67.9865 289.906 67.9865C288.379 67.9865 287.03 68.315 285.858 68.9719C284.704 69.6289 283.798 70.5877 283.141 71.8484C282.502 73.0913 282.174 74.5916 282.156 76.3494ZM340.449 100.799C336.259 100.799 332.654 99.9112 329.636 98.1357C326.635 96.3423 324.327 93.8565 322.711 90.6783C321.113 87.5 320.314 83.8423 320.314 79.7053C320.314 75.5149 321.122 71.8395 322.738 68.679C324.371 65.5007 326.688 63.0238 329.689 61.2482C332.69 59.4549 336.259 58.5582 340.396 58.5582C343.964 58.5582 347.089 59.2063 349.771 60.5025C352.452 61.7986 354.574 63.6186 356.136 65.9624C357.699 68.3061 358.56 71.0582 358.719 74.2188H348.013C347.711 72.1768 346.912 70.5344 345.616 69.2915C344.337 68.0309 342.659 67.4006 340.582 67.4006C338.824 67.4006 337.288 67.88 335.974 68.8388C334.678 69.7798 333.666 71.1559 332.938 72.967C332.21 74.7781 331.846 76.9709 331.846 79.5455C331.846 82.1555 332.201 84.375 332.912 86.2038C333.64 88.0327 334.661 89.4265 335.974 90.3853C337.288 91.3441 338.824 91.8235 340.582 91.8235C341.878 91.8235 343.041 91.5572 344.071 91.0245C345.119 90.4918 345.98 89.7195 346.654 88.7074C347.347 87.6776 347.8 86.4435 348.013 85.0053H358.719C358.542 88.1303 357.69 90.8825 356.163 93.2617C354.653 95.6232 352.567 97.4698 349.904 98.8015C347.24 100.133 344.089 100.799 340.449 100.799ZM389.127 100.799C384.919 100.799 381.297 99.9467 378.261 98.2422C375.242 96.5199 372.916 94.0874 371.283 90.9446C369.649 87.7841 368.832 84.0465 368.832 79.7319C368.832 75.5238 369.649 71.8306 371.283 68.6523C372.916 65.4741 375.216 62.9972 378.181 61.2216C381.164 59.446 384.662 58.5582 388.674 58.5582C391.373 58.5582 393.886 58.9933 396.212 59.8633C398.555 60.7156 400.597 62.0028 402.337 63.7251C404.095 65.4474 405.462 67.6136 406.439 70.2237C407.416 72.8161 407.904 75.8523 407.904 79.3324V82.4485H373.36V75.4173H397.224C397.224 73.7837 396.869 72.3366 396.158 71.076C395.448 69.8153 394.463 68.8299 393.202 68.1197C391.959 67.3917 390.512 67.0277 388.861 67.0277C387.139 67.0277 385.612 67.4272 384.28 68.2262C382.966 69.0075 381.936 70.0639 381.19 71.3956C380.445 72.7095 380.063 74.1744 380.045 75.7901V82.4751C380.045 84.4993 380.418 86.2482 381.164 87.7219C381.927 89.1957 383.002 90.332 384.386 91.131C385.771 91.93 387.414 92.3295 389.314 92.3295C390.574 92.3295 391.728 92.152 392.776 91.7969C393.824 91.4418 394.72 90.9091 395.466 90.1989C396.212 89.4886 396.78 88.6186 397.171 87.5888L407.664 88.2812C407.131 90.8026 406.04 93.0043 404.388 94.8864C402.755 96.7507 400.642 98.2067 398.049 99.2543C395.475 100.284 392.501 100.799 389.127 100.799ZM453.846 70.7564L443.459 71.3956C443.281 70.5078 442.899 69.7088 442.313 68.9986C441.727 68.2706 440.955 67.6935 439.996 67.2674C439.055 66.8235 437.928 66.6016 436.614 66.6016C434.856 66.6016 433.373 66.9744 432.166 67.7202C430.959 68.4482 430.355 69.4247 430.355 70.6499C430.355 71.6264 430.745 72.4521 431.527 73.1268C432.308 73.8015 433.649 74.343 435.548 74.7514L442.953 76.2429C446.93 77.0597 449.895 78.3736 451.848 80.1847C453.801 81.9957 454.778 84.375 454.778 87.3224C454.778 90.0036 453.988 92.3562 452.407 94.3803C450.845 96.4045 448.696 97.9847 445.962 99.1211C443.245 100.24 440.112 100.799 436.56 100.799C431.145 100.799 426.83 99.6715 423.617 97.4165C420.421 95.1438 418.547 92.0543 417.997 88.1481L429.156 87.5621C429.494 89.2134 430.31 90.4741 431.607 91.3441C432.903 92.1964 434.563 92.6225 436.587 92.6225C438.576 92.6225 440.174 92.2408 441.381 91.4773C442.606 90.696 443.228 89.6928 443.245 88.4677C443.228 87.4379 442.793 86.5945 441.94 85.9375C441.088 85.2628 439.774 84.7479 437.999 84.3928L430.914 82.9812C426.919 82.1822 423.945 80.7972 421.992 78.8263C420.057 76.8555 419.089 74.343 419.089 71.2891C419.089 68.6612 419.799 66.3974 421.22 64.4975C422.658 62.5977 424.673 61.1328 427.265 60.103C429.875 59.0732 432.929 58.5582 436.427 58.5582C441.594 58.5582 445.66 59.6502 448.625 61.8342C451.608 64.0181 453.348 66.9922 453.846 70.7564Z" fill="#3D3D3D" fill-opacity="0.19"/>
<path d="M1337.14 234H1324.78L1343.61 179.455H1358.48L1377.28 234H1364.92L1351.26 191.919H1350.83L1337.14 234ZM1336.37 212.56H1365.56V221.562H1336.37V212.56ZM1388.13 234V193.091H1399.13V200.229H1399.56C1400.3 197.69 1401.55 195.772 1403.31 194.476C1405.07 193.162 1407.09 192.505 1409.38 192.505C1409.95 192.505 1410.57 192.54 1411.22 192.612C1411.88 192.683 1412.46 192.78 1412.95 192.904V202.972C1412.42 202.812 1411.68 202.67 1410.74 202.546C1409.8 202.422 1408.94 202.359 1408.16 202.359C1406.49 202.359 1405 202.723 1403.69 203.451C1402.39 204.162 1401.36 205.156 1400.6 206.434C1399.85 207.713 1399.48 209.186 1399.48 210.855V234H1388.13ZM1447.13 193.091V201.614H1422.49V193.091H1447.13ZM1428.09 183.29H1439.43V221.429C1439.43 222.477 1439.59 223.293 1439.91 223.879C1440.23 224.447 1440.68 224.847 1441.24 225.078C1441.83 225.309 1442.5 225.424 1443.27 225.424C1443.8 225.424 1444.33 225.38 1444.87 225.291C1445.4 225.184 1445.81 225.104 1446.09 225.051L1447.88 233.494C1447.31 233.672 1446.51 233.876 1445.48 234.107C1444.45 234.355 1443.2 234.506 1441.72 234.559C1438.99 234.666 1436.59 234.302 1434.53 233.467C1432.49 232.633 1430.9 231.337 1429.77 229.579C1428.63 227.821 1428.07 225.602 1428.09 222.92V183.29ZM1467.09 234L1455.96 193.091H1467.44L1473.78 220.577H1474.15L1480.75 193.091H1492.02L1498.73 220.417H1499.08L1505.31 193.091H1516.76L1505.66 234H1493.64L1486.61 208.272H1486.11L1479.08 234H1467.09ZM1544.77 234.799C1540.64 234.799 1537.06 233.92 1534.04 232.162C1531.04 230.387 1528.72 227.919 1527.09 224.758C1525.45 221.58 1524.64 217.896 1524.64 213.705C1524.64 209.479 1525.45 205.786 1527.09 202.626C1528.72 199.447 1531.04 196.979 1534.04 195.222C1537.06 193.446 1540.64 192.558 1544.77 192.558C1548.91 192.558 1552.48 193.446 1555.48 195.222C1558.5 196.979 1560.82 199.447 1562.46 202.626C1564.09 205.786 1564.91 209.479 1564.91 213.705C1564.91 217.896 1564.09 221.58 1562.46 224.758C1560.82 227.919 1558.5 230.387 1555.48 232.162C1552.48 233.92 1548.91 234.799 1544.77 234.799ZM1544.83 226.01C1546.71 226.01 1548.28 225.477 1549.54 224.412C1550.8 223.329 1551.75 221.855 1552.39 219.991C1553.05 218.126 1553.38 216.005 1553.38 213.625C1553.38 211.246 1553.05 209.124 1552.39 207.26C1551.75 205.396 1550.8 203.922 1549.54 202.839C1548.28 201.756 1546.71 201.214 1544.83 201.214C1542.93 201.214 1541.33 201.756 1540.03 202.839C1538.75 203.922 1537.79 205.396 1537.13 207.26C1536.49 209.124 1536.17 211.246 1536.17 213.625C1536.17 216.005 1536.49 218.126 1537.13 219.991C1537.79 221.855 1538.75 223.329 1540.03 224.412C1541.33 225.477 1542.93 226.01 1544.83 226.01ZM1576.79 234V193.091H1587.79V200.229H1588.21C1588.96 197.69 1590.21 195.772 1591.97 194.476C1593.72 193.162 1595.75 192.505 1598.04 192.505C1598.61 192.505 1599.22 192.54 1599.88 192.612C1600.53 192.683 1601.11 192.78 1601.61 192.904V202.972C1601.08 202.812 1600.34 202.67 1599.4 202.546C1598.46 202.422 1597.6 202.359 1596.81 202.359C1595.14 202.359 1593.65 202.723 1592.34 203.451C1591.04 204.162 1590.01 205.156 1589.25 206.434C1588.5 207.713 1588.13 209.186 1588.13 210.855V234H1576.79ZM1622.25 222.228L1622.28 208.618H1623.93L1637.04 193.091H1650.06L1632.46 213.652H1629.77L1622.25 222.228ZM1611.97 234V179.455H1623.32V234H1611.97ZM1637.54 234L1625.5 216.182L1633.07 208.165L1650.83 234H1637.54Z" fill="#3D3D3D" fill-opacity="0.19"/>
<path d="M2119.14 99H2106.78L2125.61 44.4545H2140.48L2159.28 99H2146.92L2133.26 56.919H2132.83L2119.14 99ZM2118.37 77.56H2147.56V86.5621H2118.37V77.56ZM2170.13 99V58.0909H2181.13V65.2287H2181.56C2182.3 62.6896 2183.55 60.772 2185.31 59.4759C2187.07 58.1619 2189.09 57.505 2191.38 57.505C2191.95 57.505 2192.57 57.5405 2193.22 57.6115C2193.88 57.6825 2194.46 57.7802 2194.95 57.9045V67.9719C2194.42 67.8121 2193.68 67.6701 2192.74 67.5458C2191.8 67.4215 2190.94 67.3594 2190.16 67.3594C2188.49 67.3594 2187 67.7234 2185.69 68.4513C2184.39 69.1616 2183.36 70.1559 2182.6 71.4343C2181.85 72.7127 2181.48 74.1864 2181.48 75.8555V99H2170.13ZM2229.13 58.0909V66.6136H2204.49V58.0909H2229.13ZM2210.09 48.2898H2221.43V86.429C2221.43 87.4766 2221.59 88.2933 2221.91 88.8793C2222.23 89.4474 2222.68 89.8469 2223.24 90.0778C2223.83 90.3086 2224.5 90.424 2225.27 90.424C2225.8 90.424 2226.33 90.3796 2226.87 90.2908C2227.4 90.1843 2227.81 90.1044 2228.09 90.0511L2229.88 98.494C2229.31 98.6715 2228.51 98.8757 2227.48 99.1065C2226.45 99.3551 2225.2 99.506 2223.72 99.5593C2220.99 99.6658 2218.59 99.3018 2216.53 98.4673C2214.49 97.6328 2212.9 96.3366 2211.77 94.5788C2210.63 92.821 2210.07 90.6016 2210.09 87.9205V48.2898ZM2249.09 99L2237.96 58.0909H2249.44L2255.78 85.5767H2256.15L2262.75 58.0909H2274.02L2280.73 85.4169H2281.08L2287.31 58.0909H2298.76L2287.66 99H2275.64L2268.61 73.272H2268.11L2261.08 99H2249.09ZM2326.77 99.799C2322.64 99.799 2319.06 98.9201 2316.04 97.1623C2313.04 95.3867 2310.72 92.9187 2309.09 89.7582C2307.45 86.5799 2306.64 82.8956 2306.64 78.7053C2306.64 74.4794 2307.45 70.7862 2309.09 67.6257C2310.72 64.4474 2313.04 61.9794 2316.04 60.2216C2319.06 58.446 2322.64 57.5582 2326.77 57.5582C2330.91 57.5582 2334.48 58.446 2337.48 60.2216C2340.5 61.9794 2342.82 64.4474 2344.46 67.6257C2346.09 70.7862 2346.91 74.4794 2346.91 78.7053C2346.91 82.8956 2346.09 86.5799 2344.46 89.7582C2342.82 92.9187 2340.5 95.3867 2337.48 97.1623C2334.48 98.9201 2330.91 99.799 2326.77 99.799ZM2326.83 91.0099C2328.71 91.0099 2330.28 90.4773 2331.54 89.4119C2332.8 88.3288 2333.75 86.8551 2334.39 84.9908C2335.05 83.1264 2335.38 81.0046 2335.38 78.6254C2335.38 76.2461 2335.05 74.1243 2334.39 72.2599C2333.75 70.3956 2332.8 68.9219 2331.54 67.8388C2330.28 66.7557 2328.71 66.2141 2326.83 66.2141C2324.93 66.2141 2323.33 66.7557 2322.03 67.8388C2320.75 68.9219 2319.79 70.3956 2319.13 72.2599C2318.49 74.1243 2318.17 76.2461 2318.17 78.6254C2318.17 81.0046 2318.49 83.1264 2319.13 84.9908C2319.79 86.8551 2320.75 88.3288 2322.03 89.4119C2323.33 90.4773 2324.93 91.0099 2326.83 91.0099ZM2358.79 99V58.0909H2369.79V65.2287H2370.21C2370.96 62.6896 2372.21 60.772 2373.97 59.4759C2375.72 58.1619 2377.75 57.505 2380.04 57.505C2380.61 57.505 2381.22 57.5405 2381.88 57.6115C2382.53 57.6825 2383.11 57.7802 2383.61 57.9045V67.9719C2383.08 67.8121 2382.34 67.6701 2381.4 67.5458C2380.46 67.4215 2379.6 67.3594 2378.81 67.3594C2377.14 67.3594 2375.65 67.7234 2374.34 68.4513C2373.04 69.1616 2372.01 70.1559 2371.25 71.4343C2370.5 72.7127 2370.13 74.1864 2370.13 75.8555V99H2358.79ZM2404.25 87.228L2404.28 73.6183H2405.93L2419.04 58.0909H2432.06L2414.46 78.652H2411.77L2404.25 87.228ZM2393.97 99V44.4545H2405.32V99H2393.97ZM2419.54 99L2407.5 81.1822L2415.07 73.1655L2432.83 99H2419.54Z" fill="#3D3D3D" fill-opacity="0.19"/>
<path d="M1807.14 103H1794.78L1813.61 48.4545H1828.48L1847.28 103H1834.92L1821.26 60.919H1820.83L1807.14 103ZM1806.37 81.56H1835.56V90.5621H1806.37V81.56ZM1858.13 103V62.0909H1869.13V69.2287H1869.56C1870.3 66.6896 1871.55 64.772 1873.31 63.4759C1875.07 62.1619 1877.09 61.505 1879.38 61.505C1879.95 61.505 1880.57 61.5405 1881.22 61.6115C1881.88 61.6825 1882.46 61.7802 1882.95 61.9045V71.9719C1882.42 71.8121 1881.68 71.6701 1880.74 71.5458C1879.8 71.4215 1878.94 71.3594 1878.16 71.3594C1876.49 71.3594 1875 71.7234 1873.69 72.4513C1872.39 73.1616 1871.36 74.1559 1870.6 75.4343C1869.85 76.7127 1869.48 78.1864 1869.48 79.8555V103H1858.13ZM1917.13 62.0909V70.6136H1892.49V62.0909H1917.13ZM1898.09 52.2898H1909.43V90.429C1909.43 91.4766 1909.59 92.2933 1909.91 92.8793C1910.23 93.4474 1910.68 93.8469 1911.24 94.0778C1911.83 94.3086 1912.5 94.424 1913.27 94.424C1913.8 94.424 1914.33 94.3796 1914.87 94.2908C1915.4 94.1843 1915.81 94.1044 1916.09 94.0511L1917.88 102.494C1917.31 102.672 1916.51 102.876 1915.48 103.107C1914.45 103.355 1913.2 103.506 1911.72 103.559C1908.99 103.666 1906.59 103.302 1904.53 102.467C1902.49 101.633 1900.9 100.337 1899.77 98.5788C1898.63 96.821 1898.07 94.6016 1898.09 91.9205V52.2898ZM1929.02 103V62.0909H1940.37V103H1929.02ZM1934.72 56.8175C1933.03 56.8175 1931.59 56.2582 1930.38 55.1396C1929.19 54.0032 1928.59 52.6449 1928.59 51.0646C1928.59 49.5021 1929.19 48.1616 1930.38 47.043C1931.59 45.9066 1933.03 45.3384 1934.72 45.3384C1936.41 45.3384 1937.85 45.9066 1939.04 47.043C1940.24 48.1616 1940.85 49.5021 1940.85 51.0646C1940.85 52.6449 1940.24 54.0032 1939.04 55.1396C1937.85 56.2582 1936.41 56.8175 1934.72 56.8175ZM1987.99 73.7564L1977.61 74.3956C1977.43 73.5078 1977.05 72.7088 1976.46 71.9986C1975.87 71.2706 1975.1 70.6935 1974.14 70.2674C1973.2 69.8235 1972.08 69.6016 1970.76 69.6016C1969 69.6016 1967.52 69.9744 1966.31 70.7202C1965.11 71.4482 1964.5 72.4247 1964.5 73.6499C1964.5 74.6264 1964.89 75.4521 1965.67 76.1268C1966.46 76.8015 1967.8 77.343 1969.7 77.7514L1977.1 79.2429C1981.08 80.0597 1984.04 81.3736 1986 83.1847C1987.95 84.9957 1988.93 87.375 1988.93 90.3224C1988.93 93.0036 1988.14 95.3562 1986.55 97.3803C1984.99 99.4045 1982.84 100.985 1980.11 102.121C1977.39 103.24 1974.26 103.799 1970.71 103.799C1965.29 103.799 1960.98 102.672 1957.76 100.417C1954.57 98.1438 1952.69 95.0543 1952.14 91.1481L1963.3 90.5621C1963.64 92.2134 1964.46 93.4741 1965.75 94.3441C1967.05 95.1964 1968.71 95.6225 1970.73 95.6225C1972.72 95.6225 1974.32 95.2408 1975.53 94.4773C1976.75 93.696 1977.38 92.6928 1977.39 91.4677C1977.38 90.4379 1976.94 89.5945 1976.09 88.9375C1975.24 88.2628 1973.92 87.7479 1972.15 87.3928L1965.06 85.9812C1961.07 85.1822 1958.09 83.7972 1956.14 81.8263C1954.2 79.8555 1953.24 77.343 1953.24 74.2891C1953.24 71.6612 1953.95 69.3974 1955.37 67.4975C1956.81 65.5977 1958.82 64.1328 1961.41 63.103C1964.02 62.0732 1967.08 61.5582 1970.57 61.5582C1975.74 61.5582 1979.81 62.6502 1982.77 64.8342C1985.76 67.0181 1987.5 69.9922 1987.99 73.7564ZM2022.33 62.0909V70.6136H1997.69V62.0909H2022.33ZM2003.29 52.2898H2014.63V90.429C2014.63 91.4766 2014.79 92.2933 2015.11 92.8793C2015.43 93.4474 2015.88 93.8469 2016.44 94.0778C2017.03 94.3086 2017.7 94.424 2018.47 94.424C2019 94.424 2019.53 94.3796 2020.07 94.2908C2020.6 94.1843 2021.01 94.1044 2021.29 94.0511L2023.08 102.494C2022.51 102.672 2021.71 102.876 2020.68 103.107C2019.65 103.355 2018.4 103.506 2016.92 103.559C2014.19 103.666 2011.79 103.302 2009.73 102.467C2007.69 101.633 2006.1 100.337 2004.96 98.5788C2003.83 96.821 2003.27 94.6016 2003.29 91.9205V52.2898Z" fill="#3D3D3D" fill-opacity="0.19"/>
<path d="M2055.14 231H2042.78L2061.61 176.455H2076.48L2095.28 231H2082.92L2069.26 188.919H2068.83L2055.14 231ZM2054.37 209.56H2083.56V218.562H2054.37V209.56ZM2106.13 231V190.091H2117.13V197.229H2117.56C2118.3 194.69 2119.55 192.772 2121.31 191.476C2123.07 190.162 2125.09 189.505 2127.38 189.505C2127.95 189.505 2128.57 189.54 2129.22 189.612C2129.88 189.683 2130.46 189.78 2130.95 189.904V199.972C2130.42 199.812 2129.68 199.67 2128.74 199.546C2127.8 199.422 2126.94 199.359 2126.16 199.359C2124.49 199.359 2123 199.723 2121.69 200.451C2120.39 201.162 2119.36 202.156 2118.6 203.434C2117.85 204.713 2117.48 206.186 2117.48 207.855V231H2106.13ZM2165.13 190.091V198.614H2140.49V190.091H2165.13ZM2146.09 180.29H2157.43V218.429C2157.43 219.477 2157.59 220.293 2157.91 220.879C2158.23 221.447 2158.68 221.847 2159.24 222.078C2159.83 222.309 2160.5 222.424 2161.27 222.424C2161.8 222.424 2162.33 222.38 2162.87 222.291C2163.4 222.184 2163.81 222.104 2164.09 222.051L2165.88 230.494C2165.31 230.672 2164.51 230.876 2163.48 231.107C2162.45 231.355 2161.2 231.506 2159.72 231.559C2156.99 231.666 2154.59 231.302 2152.53 230.467C2150.49 229.633 2148.9 228.337 2147.77 226.579C2146.63 224.821 2146.07 222.602 2146.09 219.92V180.29ZM2177.02 231V190.091H2188.37V231H2177.02ZM2182.72 184.817C2181.03 184.817 2179.59 184.258 2178.38 183.14C2177.19 182.003 2176.59 180.645 2176.59 179.065C2176.59 177.502 2177.19 176.162 2178.38 175.043C2179.59 173.907 2181.03 173.338 2182.72 173.338C2184.41 173.338 2185.85 173.907 2187.04 175.043C2188.24 176.162 2188.85 177.502 2188.85 179.065C2188.85 180.645 2188.24 182.003 2187.04 183.14C2185.85 184.258 2184.41 184.817 2182.72 184.817ZM2235.99 201.756L2225.61 202.396C2225.43 201.508 2225.05 200.709 2224.46 199.999C2223.87 199.271 2223.1 198.694 2222.14 198.267C2221.2 197.824 2220.08 197.602 2218.76 197.602C2217 197.602 2215.52 197.974 2214.31 198.72C2213.11 199.448 2212.5 200.425 2212.5 201.65C2212.5 202.626 2212.89 203.452 2213.67 204.127C2214.46 204.801 2215.8 205.343 2217.7 205.751L2225.1 207.243C2229.08 208.06 2232.04 209.374 2234 211.185C2235.95 212.996 2236.93 215.375 2236.93 218.322C2236.93 221.004 2236.14 223.356 2234.55 225.38C2232.99 227.404 2230.84 228.985 2228.11 230.121C2225.39 231.24 2222.26 231.799 2218.71 231.799C2213.29 231.799 2208.98 230.672 2205.76 228.417C2202.57 226.144 2200.69 223.054 2200.14 219.148L2211.3 218.562C2211.64 220.213 2212.46 221.474 2213.75 222.344C2215.05 223.196 2216.71 223.623 2218.73 223.623C2220.72 223.623 2222.32 223.241 2223.53 222.477C2224.75 221.696 2225.38 220.693 2225.39 219.468C2225.38 218.438 2224.94 217.594 2224.09 216.938C2223.24 216.263 2221.92 215.748 2220.15 215.393L2213.06 213.981C2209.07 213.182 2206.09 211.797 2204.14 209.826C2202.2 207.855 2201.24 205.343 2201.24 202.289C2201.24 199.661 2201.95 197.397 2203.37 195.498C2204.81 193.598 2206.82 192.133 2209.41 191.103C2212.02 190.073 2215.08 189.558 2218.57 189.558C2223.74 189.558 2227.81 190.65 2230.77 192.834C2233.76 195.018 2235.5 197.992 2235.99 201.756ZM2270.33 190.091V198.614H2245.69V190.091H2270.33ZM2251.29 180.29H2262.63V218.429C2262.63 219.477 2262.79 220.293 2263.11 220.879C2263.43 221.447 2263.88 221.847 2264.44 222.078C2265.03 222.309 2265.7 222.424 2266.47 222.424C2267 222.424 2267.53 222.38 2268.07 222.291C2268.6 222.184 2269.01 222.104 2269.29 222.051L2271.08 230.494C2270.51 230.672 2269.71 230.876 2268.68 231.107C2267.65 231.355 2266.4 231.506 2264.92 231.559C2262.19 231.666 2259.79 231.302 2257.73 230.467C2255.69 229.633 2254.1 228.337 2252.96 226.579C2251.83 224.821 2251.27 222.602 2251.29 219.92V180.29Z" fill="#3D3D3D" fill-opacity="0.19"/>
<path d="M1622.14 352H1609.78L1628.61 297.455H1643.48L1662.28 352H1649.92L1636.26 309.919H1635.83L1622.14 352ZM1621.37 330.56H1650.56V339.562H1621.37V330.56ZM1673.13 352V311.091H1684.13V318.229H1684.56C1685.3 315.69 1686.55 313.772 1688.31 312.476C1690.07 311.162 1692.09 310.505 1694.38 310.505C1694.95 310.505 1695.57 310.54 1696.22 310.612C1696.88 310.683 1697.46 310.78 1697.95 310.904V320.972C1697.42 320.812 1696.68 320.67 1695.74 320.546C1694.8 320.422 1693.94 320.359 1693.16 320.359C1691.49 320.359 1690 320.723 1688.69 321.451C1687.39 322.162 1686.36 323.156 1685.6 324.434C1684.85 325.713 1684.48 327.186 1684.48 328.855V352H1673.13ZM1732.13 311.091V319.614H1707.49V311.091H1732.13ZM1713.09 301.29H1724.43V339.429C1724.43 340.477 1724.59 341.293 1724.91 341.879C1725.23 342.447 1725.68 342.847 1726.24 343.078C1726.83 343.309 1727.5 343.424 1728.27 343.424C1728.8 343.424 1729.33 343.38 1729.87 343.291C1730.4 343.184 1730.81 343.104 1731.09 343.051L1732.88 351.494C1732.31 351.672 1731.51 351.876 1730.48 352.107C1729.45 352.355 1728.2 352.506 1726.72 352.559C1723.99 352.666 1721.59 352.302 1719.53 351.467C1717.49 350.633 1715.9 349.337 1714.77 347.579C1713.63 345.821 1713.07 343.602 1713.09 340.92V301.29ZM1752.09 352L1740.96 311.091H1752.44L1758.78 338.577H1759.15L1765.75 311.091H1777.02L1783.73 338.417H1784.08L1790.31 311.091H1801.76L1790.66 352H1778.64L1771.61 326.272H1771.11L1764.08 352H1752.09ZM1829.77 352.799C1825.64 352.799 1822.06 351.92 1819.04 350.162C1816.04 348.387 1813.72 345.919 1812.09 342.758C1810.45 339.58 1809.64 335.896 1809.64 331.705C1809.64 327.479 1810.45 323.786 1812.09 320.626C1813.72 317.447 1816.04 314.979 1819.04 313.222C1822.06 311.446 1825.64 310.558 1829.77 310.558C1833.91 310.558 1837.48 311.446 1840.48 313.222C1843.5 314.979 1845.82 317.447 1847.46 320.626C1849.09 323.786 1849.91 327.479 1849.91 331.705C1849.91 335.896 1849.09 339.58 1847.46 342.758C1845.82 345.919 1843.5 348.387 1840.48 350.162C1837.48 351.92 1833.91 352.799 1829.77 352.799ZM1829.83 344.01C1831.71 344.01 1833.28 343.477 1834.54 342.412C1835.8 341.329 1836.75 339.855 1837.39 337.991C1838.05 336.126 1838.38 334.005 1838.38 331.625C1838.38 329.246 1838.05 327.124 1837.39 325.26C1836.75 323.396 1835.8 321.922 1834.54 320.839C1833.28 319.756 1831.71 319.214 1829.83 319.214C1827.93 319.214 1826.33 319.756 1825.03 320.839C1823.75 321.922 1822.79 323.396 1822.13 325.26C1821.49 327.124 1821.17 329.246 1821.17 331.625C1821.17 334.005 1821.49 336.126 1822.13 337.991C1822.79 339.855 1823.75 341.329 1825.03 342.412C1826.33 343.477 1827.93 344.01 1829.83 344.01ZM1861.79 352V311.091H1872.79V318.229H1873.21C1873.96 315.69 1875.21 313.772 1876.97 312.476C1878.72 311.162 1880.75 310.505 1883.04 310.505C1883.61 310.505 1884.22 310.54 1884.88 310.612C1885.53 310.683 1886.11 310.78 1886.61 310.904V320.972C1886.08 320.812 1885.34 320.67 1884.4 320.546C1883.46 320.422 1882.6 320.359 1881.81 320.359C1880.14 320.359 1878.65 320.723 1877.34 321.451C1876.04 322.162 1875.01 323.156 1874.25 324.434C1873.5 325.713 1873.13 327.186 1873.13 328.855V352H1861.79ZM1907.25 340.228L1907.28 326.618H1908.93L1922.04 311.091H1935.06L1917.46 331.652H1914.77L1907.25 340.228ZM1896.97 352V297.455H1908.32V352H1896.97ZM1922.54 352L1910.5 334.182L1918.07 326.165L1935.83 352H1922.54Z" fill="#3D3D3D" fill-opacity="0.19"/>
<path d="M1065.14 352H1052.78L1071.61 297.455H1086.48L1105.28 352H1092.92L1079.26 309.919H1078.83L1065.14 352ZM1064.37 330.56H1093.56V339.562H1064.37V330.56ZM1116.13 352V311.091H1127.13V318.229H1127.56C1128.3 315.69 1129.55 313.772 1131.31 312.476C1133.07 311.162 1135.09 310.505 1137.38 310.505C1137.95 310.505 1138.57 310.54 1139.22 310.612C1139.88 310.683 1140.46 310.78 1140.95 310.904V320.972C1140.42 320.812 1139.68 320.67 1138.74 320.546C1137.8 320.422 1136.94 320.359 1136.16 320.359C1134.49 320.359 1133 320.723 1131.69 321.451C1130.39 322.162 1129.36 323.156 1128.6 324.434C1127.85 325.713 1127.48 327.186 1127.48 328.855V352H1116.13ZM1175.13 311.091V319.614H1150.49V311.091H1175.13ZM1156.09 301.29H1167.43V339.429C1167.43 340.477 1167.59 341.293 1167.91 341.879C1168.23 342.447 1168.68 342.847 1169.24 343.078C1169.83 343.309 1170.5 343.424 1171.27 343.424C1171.8 343.424 1172.33 343.38 1172.87 343.291C1173.4 343.184 1173.81 343.104 1174.09 343.051L1175.88 351.494C1175.31 351.672 1174.51 351.876 1173.48 352.107C1172.45 352.355 1171.2 352.506 1169.72 352.559C1166.99 352.666 1164.59 352.302 1162.53 351.467C1160.49 350.633 1158.9 349.337 1157.77 347.579C1156.63 345.821 1156.07 343.602 1156.09 340.92V301.29Z" fill="#3D3D3D" fill-opacity="0.19"/>
<path d="M1797.14 230H1784.78L1803.61 175.455H1818.48L1837.28 230H1824.92L1811.26 187.919H1810.83L1797.14 230ZM1796.37 208.56H1825.56V217.562H1796.37V208.56ZM1848.13 230V189.091H1859.13V196.229H1859.56C1860.3 193.69 1861.55 191.772 1863.31 190.476C1865.07 189.162 1867.09 188.505 1869.38 188.505C1869.95 188.505 1870.57 188.54 1871.22 188.612C1871.88 188.683 1872.46 188.78 1872.95 188.904V198.972C1872.42 198.812 1871.68 198.67 1870.74 198.546C1869.8 198.422 1868.94 198.359 1868.16 198.359C1866.49 198.359 1865 198.723 1863.69 199.451C1862.39 200.162 1861.36 201.156 1860.6 202.434C1859.85 203.713 1859.48 205.186 1859.48 206.855V230H1848.13ZM1907.13 189.091V197.614H1882.49V189.091H1907.13ZM1888.09 179.29H1899.43V217.429C1899.43 218.477 1899.59 219.293 1899.91 219.879C1900.23 220.447 1900.68 220.847 1901.24 221.078C1901.83 221.309 1902.5 221.424 1903.27 221.424C1903.8 221.424 1904.33 221.38 1904.87 221.291C1905.4 221.184 1905.81 221.104 1906.09 221.051L1907.88 229.494C1907.31 229.672 1906.51 229.876 1905.48 230.107C1904.45 230.355 1903.2 230.506 1901.72 230.559C1898.99 230.666 1896.59 230.302 1894.53 229.467C1892.49 228.633 1890.9 227.337 1889.77 225.579C1888.63 223.821 1888.07 221.602 1888.09 218.92V179.29Z" fill="#3D3D3D" fill-opacity="0.19"/>
<path d="M1353.14 352H1340.78L1359.61 297.455H1374.48L1393.28 352H1380.92L1367.26 309.919H1366.83L1353.14 352ZM1352.37 330.56H1381.56V339.562H1352.37V330.56ZM1404.13 352V311.091H1415.13V318.229H1415.56C1416.3 315.69 1417.55 313.772 1419.31 312.476C1421.07 311.162 1423.09 310.505 1425.38 310.505C1425.95 310.505 1426.57 310.54 1427.22 310.612C1427.88 310.683 1428.46 310.78 1428.95 310.904V320.972C1428.42 320.812 1427.68 320.67 1426.74 320.546C1425.8 320.422 1424.94 320.359 1424.16 320.359C1422.49 320.359 1421 320.723 1419.69 321.451C1418.39 322.162 1417.36 323.156 1416.6 324.434C1415.85 325.713 1415.48 327.186 1415.48 328.855V352H1404.13ZM1463.13 311.091V319.614H1438.49V311.091H1463.13ZM1444.09 301.29H1455.43V339.429C1455.43 340.477 1455.59 341.293 1455.91 341.879C1456.23 342.447 1456.68 342.847 1457.24 343.078C1457.83 343.309 1458.5 343.424 1459.27 343.424C1459.8 343.424 1460.33 343.38 1460.87 343.291C1461.4 343.184 1461.81 343.104 1462.09 343.051L1463.88 351.494C1463.31 351.672 1462.51 351.876 1461.48 352.107C1460.45 352.355 1459.2 352.506 1457.72 352.559C1454.99 352.666 1452.59 352.302 1450.53 351.467C1448.49 350.633 1446.9 349.337 1445.77 347.579C1444.63 345.821 1444.07 343.602 1444.09 340.92V301.29Z" fill="#3D3D3D" fill-opacity="0.19"/>
<path d="M708.142 348H695.784L714.614 293.455H729.476L748.279 348H735.921L722.258 305.919H721.832L708.142 348ZM707.37 326.56H736.56V335.562H707.37V326.56ZM759.131 348V307.091H770.131V314.229H770.557C771.303 311.69 772.555 309.772 774.312 308.476C776.07 307.162 778.094 306.505 780.385 306.505C780.953 306.505 781.566 306.54 782.222 306.612C782.879 306.683 783.456 306.78 783.954 306.904V316.972C783.421 316.812 782.684 316.67 781.743 316.546C780.802 316.422 779.941 316.359 779.16 316.359C777.491 316.359 775.999 316.723 774.685 317.451C773.389 318.162 772.359 319.156 771.596 320.434C770.85 321.713 770.477 323.186 770.477 324.855V348H759.131ZM818.13 307.091V315.614H793.494V307.091H818.13ZM799.087 297.29H810.433V335.429C810.433 336.477 810.593 337.293 810.912 337.879C811.232 338.447 811.676 338.847 812.244 339.078C812.83 339.309 813.505 339.424 814.268 339.424C814.801 339.424 815.334 339.38 815.866 339.291C816.399 339.184 816.807 339.104 817.091 339.051L818.876 347.494C818.308 347.672 817.509 347.876 816.479 348.107C815.449 348.355 814.197 348.506 812.723 348.559C809.989 348.666 807.592 348.302 805.532 347.467C803.491 346.633 801.901 345.337 800.765 343.579C799.629 341.821 799.069 339.602 799.087 336.92V297.29ZM830.021 348V307.091H841.367V348H830.021ZM835.72 301.817C834.034 301.817 832.587 301.258 831.379 300.14C830.19 299.003 829.595 297.645 829.595 296.065C829.595 294.502 830.19 293.162 831.379 292.043C832.587 290.907 834.034 290.338 835.72 290.338C837.407 290.338 838.845 290.907 840.035 292.043C841.242 293.162 841.846 294.502 841.846 296.065C841.846 297.645 841.242 299.003 840.035 300.14C838.845 301.258 837.407 301.817 835.72 301.817ZM888.993 318.756L878.606 319.396C878.428 318.508 878.047 317.709 877.461 316.999C876.875 316.271 876.102 315.694 875.144 315.267C874.203 314.824 873.075 314.602 871.761 314.602C870.003 314.602 868.521 314.974 867.313 315.72C866.106 316.448 865.502 317.425 865.502 318.65C865.502 319.626 865.893 320.452 866.674 321.127C867.455 321.801 868.796 322.343 870.696 322.751L878.1 324.243C882.077 325.06 885.042 326.374 886.996 328.185C888.949 329.996 889.925 332.375 889.925 335.322C889.925 338.004 889.135 340.356 887.555 342.38C885.992 344.404 883.844 345.985 881.11 347.121C878.393 348.24 875.259 348.799 871.708 348.799C866.292 348.799 861.978 347.672 858.764 345.417C855.568 343.144 853.695 340.054 853.144 336.148L864.304 335.562C864.641 337.213 865.458 338.474 866.754 339.344C868.05 340.196 869.71 340.623 871.735 340.623C873.723 340.623 875.321 340.241 876.529 339.477C877.754 338.696 878.375 337.693 878.393 336.468C878.375 335.438 877.94 334.594 877.088 333.938C876.236 333.263 874.922 332.748 873.146 332.393L866.062 330.981C862.067 330.182 859.093 328.797 857.139 326.826C855.204 324.855 854.236 322.343 854.236 319.289C854.236 316.661 854.947 314.397 856.367 312.498C857.805 310.598 859.82 309.133 862.413 308.103C865.023 307.073 868.077 306.558 871.575 306.558C876.742 306.558 880.808 307.65 883.773 309.834C886.756 312.018 888.496 314.992 888.993 318.756ZM923.329 307.091V315.614H898.693V307.091H923.329ZM904.286 297.29H915.632V335.429C915.632 336.477 915.792 337.293 916.112 337.879C916.431 338.447 916.875 338.847 917.443 339.078C918.029 339.309 918.704 339.424 919.467 339.424C920 339.424 920.533 339.38 921.065 339.291C921.598 339.184 922.006 339.104 922.291 339.051L924.075 347.494C923.507 347.672 922.708 347.876 921.678 348.107C920.648 348.355 919.396 348.506 917.923 348.559C915.188 348.666 912.791 348.302 910.732 347.467C908.69 346.633 907.101 345.337 905.964 343.579C904.828 341.821 904.269 339.602 904.286 336.92V297.29Z" fill="#3D3D3D" fill-opacity="0.19"/>
<path d="M1408.14 103H1395.78L1414.61 48.4545H1429.48L1448.28 103H1435.92L1422.26 60.919H1421.83L1408.14 103ZM1407.37 81.56H1436.56V90.5621H1407.37V81.56ZM1459.13 103V62.0909H1470.13V69.2287H1470.56C1471.3 66.6896 1472.55 64.772 1474.31 63.4759C1476.07 62.1619 1478.09 61.505 1480.38 61.505C1480.95 61.505 1481.57 61.5405 1482.22 61.6115C1482.88 61.6825 1483.46 61.7802 1483.95 61.9045V71.9719C1483.42 71.8121 1482.68 71.6701 1481.74 71.5458C1480.8 71.4215 1479.94 71.3594 1479.16 71.3594C1477.49 71.3594 1476 71.7234 1474.69 72.4513C1473.39 73.1616 1472.36 74.1559 1471.6 75.4343C1470.85 76.7127 1470.48 78.1864 1470.48 79.8555V103H1459.13ZM1518.13 62.0909V70.6136H1493.49V62.0909H1518.13ZM1499.09 52.2898H1510.43V90.429C1510.43 91.4766 1510.59 92.2933 1510.91 92.8793C1511.23 93.4474 1511.68 93.8469 1512.24 94.0778C1512.83 94.3086 1513.5 94.424 1514.27 94.424C1514.8 94.424 1515.33 94.3796 1515.87 94.2908C1516.4 94.1843 1516.81 94.1044 1517.09 94.0511L1518.88 102.494C1518.31 102.672 1517.51 102.876 1516.48 103.107C1515.45 103.355 1514.2 103.506 1512.72 103.559C1509.99 103.666 1507.59 103.302 1505.53 102.467C1503.49 101.633 1501.9 100.337 1500.77 98.5788C1499.63 96.821 1499.07 94.6016 1499.09 91.9205V52.2898ZM1538.09 103L1526.96 62.0909H1538.44L1544.78 89.5767H1545.15L1551.75 62.0909H1563.02L1569.73 89.4169H1570.08L1576.31 62.0909H1587.76L1576.66 103H1564.64L1557.61 77.272H1557.11L1550.08 103H1538.09ZM1615.77 103.799C1611.64 103.799 1608.06 102.92 1605.04 101.162C1602.04 99.3867 1599.72 96.9187 1598.09 93.7582C1596.45 90.5799 1595.64 86.8956 1595.64 82.7053C1595.64 78.4794 1596.45 74.7862 1598.09 71.6257C1599.72 68.4474 1602.04 65.9794 1605.04 64.2216C1608.06 62.446 1611.64 61.5582 1615.77 61.5582C1619.91 61.5582 1623.48 62.446 1626.48 64.2216C1629.5 65.9794 1631.82 68.4474 1633.46 71.6257C1635.09 74.7862 1635.91 78.4794 1635.91 82.7053C1635.91 86.8956 1635.09 90.5799 1633.46 93.7582C1631.82 96.9187 1629.5 99.3867 1626.48 101.162C1623.48 102.92 1619.91 103.799 1615.77 103.799ZM1615.83 95.0099C1617.71 95.0099 1619.28 94.4773 1620.54 93.4119C1621.8 92.3288 1622.75 90.8551 1623.39 88.9908C1624.05 87.1264 1624.38 85.0046 1624.38 82.6254C1624.38 80.2461 1624.05 78.1243 1623.39 76.2599C1622.75 74.3956 1621.8 72.9219 1620.54 71.8388C1619.28 70.7557 1617.71 70.2141 1615.83 70.2141C1613.93 70.2141 1612.33 70.7557 1611.03 71.8388C1609.75 72.9219 1608.79 74.3956 1608.13 76.2599C1607.49 78.1243 1607.17 80.2461 1607.17 82.6254C1607.17 85.0046 1607.49 87.1264 1608.13 88.9908C1608.79 90.8551 1609.75 92.3288 1611.03 93.4119C1612.33 94.4773 1613.93 95.0099 1615.83 95.0099ZM1647.79 103V62.0909H1658.79V69.2287H1659.21C1659.96 66.6896 1661.21 64.772 1662.97 63.4759C1664.72 62.1619 1666.75 61.505 1669.04 61.505C1669.61 61.505 1670.22 61.5405 1670.88 61.6115C1671.53 61.6825 1672.11 61.7802 1672.61 61.9045V71.9719C1672.08 71.8121 1671.34 71.6701 1670.4 71.5458C1669.46 71.4215 1668.6 71.3594 1667.81 71.3594C1666.14 71.3594 1664.65 71.7234 1663.34 72.4513C1662.04 73.1616 1661.01 74.1559 1660.25 75.4343C1659.5 76.7127 1659.13 78.1864 1659.13 79.8555V103H1647.79ZM1693.25 91.228L1693.28 77.6183H1694.93L1708.04 62.0909H1721.06L1703.46 82.652H1700.77L1693.25 91.228ZM1682.97 103V48.4545H1694.32V103H1682.97ZM1708.54 103L1696.5 85.1822L1704.07 77.1655L1721.83 103H1708.54Z" fill="#3D3D3D" fill-opacity="0.19"/>
<path d="M498.142 232H485.784L504.614 177.455H519.476L538.279 232H525.921L512.258 189.919H511.832L498.142 232ZM497.37 210.56H526.56V219.562H497.37V210.56ZM549.131 232V191.091H560.131V198.229H560.557C561.303 195.69 562.555 193.772 564.312 192.476C566.07 191.162 568.094 190.505 570.385 190.505C570.953 190.505 571.566 190.54 572.222 190.612C572.879 190.683 573.456 190.78 573.954 190.904V200.972C573.421 200.812 572.684 200.67 571.743 200.546C570.802 200.422 569.941 200.359 569.16 200.359C567.491 200.359 565.999 200.723 564.685 201.451C563.389 202.162 562.359 203.156 561.596 204.434C560.85 205.713 560.477 207.186 560.477 208.855V232H549.131ZM608.13 191.091V199.614H583.494V191.091H608.13ZM589.087 181.29H600.433V219.429C600.433 220.477 600.593 221.293 600.912 221.879C601.232 222.447 601.676 222.847 602.244 223.078C602.83 223.309 603.505 223.424 604.268 223.424C604.801 223.424 605.334 223.38 605.866 223.291C606.399 223.184 606.807 223.104 607.091 223.051L608.876 231.494C608.308 231.672 607.509 231.876 606.479 232.107C605.449 232.355 604.197 232.506 602.723 232.559C599.989 232.666 597.592 232.302 595.532 231.467C593.491 230.633 591.901 229.337 590.765 227.579C589.629 225.821 589.069 223.602 589.087 220.92V181.29ZM620.021 232V191.091H631.367V232H620.021ZM625.72 185.817C624.034 185.817 622.587 185.258 621.379 184.14C620.19 183.003 619.595 181.645 619.595 180.065C619.595 178.502 620.19 177.162 621.379 176.043C622.587 174.907 624.034 174.338 625.72 174.338C627.407 174.338 628.845 174.907 630.035 176.043C631.242 177.162 631.846 178.502 631.846 180.065C631.846 181.645 631.242 183.003 630.035 184.14C628.845 185.258 627.407 185.817 625.72 185.817ZM678.993 202.756L668.606 203.396C668.428 202.508 668.047 201.709 667.461 200.999C666.875 200.271 666.102 199.694 665.144 199.267C664.203 198.824 663.075 198.602 661.761 198.602C660.003 198.602 658.521 198.974 657.313 199.72C656.106 200.448 655.502 201.425 655.502 202.65C655.502 203.626 655.893 204.452 656.674 205.127C657.455 205.801 658.796 206.343 660.696 206.751L668.1 208.243C672.077 209.06 675.042 210.374 676.996 212.185C678.949 213.996 679.925 216.375 679.925 219.322C679.925 222.004 679.135 224.356 677.555 226.38C675.992 228.404 673.844 229.985 671.11 231.121C668.393 232.24 665.259 232.799 661.708 232.799C656.292 232.799 651.978 231.672 648.764 229.417C645.568 227.144 643.695 224.054 643.144 220.148L654.304 219.562C654.641 221.213 655.458 222.474 656.754 223.344C658.05 224.196 659.71 224.623 661.735 224.623C663.723 224.623 665.321 224.241 666.529 223.477C667.754 222.696 668.375 221.693 668.393 220.468C668.375 219.438 667.94 218.594 667.088 217.938C666.236 217.263 664.922 216.748 663.146 216.393L656.062 214.981C652.067 214.182 649.093 212.797 647.139 210.826C645.204 208.855 644.236 206.343 644.236 203.289C644.236 200.661 644.947 198.397 646.367 196.498C647.805 194.598 649.82 193.133 652.413 192.103C655.023 191.073 658.077 190.558 661.575 190.558C666.742 190.558 670.808 191.65 673.773 193.834C676.756 196.018 678.496 198.992 678.993 202.756ZM713.329 191.091V199.614H688.693V191.091H713.329ZM694.286 181.29H705.632V219.429C705.632 220.477 705.792 221.293 706.112 221.879C706.431 222.447 706.875 222.847 707.443 223.078C708.029 223.309 708.704 223.424 709.467 223.424C710 223.424 710.533 223.38 711.065 223.291C711.598 223.184 712.006 223.104 712.291 223.051L714.075 231.494C713.507 231.672 712.708 231.876 711.678 232.107C710.648 232.355 709.396 232.506 707.923 232.559C705.188 232.666 702.791 232.302 700.732 231.467C698.69 230.633 697.101 229.337 695.964 227.579C694.828 225.821 694.269 223.602 694.286 220.92V181.29Z" fill="#3D3D3D" fill-opacity="0.19"/>
<path d="M428.146 337H415.788L434.618 282.455H449.479L468.283 337H455.925L442.262 294.919H441.835L428.146 337ZM427.373 315.56H456.564V324.562H427.373V315.56ZM479.135 337V296.091H490.134V303.229H490.56C491.306 300.69 492.558 298.772 494.316 297.476C496.074 296.162 498.098 295.505 500.388 295.505C500.956 295.505 501.569 295.54 502.226 295.612C502.883 295.683 503.46 295.78 503.957 295.904V305.972C503.424 305.812 502.688 305.67 501.746 305.546C500.805 305.422 499.944 305.359 499.163 305.359C497.494 305.359 496.003 305.723 494.689 306.451C493.392 307.162 492.363 308.156 491.599 309.434C490.853 310.713 490.481 312.186 490.481 313.855V337H479.135ZM538.133 296.091V304.614H513.497V296.091H538.133ZM519.091 286.29H530.436V324.429C530.436 325.477 530.596 326.293 530.916 326.879C531.235 327.447 531.679 327.847 532.247 328.078C532.833 328.309 533.508 328.424 534.272 328.424C534.804 328.424 535.337 328.38 535.87 328.291C536.402 328.184 536.811 328.104 537.095 328.051L538.879 336.494C538.311 336.672 537.512 336.876 536.482 337.107C535.452 337.355 534.201 337.506 532.727 337.559C529.992 337.666 527.595 337.302 525.536 336.467C523.494 335.633 521.905 334.337 520.768 332.579C519.632 330.821 519.073 328.602 519.091 325.92V286.29Z" fill="#3D3D3D" fill-opacity="0.19"/>
<path d="M946.142 232H933.784L952.614 177.455H967.476L986.279 232H973.921L960.258 189.919H959.832L946.142 232ZM945.37 210.56H974.56V219.562H945.37V210.56ZM997.131 232V191.091H1008.13V198.229H1008.56C1009.3 195.69 1010.55 193.772 1012.31 192.476C1014.07 191.162 1016.09 190.505 1018.38 190.505C1018.95 190.505 1019.57 190.54 1020.22 190.612C1020.88 190.683 1021.46 190.78 1021.95 190.904V200.972C1021.42 200.812 1020.68 200.67 1019.74 200.546C1018.8 200.422 1017.94 200.359 1017.16 200.359C1015.49 200.359 1014 200.723 1012.69 201.451C1011.39 202.162 1010.36 203.156 1009.6 204.434C1008.85 205.713 1008.48 207.186 1008.48 208.855V232H997.131ZM1056.13 191.091V199.614H1031.49V191.091H1056.13ZM1037.09 181.29H1048.43V219.429C1048.43 220.477 1048.59 221.293 1048.91 221.879C1049.23 222.447 1049.68 222.847 1050.24 223.078C1050.83 223.309 1051.5 223.424 1052.27 223.424C1052.8 223.424 1053.33 223.38 1053.87 223.291C1054.4 223.184 1054.81 223.104 1055.09 223.051L1056.88 231.494C1056.31 231.672 1055.51 231.876 1054.48 232.107C1053.45 232.355 1052.2 232.506 1050.72 232.559C1047.99 232.666 1045.59 232.302 1043.53 231.467C1041.49 230.633 1039.9 229.337 1038.77 227.579C1037.63 225.821 1037.07 223.602 1037.09 220.92V181.29ZM1068.02 232V191.091H1079.37V232H1068.02ZM1073.72 185.817C1072.03 185.817 1070.59 185.258 1069.38 184.14C1068.19 183.003 1067.59 181.645 1067.59 180.065C1067.59 178.502 1068.19 177.162 1069.38 176.043C1070.59 174.907 1072.03 174.338 1073.72 174.338C1075.41 174.338 1076.85 174.907 1078.04 176.043C1079.24 177.162 1079.85 178.502 1079.85 180.065C1079.85 181.645 1079.24 183.003 1078.04 184.14C1076.85 185.258 1075.41 185.817 1073.72 185.817ZM1111.44 232.799C1107.25 232.799 1103.64 231.911 1100.63 230.136C1097.63 228.342 1095.32 225.857 1093.7 222.678C1092.1 219.5 1091.3 215.842 1091.3 211.705C1091.3 207.515 1092.11 203.839 1093.73 200.679C1095.36 197.501 1097.68 195.024 1100.68 193.248C1103.68 191.455 1107.25 190.558 1111.39 190.558C1114.95 190.558 1118.08 191.206 1120.76 192.502C1123.44 193.799 1125.56 195.619 1127.13 197.962C1128.69 200.306 1129.55 203.058 1129.71 206.219H1119C1118.7 204.177 1117.9 202.534 1116.61 201.292C1115.33 200.031 1113.65 199.401 1111.57 199.401C1109.81 199.401 1108.28 199.88 1106.96 200.839C1105.67 201.78 1104.66 203.156 1103.93 204.967C1103.2 206.778 1102.84 208.971 1102.84 211.545C1102.84 214.156 1103.19 216.375 1103.9 218.204C1104.63 220.033 1105.65 221.426 1106.96 222.385C1108.28 223.344 1109.81 223.824 1111.57 223.824C1112.87 223.824 1114.03 223.557 1115.06 223.025C1116.11 222.492 1116.97 221.719 1117.64 220.707C1118.34 219.678 1118.79 218.444 1119 217.005H1129.71C1129.53 220.13 1128.68 222.882 1127.15 225.262C1125.64 227.623 1123.56 229.47 1120.89 230.801C1118.23 232.133 1115.08 232.799 1111.44 232.799ZM1152.82 177.455V232H1141.47V177.455H1152.82ZM1185.05 232.799C1180.84 232.799 1177.22 231.947 1174.19 230.242C1171.17 228.52 1168.84 226.087 1167.21 222.945C1165.57 219.784 1164.76 216.047 1164.76 211.732C1164.76 207.524 1165.57 203.831 1167.21 200.652C1168.84 197.474 1171.14 194.997 1174.11 193.222C1177.09 191.446 1180.59 190.558 1184.6 190.558C1187.3 190.558 1189.81 190.993 1192.14 191.863C1194.48 192.716 1196.52 194.003 1198.26 195.725C1200.02 197.447 1201.39 199.614 1202.36 202.224C1203.34 204.816 1203.83 207.852 1203.83 211.332V214.449H1169.28V207.417H1193.15C1193.15 205.784 1192.79 204.337 1192.08 203.076C1191.37 201.815 1190.39 200.83 1189.13 200.12C1187.88 199.392 1186.44 199.028 1184.79 199.028C1183.06 199.028 1181.54 199.427 1180.2 200.226C1178.89 201.007 1177.86 202.064 1177.12 203.396C1176.37 204.71 1175.99 206.174 1175.97 207.79V214.475C1175.97 216.499 1176.34 218.248 1177.09 219.722C1177.85 221.196 1178.93 222.332 1180.31 223.131C1181.7 223.93 1183.34 224.33 1185.24 224.33C1186.5 224.33 1187.65 224.152 1188.7 223.797C1189.75 223.442 1190.65 222.909 1191.39 222.199C1192.14 221.489 1192.7 220.619 1193.1 219.589L1203.59 220.281C1203.06 222.803 1201.96 225.004 1200.31 226.886C1198.68 228.751 1196.57 230.207 1193.97 231.254C1191.4 232.284 1188.43 232.799 1185.05 232.799ZM1249.77 202.756L1239.38 203.396C1239.21 202.508 1238.82 201.709 1238.24 200.999C1237.65 200.271 1236.88 199.694 1235.92 199.267C1234.98 198.824 1233.85 198.602 1232.54 198.602C1230.78 198.602 1229.3 198.974 1228.09 199.72C1226.88 200.448 1226.28 201.425 1226.28 202.65C1226.28 203.626 1226.67 204.452 1227.45 205.127C1228.23 205.801 1229.57 206.343 1231.47 206.751L1238.88 208.243C1242.85 209.06 1245.82 210.374 1247.77 212.185C1249.73 213.996 1250.7 216.375 1250.7 219.322C1250.7 222.004 1249.91 224.356 1248.33 226.38C1246.77 228.404 1244.62 229.985 1241.89 231.121C1239.17 232.24 1236.04 232.799 1232.49 232.799C1227.07 232.799 1222.76 231.672 1219.54 229.417C1216.35 227.144 1214.47 224.054 1213.92 220.148L1225.08 219.562C1225.42 221.213 1226.24 222.474 1227.53 223.344C1228.83 224.196 1230.49 224.623 1232.51 224.623C1234.5 224.623 1236.1 224.241 1237.31 223.477C1238.53 222.696 1239.15 221.693 1239.17 220.468C1239.15 219.438 1238.72 218.594 1237.87 217.938C1237.01 217.263 1235.7 216.748 1233.92 216.393L1226.84 214.981C1222.84 214.182 1219.87 212.797 1217.92 210.826C1215.98 208.855 1215.01 206.343 1215.01 203.289C1215.01 200.661 1215.72 198.397 1217.14 196.498C1218.58 194.598 1220.6 193.133 1223.19 192.103C1225.8 191.073 1228.85 190.558 1232.35 190.558C1237.52 190.558 1241.59 191.65 1244.55 193.834C1247.53 196.018 1249.27 198.992 1249.77 202.756Z" fill="#3D3D3D" fill-opacity="0.19"/>
<path d="M1003.14 103H990.784L1009.61 48.4545H1024.48L1043.28 103H1030.92L1017.26 60.919H1016.83L1003.14 103ZM1002.37 81.56H1031.56V90.5621H1002.37V81.56ZM1054.13 103V62.0909H1065.13V69.2287H1065.56C1066.3 66.6896 1067.55 64.772 1069.31 63.4759C1071.07 62.1619 1073.09 61.505 1075.38 61.505C1075.95 61.505 1076.57 61.5405 1077.22 61.6115C1077.88 61.6825 1078.46 61.7802 1078.95 61.9045V71.9719C1078.42 71.8121 1077.68 71.6701 1076.74 71.5458C1075.8 71.4215 1074.94 71.3594 1074.16 71.3594C1072.49 71.3594 1071 71.7234 1069.69 72.4513C1068.39 73.1616 1067.36 74.1559 1066.6 75.4343C1065.85 76.7127 1065.48 78.1864 1065.48 79.8555V103H1054.13ZM1113.13 62.0909V70.6136H1088.49V62.0909H1113.13ZM1094.09 52.2898H1105.43V90.429C1105.43 91.4766 1105.59 92.2933 1105.91 92.8793C1106.23 93.4474 1106.68 93.8469 1107.24 94.0778C1107.83 94.3086 1108.5 94.424 1109.27 94.424C1109.8 94.424 1110.33 94.3796 1110.87 94.2908C1111.4 94.1843 1111.81 94.1044 1112.09 94.0511L1113.88 102.494C1113.31 102.672 1112.51 102.876 1111.48 103.107C1110.45 103.355 1109.2 103.506 1107.72 103.559C1104.99 103.666 1102.59 103.302 1100.53 102.467C1098.49 101.633 1096.9 100.337 1095.77 98.5788C1094.63 96.821 1094.07 94.6016 1094.09 91.9205V52.2898ZM1125.02 103V62.0909H1136.37V103H1125.02ZM1130.72 56.8175C1129.03 56.8175 1127.59 56.2582 1126.38 55.1396C1125.19 54.0032 1124.59 52.6449 1124.59 51.0646C1124.59 49.5021 1125.19 48.1616 1126.38 47.043C1127.59 45.9066 1129.03 45.3384 1130.72 45.3384C1132.41 45.3384 1133.85 45.9066 1135.04 47.043C1136.24 48.1616 1136.85 49.5021 1136.85 51.0646C1136.85 52.6449 1136.24 54.0032 1135.04 55.1396C1133.85 56.2582 1132.41 56.8175 1130.72 56.8175ZM1168.44 103.799C1164.25 103.799 1160.64 102.911 1157.63 101.136C1154.63 99.3423 1152.32 96.8565 1150.7 93.6783C1149.1 90.5 1148.3 86.8423 1148.3 82.7053C1148.3 78.5149 1149.11 74.8395 1150.73 71.679C1152.36 68.5007 1154.68 66.0238 1157.68 64.2482C1160.68 62.4549 1164.25 61.5582 1168.39 61.5582C1171.95 61.5582 1175.08 62.2063 1177.76 63.5025C1180.44 64.7986 1182.56 66.6186 1184.13 68.9624C1185.69 71.3061 1186.55 74.0582 1186.71 77.2188H1176C1175.7 75.1768 1174.9 73.5344 1173.61 72.2915C1172.33 71.0309 1170.65 70.4006 1168.57 70.4006C1166.81 70.4006 1165.28 70.88 1163.96 71.8388C1162.67 72.7798 1161.66 74.1559 1160.93 75.967C1160.2 77.7781 1159.84 79.9709 1159.84 82.5455C1159.84 85.1555 1160.19 87.375 1160.9 89.2038C1161.63 91.0327 1162.65 92.4265 1163.96 93.3853C1165.28 94.3441 1166.81 94.8235 1168.57 94.8235C1169.87 94.8235 1171.03 94.5572 1172.06 94.0245C1173.11 93.4918 1173.97 92.7195 1174.64 91.7074C1175.34 90.6776 1175.79 89.4435 1176 88.0053H1186.71C1186.53 91.1303 1185.68 93.8825 1184.15 96.2617C1182.64 98.6232 1180.56 100.47 1177.89 101.801C1175.23 103.133 1172.08 103.799 1168.44 103.799ZM1209.82 48.4545V103H1198.47V48.4545H1209.82ZM1242.05 103.799C1237.84 103.799 1234.22 102.947 1231.19 101.242C1228.17 99.5199 1225.84 97.0874 1224.21 93.9446C1222.57 90.7841 1221.76 87.0465 1221.76 82.7319C1221.76 78.5238 1222.57 74.8306 1224.21 71.6523C1225.84 68.4741 1228.14 65.9972 1231.11 64.2216C1234.09 62.446 1237.59 61.5582 1241.6 61.5582C1244.3 61.5582 1246.81 61.9933 1249.14 62.8633C1251.48 63.7156 1253.52 65.0028 1255.26 66.7251C1257.02 68.4474 1258.39 70.6136 1259.36 73.2237C1260.34 75.8161 1260.83 78.8523 1260.83 82.3324V85.4485H1226.28V78.4173H1250.15C1250.15 76.7837 1249.79 75.3366 1249.08 74.076C1248.37 72.8153 1247.39 71.8299 1246.13 71.1197C1244.88 70.3917 1243.44 70.0277 1241.79 70.0277C1240.06 70.0277 1238.54 70.4272 1237.2 71.2262C1235.89 72.0075 1234.86 73.0639 1234.12 74.3956C1233.37 75.7095 1232.99 77.1744 1232.97 78.7901V85.4751C1232.97 87.4993 1233.34 89.2482 1234.09 90.7219C1234.85 92.1957 1235.93 93.332 1237.31 94.131C1238.7 94.93 1240.34 95.3295 1242.24 95.3295C1243.5 95.3295 1244.65 95.152 1245.7 94.7969C1246.75 94.4418 1247.65 93.9091 1248.39 93.1989C1249.14 92.4886 1249.7 91.6186 1250.1 90.5888L1260.59 91.2812C1260.06 93.8026 1258.96 96.0043 1257.31 97.8864C1255.68 99.7507 1253.57 101.207 1250.97 102.254C1248.4 103.284 1245.43 103.799 1242.05 103.799ZM1306.77 73.7564L1296.38 74.3956C1296.21 73.5078 1295.82 72.7088 1295.24 71.9986C1294.65 71.2706 1293.88 70.6935 1292.92 70.2674C1291.98 69.8235 1290.85 69.6016 1289.54 69.6016C1287.78 69.6016 1286.3 69.9744 1285.09 70.7202C1283.88 71.4482 1283.28 72.4247 1283.28 73.6499C1283.28 74.6264 1283.67 75.4521 1284.45 76.1268C1285.23 76.8015 1286.57 77.343 1288.47 77.7514L1295.88 79.2429C1299.85 80.0597 1302.82 81.3736 1304.77 83.1847C1306.73 84.9957 1307.7 87.375 1307.7 90.3224C1307.7 93.0036 1306.91 95.3562 1305.33 97.3803C1303.77 99.4045 1301.62 100.985 1298.89 102.121C1296.17 103.24 1293.04 103.799 1289.49 103.799C1284.07 103.799 1279.76 102.672 1276.54 100.417C1273.35 98.1438 1271.47 95.0543 1270.92 91.1481L1282.08 90.5621C1282.42 92.2134 1283.24 93.4741 1284.53 94.3441C1285.83 95.1964 1287.49 95.6225 1289.51 95.6225C1291.5 95.6225 1293.1 95.2408 1294.31 94.4773C1295.53 93.696 1296.15 92.6928 1296.17 91.4677C1296.15 90.4379 1295.72 89.5945 1294.87 88.9375C1294.01 88.2628 1292.7 87.7479 1290.92 87.3928L1283.84 85.9812C1279.84 85.1822 1276.87 83.7972 1274.92 81.8263C1272.98 79.8555 1272.01 77.343 1272.01 74.2891C1272.01 71.6612 1272.72 69.3974 1274.14 67.4975C1275.58 65.5977 1277.6 64.1328 1280.19 63.103C1282.8 62.0732 1285.85 61.5582 1289.35 61.5582C1294.52 61.5582 1298.59 62.6502 1301.55 64.8342C1304.53 67.0181 1306.27 69.9922 1306.77 73.7564Z" fill="#3D3D3D" fill-opacity="0.19"/>
</svg>
