<svg xmlns="http://www.w3.org/2000/svg" fill="none" viewBox="0 0 400 400">
  
  
  
  
  
  
<g transform="matrix(3.6363636363636362,0,0,3.6363636363636362,0,0)"><path fill="#a79376" fill-rule="evenodd" d="M63.9045 103.075C65.1145 101.904 69.146 97.5755 70.4495 96.5635C70.4894 96.5209 70.5435 96.4934 70.6017 96.4865C70.6594 96.4796 70.7181 96.4938 70.7671 96.5259C70.8157 96.5584 70.8515 96.607 70.868 96.6629C70.8845 96.7193 70.8803 96.7794 70.8565 96.833C70.2075 98.0045 64.548 103.323 64.218 103.636C63.9925 103.917 63.0245 105.083 62.7605 105.325C62.7687 105.544 62.7115 105.76 62.596 105.946C62.48 106.133 62.3113 106.28 62.1115 106.37C61.4029 106.611 60.709 106.892 60.0325 107.211C59.9335 107.299 59.818 107.211 59.8455 107.118C60.1847 106.693 60.4693 106.227 60.6925 105.732C60.7406 105.404 60.907 105.105 61.1605 104.891C61.4135 104.678 61.7361 104.564 62.0675 104.571C62.106 104.5 63.5635 103.301 63.9045 103.075ZM62.051 104.659C61.754 104.676 61.4726 104.8 61.259 105.007C61.045 105.214 60.912 105.49 60.885 105.787C60.7612 106.16 60.5752 106.51 60.335 106.821C61.7265 106.243 62.1995 106.326 62.502 105.858C62.5978 105.703 62.6578 105.528 62.678 105.347C62.293 105.242 62.0235 104.593 62.051 104.659ZM63.7945 103.279C63.3655 103.669 62.92 104.087 62.2655 104.654C62.3617 104.845 62.5057 105.008 62.6835 105.127L64.119 103.592C63.9925 103.511 63.8839 103.404 63.8 103.279H63.7945ZM61.347 96.8C61.974 96.3875 70.4825 90.7885 70.565 91.0635C70.6475 91.3385 62.216 97.7185 62.1445 97.7625C61.787 98.1695 59.3945 100.749 59.081 100.859C58.6822 100.844 58.3041 100.677 58.025 100.391C57.6427 100.001 57.3595 99.5234 57.2 99C57.0955 98.626 61.006 96.943 61.347 96.8ZM57.4695 99.2475C57.5777 99.5963 57.7738 99.9111 58.0387 100.162C58.3032 100.414 58.6282 100.593 58.982 100.683C58.586 100.309 57.75 99.5115 57.4695 99.2475ZM59.1195 97.977C58.5159 98.2648 57.9361 98.6017 57.387 98.9835C57.4585 99.22 57.387 98.9835 57.937 99.44C58.3834 99.7901 58.7748 100.205 59.0975 100.672C59.3725 100.468 60.489 99.3575 60.423 99.418C60.011 98.9129 59.57 98.4317 59.103 97.977H59.1195ZM61.369 96.877C60.4615 97.3005 59.8565 97.5975 59.169 97.933C59.7144 98.2813 60.1572 98.7694 60.4505 99.3465C60.7805 99.0165 61.9025 97.878 62.0675 97.6965C61.908 97.5425 61.49 97.064 61.3525 96.888L61.369 96.877ZM74.6955 90.5905C74.976 88.1265 75.3885 85.063 75.724 85.0465C76.0595 85.03 75.6965 88.1265 75.35 90.607C76.45 90.7005 77.759 91.3055 77.55 92.3505C77.5601 92.5366 77.5358 92.7231 77.4785 92.9005C78.0285 96.635 77.539 97.405 77.5775 97.3445C77.2571 97.7304 76.8565 98.0412 76.4032 98.2561C75.95 98.4706 75.4554 98.5838 74.954 98.5875C74.4507 98.5902 73.9525 98.4853 73.4924 98.2809C73.0327 98.076 72.6215 97.7753 72.2865 97.3995C71.83 96.712 72.1215 93.808 72.2095 92.9995C72.1609 92.8294 72.133 92.6539 72.127 92.477C72.0605 92.1878 72.0981 91.8844 72.2329 91.6199C72.3676 91.3554 72.5908 91.1469 72.864 91.0305C73.4264 90.7289 74.0575 90.5772 74.6955 90.5905ZM77.374 95.4195C76.9395 96.3105 75.724 96.591 74.745 96.591C74.7317 96.8545 74.7024 97.1172 74.657 97.3775C74.613 97.5865 74.5635 97.768 74.349 97.7625C74.0396 97.6997 73.7669 97.5182 73.59 97.2565C73.447 97.042 73.48 96.932 73.6615 96.459C73.4232 96.3967 73.2013 96.2834 73.0116 96.1267C72.8214 95.9699 72.6678 95.7738 72.5615 95.5515C72.5638 96.0428 72.6137 96.5328 72.71 97.0145C72.826 97.2331 72.9919 97.4215 73.194 97.5645C74.437 98.5765 75.944 98.2905 77.2035 97.207C77.2585 96.8 77.3355 96.0025 77.374 95.4195ZM72.325 93.2195C72.2865 93.885 72.138 96.6955 72.512 97.2455C72.7998 97.5801 73.1637 97.8404 73.5735 98.0045C73.144 97.795 72.7948 97.4513 72.578 97.0255C72.4836 96.4365 72.452 95.8393 72.4845 95.2435C72.4497 95.0766 72.4561 94.9039 72.5033 94.7398C72.55 94.5761 72.6362 94.4263 72.754 94.303C73.1445 93.852 73.238 94.1105 72.8805 93.863C72.6467 93.7053 72.4556 93.4917 72.325 93.2415V93.2195ZM73.8045 96.4645C73.738 96.6428 73.6881 96.827 73.656 97.0145C73.656 97.2015 74.151 97.6195 74.371 97.5975C74.448 97.5975 74.47 97.482 74.4975 97.3445C74.5465 97.0956 74.5795 96.844 74.5965 96.591C74.3293 96.5855 74.0639 96.5506 73.8045 96.4865V96.4645ZM77.4125 93.0875C77.2237 93.4358 76.9344 93.7195 76.582 93.9015C77.2145 94.0995 77.6325 94.523 77.462 95.1665C77.462 95.513 77.462 95.854 77.429 96.162C77.374 97.3115 77.3355 97.262 77.3905 97.1795C77.649 96.2005 77.517 94.1435 77.4125 93.1095V93.0875ZM76.4885 93.951C75.9742 94.1999 75.41 94.3296 74.8385 94.3305C74.8394 94.6591 74.7968 94.9864 74.712 95.304C74.7345 95.6702 74.7345 96.0378 74.712 96.404C75.4009 96.4274 76.082 96.2537 76.6755 95.9035C77.55 95.3535 77.6875 94.358 76.4885 93.973V93.951ZM74.217 95.326C74.184 95.403 73.909 96.1675 73.8595 96.305C74.1061 96.365 74.3591 96.3962 74.613 96.3985C74.613 96.129 74.668 95.612 74.6625 95.3425C74.5158 95.3746 74.3646 95.3764 74.217 95.348V95.326ZM73.1885 94.05C72.1325 94.776 72.578 95.931 73.7385 96.283C73.854 95.9915 74.0355 95.5845 74.1675 95.304C74.1826 94.9754 74.2193 94.6486 74.2775 94.325C73.9017 94.2961 73.5332 94.2031 73.1885 94.05ZM74.327 94.3305L74.2775 95.2215C74.371 95.2215 74.6735 95.2655 74.6405 95.2215C74.6075 95.1775 74.712 94.7045 74.7505 94.3415C74.6075 94.3525 74.4645 94.347 74.327 94.336V94.3305ZM77.319 92.873C76.34 94.0995 73.381 94.116 72.369 92.873C72.4758 93.1484 72.6522 93.3923 72.8805 93.5797C73.1087 93.7677 73.3815 93.8937 73.6725 93.9455C74.9265 94.2865 76.813 94.0115 77.319 92.8785V92.873ZM75.2675 91.179C75.1025 92.3175 74.9595 93.2415 74.91 93.544C75.7405 93.544 76.8515 93.2415 77.2365 92.5705C77.1155 91.7125 76.1365 91.267 75.2675 91.1845V91.179ZM74.6295 91.179C74.1753 91.2014 73.7357 91.3454 73.3562 91.5961C72.9772 91.8468 72.6724 92.1946 72.4735 92.6035C72.8255 93.1535 73.711 93.456 74.393 93.522C74.4205 93.2195 74.5085 92.3065 74.6295 91.1845V91.179ZM74.6845 90.695C74.085 90.717 73.5006 90.8889 72.985 91.1955C72.4955 91.509 72.1655 91.993 72.435 92.5155C72.6225 92.0824 72.9286 91.7107 73.3177 91.443C73.7069 91.1753 74.1634 91.0231 74.635 91.003L74.6845 90.695ZM75.35 90.75C75.35 90.8435 75.3225 90.937 75.306 91.0305C76.2135 91.113 77.165 91.5805 77.3135 92.4605C77.5115 91.96 77.1815 91.509 76.7195 91.2175C76.302 90.9649 75.8349 90.8054 75.35 90.75ZM80.619 92.983C80.3605 91.7015 78.2705 82.1535 78.969 81.598C79.217 81.4614 79.4869 81.3684 79.7665 81.323C80.5365 81.158 85.448 80.498 85.6735 81.1635C85.899 81.829 84.5735 91.9655 84.4745 92.51C84.4745 92.8785 84.337 93.907 84.337 93.907C84.1945 94.2054 83.9827 94.4652 83.7201 94.666C83.457 94.8667 83.1504 95.0019 82.825 95.0611C82.5 95.1202 82.165 95.1009 81.8487 95.0056C81.532 94.9103 81.2423 94.7411 81.004 94.512C80.8202 94.0179 80.6914 93.505 80.619 92.983ZM85.393 82.3845C83.287 82.4124 81.1855 82.5962 79.1065 82.9345C79.277 85.2445 80.278 90.6345 80.7125 92.9335C81.285 93.2465 81.9376 93.3826 82.5875 93.3249C83.2379 93.2671 83.8562 93.0183 84.3645 92.609C84.425 92.1415 85.349 83.0005 85.393 82.3845ZM84.898 85.5745C84.898 85.5745 84.931 85.2005 84.469 85.294C84.007 85.3875 83.1655 86.1795 82.1315 86.0915C81.0975 86.0035 80.113 85.426 79.805 85.811C79.497 86.196 80.8005 87.4115 82.489 87.1255C84.425 86.801 84.9365 86.0035 84.898 85.5745ZM79.453 81.6695C79.3705 81.6695 79.145 81.7575 79.123 81.829C79.0762 82.1778 79.0762 82.5307 79.123 82.8795L79.673 82.775C79.5488 82.4184 79.4745 82.0462 79.453 81.6695ZM80.4045 81.466C80.124 81.5155 79.794 81.576 79.5245 81.6475C79.6061 82.0105 79.667 82.3776 79.706 82.7475C79.915 82.709 80.498 82.61 80.6685 82.5935C80.652 82.555 80.52 82.0985 80.4045 81.466ZM81.455 81.3285C81.1085 81.367 80.7785 81.411 80.476 81.455C80.6107 81.823 80.6923 82.208 80.718 82.599L81.642 82.4835C81.609 82.302 81.4935 81.73 81.455 81.3285ZM82.4835 81.2295C82.2965 81.2295 81.9005 81.2735 81.5265 81.3175C81.6425 81.6933 81.6997 82.0847 81.697 82.478L82.687 82.3845C82.6705 82.291 82.555 81.796 82.5 81.2295H82.4835ZM83.5835 81.158L82.555 81.224C82.6737 81.5975 82.7365 81.9867 82.742 82.379C83.061 82.379 83.413 82.335 83.7265 82.324C83.7265 82.313 83.6 81.2295 83.6 81.158H83.5835ZM84.9145 81.158C84.8948 81.5434 84.8526 81.9271 84.788 82.3075H85.3985C85.3985 82.17 85.492 81.246 85.3985 81.2075C85.239 81.1759 85.0772 81.1612 84.9145 81.1635V81.158ZM84.843 81.158H83.6605C83.7668 81.537 83.8076 81.9312 83.7815 82.324H84.7385C84.722 81.9326 84.7573 81.5402 84.843 81.158ZM43.4499 88.7315C44.1704 88.7315 44.7589 88.9955 44.7589 89.331C44.7589 89.6665 44.1704 89.9305 43.4499 89.9305C42.7294 89.9305 42.1464 89.661 42.1464 89.331C42.1464 89.001 42.7074 88.7315 43.4499 88.7315ZM29.5459 85.5635C29.5459 85.6845 29.3204 85.7945 29.0344 85.8055C28.7484 85.8165 28.4844 85.723 28.4844 85.5965C28.4954 85.305 29.5349 85.25 29.5459 85.5635Z" clip-rule="evenodd"></path><path fill="#a79376" d="M34.7545 99.4455C35.1069 99.4455 35.3925 99.2755 35.3925 99.066C35.3925 98.8566 35.1069 98.6865 34.7545 98.6865C34.4022 98.6865 34.1165 98.8566 34.1165 99.066C34.1165 99.2755 34.4022 99.4455 34.7545 99.4455Z"></path><path fill="#a79376" fill-rule="evenodd" d="M62.2215 80.85C62.7715 80.85 63.2445 81.0095 63.2445 81.202C63.2445 81.3945 62.788 81.5595 62.2215 81.5595C61.655 81.5595 61.204 81.4 61.204 81.202C61.204 81.004 61.6605 80.85 62.2215 80.85ZM27.2031 66.8085C27.2031 66.946 27.1206 67.9855 27.1646 69.5035C27.1646 69.707 27.2031 70.4 27.2031 70.4C27.2031 70.4 27.2691 70.4385 27.2691 70.4C27.2691 70.3615 27.3021 69.707 27.3076 69.5035C27.3406 68.2385 27.2691 66.7535 27.2691 66.8085C27.2691 66.7998 27.2657 66.7916 27.2594 66.7851C27.2532 66.7792 27.2448 66.7755 27.2361 66.7755C27.2273 66.7755 27.219 66.7792 27.2128 66.7851C27.2066 66.7916 27.2031 66.7998 27.2031 66.8085ZM50.1105 6.71002C50.798 6.89702 52.0135 7.28752 52.4535 7.85402C52.4695 7.87479 52.4782 7.90013 52.4782 7.92626C52.4782 7.95238 52.4705 7.97787 52.4549 7.9989C52.4393 8.01994 52.4173 8.03543 52.3925 8.04299C52.3673 8.0506 52.3408 8.04992 52.316 8.04102C50.116 7.14452 46.6125 8.28852 44.3906 9.21252C43.5106 9.58102 48.7905 3.62451 52.5855 4.55951C52.6116 4.56742 52.6341 4.58345 52.6506 4.60522C52.6666 4.62704 52.6753 4.65339 52.6753 4.68052C52.6753 4.70761 52.6666 4.73401 52.6506 4.75578C52.6341 4.7776 52.6116 4.79359 52.5855 4.80152C51.7229 5.00383 50.8759 5.26664 50.05 5.58802C50.6825 5.61552 52.14 5.70902 52.6295 6.13802C52.6492 6.1548 52.663 6.17684 52.6703 6.20155C52.6772 6.22621 52.6772 6.25238 52.6694 6.2769C52.6616 6.30137 52.6474 6.32314 52.6277 6.33951C52.6075 6.35587 52.5837 6.36614 52.558 6.36902C51.7371 6.44039 50.9199 6.55419 50.1105 6.71002ZM51.9365 4.71352C50.8562 4.70958 49.7938 4.99031 48.8565 5.52752C47.1795 6.41733 45.6863 7.61739 44.4566 9.06402C46.563 8.15102 49.5605 7.11702 51.81 7.63402C51.1005 7.27157 50.3461 7.00524 49.566 6.84202C49.5376 6.83602 49.5124 6.82044 49.494 6.79789C49.4757 6.77538 49.4656 6.74724 49.4656 6.71827C49.4656 6.68926 49.4757 6.66117 49.494 6.63862C49.5124 6.61611 49.5376 6.60053 49.566 6.59452C50.4043 6.3687 51.2595 6.21415 52.1235 6.13252C51.2802 5.93361 50.4162 5.83392 49.5495 5.83552C49.5215 5.8363 49.4936 5.82764 49.4711 5.81091C49.4482 5.79414 49.4317 5.77026 49.4239 5.74308C49.4166 5.71585 49.4184 5.68689 49.429 5.66081C49.44 5.63468 49.4592 5.61296 49.4835 5.59902C50.2654 5.21292 51.0886 4.91588 51.9365 4.71352ZM14.7951 50.721C14.2481 50.7925 13.6967 50.826 13.1451 50.82C13.1171 50.8209 13.0895 50.8127 13.0672 50.7957C13.0449 50.7788 13.0291 50.7545 13.0226 50.727C13.0161 50.6999 13.0193 50.6711 13.0316 50.6459C13.0439 50.6206 13.0646 50.6005 13.0901 50.589C13.7721 50.2205 15.3781 49.8575 16.2031 49.2855L18.2436 47.9215C18.2477 47.9169 18.2528 47.9133 18.2585 47.9105C18.2642 47.9078 18.2704 47.9064 18.2766 47.9064C18.2829 47.9064 18.289 47.9078 18.2947 47.9105C18.3004 47.9133 18.3055 47.9169 18.3096 47.9215C18.3701 47.993 18.2436 47.9985 17.5561 48.906C17.0997 49.4679 16.729 50.0945 16.4561 50.765C16.1612 51.4663 15.9023 52.1822 15.6806 52.91C15.6806 53.075 15.2846 53.196 15.3946 52.294C15.4402 51.9576 15.5025 51.6235 15.5816 51.293C15.011 51.7051 14.4098 52.0726 13.7831 52.393C13.7605 52.4059 13.7345 52.4118 13.7086 52.4095C13.6827 52.4068 13.6581 52.3967 13.6383 52.3797C13.6184 52.3628 13.6043 52.3403 13.5977 52.3151C13.5911 52.2899 13.5925 52.2633 13.6016 52.239C13.8829 51.6514 14.2904 51.1331 14.7951 50.721ZM17.9081 48.2845C15.2131 50.182 16.4176 49.4945 13.7281 50.567C14.2428 50.5656 14.7544 50.4882 15.2461 50.336L15.3066 50.2865C15.4276 50.193 15.6421 50.38 15.4056 50.534C14.877 50.9497 14.4102 51.4388 14.0196 51.986C14.6287 51.6744 15.1991 51.2921 15.7191 50.8475C15.7385 50.8251 15.7651 50.8099 15.7944 50.8054C15.8237 50.8003 15.8537 50.8058 15.8793 50.8209C15.9048 50.8361 15.9243 50.8599 15.9342 50.8879C15.9441 50.9158 15.944 50.9461 15.9336 50.974C15.8198 51.3888 15.7281 51.8091 15.6586 52.2335C16.0934 50.7609 16.8633 49.4093 17.9081 48.2845ZM18.2821 45.716C19.2148 44.2048 20.5473 42.9808 22.1321 42.1795C24.2661 41.173 25.0471 42.2455 24.0791 44.1705C23.2548 45.7083 22.0765 47.0278 20.6416 48.0205C20.8032 48.5847 20.8682 49.1723 20.8341 49.7585C20.6911 50.3085 18.0016 51.2325 17.6331 51.1885C17.6052 51.1871 17.5781 51.1784 17.5549 51.1629C17.5317 51.1473 17.5131 51.1257 17.5011 51.1005C17.4461 50.974 17.5726 50.8585 17.6936 50.765C18.3651 50.2746 19.0688 49.83 19.8001 49.434L19.7616 48.521L19.4481 48.675C19.4277 48.6805 19.4061 48.6805 19.3857 48.6746C19.3654 48.6691 19.347 48.6576 19.3326 48.642L17.6001 46.9535C17.592 46.9444 17.5875 46.9329 17.5875 46.9205C17.5875 46.9081 17.592 46.8967 17.6001 46.8875C17.6001 46.8875 17.6551 46.772 17.7706 46.5685H16.8081C16.6651 46.8655 15.7081 48.8015 15.4001 48.9335C15.378 48.9441 15.3536 48.9496 15.3291 48.9486C15.3045 48.9482 15.2804 48.9418 15.2589 48.9299C15.2373 48.9179 15.219 48.901 15.2053 48.8808C15.1916 48.8602 15.1829 48.8368 15.1801 48.8125C15.1141 48.4 15.9281 45.7105 16.4671 45.551C17.0656 45.496 17.669 45.5369 18.2546 45.672C18.2633 45.6755 18.2706 45.6816 18.2755 45.6895C18.2805 45.6974 18.2828 45.7067 18.2821 45.716ZM20.5206 48.059C20.3023 48.2048 20.0765 48.3386 19.8441 48.4605L19.9596 49.5C19.9596 49.5825 19.9596 49.533 18.8596 50.259C18.5241 50.4735 18.1831 50.699 17.9521 50.8695C18.7867 50.6394 19.5915 50.3126 20.3501 49.896C20.4106 49.8575 20.5701 49.7475 20.5921 49.676C20.6502 49.1366 20.6261 48.5912 20.5206 48.059ZM18.0951 46.2605C17.8806 46.5795 17.7486 46.8105 17.6991 46.904L19.4041 48.4825C19.6021 48.3835 19.8166 48.2625 20.0421 48.125C19.3317 47.5709 18.6794 46.9462 18.0951 46.2605ZM18.2326 45.793C17.6653 45.7125 17.0894 45.7125 16.5221 45.793C16.3296 45.859 15.9996 46.7335 15.9391 46.893C15.7449 47.4109 15.5887 47.9421 15.4716 48.4825C15.8016 47.993 16.7036 46.3925 16.6651 46.4695C16.6726 46.4539 16.6843 46.4411 16.699 46.4324C16.7136 46.4237 16.7305 46.4196 16.7476 46.42L17.8201 46.475C17.9301 46.266 18.0621 46.0515 18.2326 45.793ZM21.2631 42.9385C20.0164 43.7847 18.9569 44.878 18.1501 46.1505C18.8804 46.7111 19.548 47.3491 20.1411 48.0535C21.3961 47.2262 22.4733 46.1569 23.3091 44.9075L21.2631 42.9385ZM20.2786 44.319C20.1728 44.4299 20.0899 44.5605 20.0345 44.7034C19.9792 44.8463 19.9526 44.9988 19.9562 45.152C19.9597 45.3052 19.9934 45.4562 20.0554 45.5964C20.1173 45.7366 20.2062 45.8631 20.3171 45.969C20.428 46.0749 20.5586 46.1579 20.7015 46.2133C20.8445 46.2683 20.9968 46.2949 21.1501 46.2917C21.3033 46.288 21.4543 46.2541 21.5945 46.1922C21.7347 46.1304 21.8613 46.0414 21.9671 45.9305C22.1808 45.7066 22.2968 45.407 22.2896 45.0975C22.2824 44.7881 22.1525 44.4942 21.9286 44.2805C21.7047 44.0668 21.4051 43.9508 21.0956 43.958C20.7862 43.9652 20.4923 44.0951 20.2786 44.319ZM21.8131 44.407C21.9901 44.5888 22.0892 44.8325 22.0892 45.0863C22.0892 45.34 21.9901 45.5837 21.8131 45.7655C21.6395 45.9264 21.411 46.0153 21.1743 46.0135C20.9375 46.0116 20.7103 45.92 20.5391 45.7563C20.3678 45.5928 20.2654 45.3701 20.2528 45.1336C20.2402 44.8972 20.3182 44.6648 20.4711 44.484C20.6413 44.2999 20.8763 44.1889 21.1266 44.1746C21.3769 44.1602 21.623 44.2435 21.8131 44.407ZM21.5106 44.7205C21.5855 44.7982 21.6359 44.8962 21.6555 45.0024C21.675 45.1085 21.663 45.218 21.6208 45.3173C21.5786 45.4166 21.5081 45.5014 21.4181 45.5609C21.328 45.6205 21.2225 45.6522 21.1146 45.6522C21.0067 45.6522 20.9011 45.6205 20.8111 45.5609C20.7212 45.5014 20.6507 45.4166 20.6085 45.3173C20.5662 45.218 20.5541 45.1085 20.5738 45.0024C20.5933 44.8962 20.6437 44.7982 20.7186 44.7205C20.7699 44.6673 20.8314 44.625 20.8995 44.596C20.9675 44.5671 21.0407 44.5522 21.1146 44.5522C21.1885 44.5522 21.2617 44.5671 21.3297 44.596C21.3978 44.625 21.4593 44.6673 21.5106 44.7205Z" clip-rule="evenodd"></path><path fill="#a79376" fill-rule="evenodd" d="M38.9234 7.36452C38.8731 7.32185 38.8337 7.26786 38.8082 7.20704C38.7828 7.14617 38.7721 7.08017 38.7771 7.01445C38.782 6.94868 38.8025 6.88501 38.8367 6.82869C38.871 6.77231 38.9181 6.72487 38.9742 6.69022C39.0303 6.65553 39.0938 6.63463 39.1595 6.62922C39.2252 6.62381 39.2914 6.63399 39.3524 6.65901C39.4134 6.68399 39.4676 6.72304 39.5106 6.77304C39.5537 6.823 39.5843 6.88245 39.6 6.94652C39.6039 7.01573 39.5914 7.08489 39.5636 7.14842C39.5357 7.2119 39.4933 7.26795 39.4396 7.31191C39.386 7.35586 39.3228 7.38652 39.2551 7.40142C39.1873 7.41632 39.1171 7.41494 39.05 7.39752C39.05 7.45252 38.9675 8.06302 38.8025 8.77802C39.5666 8.78091 40.3044 9.05806 40.8815 9.55902C40.8898 9.54367 40.9035 9.53194 40.92 9.52602C45.21 8.92102 45.6554 10.34 44.2749 11.4785C42.7239 12.76 37.9609 14.2285 35.3319 13.882C34.6444 13.7995 33.5774 13.4805 33.5664 12.8315C33.5664 11.9955 35.805 11.066 35.893 11.022C36.2515 10.114 36.9443 9.37784 37.8289 8.96502C37.4384 8.54152 37.0315 7.92552 36.938 7.82102C36.4705 8.07402 36.0305 7.47452 36.388 7.16652C36.4667 7.09745 36.5694 7.06193 36.674 7.06752C36.7612 7.04983 36.8517 7.06207 36.9312 7.10222C37.0106 7.14237 37.0741 7.20809 37.1116 7.28881C37.1491 7.36947 37.1583 7.46045 37.1378 7.54703C37.1173 7.63361 37.0682 7.71075 36.9984 7.76602C37.1835 7.89931 37.3484 8.05862 37.488 8.23902C38.28 9.19602 37.609 8.86602 38.588 8.78902C38.6171 8.29842 38.7305 7.81653 38.9234 7.36452ZM35.7994 11.176C35.3044 11.418 33.7094 12.276 33.7314 12.826C33.7314 13.0075 33.8909 13.189 34.1824 13.3485C36.2284 14.4485 42.317 12.7215 44.0825 11.286C45.089 10.4775 44.9844 9.70202 43.0704 9.56452C42.3365 9.53125 41.6011 9.55329 40.8704 9.63052C40.7329 9.94952 39.4074 12.4575 35.7994 11.176ZM35.2494 12.485C35.2255 12.5359 35.2125 12.5913 35.2113 12.6475C35.2101 12.7037 35.2208 12.7596 35.2425 12.8114C35.2644 12.8632 35.2968 12.9099 35.3377 12.9485C35.3787 12.987 35.4273 13.0165 35.4805 13.035C35.5332 13.0481 35.588 13.0507 35.6417 13.0426C35.6955 13.0345 35.747 13.0159 35.7935 12.9878C35.8401 12.9597 35.8805 12.9226 35.9127 12.8788C35.9449 12.835 35.968 12.7853 35.9809 12.7325C36.0138 12.6355 36.0067 12.5294 35.9613 12.4376C35.9159 12.3458 35.8359 12.2758 35.739 12.243C35.6419 12.2102 35.5359 12.2172 35.4441 12.2626C35.3523 12.308 35.2823 12.388 35.2494 12.485ZM35.7005 12.331C35.9425 12.441 35.7774 12.881 35.5464 12.815C35.3154 12.749 35.4365 12.2815 35.7005 12.331ZM39.4954 12.0175C39.4565 11.9885 39.4116 11.9687 39.3641 11.9593C39.3164 11.95 39.2674 11.9514 39.2205 11.9636C39.1735 11.9757 39.1298 11.9982 39.0927 12.0294C39.0555 12.0607 39.0259 12.0998 39.0059 12.144C38.9637 12.2426 38.9595 12.3533 38.994 12.4549C39.0285 12.5564 39.0994 12.6416 39.193 12.694C39.2376 12.7217 39.2879 12.739 39.3402 12.7447C39.3924 12.7504 39.4452 12.7443 39.4948 12.7268C39.5444 12.7094 39.5895 12.6811 39.6267 12.6441C39.6639 12.607 39.6924 12.562 39.7099 12.5125C39.7408 12.418 39.736 12.3155 39.6965 12.2244C39.657 12.1332 39.5855 12.0596 39.4954 12.0175ZM39.4515 12.0945C39.6715 12.2595 39.5285 12.6445 39.2975 12.5125C39.0665 12.3805 39.1875 11.9845 39.4515 12.1V12.0945ZM42.394 10.5215C42.362 10.4916 42.3236 10.4692 42.2818 10.4562C42.2401 10.4431 42.1959 10.4396 42.1526 10.4459C42.1092 10.4523 42.0679 10.4683 42.0316 10.4928C41.9953 10.5173 41.965 10.5497 41.943 10.5875C41.9004 10.6756 41.8915 10.7761 41.9178 10.8703C41.9441 10.9645 42.0039 11.0458 42.0859 11.099C42.1226 11.1289 42.1654 11.1502 42.2113 11.1615C42.2572 11.1728 42.3051 11.1737 42.3514 11.1643C42.3977 11.1548 42.4413 11.1351 42.4792 11.1067C42.517 11.0783 42.548 11.0419 42.57 11C42.5902 10.9571 42.6017 10.9106 42.6038 10.8632C42.6059 10.8158 42.5986 10.7684 42.5823 10.7239C42.5659 10.6793 42.5408 10.6385 42.5085 10.6037C42.4761 10.569 42.4372 10.541 42.394 10.5215ZM42.3499 10.593C42.5149 10.747 42.3995 11.055 42.207 10.923C42.0145 10.791 42.1244 10.483 42.3499 10.593ZM36.674 7.15002C36.7451 7.15264 36.8127 7.18169 36.8636 7.23156C36.9144 7.28138 36.9449 7.34839 36.9489 7.41952C36.9461 7.48323 36.9188 7.54336 36.8726 7.58746C36.8265 7.6315 36.7653 7.65607 36.7015 7.65602C36.6683 7.65781 36.635 7.65304 36.6036 7.642C36.5722 7.63095 36.5433 7.61386 36.5185 7.59163C36.4685 7.54676 36.4383 7.48387 36.4347 7.41677C36.431 7.34967 36.4542 7.28386 36.4991 7.23381C36.5439 7.1838 36.6069 7.15364 36.674 7.15002ZM39.1105 6.68252C39.1816 6.68514 39.2492 6.71419 39.3001 6.76406C39.3509 6.81388 39.3814 6.88089 39.3854 6.95202C39.3826 7.01573 39.3553 7.07586 39.3091 7.11996C39.263 7.164 39.2018 7.18857 39.138 7.18852C39.1025 7.1954 39.066 7.19462 39.0308 7.18619C38.9956 7.1778 38.9627 7.16194 38.9342 7.13971C38.9057 7.11748 38.8822 7.08943 38.8655 7.05739C38.8487 7.02536 38.8391 6.99011 38.8371 6.95404C38.8351 6.91792 38.8408 6.88185 38.854 6.84817C38.8671 6.81452 38.8873 6.78404 38.9132 6.75884C38.9391 6.73363 38.9701 6.71424 39.0042 6.70205C39.0382 6.68981 39.0745 6.68504 39.1105 6.68802V6.68252ZM66.253 33.99C66.511 33.5117 66.9341 33.1438 67.4438 32.9546C67.953 32.7654 68.514 32.7681 69.0218 32.9619C69.5292 33.1559 69.949 33.5278 70.2025 34.0084C70.4564 34.4891 70.5265 35.0455 70.4 35.574C71.209 35.9676 71.9817 36.4314 72.71 36.96C73.029 37.246 72.985 37.51 72.4185 37.4715C71.4349 37.3838 70.4619 37.1995 69.5145 36.9215C69.2111 37.1429 68.8573 37.2846 68.4851 37.3334C68.1129 37.3822 67.7343 37.3366 67.3842 37.2007C67.034 37.0649 66.7237 36.8432 66.4822 36.556C66.2402 36.2689 66.0743 35.9255 66 35.5575C65.45 35.2935 63.5415 34.309 63.426 33.7535C63.3875 33.55 63.5855 33.4565 63.7945 33.4345C64.6397 33.4789 65.4706 33.6668 66.253 33.99ZM70.356 35.6895C70.2488 36.0632 70.0457 36.4025 69.7675 36.674C70.702 36.9434 71.6595 37.1275 72.6275 37.224C72.314 36.817 70.807 35.948 70.356 35.6895ZM66.198 35.64C66.2874 35.9495 66.4464 36.2342 66.6637 36.4721C66.8809 36.71 67.15 36.8946 67.4497 37.0116C67.7499 37.1287 68.073 37.175 68.3939 37.147C68.7147 37.1189 69.0245 37.0173 69.3 36.85C68.2376 36.5241 67.2004 36.1196 66.198 35.64ZM69.597 36.6245C69.9834 36.2801 70.2295 35.8054 70.2886 35.2911C70.3473 34.7768 70.2148 34.2588 69.916 33.836C69.7593 33.6051 69.5571 33.4086 69.322 33.2585C69.0864 33.1084 68.8233 33.0079 68.5479 32.9631C68.2724 32.9183 67.9905 32.9302 67.7201 32.998C67.4493 33.0658 67.1953 33.1882 66.9735 33.3575C66.6747 33.5774 66.4391 33.8721 66.2906 34.2119C66.1416 34.5518 66.0853 34.9248 66.1265 35.2935C67.2458 35.8299 68.4063 36.275 69.597 36.6245ZM66.198 34.1C65.791 33.968 63.998 33.451 63.6735 33.704C63.8 34.1 65.5875 35.0295 66 35.2C65.9688 34.8223 66.0367 34.443 66.198 34.1ZM26.3229 67.9965C26.987 68.4329 27.686 68.8137 28.4129 69.135C28.42 69.1373 28.4276 69.1369 28.4345 69.1346C28.4414 69.1318 28.4472 69.1268 28.451 69.1204C28.4548 69.1139 28.4564 69.1066 28.4555 69.0993C28.4546 69.0919 28.4512 69.0851 28.4459 69.08C27.7811 68.6446 27.0822 68.2642 26.3559 67.9415C26.3489 67.9392 26.3413 67.9397 26.3344 67.942C26.3274 67.9447 26.3216 67.9498 26.3178 67.9562C26.314 67.9621 26.3124 67.9699 26.3134 67.9773C26.3143 67.9846 26.3176 67.9915 26.3229 67.9965ZM14.3989 19.7065C14.3989 18.3755 14.4759 17.1215 14.4759 17.1765C14.4795 17.1655 14.4865 17.1559 14.4959 17.1491C14.5053 17.1423 14.5166 17.1387 14.5282 17.1387C14.5398 17.1387 14.551 17.1423 14.5604 17.1491C14.5698 17.1559 14.5768 17.1655 14.5804 17.1765C14.5804 17.578 14.6519 17.9355 14.6574 19.7945C15.0639 19.53 15.4843 19.2876 15.9169 19.0685C15.9227 19.0649 15.9291 19.0625 15.9358 19.0613C15.9426 19.0602 15.9495 19.0604 15.9561 19.0619C15.9627 19.0635 15.969 19.0663 15.9746 19.0703C15.9801 19.0742 15.9848 19.0792 15.9884 19.085C15.992 19.0908 15.9945 19.0972 15.9956 19.104C15.9968 19.1106 15.9965 19.1175 15.995 19.1242C15.9935 19.1308 15.9906 19.1371 15.9867 19.1426C15.9827 19.1482 15.9777 19.1529 15.9719 19.1565C15.6199 19.4453 15.2526 19.7152 14.8719 19.965C15.6639 20.3995 15.8234 20.515 16.2029 20.746C16.5824 20.977 16.5879 20.977 16.5604 21.032C16.5329 21.087 16.5054 21.065 16.1259 20.889C15.7464 20.713 15.4879 20.603 14.6574 20.1465C14.6574 22.253 14.5749 23.2155 14.5749 23.1605C14.5713 23.1715 14.5643 23.1811 14.5549 23.1879C14.5455 23.1947 14.5343 23.1983 14.5227 23.1983C14.5111 23.1983 14.4998 23.1947 14.4904 23.1879C14.481 23.1811 14.474 23.1715 14.4704 23.1605C14.4704 22.7645 14.3934 22.418 14.3934 20.273C13.9643 20.5573 13.52 20.818 13.0624 21.054C13.0566 21.0576 13.0502 21.0601 13.0435 21.0612C13.0368 21.0623 13.0299 21.0621 13.0233 21.0606C13.0166 21.059 13.0103 21.0562 13.0048 21.0522C12.9993 21.0483 12.9945 21.0433 12.9909 21.0375C12.9873 21.0317 12.9849 21.0253 12.9838 21.0186C12.9826 21.0119 12.9828 21.005 12.9844 20.9983C12.9859 20.9917 12.9887 20.9854 12.9927 20.9799C12.9966 20.9743 13.0016 20.9696 13.0074 20.966C13.4405 20.6114 13.8941 20.2826 14.3659 19.9815C13.9204 19.734 13.7774 19.646 13.4254 19.4315C13.0734 19.217 12.9579 19.151 12.9854 19.0905C12.9958 19.0829 13.0083 19.0788 13.0212 19.0788C13.034 19.0788 13.0466 19.0829 13.0569 19.0905C13.7499 19.349 14.1624 19.5855 14.3989 19.7065Z" clip-rule="evenodd"></path><path fill="#a79376" fill-rule="evenodd" d="M26.3561 69.135C26.9722 68.8119 27.556 68.4305 28.0996 67.9965C28.1381 67.9965 28.0996 67.9195 28.0666 67.9415C27.4509 68.2651 26.8671 68.6464 26.3231 69.08C26.2901 69.102 26.3231 69.157 26.3561 69.135ZM43.4061 35.9699C43.4061 37.5154 43.4611 37.7629 43.4611 38.0434C43.4587 38.0493 43.4579 38.0556 43.4585 38.0619C43.4592 38.0681 43.4614 38.0741 43.4649 38.0793C43.4685 38.0846 43.4732 38.0888 43.4788 38.0917C43.4843 38.0947 43.4905 38.0962 43.4968 38.0962C43.5031 38.0962 43.5093 38.0947 43.5148 38.0917C43.5204 38.0888 43.5252 38.0846 43.5287 38.0793C43.5322 38.0741 43.5344 38.0681 43.5351 38.0619C43.5358 38.0556 43.5349 38.0493 43.5326 38.0434C43.5326 38.0984 43.5931 37.2074 43.5931 35.8764C44.0194 36.1176 44.4582 36.3361 44.9076 36.5309C44.9516 36.5309 44.9901 36.4869 44.9461 36.4649C44.5589 36.2063 44.1587 35.9676 43.7471 35.7499C44.0195 35.5818 44.2821 35.3981 44.5336 35.1999C44.541 35.1943 44.5461 35.1861 44.548 35.1768C44.5498 35.1676 44.5482 35.158 44.5434 35.15C44.5387 35.1419 44.5312 35.1358 44.5223 35.1328C44.5134 35.1299 44.5037 35.1303 44.4951 35.1339C44.4951 35.1339 44.0441 35.3649 43.5931 35.6564C43.5931 34.2869 43.5381 34.0064 43.5381 33.7754C43.5381 33.7653 43.534 33.7555 43.5268 33.7482C43.5196 33.741 43.5098 33.7369 43.4996 33.7369C43.4894 33.7369 43.4796 33.741 43.4724 33.7482C43.4651 33.7555 43.4611 33.7653 43.4611 33.7754C43.4611 33.7204 43.4116 34.6609 43.4061 35.5959C43.2466 35.5134 42.9276 35.3429 42.4436 35.1339C42.3996 35.1339 42.3611 35.1779 42.4051 35.1999C42.4491 35.2219 42.8121 35.4804 43.3841 35.7939C43.0454 35.999 42.7185 36.2231 42.4051 36.4649C42.3611 36.4649 42.4051 36.5584 42.4436 36.5309C42.3886 36.5584 42.8011 36.3549 43.4061 35.9699ZM57.233 74.833C56.6335 74.5855 50.3085 74.195 50.2535 74.1895C50.083 74.1895 48.851 74.437 48.7685 74.459C48.686 74.481 48.7685 74.459 48.7685 74.4865C49.2493 74.706 49.7457 74.8898 50.2535 75.0365C50.8035 75.152 51.9035 75.163 57.1175 75.724C57.2165 75.724 57.4255 75.383 57.3045 74.888C57.299 74.8715 57.2605 74.8495 57.233 74.833ZM50.226 74.9815L49.3955 74.69C49.4276 74.646 49.4487 74.5951 49.456 74.5415C49.4638 74.4879 49.4583 74.4329 49.4395 74.382C49.7085 74.3279 49.9803 74.2889 50.2535 74.2665C50.3855 74.3985 50.0335 74.448 50.2975 74.6185C50.3305 74.6185 50.336 74.6185 50.2975 74.657C50.2837 74.6639 50.2714 74.6735 50.2613 74.6854C50.2507 74.6973 50.2434 74.7111 50.2388 74.7262C50.2342 74.7409 50.2324 74.7569 50.2342 74.772C50.2356 74.7876 50.2407 74.8027 50.248 74.8165C50.292 74.8935 50.3415 74.9265 50.226 74.9815ZM50.292 74.9815C50.446 74.899 50.237 74.7725 50.3415 74.7065C50.5725 74.547 49.4725 74.591 56.738 75.2565C56.7229 75.3697 56.7481 75.4847 56.8095 75.581L50.292 74.9815ZM56.7435 75.2125C56.496 75.185 50.4075 74.6075 50.369 74.5745C50.3305 74.5415 50.2315 74.514 50.281 74.448C50.3305 74.382 50.358 74.3215 50.281 74.2555C50.336 74.2555 55.7315 74.6845 56.881 74.877C56.8008 74.9755 56.7527 75.0965 56.7435 75.2235V75.2125ZM57.0955 75.592C57.057 75.5535 57.0515 75.5645 57.013 75.4545C56.9745 75.3445 57.013 74.9705 57.189 74.9705C57.216 75.0768 57.2215 75.1873 57.2055 75.2959C57.1895 75.4045 57.1523 75.509 57.0955 75.603V75.592ZM60.918 59.3615C60.912 59.3413 60.9015 59.3225 60.8873 59.3069C60.8731 59.2914 60.8557 59.279 60.836 59.2707C60.8167 59.2625 60.7956 59.2588 60.7741 59.2602C60.753 59.2611 60.7324 59.2666 60.714 59.2767C60.6952 59.2868 60.6792 59.3005 60.6664 59.3175C60.654 59.3344 60.6453 59.3542 60.6412 59.3748C60.637 59.3954 60.6375 59.4169 60.6425 59.4376C60.6476 59.4582 60.6572 59.477 60.6705 59.4935C60.7255 59.5815 60.7805 59.6695 60.841 59.7575C60.8492 59.7763 60.8616 59.7932 60.8772 59.807C60.8928 59.8207 60.9111 59.8308 60.9313 59.8368C60.951 59.8427 60.9721 59.8446 60.9922 59.8414C61.0129 59.8386 61.0326 59.8308 61.05 59.8198C61.0674 59.8084 61.0821 59.7932 61.0931 59.7758C61.1041 59.7584 61.1114 59.7387 61.1137 59.7181C61.1165 59.6974 61.1146 59.6764 61.1082 59.6567C61.1022 59.6369 61.0917 59.6186 61.0775 59.6035C61.05 59.5265 60.9675 59.444 60.918 59.3615ZM54.065 47.6795C54.098 47.421 54.4005 46.1065 54.285 46.079C54.2786 46.0762 54.2717 46.0753 54.2648 46.0753C54.2579 46.0758 54.2511 46.0776 54.2447 46.0808C54.2382 46.084 54.2327 46.0882 54.2286 46.0937C54.224 46.0992 54.2208 46.1051 54.219 46.112C54.0632 46.4961 53.9435 46.8934 53.8615 47.3C53.8303 47.443 53.8102 47.5883 53.801 47.7345C53.8019 47.7569 53.8083 47.7789 53.8198 47.7982C53.8312 47.8174 53.8477 47.833 53.867 47.8445C54.005 47.9146 54.1539 47.9614 54.307 47.982C54.428 47.982 54.857 48.015 54.8075 47.8995C54.758 47.784 54.692 47.993 54.065 47.6795ZM56.5345 46.882V46.596C56.5345 46.398 56.2595 46.3705 56.254 46.596V46.9095C56.2526 46.9301 56.2554 46.9512 56.2632 46.9704C56.2705 46.9902 56.282 47.0076 56.2966 47.0222C56.3117 47.0369 56.3296 47.0479 56.3493 47.0548C56.369 47.0617 56.3901 47.0644 56.4107 47.0621C56.4314 47.0603 56.4515 47.0534 56.4694 47.0429C56.4873 47.0323 56.5029 47.0181 56.5143 47.0007C56.5262 46.9837 56.534 46.964 56.5377 46.9439C56.5414 46.9232 56.54 46.9022 56.5345 46.882ZM56.8975 48.4C56.7215 49.06 56.485 49.159 56.199 49.192C56.1403 49.1966 56.0817 49.1966 56.023 49.192C56.0102 49.1874 55.9955 49.1888 55.9831 49.1947C55.9707 49.2012 55.9616 49.2117 55.957 49.225C55.9529 49.2383 55.9538 49.2525 55.9597 49.2649C55.9662 49.2772 55.9772 49.2864 55.99 49.291C56.4685 49.566 57.123 49.2305 57.002 48.4C56.9983 48.389 56.9915 48.3794 56.9823 48.3725C56.9727 48.3656 56.9612 48.3619 56.9497 48.3619C56.9383 48.3619 56.9268 48.3656 56.9177 48.3725C56.908 48.3794 56.9012 48.389 56.8975 48.4ZM58.9655 55.275C58.9623 55.2571 58.9554 55.2397 58.9458 55.2241C58.9357 55.209 58.9229 55.1952 58.9077 55.1852C58.8926 55.1746 58.8757 55.1673 58.8578 55.1632C58.8399 55.1595 58.8216 55.159 58.8032 55.1622C58.7854 55.1654 58.768 55.1723 58.7524 55.1819C58.7372 55.192 58.7239 55.2049 58.7134 55.22C58.7029 55.2351 58.6955 55.2521 58.6914 55.2699C58.6877 55.2878 58.6873 55.3066 58.6905 55.3245C58.7139 55.4267 58.7437 55.528 58.7785 55.627C58.7803 55.6481 58.7867 55.6687 58.7973 55.687C58.8078 55.7054 58.822 55.7209 58.8395 55.7333C58.8569 55.7452 58.877 55.7535 58.8977 55.7567C58.9187 55.7604 58.9398 55.759 58.9605 55.7535C58.9806 55.7475 58.9994 55.737 59.0154 55.7232C59.0315 55.709 59.0439 55.6921 59.0526 55.6724C59.0608 55.6531 59.0649 55.632 59.064 55.6105C59.0631 55.5894 59.0576 55.5688 59.048 55.55C59.015 55.4565 58.9875 55.363 58.9655 55.275ZM53.5535 46.0625C53.5576 46.0419 53.5572 46.0203 53.5521 45.9997C53.5471 45.9791 53.5375 45.9603 53.5237 45.9438C53.5104 45.9273 53.4935 45.9144 53.4747 45.9053C53.4554 45.8961 53.4343 45.8915 53.4132 45.8915C53.3922 45.8915 53.3711 45.8961 53.3523 45.9053C53.333 45.9144 53.3161 45.9273 53.3028 45.9438C53.2895 45.9603 53.2799 45.9791 53.2748 45.9997C53.2693 46.0203 53.2689 46.0419 53.273 46.0625V46.376C53.2689 46.3966 53.2693 46.4182 53.2748 46.4388C53.2799 46.4589 53.2895 46.4782 53.3028 46.4947C53.3161 46.5107 53.333 46.524 53.3523 46.5332C53.3711 46.5424 53.3922 46.5469 53.4132 46.5469C53.4343 46.5469 53.4554 46.5424 53.4747 46.5332C53.4935 46.524 53.5104 46.5107 53.5237 46.4947C53.5375 46.4782 53.5471 46.4589 53.5521 46.4388C53.5572 46.4182 53.5576 46.3966 53.5535 46.376C53.5471 46.2715 53.5471 46.167 53.5535 46.0625ZM97.031 69.102C97.031 69.102 96.998 69.1075 97.031 69.102V69.102Z" clip-rule="evenodd"></path><path fill="#a79376" fill-rule="evenodd" d="M99.7755 68.75C99.165 68.453 97.713 68.7005 97.0255 68.8435C96.773 68.5612 96.4544 68.3462 96.0983 68.2179C95.7422 68.0891 95.3595 68.051 94.985 68.1065C94.369 68.2605 94.2205 69.0195 94.248 69.6575C93.852 69.586 93.423 69.5365 93.027 69.498C93.06 69.377 93.1645 69.2065 93.1315 69.0855C93.1136 69.0424 93.0866 69.0034 93.0527 68.9718C93.0183 68.9397 92.9775 68.9159 92.933 68.9012C92.8886 68.8866 92.8418 68.8815 92.7951 68.887C92.7488 68.8921 92.7039 68.9072 92.664 68.9315C92.5545 69.019 92.4532 69.1167 92.3615 69.223C92.3615 69.0305 92.521 68.7225 92.3285 68.673C92.136 68.6235 91.5365 69.1625 91.366 69.355C90.1028 69.2161 88.8287 69.2161 87.5655 69.355C85.9118 69.4737 84.3535 70.1731 83.1655 71.3295C89.8535 63.6295 92.7905 58.3385 92.7135 51.744C92.6365 45.1495 84.799 42.0035 81.576 41.921C78.4465 41.844 75.218 43.571 75.053 43.571C72.226 44.121 64.812 43.3015 63.2555 43.9505C63.2747 43.2535 63.1496 42.5602 62.8884 41.9138C62.6271 41.2674 62.2353 40.6819 61.7375 40.194C60.8465 39.2205 59.422 38.8575 57.9755 38.918C55.913 39.0115 53.867 39.875 52.844 41.668C52.5048 42.2486 52.3055 42.9 52.261 43.571C52.261 43.7415 51.909 46.5465 52.811 48.6695C53.0145 49.2071 53.3399 49.6902 53.7616 50.0802C54.1837 50.4707 54.6902 50.7577 55.242 50.919C54.3528 52.0978 53.5375 53.3303 52.8 54.6095C52.6295 54.967 52.756 55.1595 53.0035 55.1595C53.251 55.1595 53.581 55.0935 53.812 55.1045C53.449 56.1 52.525 58.696 52.2995 59.7245C51.1688 60.4858 50.1504 61.4024 49.2745 62.447C47.6245 64.339 46.8545 66.3905 44.9845 67.485L44.4345 67.793C45.1825 65.5215 46.596 61.0115 46.0845 61.006C45.573 61.0005 44.3301 65.34 43.5381 68.2825C42.6911 68.75 42.262 69.047 41.965 69.971C41.8682 70.2047 41.8184 70.455 41.8184 70.708C41.8184 70.961 41.8682 71.2112 41.965 71.445C42.0003 71.5197 42.0543 71.5848 42.1217 71.6329C42.1891 71.681 42.2678 71.7108 42.3501 71.72C42.4161 71.72 42.4161 71.6595 42.2346 72.061C42.1481 72.0857 42.0663 72.1247 41.9925 72.1765L39.3471 70.565C39.2866 70.565 40.0455 70.4605 23.947 72.556C23.6445 72.3305 23.3255 72.094 22.9955 71.8355C15.0865 65.681 40.9145 59.0755 42.9825 50.666C44.836 43.1365 34.1825 41.6185 36.5475 34.5455C38.9125 27.4725 54.3785 29.4525 68.937 28.6055C83.4955 27.7585 89.287 13.0625 78.6885 5.40648C68.09 -2.24955 57.2 8.62398 54.626 11.4015C52.052 14.179 49.082 17.8145 40.7441 17.4515C32.4061 17.0885 21.494 18.502 17.4955 30.591C15.5705 36.377 17.2975 40.436 19.866 43.6535C20.7263 42.7782 21.7903 42.13 22.9625 41.767C23.6445 41.602 24.321 41.69 24.5135 42.3665C24.8765 43.6095 23.3695 45.54 22.495 46.5025C24.695 48.6255 26.807 50.4185 27.6375 52.272C29.0235 55.385 22.3795 57.6895 19.5745 59.51C16.7695 61.3305 12.485 66.9625 15.114 72.4295C15.3115 72.8484 15.5319 73.2559 15.774 73.6505C10.197 74.371 10.0045 74.371 9.94955 74.404C9.89455 74.437 9.91105 74.536 9.94955 74.591H9.91105C10.406 75.141 24.9755 95.964 33.9185 106.546L34.078 106.579C36.014 105.649 71.148 88.594 69.278 87.5435C69.278 87.5435 43.593 73.205 42.9825 72.842C43.0781 72.6779 43.1608 72.5069 43.23 72.3305C43.2605 72.3282 43.2892 72.3154 43.3113 72.2943C43.3333 72.2732 43.3474 72.2452 43.3511 72.215V71.918C43.6921 72.0335 44.2256 71.7035 44.5006 71.456C45.0506 70.95 45.8755 69.542 46.486 69.355C47.7033 69.0516 48.9042 68.6844 50.083 68.255C54.9835 66.418 57.0185 64.361 59.1525 61.039C59.5054 60.5202 59.8056 59.9674 60.049 59.389C61.2943 60.7337 62.8082 61.8021 64.493 62.524C60.049 67.6555 60.7475 70.9115 62.3535 72.688C63.822 74.3105 66.2035 73.7385 66.594 73.6175C66.594 76.0595 67.419 81.4825 67.694 82.027C67.837 82.3405 67.3585 82.577 67.2595 83.1985C67.2077 83.5143 67.2485 83.8383 67.3773 84.1312C67.5061 84.4245 67.7174 84.6734 67.9855 84.8485C68.596 85.2335 69.6355 85.2555 69.2285 84.645C69.0928 84.4704 68.9397 84.3104 68.772 84.1665C68.9315 84.216 69.1075 84.282 69.322 84.359C71.3295 85.1455 71.5935 85.503 71.962 85.3985C72.0115 85.387 72.0578 85.3646 72.0977 85.3334C72.1375 85.3022 72.1701 85.2624 72.193 85.217C72.237 85.2472 72.287 85.2683 72.3392 85.2779C72.3919 85.2876 72.4455 85.2862 72.4978 85.2738C72.5496 85.2614 72.5982 85.2381 72.6403 85.2055C72.683 85.173 72.7178 85.1317 72.743 85.085C72.7618 85.0492 72.7719 85.0098 72.7719 84.9695C72.7719 84.9291 72.7618 84.8897 72.743 84.854C72.8127 84.7366 72.8365 84.5973 72.809 84.4635C72.809 83.9685 70.917 82.3515 70.532 82.0325C70.587 81.4825 70.8785 80.2615 71.6045 77.0165C75.3555 81.246 87.967 75.3665 88.6545 75.0695C88.77 75.1905 93.4285 73.205 93.9675 72.919C93.9125 72.919 99.8745 70.224 100.1 69.234C100.1 69.003 99.9515 68.8545 99.7755 68.75ZM78.5015 18.953C78.5927 18.9558 78.6789 18.9944 78.7412 19.0602C78.804 19.1261 78.8384 19.214 78.837 19.305C78.8384 19.3502 78.831 19.3953 78.815 19.4376C78.7985 19.4798 78.7742 19.5185 78.743 19.5513C78.7119 19.584 78.6743 19.6103 78.633 19.6284C78.5913 19.6465 78.5469 19.6562 78.5015 19.657C78.4561 19.6562 78.4112 19.6466 78.3695 19.6285C78.3278 19.6104 78.2897 19.5843 78.2581 19.5516C78.2265 19.5189 78.2018 19.4803 78.1848 19.438C78.1683 19.3957 78.16 19.3504 78.1605 19.305C78.16 19.2595 78.1683 19.2142 78.1848 19.1719C78.2018 19.1296 78.2265 19.091 78.2581 19.0583C78.2897 19.0256 78.3278 18.9995 78.3695 18.9814C78.4112 18.9633 78.4561 18.9537 78.5015 18.953ZM75.394 9.34998C75.4385 9.34994 75.4825 9.35883 75.5237 9.37602C75.565 9.3932 75.6021 9.41841 75.6333 9.45017C75.6644 9.48189 75.6892 9.51952 75.7057 9.56086C75.7222 9.6022 75.7304 9.64643 75.7295 9.69098C75.7355 9.73824 75.7318 9.78627 75.7176 9.83187C75.7038 9.87748 75.6805 9.9196 75.6488 9.95539C75.6172 9.99119 75.5787 10.0199 75.5352 10.0395C75.4916 10.0592 75.4444 10.0693 75.3967 10.0693C75.3491 10.0693 75.3019 10.0592 75.2583 10.0395C75.2152 10.0199 75.1763 9.99119 75.1447 9.95539C75.1135 9.9196 75.0901 9.87748 75.0759 9.83187C75.0622 9.78627 75.058 9.73824 75.064 9.69098C75.0635 9.64689 75.0713 9.60312 75.0874 9.56214C75.1039 9.52117 75.1277 9.48377 75.1584 9.4521C75.1891 9.42043 75.2258 9.39513 75.2661 9.37757C75.3065 9.36007 75.35 9.35067 75.394 9.34998ZM65.054 24.5245C65.0146 24.5173 64.9793 24.4966 64.9536 24.466C64.928 24.4353 64.9142 24.3967 64.9142 24.3567C64.9142 24.3168 64.928 24.2781 64.9536 24.2475C64.9793 24.2168 65.0146 24.1961 65.054 24.189C65.0998 24.189 65.1443 24.2072 65.1764 24.2397C65.2089 24.2722 65.2272 24.3163 65.2272 24.3622C65.2272 24.4082 65.2089 24.4523 65.1764 24.4847C65.1443 24.5172 65.0998 24.5355 65.054 24.5355V24.5245ZM63.558 9.41598C63.558 9.19598 64.108 9.08598 64.35 9.05298C64.7497 9.00014 65.1548 9.00014 65.5545 9.05298C65.8025 8.59804 66.1073 8.1766 66.462 7.79898C66.5775 7.70548 66.682 7.67248 66.7865 7.79898C67.0354 8.30127 67.1953 8.8427 67.2595 9.39948C68.112 9.61948 69.3 10.0265 68.585 10.538C68.365 10.6975 67.9745 10.8625 67.551 11.088C67.5987 11.5318 67.6133 11.9785 67.595 12.4245C67.595 12.628 67.54 12.936 67.3365 12.9745C66.924 13.046 66.605 12.474 65.956 11.913C65.3345 12.221 64.0915 12.903 64.064 12.2485C64.1314 11.6902 64.2973 11.1483 64.5535 10.648C63.921 10.0485 63.5195 9.75698 63.558 9.42698V9.41598ZM63.008 19.5305C63.0066 19.9144 62.9067 20.2915 62.717 20.6253C62.5277 20.9592 62.2554 21.2386 61.9263 21.4366C61.5973 21.6345 61.2228 21.7442 60.8392 21.7553C60.4555 21.7663 60.0751 21.6782 59.7355 21.4995L62.9365 18.9585C62.9855 19.149 63.0117 19.3447 63.0135 19.5415L63.008 19.5305ZM62.8705 18.755C61.9905 19.4315 60.808 20.405 59.6255 21.4335C59.5366 21.3798 59.4518 21.3191 59.3725 21.252C60.522 20.0915 61.6495 18.7825 62.348 17.952C62.5781 18.1842 62.7578 18.4613 62.876 18.766L62.8705 18.755ZM62.227 17.8365C62.007 18.073 60.093 20.229 59.268 21.1365C59.0333 20.9208 58.8459 20.6586 58.718 20.3665C59.554 19.7615 60.6925 18.92 61.9575 17.9245L62.1555 17.765L62.227 17.8365ZM60.7805 17.2865C61.2219 17.286 61.6532 17.4182 62.018 17.666L61.2425 18.216C61.0665 18.348 59.73 19.3985 58.674 20.2235C58.5622 19.8883 58.531 19.5313 58.5833 19.1817C58.636 18.8322 58.7703 18.5001 58.976 18.2125C59.1814 17.9249 59.4518 17.6901 59.7657 17.5272C60.0792 17.3644 60.4271 17.2781 60.7805 17.2755V17.2865ZM55.4785 16.3845C55.5454 16.3823 55.6114 16.4001 55.6678 16.4356C55.7246 16.4711 55.7691 16.5227 55.7961 16.5838C55.8232 16.6449 55.8314 16.7126 55.82 16.7784C55.808 16.8442 55.7773 16.905 55.7306 16.953C55.6843 17.0011 55.6247 17.0341 55.5592 17.048C55.4936 17.0619 55.4258 17.0559 55.3639 17.0308C55.302 17.0058 55.2489 16.9629 55.2113 16.9074C55.1742 16.8521 55.154 16.7868 55.154 16.72C55.1595 16.6363 55.1971 16.5579 55.258 16.5007C55.3195 16.4435 55.4001 16.4118 55.484 16.412L55.4785 16.3845ZM52.448 24.7115C52.5763 24.7158 52.701 24.7578 52.8055 24.8323C52.91 24.9068 52.9907 25.0105 53.037 25.1304C53.0828 25.2503 53.0929 25.3811 53.0654 25.5066C53.0374 25.6321 52.9737 25.7466 52.8811 25.836C52.789 25.9253 52.6721 25.9855 52.5461 26.009C52.4196 26.0325 52.289 26.0184 52.1707 25.9682C52.0525 25.9181 51.9516 25.8343 51.8806 25.7272C51.8095 25.6201 51.7715 25.4945 51.7715 25.366C51.7761 25.1899 51.8494 25.0226 51.9759 24.9002C52.1024 24.7778 52.272 24.71 52.448 24.7115ZM43.89 23.1605C44.1265 23.1605 44.1265 23.584 43.89 23.584C43.6535 23.584 43.648 23.1605 43.89 23.1605ZM21.5215 35.321C21.4955 35.3256 21.4687 35.3244 21.4431 35.3175C21.4175 35.3107 21.3937 35.2983 21.3734 35.2812C21.3531 35.2642 21.3368 35.2429 21.3256 35.2189C21.3144 35.1949 21.3086 35.1687 21.3086 35.1422C21.3086 35.1157 21.3144 35.0895 21.3256 35.0655C21.3368 35.0415 21.3531 35.0202 21.3734 35.0032C21.3937 34.9862 21.4175 34.9737 21.4431 34.9669C21.4687 34.96 21.4955 34.9589 21.5215 34.9635C21.5477 34.9589 21.5744 34.96 21.6001 34.9669C21.6256 34.9737 21.6494 34.9862 21.6697 35.0032C21.69 35.0202 21.7063 35.0415 21.7175 35.0655C21.7288 35.0895 21.7345 35.1157 21.7345 35.1422C21.7345 35.1687 21.7288 35.1949 21.7175 35.2189C21.7063 35.2429 21.69 35.2642 21.6697 35.2812C21.6494 35.2983 21.6256 35.3107 21.6001 35.3175C21.5744 35.3244 21.5477 35.3256 21.5215 35.321ZM33.3465 56.914C33.2727 56.9053 33.2028 56.8759 33.1454 56.8283C33.0881 56.7811 33.0457 56.7178 33.0233 56.6472C33.001 56.5762 32.9997 56.5001 33.0196 56.4286C33.0395 56.3567 33.0798 56.2925 33.1355 56.243C33.1912 56.1939 33.26 56.1619 33.3336 56.1509C33.4072 56.1399 33.4824 56.1504 33.5501 56.1811C33.6178 56.2118 33.6751 56.2618 33.7151 56.3246C33.7552 56.3869 33.7761 56.4602 33.7755 56.5345C33.7685 56.6413 33.7194 56.7412 33.6391 56.8122C33.5588 56.8837 33.4537 56.9199 33.3465 56.914ZM34.65 20.13C34.7254 20.1289 34.7992 20.1502 34.8624 20.1912C34.9255 20.2323 34.975 20.2911 35.0046 20.3604C35.0341 20.4296 35.0425 20.5061 35.0284 20.5801C35.0144 20.654 34.9787 20.7222 34.9259 20.7758C34.873 20.8294 34.8054 20.8661 34.7316 20.8812C34.6579 20.8963 34.5813 20.8891 34.5116 20.8606C34.442 20.832 34.3824 20.7834 34.3404 20.7209C34.2985 20.6583 34.2761 20.5847 34.276 20.5095C34.276 20.4097 34.3153 20.314 34.3853 20.2431C34.4553 20.172 34.5504 20.1314 34.65 20.13ZM34.969 39.8805C34.9685 39.9342 34.9526 39.9866 34.9232 40.0316C34.8937 40.0765 34.852 40.112 34.8029 40.1339C34.7539 40.1559 34.6996 40.1632 34.6465 40.1551C34.5934 40.147 34.5437 40.124 34.5033 40.0885C34.463 40.053 34.4337 40.0067 34.4189 39.955C34.4042 39.9034 34.4045 39.8486 34.4199 39.7971C34.4354 39.7457 34.4653 39.6998 34.5061 39.6648C34.5469 39.6298 34.5968 39.6073 34.65 39.6C34.6887 39.5969 34.7275 39.6019 34.7642 39.6146C34.8008 39.6274 34.8344 39.6476 34.8628 39.6739C34.8912 39.7003 34.9139 39.7322 34.9293 39.7678C34.9448 39.8033 34.9527 39.8417 34.9525 39.8805H34.969ZM35.0955 48.004C35.4255 47.7455 36.399 46.9425 36.6905 47.1955C36.982 47.4485 36.729 47.982 36.6905 48.741C37.301 49.0325 38.566 49.588 38.071 49.94C37.5864 50.1769 37.0661 50.3328 36.531 50.402C36.4375 51.1995 36.443 51.6065 36.1735 51.744C35.9865 51.832 35.574 51.4965 35.42 51.3535C35.1242 51.1009 34.865 50.8085 34.65 50.4845C34.1477 50.545 33.6399 50.545 33.1375 50.4845C33.0055 50.4515 32.9065 50.391 32.934 50.259C32.9945 49.9565 33.6765 49.313 33.902 49.0985C33.759 48.785 33.4235 47.9985 33.539 47.685C33.704 47.2505 34.4135 47.729 35.079 48.004H35.0955ZM33.308 30.283C33.4235 30.283 33.484 30.3655 33.4675 30.5085C33.3525 30.9166 33.1783 31.3057 32.9505 31.6635C33.1864 31.9104 33.388 32.1879 33.55 32.4885C34.1 33.55 33.3355 33.2805 32.2025 33.0385C31.9354 33.4357 31.5958 33.779 31.2015 34.0505C30.69 34.3035 30.5745 33.2255 30.4865 32.615C29.711 32.4115 29.095 32.439 28.9355 32.1255C28.776 31.812 29.964 31.3335 30.305 31.1795C30.2665 30.6295 30.03 29.8925 30.503 29.9145C30.9824 30.0593 31.4226 30.3113 31.79 30.6515C32.2734 30.4491 32.7858 30.3247 33.308 30.283ZM26.301 45.65C26.2397 45.6599 26.177 45.6564 26.1172 45.6396C26.0573 45.6229 26.0018 45.5934 25.9545 45.5531C25.9072 45.5129 25.8692 45.4628 25.8431 45.4064C25.8171 45.35 25.8036 45.2886 25.8036 45.2265C25.8036 45.1643 25.8171 45.103 25.8431 45.0465C25.8692 44.9902 25.9072 44.9401 25.9545 44.8998C26.0018 44.8595 26.0573 44.83 26.1172 44.8133C26.177 44.7966 26.2397 44.793 26.301 44.803C26.3624 44.793 26.4252 44.7966 26.485 44.8133C26.5448 44.83 26.6003 44.8595 26.6476 44.8998C26.6949 44.9401 26.7329 44.9902 26.759 45.0465C26.785 45.103 26.7985 45.1643 26.7985 45.2265C26.7985 45.2886 26.785 45.35 26.759 45.4064C26.7329 45.4628 26.6949 45.5129 26.6476 45.5531C26.6003 45.5934 26.5448 45.6229 26.485 45.6396C26.4252 45.6564 26.3624 45.6599 26.301 45.65ZM23.199 29.0345C23.1788 29.0294 23.1608 29.0178 23.1479 29.0013C23.1351 28.9849 23.1281 28.9646 23.1281 28.9437C23.1281 28.9228 23.1351 28.9025 23.1479 28.8861C23.1608 28.8697 23.1788 28.858 23.199 28.853C24.4035 28.7705 25.773 28.732 26.9775 28.732C25.9737 28.0279 24.8991 27.4306 23.771 26.95C23.7472 26.9426 23.727 26.9265 23.7144 26.9049C23.7019 26.8832 23.6981 26.8576 23.7036 26.8333C23.7092 26.8089 23.7238 26.7875 23.7445 26.7735C23.7651 26.7594 23.7903 26.7537 23.815 26.7575C25.0653 26.7708 26.2951 27.0759 27.4065 27.6485C26.6755 26.92 25.9023 26.2349 25.091 25.597C25.0737 25.5829 25.0619 25.563 25.0579 25.541C25.0539 25.519 25.058 25.4963 25.0692 25.477C25.0806 25.4577 25.0984 25.4431 25.1196 25.4359C25.1407 25.4286 25.1638 25.4292 25.1845 25.4375C26.571 25.8845 27.8724 26.5613 29.0345 27.4395C30.1818 28.2801 31.1769 29.3106 31.977 30.4865C31.977 30.536 31.9275 30.5745 31.8945 30.525C31.095 29.3567 30.1017 28.3337 28.9575 27.5C27.9383 26.7524 26.8155 26.1577 25.6245 25.7345C26.026 26.059 27.654 27.3845 27.8685 27.874C27.9125 27.962 27.8025 28.0445 27.709 27.9895C27.1217 27.6623 26.4977 27.4057 25.85 27.225C25.3454 27.074 24.8249 26.9817 24.299 26.95C24.9315 27.2525 26.895 28.215 27.2965 28.787C27.3069 28.8023 27.3126 28.8202 27.3133 28.8386C27.314 28.857 27.3095 28.8753 27.3003 28.8913C27.2912 28.9072 27.2778 28.9204 27.2615 28.9292C27.2453 28.938 27.227 28.942 27.2085 28.941C27.148 28.941 25.63 28.941 24.0185 28.996C25.9215 29.359 28.4185 30.0575 30.008 31.196C30.052 31.229 30.008 31.295 29.953 31.262C28.226 30.0575 25.2395 29.3095 23.199 29.0345ZM54.34 40.392C56.2155 38.9785 59.9335 38.6045 61.5615 40.392C62.0409 40.8594 62.4177 41.4217 62.6679 42.0429C62.9177 42.6642 63.0355 43.3307 63.0135 44C62.8852 45.2129 62.364 46.3508 61.5285 47.2395C61.4295 47.3385 61.4295 47.2395 61.4625 47.19C61.5574 47.0539 61.6197 46.8985 61.6458 46.7349C61.672 46.5712 61.661 46.4039 61.6133 46.2454C61.5656 46.0868 61.4831 45.941 61.3713 45.8189C61.2595 45.6967 61.1215 45.6014 60.9675 45.54C59.928 45.067 59.6145 46.8105 58.8555 47.025C58.1955 47.2175 58.443 45.6775 58.4925 44.649C58.5617 44.1968 58.4577 43.7352 58.201 43.3565C57.744 42.8663 57.1794 42.4896 56.551 42.2565C55.4496 41.8129 54.2538 41.6558 53.075 41.8C53.3968 41.2497 53.8271 40.7706 54.34 40.392ZM53.0365 48.5925C52.129 46.4475 52.525 43.5985 52.525 43.5985C52.5695 43.02 52.7363 42.4576 53.0145 41.9485C54.203 41.8277 55.4024 42.0172 56.496 42.4985C57.0909 42.7212 57.6272 43.0767 58.0635 43.538C58.6135 44.264 58.0635 45.65 58.2395 46.7335C58.3055 47.157 58.5035 47.4265 58.916 47.2835C59.7685 47.0415 60.0545 45.4245 60.874 45.7985C61.6935 46.1725 61.545 47.245 60.577 47.652C60.203 47.8115 60.236 48.169 60.522 48.202C60.6705 48.202 60.962 48.1195 61.4075 47.762C62.0602 47.1244 62.573 46.3586 62.9145 45.5125C63.6795 45.674 64.4192 45.9364 65.1145 46.2935C66.0935 46.739 67.2485 47.3605 68.1615 47.894C66.77 48.2258 65.5018 48.9463 64.5045 49.9721C63.5071 50.9974 62.8224 52.2853 62.5295 53.6855C62.3205 53.6855 62.337 53.3885 62.194 53.2785C62.051 53.1685 61.963 53.2785 61.7925 53.3335C61.7962 53.1978 61.7659 53.064 61.7045 52.943C61.7045 52.624 61.182 52.811 60.8795 52.91C60.8832 52.7734 60.8625 52.6377 60.819 52.5085C60.9455 52.1015 60.2085 52.305 59.796 52.4205C59.8272 52.2642 59.8272 52.1038 59.796 51.9475C59.8345 51.6285 59.136 51.832 58.8445 51.9475C58.8697 51.7637 58.8583 51.5767 58.8115 51.3975C58.6575 51.183 57.8435 51.634 57.8105 51.4305C57.8133 51.2797 57.843 51.1307 57.8985 50.9905C57.992 50.655 57.5355 50.864 57.4035 50.842C57.3985 50.8447 57.393 50.8466 57.387 50.8466C57.381 50.8466 57.3755 50.8447 57.3705 50.842V50.776C57.8307 50.6499 58.2725 50.4652 58.685 50.226C58.8949 50.5349 59.2093 50.7576 59.5705 50.853C59.8987 50.9506 60.2479 50.9515 60.5765 50.8557C60.9052 50.7595 61.199 50.5702 61.4226 50.3112C61.6463 50.0523 61.7902 49.7337 61.8374 49.395C61.8846 49.0559 61.8328 48.7103 61.688 48.4C61.688 48.3395 61.567 48.4 61.5945 48.4385C61.666 48.6493 61.6935 48.8721 61.6765 49.0939C61.6596 49.3157 61.5977 49.5316 61.495 49.7292C61.3919 49.9262 61.2503 50.1009 61.0784 50.242C60.9065 50.3832 60.7081 50.4881 60.4945 50.5505L59.1635 49.731C59.114 49.698 59.1195 49.731 58.828 49.918C58.6451 49.5568 58.5961 49.1429 58.6896 48.7488C58.7835 48.3551 59.0136 48.0077 59.3395 47.7675C59.724 47.5099 60.181 47.3825 60.643 47.4045C60.654 47.4008 60.6636 47.3939 60.6705 47.3843C60.6774 47.3752 60.681 47.3637 60.681 47.3522C60.681 47.3408 60.6774 47.3293 60.6705 47.3202C60.6636 47.3105 60.654 47.3036 60.643 47.3C60.148 47.2399 59.6466 47.3463 59.2185 47.6025C58.8298 47.8605 58.5507 48.2542 58.4361 48.7066C58.3211 49.1585 58.3784 49.6375 58.597 50.05C57.6221 50.6046 56.5038 50.8557 55.385 50.7705C54.8487 50.6197 54.356 50.3438 53.9477 49.9652C53.5393 49.5861 53.2272 49.1159 53.0365 48.5925ZM61.6 53.4765C61.7444 53.4453 61.8851 53.3977 62.018 53.3335C62.26 53.2455 62.194 53.7295 62.502 53.735C62.447 53.9935 62.414 54.197 62.3975 54.3235C62.139 54.23 61.897 54.1255 61.655 54.0265C61.6655 53.8413 61.6472 53.6557 61.6 53.4765ZM61.6 53.3555C61.6 53.3555 61.6 53.328 61.655 53.141C61.6687 53.2102 61.6967 53.2757 61.7375 53.3335L61.6 53.35V53.3555ZM61.545 53.46C61.517 53.6424 61.517 53.8276 61.545 54.01C61.16 53.8505 60.8025 53.6855 60.445 53.5205C60.445 53.4164 60.4244 53.3138 60.3845 53.218C60.6375 53.218 61.4845 52.811 61.523 52.932C61.5615 53.053 61.3635 53.35 61.545 53.46ZM60.3295 53.1795C60.3286 53.2652 60.3414 53.3509 60.368 53.4325C60.225 53.3665 59.6365 53.0695 59.488 52.9925C59.4853 52.8752 59.4669 52.7583 59.433 52.646C59.7625 52.6006 60.0884 52.5287 60.4065 52.4315C60.445 52.4315 60.6925 52.3985 60.6705 52.4315C60.6485 52.591 60.0875 53.053 60.3295 53.1795ZM59.367 52.9265C59.0865 52.778 58.817 52.635 58.608 52.503C58.6117 52.3861 58.591 52.2702 58.5475 52.162C58.6364 52.1771 58.7272 52.1615 58.806 52.118C59.059 52.0029 59.3317 51.9374 59.609 51.9255C59.4926 52.0598 59.3931 52.2074 59.312 52.3655C59.2905 52.5543 59.3092 52.7454 59.367 52.9265ZM58.4815 52.4315L57.871 52.063C57.8834 51.8998 57.8669 51.7362 57.8215 51.579C57.9975 51.6175 58.454 51.436 58.663 51.4525C58.5635 51.5872 58.4737 51.7289 58.3935 51.876C58.3935 52.0648 58.4233 52.2523 58.4815 52.4315ZM58.718 51.634C58.7043 51.7435 58.7043 51.8544 58.718 51.964C58.6795 51.964 58.553 52.0245 58.542 51.964C58.531 51.9035 58.652 51.7 58.718 51.634ZM59.686 52.107C59.6828 52.2147 59.6956 52.3224 59.7245 52.426C59.6402 52.4572 59.5508 52.4741 59.4605 52.4755C59.4605 52.4755 59.4385 52.3985 59.686 52.107ZM60.742 52.657C60.7493 52.7473 60.7695 52.8362 60.8025 52.921C60.693 52.9627 60.5811 52.9975 60.467 53.0255C60.533 52.9265 60.621 52.8 60.742 52.6515V52.657ZM57.7115 51.513C57.7088 51.678 57.7294 51.843 57.772 52.0025C57.6785 51.9452 57.5864 51.8847 57.497 51.821L57.3705 50.897C57.508 50.897 57.794 50.8145 57.794 50.897C57.794 50.9795 57.563 51.3425 57.7115 51.5075V51.513ZM58.8885 50.028C58.9655 49.9785 59.048 49.918 59.125 49.8575L60.335 50.6C60.0664 50.6541 59.7882 50.6312 59.5325 50.5335C59.2767 50.4364 59.0535 50.2686 58.8885 50.05V50.028ZM52.998 54.912C52.866 54.8735 53.625 53.6965 53.713 53.559C53.9825 53.1245 55.286 51.1115 55.396 50.9465C55.8507 50.9731 56.3067 50.9456 56.7545 50.864C56.8425 54.12 57.431 55.473 58.146 56.7435C57.7775 56.628 57.4035 56.7985 57.079 56.683C56.6225 56.529 56.639 55.869 55.979 55.8305C55.5477 55.8814 55.1329 56.0257 54.7635 56.254C54.615 56.3145 54.582 56.254 54.5435 56.188C54.489 55.8158 54.4083 55.4482 54.3015 55.088C54.0485 54.6535 53.2565 55 52.998 54.912ZM39.2866 70.708L41.8825 72.2755C41.7313 72.4185 41.5675 72.5473 41.393 72.6605C40.9695 72.886 40.5295 72.7155 40.524 73.051C38.1535 73.9585 34.584 78.144 39.0335 81.9665C44.7205 86.845 51.194 88.792 45.1715 93.445C43.5215 94.7375 41.822 94.545 39.8585 93.2745C37.7025 91.861 37.7245 85.635 35.6565 81.7905C32.219 75.394 30.8 77.55 24.156 72.743L39.2866 70.708ZM46.926 93.808C46.9187 93.808 46.9118 93.8066 46.9049 93.8039C46.8985 93.8011 46.8921 93.797 46.887 93.7919C46.882 93.7869 46.8779 93.7805 46.8751 93.7741C46.8724 93.7672 46.871 93.7603 46.871 93.753C46.871 93.7457 46.8724 93.7388 46.8751 93.7319C46.8779 93.725 46.882 93.7191 46.887 93.714C46.8921 93.709 46.8985 93.7049 46.9049 93.7021C46.9118 93.6994 46.9187 93.698 46.926 93.698C46.937 93.7016 46.9466 93.7085 46.9535 93.7181C46.9604 93.7273 46.964 93.7388 46.964 93.7502C46.964 93.7617 46.9604 93.7731 46.9535 93.7823C46.9466 93.7919 46.937 93.7988 46.926 93.8025V93.808ZM44.11 95.458C44.087 95.4621 44.0633 95.4617 44.0406 95.4557C44.0179 95.4497 43.9968 95.4387 43.9787 95.4241C43.9607 95.4089 43.9462 95.3902 43.9362 95.3691C43.9263 95.348 43.9211 95.3246 43.9211 95.3012C43.9211 95.2779 43.9263 95.2545 43.9362 95.2334C43.9462 95.2123 43.9607 95.1935 43.9787 95.1784C43.9968 95.1633 44.0179 95.1527 44.0406 95.1468C44.0633 95.1408 44.087 95.1404 44.11 95.1445C44.1546 95.1445 44.1972 95.1624 44.2287 95.1935C44.2602 95.2252 44.2778 95.2678 44.2778 95.3122C44.2778 95.3567 44.2602 95.3993 44.2287 95.4309C44.1972 95.4621 44.1546 95.48 44.11 95.48V95.458ZM37.026 95.073C37.0824 94.9098 37.1661 94.7572 37.2735 94.622C37.026 94.281 36.8776 94.1105 37.3066 94.1325C37.4323 94.1417 37.5562 94.1678 37.675 94.2095C38.115 93.7255 38.1921 93.7585 38.1756 94.4185C38.2856 94.4735 38.544 94.6055 38.5935 94.7155C38.643 94.8255 38.3625 94.8915 38.1645 94.952C38.1645 95.084 38.115 95.502 37.9885 95.502C37.862 95.502 37.7906 95.2985 37.6256 95.0895C37.4001 95.15 36.9985 95.293 37.026 95.095V95.073ZM36.9545 88.066C36.9315 88.0701 36.9078 88.0697 36.8851 88.0637C36.8624 88.0577 36.8413 88.0467 36.8232 88.0321C36.8052 88.0169 36.7907 87.9982 36.7807 87.9771C36.7708 87.956 36.7656 87.9326 36.7656 87.9092C36.7656 87.8859 36.7708 87.8625 36.7807 87.8414C36.7907 87.8203 36.8052 87.8015 36.8232 87.7864C36.8413 87.7713 36.8624 87.7607 36.8851 87.7548C36.9078 87.7488 36.9315 87.7484 36.9545 87.7525C36.9991 87.7525 37.0417 87.7704 37.0732 87.8015C37.1047 87.8332 37.1223 87.8758 37.1223 87.9202C37.1223 87.9647 37.1047 88.0073 37.0732 88.0389C37.0417 88.0701 36.9991 88.088 36.9545 88.088V88.066ZM30.3105 80.091C30.2875 80.0951 30.2638 80.0947 30.2411 80.0887C30.2184 80.0827 30.1973 80.0717 30.1792 80.0571C30.1612 80.0419 30.1467 80.0232 30.1367 80.0021C30.1268 79.981 30.1216 79.9576 30.1216 79.9342C30.1216 79.9109 30.1268 79.8875 30.1367 79.8664C30.1467 79.8453 30.1612 79.8265 30.1792 79.8114C30.1973 79.7963 30.2184 79.7857 30.2411 79.7798C30.2638 79.7738 30.2875 79.7734 30.3105 79.7775C30.3336 79.7734 30.3573 79.7738 30.38 79.7798C30.4027 79.7857 30.4238 79.7963 30.4419 79.8114C30.4599 79.8265 30.4744 79.8453 30.4844 79.8664C30.4944 79.8875 30.4996 79.9109 30.4996 79.9342C30.4996 79.9576 30.4944 79.981 30.4844 80.0021C30.4744 80.0232 30.4599 80.0419 30.4419 80.0571C30.4238 80.0717 30.4027 80.0827 30.38 80.0887C30.3573 80.0947 30.3336 80.0951 30.3105 80.091ZM28.1105 76.659C28.0875 76.6631 28.0638 76.6626 28.0411 76.6567C28.0184 76.6507 27.9973 76.6397 27.9792 76.6251C27.9612 76.6099 27.9467 76.5911 27.9367 76.5701C27.9268 76.549 27.9216 76.5256 27.9216 76.5022C27.9216 76.4789 27.9268 76.4555 27.9367 76.4344C27.9467 76.4133 27.9612 76.3945 27.9792 76.3794C27.9973 76.3643 28.0184 76.3537 28.0411 76.3478C28.0638 76.3418 28.0875 76.3409 28.1105 76.3455C28.1333 76.34 28.1569 76.34 28.1798 76.3446C28.2026 76.3496 28.2241 76.3592 28.2428 76.373C28.2615 76.3872 28.2768 76.4051 28.2878 76.4257C28.2988 76.4463 28.3052 76.4692 28.3064 76.4921C28.3076 76.5155 28.3037 76.5389 28.2949 76.5604C28.2862 76.5824 28.2727 76.6017 28.2557 76.6177C28.2386 76.6333 28.2182 76.6452 28.196 76.6526C28.1738 76.6599 28.1502 76.6617 28.127 76.659H28.1105ZM21.659 75.559C21.6821 75.5549 21.7058 75.5553 21.7285 75.5613C21.7512 75.5672 21.7723 75.5778 21.7904 75.5929C21.8084 75.608 21.8229 75.6268 21.8329 75.6479C21.8429 75.669 21.8481 75.6924 21.8481 75.7157C21.8481 75.7391 21.8429 75.7625 21.8329 75.7836C21.8229 75.8046 21.8084 75.8234 21.7904 75.8386C21.7723 75.8532 21.7512 75.8642 21.7285 75.8702C21.7058 75.8761 21.6821 75.8766 21.659 75.8725C21.6359 75.8752 21.6124 75.8734 21.5902 75.8661C21.5679 75.8587 21.5476 75.8468 21.5305 75.8312C21.5134 75.8152 21.5 75.7959 21.4912 75.7739C21.4825 75.7524 21.4786 75.729 21.4797 75.7056C21.481 75.6827 21.4873 75.6598 21.4983 75.6392C21.5093 75.6186 21.5247 75.6007 21.5433 75.5865C21.562 75.5727 21.5835 75.5631 21.6064 75.5581C21.6292 75.5535 21.6529 75.5535 21.6755 75.559H21.659ZM18.0345 64.559C18.262 64.3757 18.5212 64.2359 18.799 64.1465C18.799 63.4315 18.744 63.0465 19.3105 63.47C19.476 63.6047 19.6239 63.7601 19.7505 63.932C20.0059 63.8545 20.2704 63.8124 20.537 63.8055C20.614 63.8055 20.6635 63.8495 20.658 63.9265C20.5641 64.2102 20.4227 64.476 20.24 64.713C20.3987 64.9596 20.4967 65.2405 20.526 65.5325C20.4765 65.802 20.053 65.5655 19.712 65.4665C19.5635 65.6425 19.107 66.2255 18.9365 66.0935C18.766 65.9615 18.8595 65.6205 18.8375 65.1585C18.502 65.0375 17.82 64.8175 18.051 64.559H18.0345ZM16.0105 69.41C16.0336 69.4054 16.0573 69.4063 16.08 69.4123C16.1027 69.4182 16.1238 69.4288 16.1419 69.4439C16.1599 69.459 16.1744 69.4778 16.1844 69.4989C16.1944 69.52 16.1996 69.5434 16.1996 69.5667C16.1996 69.5901 16.1944 69.6135 16.1844 69.6346C16.1744 69.6557 16.1599 69.6744 16.1419 69.6896C16.1238 69.7042 16.1027 69.7152 16.08 69.7212C16.0573 69.7272 16.0336 69.7276 16.0105 69.7235C15.9874 69.7262 15.9639 69.7244 15.9417 69.7171C15.9194 69.7097 15.8991 69.6978 15.882 69.6822C15.8649 69.6662 15.8515 69.6469 15.8427 69.6249C15.834 69.6034 15.8301 69.58 15.8312 69.5566C15.8325 69.5337 15.8388 69.5108 15.8498 69.4902C15.8608 69.4696 15.8762 69.4517 15.8948 69.4375C15.9135 69.4237 15.935 69.4141 15.9579 69.4091C15.9807 69.4045 16.0044 69.4045 16.027 69.41H16.0105ZM69.058 87.6755C67.045 90.299 36.9875 104.885 34.0615 106.298C27.192 98.142 16.5 83.27 10.23 74.591L15.895 73.8485C19.426 79.42 24.838 78.1275 27.742 79.8985C31.009 81.895 32.692 83.402 33.682 87.274C35.0295 92.5375 33.3301 94.809 37.2681 96.4865C41.0411 98.087 48.532 97.4435 51.568 92.235C54.604 87.0265 48.6585 84.7495 43.318 82.335C37.9775 79.9205 38.918 76.5765 39.644 75.6305C40.1984 74.9109 40.8415 74.2637 41.558 73.7055C41.8291 73.7064 42.0956 73.6363 42.331 73.502C42.5665 73.3682 42.7626 73.1747 42.9 72.941C43.5435 73.2875 67.9525 87.043 69.0745 87.6755H69.058ZM48.708 94.16C48.7153 94.16 48.7222 94.1614 48.7291 94.1641C48.736 94.1669 48.7419 94.171 48.747 94.176C48.752 94.1811 48.7561 94.187 48.7589 94.1939C48.7616 94.2008 48.763 94.2077 48.763 94.215C48.763 94.2223 48.7616 94.2292 48.7589 94.2361C48.7561 94.2425 48.752 94.2489 48.747 94.2539C48.7419 94.259 48.736 94.2631 48.7291 94.2659C48.7222 94.2686 48.7153 94.27 48.708 94.27C48.7007 94.2695 48.6938 94.2677 48.6874 94.2649C48.6805 94.2617 48.675 94.2572 48.67 94.2521C48.6649 94.2466 48.6613 94.2402 48.659 94.2333C48.6567 94.2264 48.6553 94.2196 48.6558 94.2122C48.6562 94.2049 48.658 94.198 48.6612 94.1912C48.664 94.1847 48.6686 94.1788 48.6741 94.1742C48.6791 94.1692 48.6855 94.1655 48.6924 94.1632C48.6993 94.1609 48.7062 94.1595 48.7135 94.16H48.708ZM50.116 88.5885C50.05 88.6325 49.951 88.5885 49.797 88.5115C49.555 88.781 49.4395 88.858 49.467 88.4015C49.2305 88.3245 49.0985 88.286 49.3185 88.1595C49.3845 88.1237 49.4546 88.0958 49.5275 88.077C49.588 87.6975 49.6375 87.692 49.8465 88.011C49.9478 87.9862 50.0532 87.9862 50.1545 88.011C50.2315 88.055 50.105 88.1595 50.017 88.264C50.05 88.341 50.182 88.55 50.1215 88.5885H50.116ZM41.998 73.3755C41.7859 73.4456 41.5583 73.4543 41.3413 73.4007C41.1244 73.3471 40.9269 73.2339 40.7715 73.073H40.821C41.8605 72.9135 41.7065 72.4845 42.2455 72.2205C42.295 72.2755 42.2455 72.259 43.12 72.325C42.8992 72.8094 42.496 73.1871 41.998 73.3755ZM43.2685 71.1755C43.189 71.3235 43.1582 71.4931 43.1806 71.6595C43.1806 71.698 43.142 71.874 43.12 72.039L42.526 71.9895C42.526 71.962 42.9165 71.0325 42.944 70.9445H43.318L43.2685 71.1755ZM43.1586 69.63C42.7791 70.3395 42.6086 71.6595 42.2731 71.4285C42.1559 71.307 42.0891 71.1462 42.0861 70.9775C42.0684 70.6603 42.1133 70.3427 42.2181 70.0425C42.3078 69.7276 42.4656 69.4361 42.6804 69.1891C42.8952 68.942 43.1618 68.7449 43.4611 68.6125C43.1696 69.7345 43.2521 69.4815 43.1586 69.652V69.63ZM43.5545 70.4605C43.6425 70.202 43.7636 69.8225 43.9341 69.3275C44.0056 69.289 44.022 69.3275 44.1155 69.5585C44.264 69.9435 43.395 70.9225 43.395 70.9225C43.45 70.763 43.5105 70.609 43.5545 70.4825V70.4605ZM59.0865 60.929C57.145 63.8495 55.704 65.1585 53.438 66.429C51.2293 67.6042 48.8803 68.4947 46.4475 69.08C45.4685 69.3825 44.6491 71.555 43.5766 71.654C43.4556 71.654 43.373 71.654 43.472 71.379C43.7195 70.6915 44.616 70.1195 44.3575 69.465C44.3247 69.3664 44.2805 69.2725 44.2255 69.1845C44.181 69.1125 44.113 69.058 44.033 69.0305C44.066 68.9205 44.176 68.6015 44.3245 68.1505C44.451 68.0625 44.539 68.035 45.1165 67.694C47.0525 66.55 47.8115 64.4985 49.4395 62.579C50.2993 61.5271 51.3031 60.6013 52.4205 59.829C52.503 59.7795 52.3655 59.862 53.0035 57.849C53.372 56.6885 53.801 55.462 53.9275 55.099C53.9513 55.1022 53.9743 55.1109 53.994 55.1242C54.0141 55.1375 54.0311 55.1554 54.043 55.176C54.186 55.4455 54.1585 55.9625 54.2795 56.276C54.5655 56.969 55.275 56.0395 55.9295 56.056C56.4795 56.056 56.4795 56.6885 57.0295 56.848C57.442 56.969 57.8545 56.716 58.2395 56.8975C58.7441 57.755 59.3377 58.5571 60.0105 59.29C59.7607 59.8739 59.4509 60.4308 59.0865 60.951V60.929ZM62.4635 61.105C60.7988 59.9147 59.4073 58.3829 58.3825 56.6115C57.706 55.4345 57.079 54.12 56.8645 50.82C56.9942 50.7975 57.123 50.7677 57.2495 50.732L57.365 51.832C57.9709 52.2908 58.6108 52.7024 59.279 53.064C59.279 53.064 58.8115 55.7095 60.929 59.114C61.9465 60.786 62.4635 61.127 62.4635 61.127V61.105ZM72.688 68.2C72.787 69.399 71.698 75.944 71.5495 76.835C71.5408 76.8382 71.533 76.8432 71.5261 76.8501C71.5197 76.8565 71.5142 76.8648 71.511 76.8735C71.5825 76.604 70.345 80.7675 70.2515 82.071C70.2515 82.1755 70.2515 82.126 71.192 82.94C71.511 83.2205 72.6055 84.15 72.6605 84.4745C72.6857 84.5588 72.6857 84.6487 72.6605 84.733C72.1692 84.2123 71.583 83.7907 70.9335 83.49C70.922 83.4827 70.9078 83.4804 70.8945 83.4836C70.8808 83.4863 70.8693 83.4946 70.862 83.5065C70.8547 83.5179 70.8524 83.5322 70.8556 83.5454C70.8588 83.5592 70.867 83.5707 70.8785 83.578L71.324 83.941C71.7695 84.2435 72.1793 84.5959 72.545 84.9915C72.49 85.129 72.369 85.14 72.226 85.1015C72.226 84.8155 70.972 84.1225 70.576 83.886C70.5155 83.853 70.4605 83.941 70.521 83.974C71.0733 84.293 71.588 84.6729 72.0555 85.107C71.8795 85.503 71.346 84.9365 69.4045 84.139C69.0548 83.9818 68.6845 83.8741 68.3045 83.82C68.2788 83.8182 68.2532 83.8246 68.2316 83.8388C68.2096 83.8525 68.1927 83.8727 68.1835 83.897C68.134 84.04 68.288 84.0345 68.783 84.535C68.8884 84.6271 68.9792 84.7348 69.0525 84.854C68.723 84.8929 68.3902 84.815 68.112 84.634C67.8915 84.4864 67.7178 84.2797 67.6106 84.0372C67.5033 83.7948 67.4676 83.5266 67.507 83.2645C67.6005 82.7145 68.145 82.434 67.9195 81.9445C67.694 81.455 67.232 78.276 67.166 77.8195C66.5555 73.689 66.7865 73.601 66.671 73.568C66.671 67.837 66.8525 67.815 66.8085 67.518C66.8085 67.4575 65.5765 58.9985 65.5655 58.9325C65.9285 58.9325 66.187 59.334 66.3905 59.664C66.6875 60.137 66.9405 60.445 67.5345 60.2635C68.1285 60.082 68.6345 59.5815 69.1845 59.3835C69.7345 59.1855 70.026 59.3835 70.6255 59.576C70.8565 59.6864 71.1173 59.7176 71.368 59.6649C71.6183 59.6122 71.8447 59.4784 72.0115 59.2845C72.9685 58.487 72.5175 58.289 74.4755 59.059C74.096 60.5385 73.2435 64.7185 73.227 64.7845C72.8796 65.89 72.6981 67.0409 72.688 68.2ZM65.4995 58.663C65.0682 58.8188 64.6475 59.0022 64.24 59.213C64.1465 59.213 64.108 59.213 64.0805 59.103C63.91 58.3165 65.912 49.005 70.9005 48.653C73.1775 48.499 74.7505 52.5855 75.438 54.7635C75.8904 56.1476 76.2415 57.5634 76.4885 58.9985C76.5875 59.994 73.6835 58.1295 72.8475 58.322C72.5175 58.399 72.369 58.6795 71.896 59.0755C71.423 59.4715 71.181 59.4715 70.763 59.323C70.2694 59.0526 69.6905 58.9815 69.146 59.125C68.563 59.334 68.079 59.8235 67.496 60.005C67.001 60.1645 66.847 59.8235 66.5665 59.3835C66.286 58.9435 66 58.5695 65.4995 58.641V58.663ZM73.6945 63.855C73.9255 62.942 74.3325 61.05 74.635 59.07C75.141 59.268 76.2465 59.752 76.615 59.4C76.67 59.3413 76.7094 59.2698 76.7305 59.1924C76.7516 59.1144 76.7534 59.0329 76.736 58.9545C76.5366 57.7935 76.2612 56.6472 75.911 55.5225C75.174 53.075 73.4525 48.3725 70.8895 48.532C65.6865 48.895 63.657 58.2835 63.833 59.1305C63.838 59.185 63.8555 59.2373 63.8843 59.284C63.9128 59.3308 63.9517 59.3702 63.998 59.3995C64.0443 59.4284 64.0965 59.4467 64.1511 59.4527C64.2052 59.4587 64.2602 59.4518 64.3115 59.433C64.625 59.356 65.0705 59.015 65.4775 58.9215C65.538 59.9225 65.6535 61.2535 65.8955 62.975C64.9678 62.6102 64.0718 62.1683 63.217 61.655C61.4914 59.9789 60.275 57.8494 59.708 55.5115C59.5146 54.7465 59.4041 53.9628 59.378 53.174C60.3767 53.7318 61.4135 54.2185 62.48 54.6315C62.4979 54.6384 62.5167 54.6411 62.5359 54.6393C62.5547 54.6374 62.573 54.6315 62.5891 54.6209C62.6051 54.6109 62.6184 54.5971 62.6285 54.5806C62.6381 54.5646 62.6436 54.5458 62.645 54.527C62.8462 52.9732 63.5048 51.5144 64.537 50.336C65.5889 49.1704 66.9863 48.3725 68.5245 48.059C68.5492 48.0549 68.5722 48.0429 68.59 48.0255C68.6079 48.0077 68.6198 47.9847 68.624 47.96C68.6285 47.9352 68.6249 47.9096 68.6139 47.8871C68.6029 47.8642 68.585 47.8454 68.563 47.8335C67.4735 47.2047 66.3497 46.6372 65.197 46.134C64.4829 45.8022 63.734 45.5513 62.964 45.386C63.113 44.9757 63.2129 44.5493 63.261 44.1155C64.361 43.648 69.9105 44.3355 73.6505 43.945C74.217 43.9099 74.7789 43.8197 75.328 43.6755C78.6995 43.582 83.776 47.729 84.711 49.599C85.646 51.469 85.4975 53.8065 83.424 56.716C81.4715 59.4385 74.4535 63.4095 73.7 63.833L73.6945 63.855ZM88.66 74.9595C89.4245 72.5505 88.2145 70.2955 87.78 69.597L91.421 69.498C91.8899 69.7753 92.2474 70.207 92.433 70.719C92.7314 71.4858 92.8899 72.2998 92.9005 73.1225C91.8115 73.612 89.793 74.536 88.66 74.9375V74.9595ZM93.137 72.974C93.1067 72.1682 92.9202 71.3762 92.587 70.642C92.3665 70.1241 91.9792 69.6942 91.487 69.421C91.7065 69.1854 91.9724 68.9979 92.268 68.871C92.268 69.047 92.0535 69.421 92.312 69.4595C92.5705 69.498 92.598 69.245 92.7575 69.1625C92.8235 69.1295 92.9555 69.124 92.9005 69.267C92.8455 69.41 92.7245 69.6245 92.851 69.817C92.944 69.9265 93.0724 70.0003 93.214 70.026C93.247 70.026 93.027 70.18 92.9665 70.356C92.9523 70.3977 92.9546 70.4431 92.9729 70.4829C92.9912 70.5233 93.0247 70.5544 93.0655 70.5705C93.2525 70.642 93.577 70.455 93.7805 70.6585C93.863 70.7465 93.819 70.829 93.7145 70.8895C93.4615 71.049 93.4285 71.236 93.665 71.4395C93.7837 71.522 93.8896 71.6224 93.9785 71.7365C93.8057 71.7351 93.6375 71.7915 93.5 71.896C93.4739 71.9162 93.4528 71.9418 93.4381 71.9712C93.4234 72.0009 93.4157 72.0335 93.4157 72.0665C93.4157 72.0995 93.4234 72.132 93.4381 72.1614C93.4528 72.1912 93.4739 72.2168 93.5 72.237C93.621 72.3415 93.918 72.4515 93.984 72.545C93.7223 72.7196 93.4372 72.8566 93.137 72.952V72.974ZM99.8085 69.168C99.583 70.0865 94.633 72.303 94.281 72.468C94.2205 72.2535 93.874 72.149 93.731 72.0445C93.885 71.962 94.193 71.995 94.2535 71.8025C94.314 71.61 93.885 71.291 93.786 71.1645C93.8795 71.0765 94.215 70.917 94.0665 70.6145C93.9991 70.5008 93.8974 70.4114 93.7755 70.3587C93.654 70.3065 93.5192 70.2941 93.39 70.323H93.3075C93.4285 70.169 93.6265 69.971 93.445 69.839C93.2635 69.707 93.1425 69.839 93.049 69.6575C93.5715 69.7235 94.0005 69.795 94.3305 69.8665C94.3415 69.8679 94.353 69.8674 94.3635 69.8642C94.374 69.861 94.3841 69.8555 94.3924 69.8482C94.4006 69.8408 94.4075 69.8317 94.4116 69.8216C94.4162 69.8115 94.4185 69.8005 94.4185 69.7895C94.4185 70.0095 94.2645 68.519 95.0455 68.343C95.3943 68.3063 95.7467 68.3558 96.0717 68.4869C96.3971 68.6184 96.6849 68.8279 96.91 69.0965C96.9228 69.1125 96.9402 69.1249 96.9595 69.1313C96.9792 69.1382 96.9998 69.1396 97.02 69.135C97.2235 69.0965 98.912 68.75 99.5885 68.9975C99.6655 68.992 99.825 69.069 99.8085 69.146V69.168Z" clip-rule="evenodd"></path></g></svg>