<svg width="116" height="68" viewBox="0 0 116 68" fill="none" xmlns="http://www.w3.org/2000/svg">
<path d="M9.09665 42.604C8.75598 42.604 8.53698 42.385 8.43964 41.947C8.43964 41.1197 9.02364 40.1707 10.1916 39.1C11.3596 38.0293 12.2843 37.348 12.9656 37.056C13.6956 36.764 16.056 36.5693 20.0466 36.472L21.0686 35.304C35.8633 18.222 46.132 9.681 51.8746 9.681C52.3613 9.63233 52.921 9.608 53.5536 9.608C56.9116 9.608 58.5906 10.411 58.5906 12.017C58.5906 12.309 58.2743 13.0877 57.6416 14.353L54.3566 20.923C52.7993 24.0377 51.2906 27.201 49.8306 30.413C41.9466 47.787 37.372 59.175 36.1066 64.577C36.1066 64.9663 35.5956 65.161 34.5736 65.161C33.6003 65.161 32.408 64.6013 30.9966 63.482C29.5853 62.4113 28.8796 61.4623 28.8796 60.635C28.8796 59.1263 30.072 56.2793 32.4566 52.094C34.8413 47.9087 36.0336 45.1833 36.0336 43.918C36.0336 42.2147 32.7243 41.363 26.1056 41.363C25.1323 41.363 23.6236 41.4117 21.5796 41.509L18.8056 45.159C15.399 49.7337 12.1383 55.4033 9.02364 62.168C8.48831 63.3847 6.85798 63.993 4.13264 63.993C1.40731 63.993 0.0446445 63.6037 0.0446445 62.825C0.0446445 62.2897 1.55331 59.9537 4.57064 55.817C7.63664 51.6317 11.2623 47.0083 15.4476 41.947C14.7176 42.0443 13.793 42.1417 12.6736 42.239C11.5543 42.3363 10.6783 42.4337 10.0456 42.531C9.46164 42.5797 9.14531 42.604 9.09665 42.604ZM39.3916 33.187C41.2896 30.8997 42.701 28.588 43.6256 26.252C44.599 23.916 45.0856 22.3343 45.0856 21.507C45.0856 20.6797 44.672 20.266 43.8446 20.266C42.3846 20.266 39.9756 21.8233 36.6176 24.938C33.2596 28.004 29.6096 31.8487 25.6676 36.472L33.6246 36.618C35.5713 36.618 37.4936 35.4743 39.3916 33.187ZM69.7671 51.729C68.8424 51.729 68.1367 51.2667 67.6501 50.342C67.1634 49.3687 66.9201 48.444 66.9201 47.568C66.9201 46.6433 67.2121 45.597 67.7961 44.429C67.7961 43.7963 67.5527 43.48 67.0661 43.48C65.1681 43.48 63.0024 44.6237 60.5691 46.911C58.1357 49.1497 56.0917 51.4857 54.4371 53.919C52.7824 56.3037 51.2737 58.7127 49.9111 61.146C49.0837 62.606 47.3804 63.336 44.8011 63.336C43.4871 63.336 42.8301 63.044 42.8301 62.46C42.8301 61.146 45.2147 56.255 49.9841 47.787C54.8021 39.2703 57.9897 34.72 59.5471 34.136C60.6177 33.6007 61.8101 33.333 63.1241 33.333C64.4867 33.333 65.1681 33.625 65.1681 34.209C65.1681 34.7443 64.6084 35.815 63.4891 37.421C62.3697 39.027 61.8101 40.049 61.8101 40.487C61.8101 40.925 61.9804 41.144 62.3211 41.144C62.5157 41.144 63.0511 40.852 63.9271 40.268C66.0684 38.662 68.6964 37.0073 71.8111 35.304L72.4681 34.428C73.6361 32.968 75.3151 32.238 77.5051 32.238C79.7437 32.238 80.8631 32.676 80.8631 33.552C80.7657 33.7953 80.5224 34.1847 80.1331 34.72C76.2884 39.976 73.0521 45.4753 70.4241 51.218C70.2294 51.5587 70.0104 51.729 69.7671 51.729ZM109.936 14.353L113.513 14.207C114 14.207 114.243 14.3043 114.243 14.499C114.243 14.6937 114.194 14.937 114.097 15.229C114 15.521 113.781 15.886 113.44 16.324C113.148 16.762 112.783 17.1513 112.345 17.492C111.177 18.4167 109.717 18.879 107.965 18.879C106.262 18.879 104.996 18.9277 104.169 19.025C103.39 19.1223 102.709 19.3657 102.125 19.755C101.541 20.1443 101.152 20.4363 100.957 20.631C100.762 20.8257 100.422 21.3123 99.9349 22.091C99.4482 22.8697 99.1075 23.405 98.9129 23.697C96.3335 27.2983 92.1482 34.0873 86.3569 44.064C80.6142 54.0407 77.0372 61.7543 75.6259 67.205C75.4799 67.6917 75.0175 67.935 74.2389 67.935C73.5089 67.935 72.4869 67.3023 71.1729 66.037C69.8589 64.7717 69.2019 63.482 69.2019 62.168C69.2019 60.854 71.1729 56.9363 75.1149 50.415C79.1055 43.8937 83.0962 37.494 87.0869 31.216C91.0775 24.8893 93.0729 21.3853 93.0729 20.704C93.0729 19.974 92.7809 19.536 92.1969 19.39C91.6129 19.1953 90.5909 19.098 89.1309 19.098H86.7219C86.0892 19.098 85.7729 18.806 85.7729 18.222C85.7729 17.638 86.0405 17.0297 86.5759 16.397C87.1599 15.7157 88.0115 15.1317 89.1309 14.645C90.2989 14.1583 91.4669 13.6717 92.6349 13.185C93.8515 12.6983 95.4089 11.6033 97.3069 9.9C99.2535 8.19666 101.2 6.00667 103.147 3.33C104.364 1.67533 106.456 0.847996 109.425 0.847996C110.447 0.847996 110.958 1.16433 110.958 1.797C110.958 2.18633 109.863 3.96266 107.673 7.126C105.483 10.2893 104.388 12.2847 104.388 13.112C104.388 13.8907 105.118 14.28 106.578 14.28C107.162 14.3287 108.281 14.353 109.936 14.353ZM95.844 65.161C93.0214 65.161 90.953 64.3093 89.639 62.606C88.325 60.9513 87.668 58.9073 87.668 56.474C87.668 53.992 88.2034 51.4127 89.274 48.736C90.3447 46.0107 91.8047 43.3827 93.654 40.852C95.552 38.3213 98.0097 36.2043 101.027 34.501C104.093 32.749 107.378 31.873 110.882 31.873C112.488 31.873 113.705 32.384 114.532 33.406C115.359 34.3793 115.773 35.5473 115.773 36.91C115.773 39.7327 114.775 42.3607 112.78 44.794C110.785 47.2273 108.57 49.0767 106.137 50.342C103.704 51.6073 101.538 52.3373 99.64 52.532C97.7907 52.678 96.5497 53.0187 95.917 53.554C95.2844 54.0893 94.968 55.16 94.968 56.766C94.968 58.372 95.333 59.5887 96.063 60.416C96.793 61.2433 97.523 61.803 98.253 62.095C98.983 62.387 99.348 62.679 99.348 62.971C99.348 63.6523 98.983 64.1877 98.253 64.577C97.523 64.9663 96.72 65.161 95.844 65.161ZM108.692 38.735C108.692 37.2263 108.011 36.472 106.648 36.472C104.701 36.472 102.536 37.8347 100.151 40.56C97.815 43.2853 96.647 45.743 96.647 47.933C96.647 48.4683 97.0607 48.736 97.888 48.736C99.8834 48.736 102.171 47.714 104.75 45.67C107.378 43.626 108.692 41.3143 108.692 38.735Z" fill="url(#paint0_linear_361_96)"/>
<defs>
<linearGradient id="paint0_linear_361_96" x1="95" y1="52.5" x2="47.5846" y2="78.8663" gradientUnits="userSpaceOnUse">
<stop stop-color="#F9DBB3"/>
<stop offset="1" stop-color="white"/>
</linearGradient>
</defs>
</svg>
