<svg width="2071" height="371" viewBox="0 0 2071 371" fill="none" xmlns="http://www.w3.org/2000/svg">
<path d="M211.909 182.086C211.536 180.79 211.012 179.645 210.338 178.65C209.663 177.638 208.837 176.786 207.861 176.093C206.902 175.383 205.801 174.842 204.558 174.469C203.333 174.096 201.975 173.909 200.483 173.909C197.696 173.909 195.245 174.602 193.132 175.987C191.037 177.372 189.404 179.387 188.232 182.033C187.06 184.661 186.474 187.874 186.474 191.674C186.474 195.474 187.051 198.705 188.205 201.369C189.359 204.032 190.993 206.065 193.106 207.468C195.219 208.853 197.713 209.545 200.59 209.545C203.2 209.545 205.428 209.083 207.275 208.16C209.139 207.219 210.56 205.896 211.536 204.192C212.531 202.487 213.028 200.472 213.028 198.146L215.371 198.492H201.309V189.81H224.134V196.681C224.134 201.475 223.122 205.594 221.098 209.039C219.074 212.466 216.286 215.112 212.735 216.976C209.184 218.822 205.118 219.746 200.537 219.746C195.423 219.746 190.931 218.618 187.06 216.363C183.189 214.091 180.171 210.868 178.005 206.695C175.856 202.505 174.782 197.533 174.782 191.781C174.782 187.359 175.421 183.418 176.7 179.955C177.996 176.475 179.807 173.528 182.133 171.113C184.459 168.698 187.167 166.86 190.256 165.6C193.346 164.339 196.692 163.709 200.297 163.709C203.386 163.709 206.263 164.162 208.926 165.067C211.589 165.955 213.951 167.216 216.011 168.849C218.088 170.483 219.784 172.427 221.098 174.682C222.412 176.919 223.255 179.387 223.628 182.086H211.909ZM248.749 219.772C246.139 219.772 243.813 219.32 241.771 218.414C239.729 217.491 238.113 216.132 236.924 214.339C235.752 212.528 235.166 210.273 235.166 207.574C235.166 205.301 235.583 203.393 236.418 201.848C237.252 200.303 238.388 199.06 239.827 198.119C241.265 197.178 242.898 196.468 244.727 195.989C246.574 195.509 248.509 195.172 250.533 194.977C252.913 194.728 254.83 194.497 256.286 194.284C257.742 194.053 258.799 193.716 259.456 193.272C260.112 192.828 260.441 192.171 260.441 191.301V191.141C260.441 189.455 259.908 188.15 258.843 187.226C257.795 186.303 256.304 185.841 254.369 185.841C252.327 185.841 250.702 186.294 249.495 187.2C248.287 188.087 247.488 189.206 247.098 190.555L236.604 189.703C237.137 187.217 238.184 185.069 239.747 183.258C241.309 181.429 243.324 180.026 245.793 179.05C248.278 178.055 251.155 177.558 254.422 177.558C256.695 177.558 258.87 177.825 260.947 178.357C263.042 178.89 264.898 179.716 266.513 180.834C268.147 181.953 269.434 183.391 270.375 185.149C271.316 186.889 271.787 188.975 271.787 191.408V219H261.027V213.327H260.707C260.05 214.605 259.171 215.733 258.071 216.71C256.97 217.668 255.647 218.423 254.102 218.973C252.557 219.506 250.773 219.772 248.749 219.772ZM251.998 211.942C253.667 211.942 255.141 211.614 256.419 210.957C257.698 210.282 258.701 209.376 259.429 208.24C260.157 207.104 260.521 205.816 260.521 204.378V200.037C260.166 200.268 259.677 200.481 259.056 200.676C258.452 200.854 257.769 201.022 257.005 201.182C256.242 201.324 255.478 201.457 254.715 201.582C253.951 201.688 253.259 201.786 252.637 201.875C251.306 202.07 250.143 202.381 249.148 202.807C248.154 203.233 247.382 203.81 246.831 204.538C246.281 205.248 246.006 206.136 246.006 207.201C246.006 208.746 246.565 209.927 247.684 210.744C248.82 211.543 250.258 211.942 251.998 211.942ZM296.435 164.455V219H285.089V164.455H296.435ZM321.37 164.455V219H310.024V164.455H321.37ZM353.602 219.799C349.394 219.799 345.772 218.947 342.735 217.242C339.717 215.52 337.391 213.087 335.757 209.945C334.124 206.784 333.307 203.047 333.307 198.732C333.307 194.524 334.124 190.831 335.757 187.652C337.391 184.474 339.69 181.997 342.655 180.222C345.638 178.446 349.136 177.558 353.149 177.558C355.848 177.558 358.36 177.993 360.686 178.863C363.03 179.716 365.072 181.003 366.812 182.725C368.57 184.447 369.937 186.614 370.914 189.224C371.89 191.816 372.378 194.852 372.378 198.332V201.449H337.835V194.417H361.698C361.698 192.784 361.343 191.337 360.633 190.076C359.923 188.815 358.937 187.83 357.677 187.12C356.434 186.392 354.987 186.028 353.335 186.028C351.613 186.028 350.086 186.427 348.755 187.226C347.441 188.007 346.411 189.064 345.665 190.396C344.919 191.71 344.538 193.174 344.52 194.79V201.475C344.52 203.499 344.893 205.248 345.638 206.722C346.402 208.196 347.476 209.332 348.861 210.131C350.246 210.93 351.888 211.33 353.788 211.33C355.049 211.33 356.203 211.152 357.251 210.797C358.298 210.442 359.195 209.909 359.941 209.199C360.686 208.489 361.255 207.619 361.645 206.589L372.139 207.281C371.606 209.803 370.514 212.004 368.863 213.886C367.229 215.751 365.116 217.207 362.524 218.254C359.949 219.284 356.975 219.799 353.602 219.799ZM384.283 219V178.091H395.282V185.229H395.708C396.454 182.69 397.706 180.772 399.464 179.476C401.222 178.162 403.246 177.505 405.536 177.505C406.104 177.505 406.717 177.54 407.374 177.612C408.031 177.683 408.608 177.78 409.105 177.904V187.972C408.572 187.812 407.835 187.67 406.894 187.546C405.953 187.422 405.092 187.359 404.311 187.359C402.642 187.359 401.15 187.723 399.837 188.451C398.54 189.162 397.511 190.156 396.747 191.434C396.001 192.713 395.628 194.186 395.628 195.855V219H384.283ZM427.721 234.341C426.283 234.341 424.933 234.225 423.672 233.995C422.43 233.782 421.4 233.506 420.583 233.169L423.14 224.7C424.472 225.108 425.67 225.33 426.735 225.365C427.818 225.401 428.751 225.152 429.532 224.62C430.331 224.087 430.979 223.181 431.476 221.903L432.142 220.172L417.467 178.091H429.399L437.868 208.134H438.294L446.844 178.091H458.855L442.955 223.421C442.192 225.623 441.153 227.54 439.839 229.174C438.543 230.825 436.9 232.095 434.912 232.983C432.923 233.888 430.526 234.341 427.721 234.341Z" fill="#3D3D3D" fill-opacity="0.19"/>
<path d="M467.741 100V45.4545H504.495V54.9627H479.273V67.9599H502.604V77.468H479.273V90.4918H504.602V100H467.741ZM527.432 59.0909L534.943 73.3931L542.64 59.0909H554.279L542.427 79.5455L554.598 100H543.013L534.943 85.8576L527.006 100H515.287L527.432 79.5455L515.713 59.0909H527.432ZM565.517 115.341V59.0909H576.703V65.9624H577.209C577.706 64.8615 578.425 63.7429 579.366 62.6065C580.325 61.4524 581.568 60.4936 583.095 59.7301C584.64 58.9489 586.557 58.5582 588.848 58.5582C591.831 58.5582 594.583 59.3395 597.104 60.902C599.626 62.4467 601.641 64.7816 603.15 67.9066C604.659 71.0138 605.414 74.9112 605.414 79.5987C605.414 84.1619 604.677 88.0149 603.203 91.1577C601.747 94.2827 599.759 96.6531 597.237 98.2688C594.734 99.8668 591.929 100.666 588.821 100.666C586.62 100.666 584.746 100.302 583.202 99.5739C581.675 98.8459 580.423 97.9315 579.446 96.8306C578.47 95.712 577.724 94.5845 577.209 93.4482H576.863V115.341H565.517ZM576.623 79.5455C576.623 81.978 576.96 84.0998 577.635 85.9109C578.31 87.7219 579.286 89.1335 580.565 90.1456C581.843 91.1399 583.397 91.6371 585.226 91.6371C587.072 91.6371 588.635 91.131 589.913 90.119C591.192 89.0891 592.159 87.6687 592.816 85.8576C593.491 84.0288 593.828 81.9247 593.828 79.5455C593.828 77.1839 593.5 75.1065 592.843 73.3132C592.186 71.5199 591.218 70.1172 589.94 69.1051C588.661 68.093 587.09 67.587 585.226 67.587C583.379 67.587 581.817 68.0753 580.538 69.0518C579.278 70.0284 578.31 71.4134 577.635 73.2067C576.96 75 576.623 77.1129 576.623 79.5455ZM628.824 45.4545V100H617.478V45.4545H628.824ZM660.896 100.799C656.759 100.799 653.181 99.9201 650.163 98.1623C647.162 96.3867 644.845 93.9187 643.211 90.7582C641.578 87.5799 640.761 83.8956 640.761 79.7053C640.761 75.4794 641.578 71.7862 643.211 68.6257C644.845 65.4474 647.162 62.9794 650.163 61.2216C653.181 59.446 656.759 58.5582 660.896 58.5582C665.033 58.5582 668.602 59.446 671.603 61.2216C674.621 62.9794 676.947 65.4474 678.581 68.6257C680.214 71.7862 681.031 75.4794 681.031 79.7053C681.031 83.8956 680.214 87.5799 678.581 90.7582C676.947 93.9187 674.621 96.3867 671.603 98.1623C668.602 99.9201 665.033 100.799 660.896 100.799ZM660.949 92.0099C662.831 92.0099 664.403 91.4773 665.664 90.4119C666.924 89.3288 667.874 87.8551 668.513 85.9908C669.17 84.1264 669.499 82.0046 669.499 79.6254C669.499 77.2461 669.17 75.1243 668.513 73.2599C667.874 71.3956 666.924 69.9219 665.664 68.8388C664.403 67.7557 662.831 67.2141 660.949 67.2141C659.05 67.2141 657.452 67.7557 656.155 68.8388C654.877 69.9219 653.909 71.3956 653.252 73.2599C652.613 75.1243 652.294 77.2461 652.294 79.6254C652.294 82.0046 652.613 84.1264 653.252 85.9908C653.909 87.8551 654.877 89.3288 656.155 90.4119C657.452 91.4773 659.05 92.0099 660.949 92.0099ZM692.909 100V59.0909H703.908V66.2287H704.334C705.08 63.6896 706.332 61.772 708.09 60.4759C709.847 59.1619 711.872 58.505 714.162 58.505C714.73 58.505 715.343 58.5405 716 58.6115C716.657 58.6825 717.234 58.7802 717.731 58.9045V68.9719C717.198 68.8121 716.461 68.6701 715.52 68.5458C714.579 68.4215 713.718 68.3594 712.937 68.3594C711.268 68.3594 709.776 68.7234 708.463 69.4513C707.166 70.1616 706.137 71.1559 705.373 72.4343C704.627 73.7127 704.254 75.1864 704.254 76.8555V100H692.909ZM744.836 100.799C740.628 100.799 737.006 99.9467 733.97 98.2422C730.951 96.5199 728.625 94.0874 726.992 90.9446C725.358 87.7841 724.541 84.0465 724.541 79.7319C724.541 75.5238 725.358 71.8306 726.992 68.6523C728.625 65.4741 730.925 62.9972 733.89 61.2216C736.873 59.446 740.371 58.5582 744.383 58.5582C747.082 58.5582 749.595 58.9933 751.921 59.8633C754.264 60.7156 756.306 62.0028 758.046 63.7251C759.804 65.4474 761.171 67.6136 762.148 70.2237C763.125 72.8161 763.613 75.8523 763.613 79.3324V82.4485H729.069V75.4173H752.933C752.933 73.7837 752.578 72.3366 751.867 71.076C751.157 69.8153 750.172 68.8299 748.911 68.1197C747.668 67.3917 746.221 67.0277 744.57 67.0277C742.848 67.0277 741.321 67.4272 739.989 68.2262C738.675 69.0075 737.645 70.0639 736.899 71.3956C736.154 72.7095 735.772 74.1744 735.754 75.7901V82.4751C735.754 84.4993 736.127 86.2482 736.873 87.7219C737.636 89.1957 738.71 90.332 740.095 91.131C741.48 91.93 743.123 92.3295 745.023 92.3295C746.283 92.3295 747.437 92.152 748.485 91.7969C749.533 91.4418 750.429 90.9091 751.175 90.1989C751.921 89.4886 752.489 88.6186 752.88 87.5888L763.373 88.2812C762.84 90.8026 761.748 93.0043 760.097 94.8864C758.464 96.7507 756.351 98.2067 753.758 99.2543C751.184 100.284 748.21 100.799 744.836 100.799Z" fill="#3D3D3D" fill-opacity="0.19"/>
<path d="M930.741 325V270.455H967.495V279.963H942.273V292.96H965.604V302.468H942.273V315.492H967.602V325H930.741ZM990.432 284.091L997.943 298.393L1005.64 284.091H1017.28L1005.43 304.545L1017.6 325H1006.01L997.943 310.858L990.006 325H978.287L990.432 304.545L978.713 284.091H990.432ZM1028.52 340.341V284.091H1039.7V290.962H1040.21C1040.71 289.862 1041.43 288.743 1042.37 287.607C1043.33 286.452 1044.57 285.494 1046.1 284.73C1047.64 283.949 1049.56 283.558 1051.85 283.558C1054.83 283.558 1057.58 284.339 1060.1 285.902C1062.63 287.447 1064.64 289.782 1066.15 292.907C1067.66 296.014 1068.41 299.911 1068.41 304.599C1068.41 309.162 1067.68 313.015 1066.2 316.158C1064.75 319.283 1062.76 321.653 1060.24 323.269C1057.73 324.867 1054.93 325.666 1051.82 325.666C1049.62 325.666 1047.75 325.302 1046.2 324.574C1044.67 323.846 1043.42 322.931 1042.45 321.831C1041.47 320.712 1040.72 319.585 1040.21 318.448H1039.86V340.341H1028.52ZM1039.62 304.545C1039.62 306.978 1039.96 309.1 1040.64 310.911C1041.31 312.722 1042.29 314.134 1043.56 315.146C1044.84 316.14 1046.4 316.637 1048.23 316.637C1050.07 316.637 1051.63 316.131 1052.91 315.119C1054.19 314.089 1055.16 312.669 1055.82 310.858C1056.49 309.029 1056.83 306.925 1056.83 304.545C1056.83 302.184 1056.5 300.107 1055.84 298.313C1055.19 296.52 1054.22 295.117 1052.94 294.105C1051.66 293.093 1050.09 292.587 1048.23 292.587C1046.38 292.587 1044.82 293.075 1043.54 294.052C1042.28 295.028 1041.31 296.413 1040.64 298.207C1039.96 300 1039.62 302.113 1039.62 304.545ZM1091.82 270.455V325H1080.48V270.455H1091.82ZM1123.9 325.799C1119.76 325.799 1116.18 324.92 1113.16 323.162C1110.16 321.387 1107.84 318.919 1106.21 315.758C1104.58 312.58 1103.76 308.896 1103.76 304.705C1103.76 300.479 1104.58 296.786 1106.21 293.626C1107.84 290.447 1110.16 287.979 1113.16 286.222C1116.18 284.446 1119.76 283.558 1123.9 283.558C1128.03 283.558 1131.6 284.446 1134.6 286.222C1137.62 287.979 1139.95 290.447 1141.58 293.626C1143.21 296.786 1144.03 300.479 1144.03 304.705C1144.03 308.896 1143.21 312.58 1141.58 315.758C1139.95 318.919 1137.62 321.387 1134.6 323.162C1131.6 324.92 1128.03 325.799 1123.9 325.799ZM1123.95 317.01C1125.83 317.01 1127.4 316.477 1128.66 315.412C1129.92 314.329 1130.87 312.855 1131.51 310.991C1132.17 309.126 1132.5 307.005 1132.5 304.625C1132.5 302.246 1132.17 300.124 1131.51 298.26C1130.87 296.396 1129.92 294.922 1128.66 293.839C1127.4 292.756 1125.83 292.214 1123.95 292.214C1122.05 292.214 1120.45 292.756 1119.16 293.839C1117.88 294.922 1116.91 296.396 1116.25 298.26C1115.61 300.124 1115.29 302.246 1115.29 304.625C1115.29 307.005 1115.61 309.126 1116.25 310.991C1116.91 312.855 1117.88 314.329 1119.16 315.412C1120.45 316.477 1122.05 317.01 1123.95 317.01ZM1155.91 325V284.091H1166.91V291.229H1167.33C1168.08 288.69 1169.33 286.772 1171.09 285.476C1172.85 284.162 1174.87 283.505 1177.16 283.505C1177.73 283.505 1178.34 283.54 1179 283.612C1179.66 283.683 1180.23 283.78 1180.73 283.904V293.972C1180.2 293.812 1179.46 293.67 1178.52 293.546C1177.58 293.422 1176.72 293.359 1175.94 293.359C1174.27 293.359 1172.78 293.723 1171.46 294.451C1170.17 295.162 1169.14 296.156 1168.37 297.434C1167.63 298.713 1167.25 300.186 1167.25 301.855V325H1155.91ZM1207.84 325.799C1203.63 325.799 1200.01 324.947 1196.97 323.242C1193.95 321.52 1191.63 319.087 1189.99 315.945C1188.36 312.784 1187.54 309.047 1187.54 304.732C1187.54 300.524 1188.36 296.831 1189.99 293.652C1191.63 290.474 1193.92 287.997 1196.89 286.222C1199.87 284.446 1203.37 283.558 1207.38 283.558C1210.08 283.558 1212.59 283.993 1214.92 284.863C1217.26 285.716 1219.31 287.003 1221.05 288.725C1222.8 290.447 1224.17 292.614 1225.15 295.224C1226.12 297.816 1226.61 300.852 1226.61 304.332V307.449H1192.07V300.417H1215.93C1215.93 298.784 1215.58 297.337 1214.87 296.076C1214.16 294.815 1213.17 293.83 1211.91 293.12C1210.67 292.392 1209.22 292.028 1207.57 292.028C1205.85 292.028 1204.32 292.427 1202.99 293.226C1201.67 294.007 1200.65 295.064 1199.9 296.396C1199.15 297.71 1198.77 299.174 1198.75 300.79V307.475C1198.75 309.499 1199.13 311.248 1199.87 312.722C1200.64 314.196 1201.71 315.332 1203.1 316.131C1204.48 316.93 1206.12 317.33 1208.02 317.33C1209.28 317.33 1210.44 317.152 1211.48 316.797C1212.53 316.442 1213.43 315.909 1214.17 315.199C1214.92 314.489 1215.49 313.619 1215.88 312.589L1226.37 313.281C1225.84 315.803 1224.75 318.004 1223.1 319.886C1221.46 321.751 1219.35 323.207 1216.76 324.254C1214.18 325.284 1211.21 325.799 1207.84 325.799Z" fill="#3D3D3D" fill-opacity="0.19"/>
<path d="M948.741 100V45.4545H985.495V54.9627H960.273V67.9599H983.604V77.468H960.273V90.4918H985.602V100H948.741ZM1008.43 59.0909L1015.94 73.3931L1023.64 59.0909H1035.28L1023.43 79.5455L1035.6 100H1024.01L1015.94 85.8576L1008.01 100H996.287L1008.43 79.5455L996.713 59.0909H1008.43ZM1046.52 115.341V59.0909H1057.7V65.9624H1058.21C1058.71 64.8615 1059.43 63.7429 1060.37 62.6065C1061.33 61.4524 1062.57 60.4936 1064.1 59.7301C1065.64 58.9489 1067.56 58.5582 1069.85 58.5582C1072.83 58.5582 1075.58 59.3395 1078.1 60.902C1080.63 62.4467 1082.64 64.7816 1084.15 67.9066C1085.66 71.0138 1086.41 74.9112 1086.41 79.5987C1086.41 84.1619 1085.68 88.0149 1084.2 91.1577C1082.75 94.2827 1080.76 96.6531 1078.24 98.2688C1075.73 99.8668 1072.93 100.666 1069.82 100.666C1067.62 100.666 1065.75 100.302 1064.2 99.5739C1062.67 98.8459 1061.42 97.9315 1060.45 96.8306C1059.47 95.712 1058.72 94.5845 1058.21 93.4482H1057.86V115.341H1046.52ZM1057.62 79.5455C1057.62 81.978 1057.96 84.0998 1058.64 85.9109C1059.31 87.7219 1060.29 89.1335 1061.56 90.1456C1062.84 91.1399 1064.4 91.6371 1066.23 91.6371C1068.07 91.6371 1069.63 91.131 1070.91 90.119C1072.19 89.0891 1073.16 87.6687 1073.82 85.8576C1074.49 84.0288 1074.83 81.9247 1074.83 79.5455C1074.83 77.1839 1074.5 75.1065 1073.84 73.3132C1073.19 71.5199 1072.22 70.1172 1070.94 69.1051C1069.66 68.093 1068.09 67.587 1066.23 67.587C1064.38 67.587 1062.82 68.0753 1061.54 69.0518C1060.28 70.0284 1059.31 71.4134 1058.64 73.2067C1057.96 75 1057.62 77.1129 1057.62 79.5455ZM1109.82 45.4545V100H1098.48V45.4545H1109.82ZM1141.9 100.799C1137.76 100.799 1134.18 99.9201 1131.16 98.1623C1128.16 96.3867 1125.84 93.9187 1124.21 90.7582C1122.58 87.5799 1121.76 83.8956 1121.76 79.7053C1121.76 75.4794 1122.58 71.7862 1124.21 68.6257C1125.84 65.4474 1128.16 62.9794 1131.16 61.2216C1134.18 59.446 1137.76 58.5582 1141.9 58.5582C1146.03 58.5582 1149.6 59.446 1152.6 61.2216C1155.62 62.9794 1157.95 65.4474 1159.58 68.6257C1161.21 71.7862 1162.03 75.4794 1162.03 79.7053C1162.03 83.8956 1161.21 87.5799 1159.58 90.7582C1157.95 93.9187 1155.62 96.3867 1152.6 98.1623C1149.6 99.9201 1146.03 100.799 1141.9 100.799ZM1141.95 92.0099C1143.83 92.0099 1145.4 91.4773 1146.66 90.4119C1147.92 89.3288 1148.87 87.8551 1149.51 85.9908C1150.17 84.1264 1150.5 82.0046 1150.5 79.6254C1150.5 77.2461 1150.17 75.1243 1149.51 73.2599C1148.87 71.3956 1147.92 69.9219 1146.66 68.8388C1145.4 67.7557 1143.83 67.2141 1141.95 67.2141C1140.05 67.2141 1138.45 67.7557 1137.16 68.8388C1135.88 69.9219 1134.91 71.3956 1134.25 73.2599C1133.61 75.1243 1133.29 77.2461 1133.29 79.6254C1133.29 82.0046 1133.61 84.1264 1134.25 85.9908C1134.91 87.8551 1135.88 89.3288 1137.16 90.4119C1138.45 91.4773 1140.05 92.0099 1141.95 92.0099ZM1173.91 100V59.0909H1184.91V66.2287H1185.33C1186.08 63.6896 1187.33 61.772 1189.09 60.4759C1190.85 59.1619 1192.87 58.505 1195.16 58.505C1195.73 58.505 1196.34 58.5405 1197 58.6115C1197.66 58.6825 1198.23 58.7802 1198.73 58.9045V68.9719C1198.2 68.8121 1197.46 68.6701 1196.52 68.5458C1195.58 68.4215 1194.72 68.3594 1193.94 68.3594C1192.27 68.3594 1190.78 68.7234 1189.46 69.4513C1188.17 70.1616 1187.14 71.1559 1186.37 72.4343C1185.63 73.7127 1185.25 75.1864 1185.25 76.8555V100H1173.91ZM1225.84 100.799C1221.63 100.799 1218.01 99.9467 1214.97 98.2422C1211.95 96.5199 1209.63 94.0874 1207.99 90.9446C1206.36 87.7841 1205.54 84.0465 1205.54 79.7319C1205.54 75.5238 1206.36 71.8306 1207.99 68.6523C1209.63 65.4741 1211.92 62.9972 1214.89 61.2216C1217.87 59.446 1221.37 58.5582 1225.38 58.5582C1228.08 58.5582 1230.59 58.9933 1232.92 59.8633C1235.26 60.7156 1237.31 62.0028 1239.05 63.7251C1240.8 65.4474 1242.17 67.6136 1243.15 70.2237C1244.12 72.8161 1244.61 75.8523 1244.61 79.3324V82.4485H1210.07V75.4173H1233.93C1233.93 73.7837 1233.58 72.3366 1232.87 71.076C1232.16 69.8153 1231.17 68.8299 1229.91 68.1197C1228.67 67.3917 1227.22 67.0277 1225.57 67.0277C1223.85 67.0277 1222.32 67.4272 1220.99 68.2262C1219.67 69.0075 1218.65 70.0639 1217.9 71.3956C1217.15 72.7095 1216.77 74.1744 1216.75 75.7901V82.4751C1216.75 84.4993 1217.13 86.2482 1217.87 87.7219C1218.64 89.1957 1219.71 90.332 1221.1 91.131C1222.48 91.93 1224.12 92.3295 1226.02 92.3295C1227.28 92.3295 1228.44 92.152 1229.48 91.7969C1230.53 91.4418 1231.43 90.9091 1232.17 90.1989C1232.92 89.4886 1233.49 88.6186 1233.88 87.5888L1244.37 88.2812C1243.84 90.8026 1242.75 93.0043 1241.1 94.8864C1239.46 96.7507 1237.35 98.2067 1234.76 99.2543C1232.18 100.284 1229.21 100.799 1225.84 100.799Z" fill="#3D3D3D" fill-opacity="0.19"/>
<path d="M1205.65 219H1193.29L1212.12 164.455H1226.98L1245.78 219H1233.42L1219.76 176.919H1219.34L1205.65 219ZM1204.87 197.56H1234.06V206.562H1204.87V197.56ZM1256.63 219V178.091H1267.63V185.229H1268.06C1268.81 182.69 1270.06 180.772 1271.82 179.476C1273.57 178.162 1275.6 177.505 1277.89 177.505C1278.46 177.505 1279.07 177.54 1279.73 177.612C1280.38 177.683 1280.96 177.78 1281.46 177.904V187.972C1280.92 187.812 1280.19 187.67 1279.25 187.546C1278.31 187.422 1277.44 187.359 1276.66 187.359C1274.99 187.359 1273.5 187.723 1272.19 188.451C1270.89 189.162 1269.86 190.156 1269.1 191.434C1268.35 192.713 1267.98 194.186 1267.98 195.855V219H1256.63ZM1315.63 178.091V186.614H1291V178.091H1315.63ZM1296.59 168.29H1307.94V206.429C1307.94 207.477 1308.1 208.293 1308.42 208.879C1308.74 209.447 1309.18 209.847 1309.75 210.078C1310.33 210.309 1311.01 210.424 1311.77 210.424C1312.3 210.424 1312.84 210.38 1313.37 210.291C1313.9 210.184 1314.31 210.104 1314.59 210.051L1316.38 218.494C1315.81 218.672 1315.01 218.876 1313.98 219.107C1312.95 219.355 1311.7 219.506 1310.23 219.559C1307.49 219.666 1305.1 219.302 1303.04 218.467C1300.99 217.633 1299.4 216.337 1298.27 214.579C1297.13 212.821 1296.57 210.602 1296.59 207.92V168.29Z" fill="#3D3D3D" fill-opacity="0.19"/>
<path d="M1389.91 63.0859C1389.54 61.7898 1389.01 60.6445 1388.34 59.6502C1387.66 58.6381 1386.84 57.7859 1385.86 57.0934C1384.9 56.3832 1383.8 55.8416 1382.56 55.4688C1381.33 55.0959 1379.97 54.9094 1378.48 54.9094C1375.7 54.9094 1373.25 55.6019 1371.13 56.9869C1369.04 58.3718 1367.4 60.3871 1366.23 63.0327C1365.06 65.6605 1364.47 68.8743 1364.47 72.674C1364.47 76.4737 1365.05 79.7053 1366.21 82.3686C1367.36 85.032 1368.99 87.065 1371.11 88.4677C1373.22 89.8526 1375.71 90.5451 1378.59 90.5451C1381.2 90.5451 1383.43 90.0835 1385.27 89.1602C1387.14 88.2191 1388.56 86.8963 1389.54 85.1918C1390.53 83.4872 1391.03 81.4719 1391.03 79.146L1393.37 79.4922H1379.31V70.8097H1402.13V77.6811C1402.13 82.4751 1401.12 86.5945 1399.1 90.0391C1397.07 93.4659 1394.29 96.1115 1390.73 97.9759C1387.18 99.8224 1383.12 100.746 1378.54 100.746C1373.42 100.746 1368.93 99.6183 1365.06 97.3633C1361.19 95.0906 1358.17 91.8679 1356 87.6953C1353.86 83.505 1352.78 78.5334 1352.78 72.7805C1352.78 68.3594 1353.42 64.4176 1354.7 60.9553C1356 57.4751 1357.81 54.5277 1360.13 52.1129C1362.46 49.6982 1365.17 47.8604 1368.26 46.5998C1371.35 45.3391 1374.69 44.7088 1378.3 44.7088C1381.39 44.7088 1384.26 45.1616 1386.93 46.0671C1389.59 46.9549 1391.95 48.2156 1394.01 49.8491C1396.09 51.4826 1397.78 53.4268 1399.1 55.6818C1400.41 57.919 1401.25 60.3871 1401.63 63.0859H1389.91ZM1426.75 100.772C1424.14 100.772 1421.81 100.32 1419.77 99.4141C1417.73 98.4908 1416.11 97.1325 1414.92 95.3391C1413.75 93.5281 1413.17 91.2731 1413.17 88.5742C1413.17 86.3015 1413.58 84.3928 1414.42 82.848C1415.25 81.3033 1416.39 80.0604 1417.83 79.1193C1419.26 78.1783 1420.9 77.468 1422.73 76.9886C1424.57 76.5092 1426.51 76.1719 1428.53 75.9766C1430.91 75.728 1432.83 75.4972 1434.29 75.2841C1435.74 75.0533 1436.8 74.7159 1437.46 74.272C1438.11 73.8281 1438.44 73.1712 1438.44 72.3011V72.1413C1438.44 70.4545 1437.91 69.1495 1436.84 68.2262C1435.8 67.3029 1434.3 66.8413 1432.37 66.8413C1430.33 66.8413 1428.7 67.294 1427.49 68.1996C1426.29 69.0874 1425.49 70.206 1425.1 71.5554L1414.6 70.7031C1415.14 68.2173 1416.18 66.0689 1417.75 64.2578C1419.31 62.429 1421.32 61.0263 1423.79 60.0497C1426.28 59.0554 1429.15 58.5582 1432.42 58.5582C1434.69 58.5582 1436.87 58.8246 1438.95 59.3572C1441.04 59.8899 1442.9 60.7156 1444.51 61.8342C1446.15 62.9528 1447.43 64.391 1448.38 66.1488C1449.32 67.8888 1449.79 69.9751 1449.79 72.4077V100H1439.03V94.3271H1438.71C1438.05 95.6055 1437.17 96.733 1436.07 97.7095C1434.97 98.6683 1433.65 99.4229 1432.1 99.9734C1430.56 100.506 1428.77 100.772 1426.75 100.772ZM1430 92.9421C1431.67 92.9421 1433.14 92.6136 1434.42 91.9567C1435.7 91.282 1436.7 90.3764 1437.43 89.2401C1438.16 88.1037 1438.52 86.8164 1438.52 85.3782V81.0369C1438.17 81.2678 1437.68 81.4808 1437.06 81.6761C1436.45 81.8537 1435.77 82.0224 1435.01 82.1822C1434.24 82.3242 1433.48 82.4574 1432.71 82.5817C1431.95 82.6882 1431.26 82.7859 1430.64 82.8746C1429.31 83.07 1428.14 83.3807 1427.15 83.8068C1426.15 84.233 1425.38 84.81 1424.83 85.538C1424.28 86.2482 1424.01 87.136 1424.01 88.2013C1424.01 89.7461 1424.56 90.9268 1425.68 91.7436C1426.82 92.5426 1428.26 92.9421 1430 92.9421ZM1474.44 45.4545V100H1463.09V45.4545H1474.44ZM1499.37 45.4545V100H1488.02V45.4545H1499.37ZM1531.6 100.799C1527.39 100.799 1523.77 99.9467 1520.74 98.2422C1517.72 96.5199 1515.39 94.0874 1513.76 90.9446C1512.12 87.7841 1511.31 84.0465 1511.31 79.7319C1511.31 75.5238 1512.12 71.8306 1513.76 68.6523C1515.39 65.4741 1517.69 62.9972 1520.66 61.2216C1523.64 59.446 1527.14 58.5582 1531.15 58.5582C1533.85 58.5582 1536.36 58.9933 1538.69 59.8633C1541.03 60.7156 1543.07 62.0028 1544.81 63.7251C1546.57 65.4474 1547.94 67.6136 1548.91 70.2237C1549.89 72.8161 1550.38 75.8523 1550.38 79.3324V82.4485H1515.83V75.4173H1539.7C1539.7 73.7837 1539.34 72.3366 1538.63 71.076C1537.92 69.8153 1536.94 68.8299 1535.68 68.1197C1534.43 67.3917 1532.99 67.0277 1531.34 67.0277C1529.61 67.0277 1528.09 67.4272 1526.75 68.2262C1525.44 69.0075 1524.41 70.0639 1523.67 71.3956C1522.92 72.7095 1522.54 74.1744 1522.52 75.7901V82.4751C1522.52 84.4993 1522.89 86.2482 1523.64 87.7219C1524.4 89.1957 1525.48 90.332 1526.86 91.131C1528.25 91.93 1529.89 92.3295 1531.79 92.3295C1533.05 92.3295 1534.2 92.152 1535.25 91.7969C1536.3 91.4418 1537.19 90.9091 1537.94 90.1989C1538.69 89.4886 1539.25 88.6186 1539.65 87.5888L1550.14 88.2812C1549.61 90.8026 1548.51 93.0043 1546.86 94.8864C1545.23 96.7507 1543.12 98.2067 1540.52 99.2543C1537.95 100.284 1534.98 100.799 1531.6 100.799ZM1562.28 100V59.0909H1573.28V66.2287H1573.71C1574.45 63.6896 1575.71 61.772 1577.46 60.4759C1579.22 59.1619 1581.25 58.505 1583.54 58.505C1584.1 58.505 1584.72 58.5405 1585.37 58.6115C1586.03 58.6825 1586.61 58.7802 1587.11 58.9045V68.9719C1586.57 68.8121 1585.84 68.6701 1584.89 68.5458C1583.95 68.4215 1583.09 68.3594 1582.31 68.3594C1580.64 68.3594 1579.15 68.7234 1577.84 69.4513C1576.54 70.1616 1575.51 71.1559 1574.75 72.4343C1574 73.7127 1573.63 75.1864 1573.63 76.8555V100H1562.28ZM1605.72 115.341C1604.28 115.341 1602.93 115.225 1601.67 114.995C1600.43 114.782 1599.4 114.506 1598.58 114.169L1601.14 105.7C1602.47 106.108 1603.67 106.33 1604.74 106.365C1605.82 106.401 1606.75 106.152 1607.53 105.62C1608.33 105.087 1608.98 104.181 1609.48 102.903L1610.14 101.172L1595.47 59.0909H1607.4L1615.87 89.1335H1616.29L1624.84 59.0909H1636.86L1620.96 104.421C1620.19 106.623 1619.15 108.54 1617.84 110.174C1616.54 111.825 1614.9 113.095 1612.91 113.983C1610.92 114.888 1608.53 115.341 1605.72 115.341Z" fill="#3D3D3D" fill-opacity="0.19"/>
<path d="M1739.38 325H1728.84L1748.04 270.455H1760.24L1779.47 325H1768.92L1754.35 281.641H1753.93L1739.38 325ZM1739.73 303.613H1768.5V311.55H1739.73V303.613ZM1790.73 325V284.091H1800.07V290.909H1800.5C1801.25 288.548 1802.52 286.728 1804.34 285.449C1806.16 284.153 1808.25 283.505 1810.59 283.505C1811.13 283.505 1811.72 283.532 1812.38 283.585C1813.05 283.62 1813.61 283.683 1814.06 283.771V292.64C1813.65 292.498 1813 292.374 1812.11 292.267C1811.24 292.143 1810.4 292.081 1809.58 292.081C1807.83 292.081 1806.24 292.463 1804.84 293.226C1803.46 293.972 1802.37 295.011 1801.57 296.342C1800.77 297.674 1800.37 299.21 1800.37 300.95V325H1790.73ZM1847.59 284.091V291.548H1824.07V284.091H1847.59ZM1829.88 274.29H1839.52V312.695C1839.52 313.991 1839.71 314.986 1840.1 315.678C1840.51 316.353 1841.04 316.815 1841.7 317.063C1842.36 317.312 1843.09 317.436 1843.89 317.436C1844.49 317.436 1845.04 317.392 1845.54 317.303C1846.05 317.214 1846.44 317.134 1846.71 317.063L1848.33 324.6C1847.82 324.778 1847.08 324.973 1846.12 325.186C1845.18 325.4 1844.03 325.524 1842.66 325.559C1840.25 325.63 1838.07 325.266 1836.14 324.467C1834.2 323.651 1832.66 322.39 1831.53 320.685C1830.41 318.981 1829.86 316.85 1829.88 314.293V274.29ZM1860.15 325V284.091H1869.79V325H1860.15ZM1865 278.285C1863.47 278.285 1862.16 277.779 1861.06 276.767C1859.96 275.737 1859.41 274.503 1859.41 273.065C1859.41 271.609 1859.96 270.375 1861.06 269.363C1862.16 268.333 1863.47 267.818 1865 267.818C1866.54 267.818 1867.86 268.333 1868.94 269.363C1870.04 270.375 1870.59 271.609 1870.59 273.065C1870.59 274.503 1870.04 275.737 1868.94 276.767C1867.86 277.779 1866.54 278.285 1865 278.285ZM1902.05 325.799C1897.97 325.799 1894.46 324.902 1891.53 323.109C1888.62 321.316 1886.37 318.839 1884.79 315.678C1883.23 312.5 1882.45 308.842 1882.45 304.705C1882.45 300.55 1883.25 296.884 1884.85 293.706C1886.44 290.51 1888.7 288.024 1891.61 286.248C1894.54 284.455 1898 283.558 1902 283.558C1905.32 283.558 1908.26 284.171 1910.81 285.396C1913.39 286.603 1915.44 288.317 1916.97 290.536C1918.49 292.738 1919.36 295.312 1919.58 298.26H1910.36C1909.99 296.289 1909.1 294.647 1907.7 293.333C1906.31 292.001 1904.46 291.335 1902.13 291.335C1900.16 291.335 1898.43 291.868 1896.94 292.933C1895.45 293.981 1894.28 295.49 1893.45 297.461C1892.63 299.432 1892.22 301.793 1892.22 304.545C1892.22 307.333 1892.63 309.73 1893.45 311.737C1894.27 313.725 1895.41 315.261 1896.88 316.344C1898.38 317.409 1900.12 317.942 1902.13 317.942C1903.55 317.942 1904.82 317.676 1905.94 317.143C1907.08 316.593 1908.03 315.803 1908.79 314.773C1909.55 313.743 1910.08 312.491 1910.36 311.017H1919.58C1919.35 313.912 1918.49 316.477 1917.02 318.714C1915.55 320.934 1913.54 322.674 1911 323.935C1908.46 325.178 1905.48 325.799 1902.05 325.799ZM1941.63 270.455V325H1931.99V270.455H1941.63ZM1974.16 325.799C1970.06 325.799 1966.52 324.947 1963.53 323.242C1960.57 321.52 1958.29 319.087 1956.69 315.945C1955.09 312.784 1954.29 309.064 1954.29 304.785C1954.29 300.577 1955.09 296.884 1956.69 293.706C1958.3 290.51 1960.56 288.024 1963.45 286.248C1966.35 284.455 1969.75 283.558 1973.65 283.558C1976.17 283.558 1978.55 283.967 1980.79 284.783C1983.05 285.582 1985.03 286.825 1986.76 288.512C1988.5 290.199 1989.86 292.347 1990.86 294.957C1991.85 297.55 1992.35 300.639 1992.35 304.226V307.182H1958.82V300.684H1983.11C1983.09 298.837 1982.69 297.195 1981.91 295.756C1981.13 294.3 1980.04 293.155 1978.63 292.321C1977.25 291.486 1975.63 291.069 1973.79 291.069C1971.82 291.069 1970.08 291.548 1968.59 292.507C1967.1 293.448 1965.94 294.691 1965.1 296.236C1964.29 297.763 1963.87 299.441 1963.85 301.27V306.942C1963.85 309.322 1964.29 311.364 1965.16 313.068C1966.03 314.755 1967.24 316.051 1968.81 316.957C1970.37 317.844 1972.2 318.288 1974.29 318.288C1975.7 318.288 1976.96 318.093 1978.1 317.702C1979.24 317.294 1980.22 316.699 1981.06 315.918C1981.89 315.137 1982.52 314.169 1982.95 313.015L1991.95 314.027C1991.38 316.406 1990.3 318.484 1988.7 320.259C1987.12 322.017 1985.1 323.384 1982.63 324.361C1980.16 325.32 1977.34 325.799 1974.16 325.799ZM2037.34 294.904L2028.55 295.863C2028.3 294.975 2027.87 294.141 2027.25 293.359C2026.64 292.578 2025.83 291.948 2024.8 291.468C2023.77 290.989 2022.5 290.749 2021.01 290.749C2019.01 290.749 2017.32 291.184 2015.95 292.054C2014.6 292.924 2013.94 294.052 2013.96 295.437C2013.94 296.626 2014.37 297.594 2015.26 298.34C2016.17 299.086 2017.66 299.698 2019.73 300.178L2026.71 301.669C2030.58 302.504 2033.46 303.826 2035.34 305.637C2037.24 307.449 2038.2 309.819 2038.22 312.749C2038.2 315.323 2037.45 317.596 2035.95 319.567C2034.48 321.52 2032.43 323.047 2029.8 324.148C2027.17 325.249 2024.16 325.799 2020.75 325.799C2015.74 325.799 2011.71 324.751 2008.66 322.656C2005.6 320.543 2003.78 317.605 2003.2 313.841L2012.6 312.935C2013.02 314.782 2013.93 316.175 2015.31 317.116C2016.7 318.058 2018.5 318.528 2020.72 318.528C2023.01 318.528 2024.85 318.058 2026.23 317.116C2027.64 316.175 2028.34 315.012 2028.34 313.627C2028.34 312.456 2027.88 311.488 2026.98 310.724C2026.09 309.961 2024.71 309.375 2022.82 308.967L2015.85 307.502C2011.92 306.685 2009.02 305.309 2007.14 303.374C2005.26 301.42 2004.32 298.952 2004.34 295.969C2004.32 293.448 2005.01 291.264 2006.39 289.418C2007.79 287.553 2009.74 286.115 2012.22 285.103C2014.73 284.073 2017.61 283.558 2020.88 283.558C2025.67 283.558 2029.45 284.579 2032.2 286.621C2034.97 288.663 2036.68 291.424 2037.34 294.904Z" fill="#3D3D3D" fill-opacity="0.19"/>
<path d="M1581.15 219H1568.79L1587.62 164.455H1602.48L1621.28 219H1608.92L1595.26 176.919H1594.84L1581.15 219ZM1580.37 197.56H1609.56V206.562H1580.37V197.56ZM1632.13 219V178.091H1643.13V185.229H1643.56C1644.31 182.69 1645.56 180.772 1647.32 179.476C1649.07 178.162 1651.1 177.505 1653.39 177.505C1653.96 177.505 1654.57 177.54 1655.23 177.612C1655.88 177.683 1656.46 177.78 1656.96 177.904V187.972C1656.42 187.812 1655.69 187.67 1654.75 187.546C1653.81 187.422 1652.94 187.359 1652.16 187.359C1650.49 187.359 1649 187.723 1647.69 188.451C1646.39 189.162 1645.36 190.156 1644.6 191.434C1643.85 192.713 1643.48 194.186 1643.48 195.855V219H1632.13ZM1691.13 178.091V186.614H1666.5V178.091H1691.13ZM1672.09 168.29H1683.44V206.429C1683.44 207.477 1683.6 208.293 1683.92 208.879C1684.24 209.447 1684.68 209.847 1685.25 210.078C1685.83 210.309 1686.51 210.424 1687.27 210.424C1687.8 210.424 1688.34 210.38 1688.87 210.291C1689.4 210.184 1689.81 210.104 1690.09 210.051L1691.88 218.494C1691.31 218.672 1690.51 218.876 1689.48 219.107C1688.45 219.355 1687.2 219.506 1685.73 219.559C1682.99 219.666 1680.6 219.302 1678.54 218.467C1676.49 217.633 1674.9 216.337 1673.77 214.579C1672.63 212.821 1672.07 210.602 1672.09 207.92V168.29Z" fill="#3D3D3D" fill-opacity="0.19"/>
<path d="M1429.15 326H1416.79L1435.62 271.455H1450.48L1469.28 326H1456.92L1443.26 283.919H1442.84L1429.15 326ZM1428.37 304.56H1457.56V313.562H1428.37V304.56ZM1480.13 326V285.091H1491.13V292.229H1491.56C1492.31 289.69 1493.56 287.772 1495.32 286.476C1497.07 285.162 1499.1 284.505 1501.39 284.505C1501.96 284.505 1502.57 284.54 1503.23 284.612C1503.88 284.683 1504.46 284.78 1504.96 284.904V294.972C1504.42 294.812 1503.69 294.67 1502.75 294.546C1501.81 294.422 1500.94 294.359 1500.16 294.359C1498.49 294.359 1497 294.723 1495.69 295.451C1494.39 296.162 1493.36 297.156 1492.6 298.434C1491.85 299.713 1491.48 301.186 1491.48 302.855V326H1480.13ZM1539.13 285.091V293.614H1514.5V285.091H1539.13ZM1520.09 275.29H1531.44V313.429C1531.44 314.477 1531.6 315.293 1531.92 315.879C1532.24 316.447 1532.68 316.847 1533.25 317.078C1533.83 317.309 1534.51 317.424 1535.27 317.424C1535.8 317.424 1536.34 317.38 1536.87 317.291C1537.4 317.184 1537.81 317.104 1538.09 317.051L1539.88 325.494C1539.31 325.672 1538.51 325.876 1537.48 326.107C1536.45 326.355 1535.2 326.506 1533.73 326.559C1530.99 326.666 1528.6 326.302 1526.54 325.467C1524.49 324.633 1522.9 323.337 1521.77 321.579C1520.63 319.821 1520.07 317.602 1520.09 314.92V275.29Z" fill="#3D3D3D" fill-opacity="0.19"/>
<path d="M4.74077 113V58.4545H41.495V67.9627H16.2731V80.9599H39.604V90.468H16.2731V103.492H41.6016V113H4.74077ZM64.4321 72.0909L71.9427 86.3931L79.6398 72.0909H91.2787L79.4268 92.5455L91.5983 113H80.0127L71.9427 98.8576L64.0059 113H52.2872L64.4321 92.5455L52.7133 72.0909H64.4321ZM102.517 128.341V72.0909H113.703V78.9624H114.209C114.706 77.8615 115.425 76.7429 116.366 75.6065C117.325 74.4524 118.568 73.4936 120.095 72.7301C121.64 71.9489 123.557 71.5582 125.848 71.5582C128.831 71.5582 131.583 72.3395 134.104 73.902C136.626 75.4467 138.641 77.7816 140.15 80.9066C141.659 84.0138 142.414 87.9112 142.414 92.5987C142.414 97.1619 141.677 101.015 140.203 104.158C138.747 107.283 136.759 109.653 134.237 111.269C131.734 112.867 128.929 113.666 125.821 113.666C123.62 113.666 121.746 113.302 120.202 112.574C118.675 111.846 117.423 110.931 116.446 109.831C115.47 108.712 114.724 107.585 114.209 106.448H113.863V128.341H102.517ZM113.623 92.5455C113.623 94.978 113.96 97.0998 114.635 98.9109C115.31 100.722 116.286 102.134 117.565 103.146C118.843 104.14 120.397 104.637 122.226 104.637C124.072 104.637 125.635 104.131 126.913 103.119C128.192 102.089 129.159 100.669 129.816 98.8576C130.491 97.0288 130.828 94.9247 130.828 92.5455C130.828 90.1839 130.5 88.1065 129.843 86.3132C129.186 84.5199 128.218 83.1172 126.94 82.1051C125.661 81.093 124.09 80.587 122.226 80.587C120.379 80.587 118.817 81.0753 117.538 82.0518C116.278 83.0284 115.31 84.4134 114.635 86.2067C113.96 88 113.623 90.1129 113.623 92.5455ZM165.824 58.4545V113H154.478V58.4545H165.824ZM197.896 113.799C193.759 113.799 190.181 112.92 187.163 111.162C184.162 109.387 181.845 106.919 180.211 103.758C178.578 100.58 177.761 96.8956 177.761 92.7053C177.761 88.4794 178.578 84.7862 180.211 81.6257C181.845 78.4474 184.162 75.9794 187.163 74.2216C190.181 72.446 193.759 71.5582 197.896 71.5582C202.033 71.5582 205.602 72.446 208.603 74.2216C211.621 75.9794 213.947 78.4474 215.581 81.6257C217.214 84.7862 218.031 88.4794 218.031 92.7053C218.031 96.8956 217.214 100.58 215.581 103.758C213.947 106.919 211.621 109.387 208.603 111.162C205.602 112.92 202.033 113.799 197.896 113.799ZM197.949 105.01C199.831 105.01 201.403 104.477 202.664 103.412C203.924 102.329 204.874 100.855 205.513 98.9908C206.17 97.1264 206.499 95.0046 206.499 92.6254C206.499 90.2461 206.17 88.1243 205.513 86.2599C204.874 84.3956 203.924 82.9219 202.664 81.8388C201.403 80.7557 199.831 80.2141 197.949 80.2141C196.05 80.2141 194.452 80.7557 193.155 81.8388C191.877 82.9219 190.909 84.3956 190.252 86.2599C189.613 88.1243 189.294 90.2461 189.294 92.6254C189.294 95.0046 189.613 97.1264 190.252 98.9908C190.909 100.855 191.877 102.329 193.155 103.412C194.452 104.477 196.05 105.01 197.949 105.01ZM229.909 113V72.0909H240.908V79.2287H241.334C242.08 76.6896 243.332 74.772 245.09 73.4759C246.847 72.1619 248.872 71.505 251.162 71.505C251.73 71.505 252.343 71.5405 253 71.6115C253.657 71.6825 254.234 71.7802 254.731 71.9045V81.9719C254.198 81.8121 253.461 81.6701 252.52 81.5458C251.579 81.4215 250.718 81.3594 249.937 81.3594C248.268 81.3594 246.776 81.7234 245.463 82.4513C244.166 83.1616 243.137 84.1559 242.373 85.4343C241.627 86.7127 241.254 88.1864 241.254 89.8555V113H229.909ZM281.836 113.799C277.628 113.799 274.006 112.947 270.97 111.242C267.951 109.52 265.625 107.087 263.992 103.945C262.358 100.784 261.541 97.0465 261.541 92.7319C261.541 88.5238 262.358 84.8306 263.992 81.6523C265.625 78.4741 267.925 75.9972 270.89 74.2216C273.873 72.446 277.371 71.5582 281.383 71.5582C284.082 71.5582 286.595 71.9933 288.921 72.8633C291.264 73.7156 293.306 75.0028 295.046 76.7251C296.804 78.4474 298.171 80.6136 299.148 83.2237C300.125 85.8161 300.613 88.8523 300.613 92.3324V95.4485H266.069V88.4173H289.933C289.933 86.7837 289.578 85.3366 288.867 84.076C288.157 82.8153 287.172 81.8299 285.911 81.1197C284.668 80.3917 283.221 80.0277 281.57 80.0277C279.848 80.0277 278.321 80.4272 276.989 81.2262C275.675 82.0075 274.645 83.0639 273.899 84.3956C273.154 85.7095 272.772 87.1744 272.754 88.7901V95.4751C272.754 97.4993 273.127 99.2482 273.873 100.722C274.636 102.196 275.71 103.332 277.095 104.131C278.48 104.93 280.123 105.33 282.023 105.33C283.283 105.33 284.437 105.152 285.485 104.797C286.533 104.442 287.429 103.909 288.175 103.199C288.921 102.489 289.489 101.619 289.88 100.589L300.373 101.281C299.84 103.803 298.748 106.004 297.097 107.886C295.464 109.751 293.351 111.207 290.758 112.254C288.184 113.284 285.21 113.799 281.836 113.799Z" fill="#3D3D3D" fill-opacity="0.19"/>
<path d="M467.741 325V270.455H504.495V279.963H479.273V292.96H502.604V302.468H479.273V315.492H504.602V325H467.741ZM527.432 284.091L534.943 298.393L542.64 284.091H554.279L542.427 304.545L554.598 325H543.013L534.943 310.858L527.006 325H515.287L527.432 304.545L515.713 284.091H527.432ZM565.517 340.341V284.091H576.703V290.962H577.209C577.706 289.862 578.425 288.743 579.366 287.607C580.325 286.452 581.568 285.494 583.095 284.73C584.64 283.949 586.557 283.558 588.848 283.558C591.831 283.558 594.583 284.339 597.104 285.902C599.626 287.447 601.641 289.782 603.15 292.907C604.659 296.014 605.414 299.911 605.414 304.599C605.414 309.162 604.677 313.015 603.203 316.158C601.747 319.283 599.759 321.653 597.237 323.269C594.734 324.867 591.929 325.666 588.821 325.666C586.62 325.666 584.746 325.302 583.202 324.574C581.675 323.846 580.423 322.931 579.446 321.831C578.47 320.712 577.724 319.585 577.209 318.448H576.863V340.341H565.517ZM576.623 304.545C576.623 306.978 576.96 309.1 577.635 310.911C578.31 312.722 579.286 314.134 580.565 315.146C581.843 316.14 583.397 316.637 585.226 316.637C587.072 316.637 588.635 316.131 589.913 315.119C591.192 314.089 592.159 312.669 592.816 310.858C593.491 309.029 593.828 306.925 593.828 304.545C593.828 302.184 593.5 300.107 592.843 298.313C592.186 296.52 591.218 295.117 589.94 294.105C588.661 293.093 587.09 292.587 585.226 292.587C583.379 292.587 581.817 293.075 580.538 294.052C579.278 295.028 578.31 296.413 577.635 298.207C576.96 300 576.623 302.113 576.623 304.545ZM628.824 270.455V325H617.478V270.455H628.824ZM660.896 325.799C656.759 325.799 653.181 324.92 650.163 323.162C647.162 321.387 644.845 318.919 643.211 315.758C641.578 312.58 640.761 308.896 640.761 304.705C640.761 300.479 641.578 296.786 643.211 293.626C644.845 290.447 647.162 287.979 650.163 286.222C653.181 284.446 656.759 283.558 660.896 283.558C665.033 283.558 668.602 284.446 671.603 286.222C674.621 287.979 676.947 290.447 678.581 293.626C680.214 296.786 681.031 300.479 681.031 304.705C681.031 308.896 680.214 312.58 678.581 315.758C676.947 318.919 674.621 321.387 671.603 323.162C668.602 324.92 665.033 325.799 660.896 325.799ZM660.949 317.01C662.831 317.01 664.403 316.477 665.664 315.412C666.924 314.329 667.874 312.855 668.513 310.991C669.17 309.126 669.499 307.005 669.499 304.625C669.499 302.246 669.17 300.124 668.513 298.26C667.874 296.396 666.924 294.922 665.664 293.839C664.403 292.756 662.831 292.214 660.949 292.214C659.05 292.214 657.452 292.756 656.155 293.839C654.877 294.922 653.909 296.396 653.252 298.26C652.613 300.124 652.294 302.246 652.294 304.625C652.294 307.005 652.613 309.126 653.252 310.991C653.909 312.855 654.877 314.329 656.155 315.412C657.452 316.477 659.05 317.01 660.949 317.01ZM692.909 325V284.091H703.908V291.229H704.334C705.08 288.69 706.332 286.772 708.09 285.476C709.847 284.162 711.872 283.505 714.162 283.505C714.73 283.505 715.343 283.54 716 283.612C716.657 283.683 717.234 283.78 717.731 283.904V293.972C717.198 293.812 716.461 293.67 715.52 293.546C714.579 293.422 713.718 293.359 712.937 293.359C711.268 293.359 709.776 293.723 708.463 294.451C707.166 295.162 706.137 296.156 705.373 297.434C704.627 298.713 704.254 300.186 704.254 301.855V325H692.909ZM744.836 325.799C740.628 325.799 737.006 324.947 733.97 323.242C730.951 321.52 728.625 319.087 726.992 315.945C725.358 312.784 724.541 309.047 724.541 304.732C724.541 300.524 725.358 296.831 726.992 293.652C728.625 290.474 730.925 287.997 733.89 286.222C736.873 284.446 740.371 283.558 744.383 283.558C747.082 283.558 749.595 283.993 751.921 284.863C754.264 285.716 756.306 287.003 758.046 288.725C759.804 290.447 761.171 292.614 762.148 295.224C763.125 297.816 763.613 300.852 763.613 304.332V307.449H729.069V300.417H752.933C752.933 298.784 752.578 297.337 751.867 296.076C751.157 294.815 750.172 293.83 748.911 293.12C747.668 292.392 746.221 292.028 744.57 292.028C742.848 292.028 741.321 292.427 739.989 293.226C738.675 294.007 737.645 295.064 736.899 296.396C736.154 297.71 735.772 299.174 735.754 300.79V307.475C735.754 309.499 736.127 311.248 736.873 312.722C737.636 314.196 738.71 315.332 740.095 316.131C741.48 316.93 743.123 317.33 745.023 317.33C746.283 317.33 747.437 317.152 748.485 316.797C749.533 316.442 750.429 315.909 751.175 315.199C751.921 314.489 752.489 313.619 752.88 312.589L763.373 313.281C762.84 315.803 761.748 318.004 760.097 319.886C758.464 321.751 756.351 323.207 753.758 324.254C751.184 325.284 748.21 325.799 744.836 325.799Z" fill="#3D3D3D" fill-opacity="0.19"/>
<path d="M682.741 219V164.455H719.495V173.963H694.273V186.96H717.604V196.468H694.273V209.492H719.602V219H682.741ZM742.432 178.091L749.943 192.393L757.64 178.091H769.279L757.427 198.545L769.598 219H758.013L749.943 204.858L742.006 219H730.287L742.432 198.545L730.713 178.091H742.432ZM780.517 234.341V178.091H791.703V184.962H792.209C792.706 183.862 793.425 182.743 794.366 181.607C795.325 180.452 796.568 179.494 798.095 178.73C799.64 177.949 801.557 177.558 803.848 177.558C806.831 177.558 809.583 178.339 812.104 179.902C814.626 181.447 816.641 183.782 818.15 186.907C819.659 190.014 820.414 193.911 820.414 198.599C820.414 203.162 819.677 207.015 818.203 210.158C816.747 213.283 814.759 215.653 812.237 217.269C809.734 218.867 806.929 219.666 803.821 219.666C801.62 219.666 799.746 219.302 798.202 218.574C796.675 217.846 795.423 216.931 794.446 215.831C793.47 214.712 792.724 213.585 792.209 212.448H791.863V234.341H780.517ZM791.623 198.545C791.623 200.978 791.96 203.1 792.635 204.911C793.31 206.722 794.286 208.134 795.565 209.146C796.843 210.14 798.397 210.637 800.226 210.637C802.072 210.637 803.635 210.131 804.913 209.119C806.192 208.089 807.159 206.669 807.816 204.858C808.491 203.029 808.828 200.925 808.828 198.545C808.828 196.184 808.5 194.107 807.843 192.313C807.186 190.52 806.218 189.117 804.94 188.105C803.661 187.093 802.09 186.587 800.226 186.587C798.379 186.587 796.817 187.075 795.538 188.052C794.278 189.028 793.31 190.413 792.635 192.207C791.96 194 791.623 196.113 791.623 198.545ZM843.824 164.455V219H832.478V164.455H843.824ZM875.896 219.799C871.759 219.799 868.181 218.92 865.163 217.162C862.162 215.387 859.845 212.919 858.211 209.758C856.578 206.58 855.761 202.896 855.761 198.705C855.761 194.479 856.578 190.786 858.211 187.626C859.845 184.447 862.162 181.979 865.163 180.222C868.181 178.446 871.759 177.558 875.896 177.558C880.033 177.558 883.602 178.446 886.603 180.222C889.621 181.979 891.947 184.447 893.581 187.626C895.214 190.786 896.031 194.479 896.031 198.705C896.031 202.896 895.214 206.58 893.581 209.758C891.947 212.919 889.621 215.387 886.603 217.162C883.602 218.92 880.033 219.799 875.896 219.799ZM875.949 211.01C877.831 211.01 879.403 210.477 880.664 209.412C881.924 208.329 882.874 206.855 883.513 204.991C884.17 203.126 884.499 201.005 884.499 198.625C884.499 196.246 884.17 194.124 883.513 192.26C882.874 190.396 881.924 188.922 880.664 187.839C879.403 186.756 877.831 186.214 875.949 186.214C874.05 186.214 872.452 186.756 871.155 187.839C869.877 188.922 868.909 190.396 868.252 192.26C867.613 194.124 867.294 196.246 867.294 198.625C867.294 201.005 867.613 203.126 868.252 204.991C868.909 206.855 869.877 208.329 871.155 209.412C872.452 210.477 874.05 211.01 875.949 211.01ZM907.909 219V178.091H918.908V185.229H919.334C920.08 182.69 921.332 180.772 923.09 179.476C924.847 178.162 926.872 177.505 929.162 177.505C929.73 177.505 930.343 177.54 931 177.612C931.657 177.683 932.234 177.78 932.731 177.904V187.972C932.198 187.812 931.461 187.67 930.52 187.546C929.579 187.422 928.718 187.359 927.937 187.359C926.268 187.359 924.776 187.723 923.463 188.451C922.166 189.162 921.137 190.156 920.373 191.434C919.627 192.713 919.254 194.186 919.254 195.855V219H907.909ZM959.836 219.799C955.628 219.799 952.006 218.947 948.97 217.242C945.951 215.52 943.625 213.087 941.992 209.945C940.358 206.784 939.541 203.047 939.541 198.732C939.541 194.524 940.358 190.831 941.992 187.652C943.625 184.474 945.925 181.997 948.89 180.222C951.873 178.446 955.371 177.558 959.383 177.558C962.082 177.558 964.595 177.993 966.921 178.863C969.264 179.716 971.306 181.003 973.046 182.725C974.804 184.447 976.171 186.614 977.148 189.224C978.125 191.816 978.613 194.852 978.613 198.332V201.449H944.069V194.417H967.933C967.933 192.784 967.578 191.337 966.867 190.076C966.157 188.815 965.172 187.83 963.911 187.12C962.668 186.392 961.221 186.028 959.57 186.028C957.848 186.028 956.321 186.427 954.989 187.226C953.675 188.007 952.645 189.064 951.899 190.396C951.154 191.71 950.772 193.174 950.754 194.79V201.475C950.754 203.499 951.127 205.248 951.873 206.722C952.636 208.196 953.71 209.332 955.095 210.131C956.48 210.93 958.123 211.33 960.023 211.33C961.283 211.33 962.437 211.152 963.485 210.797C964.533 210.442 965.429 209.909 966.175 209.199C966.921 208.489 967.489 207.619 967.88 206.589L978.373 207.281C977.84 209.803 976.748 212.004 975.097 213.886C973.464 215.751 971.351 217.207 968.758 218.254C966.184 219.284 963.21 219.799 959.836 219.799Z" fill="#3D3D3D" fill-opacity="0.19"/>
<path d="M2.66335 279.963V270.455H47.4609V279.963H30.7617V325H19.3626V279.963H2.66335ZM71.8362 325.799C67.6281 325.799 64.0059 324.947 60.9697 323.242C57.9513 321.52 55.6253 319.087 53.9917 315.945C52.3582 312.784 51.5415 309.047 51.5415 304.732C51.5415 300.524 52.3582 296.831 53.9917 293.652C55.6253 290.474 57.9246 287.997 60.8898 286.222C63.8728 284.446 67.3706 283.558 71.3834 283.558C74.0823 283.558 76.5947 283.993 78.9207 284.863C81.2645 285.716 83.3064 287.003 85.0464 288.725C86.8042 290.447 88.1714 292.614 89.148 295.224C90.1246 297.816 90.6128 300.852 90.6128 304.332V307.449H56.0692V300.417H79.9328C79.9328 298.784 79.5777 297.337 78.8675 296.076C78.1572 294.815 77.1718 293.83 75.9111 293.12C74.6682 292.392 73.2211 292.028 71.5699 292.028C69.8476 292.028 68.3206 292.427 66.9889 293.226C65.675 294.007 64.6452 295.064 63.8994 296.396C63.1537 297.71 62.7719 299.174 62.7542 300.79V307.475C62.7542 309.499 63.127 311.248 63.8728 312.722C64.6363 314.196 65.7105 315.332 67.0954 316.131C68.4804 316.93 70.1228 317.33 72.0226 317.33C73.2833 317.33 74.4374 317.152 75.485 316.797C76.5326 316.442 77.4292 315.909 78.175 315.199C78.9207 314.489 79.4889 313.619 79.8795 312.589L90.3731 313.281C89.8405 315.803 88.7485 318.004 87.0972 319.886C85.4637 321.751 83.3508 323.207 80.7584 324.254C78.1839 325.284 75.2098 325.799 71.8362 325.799ZM114.182 325.772C111.572 325.772 109.246 325.32 107.204 324.414C105.163 323.491 103.547 322.132 102.357 320.339C101.185 318.528 100.599 316.273 100.599 313.574C100.599 311.301 101.017 309.393 101.851 307.848C102.686 306.303 103.822 305.06 105.26 304.119C106.698 303.178 108.332 302.468 110.161 301.989C112.007 301.509 113.943 301.172 115.967 300.977C118.346 300.728 120.264 300.497 121.72 300.284C123.176 300.053 124.232 299.716 124.889 299.272C125.546 298.828 125.875 298.171 125.875 297.301V297.141C125.875 295.455 125.342 294.15 124.277 293.226C123.229 292.303 121.737 291.841 119.802 291.841C117.76 291.841 116.136 292.294 114.928 293.2C113.721 294.087 112.922 295.206 112.531 296.555L102.038 295.703C102.57 293.217 103.618 291.069 105.18 289.258C106.743 287.429 108.758 286.026 111.226 285.05C113.712 284.055 116.588 283.558 119.855 283.558C122.128 283.558 124.303 283.825 126.381 284.357C128.476 284.89 130.331 285.716 131.947 286.834C133.581 287.953 134.868 289.391 135.809 291.149C136.75 292.889 137.22 294.975 137.22 297.408V325H126.46V319.327H126.141C125.484 320.605 124.605 321.733 123.504 322.71C122.403 323.668 121.081 324.423 119.536 324.973C117.991 325.506 116.207 325.772 114.182 325.772ZM117.432 317.942C119.101 317.942 120.574 317.614 121.853 316.957C123.131 316.282 124.134 315.376 124.862 314.24C125.59 313.104 125.954 311.816 125.954 310.378V306.037C125.599 306.268 125.111 306.481 124.49 306.676C123.886 306.854 123.202 307.022 122.439 307.182C121.675 307.324 120.912 307.457 120.148 307.582C119.385 307.688 118.692 307.786 118.071 307.875C116.739 308.07 115.576 308.381 114.582 308.807C113.588 309.233 112.815 309.81 112.265 310.538C111.714 311.248 111.439 312.136 111.439 313.201C111.439 314.746 111.998 315.927 113.117 316.744C114.253 317.543 115.692 317.942 117.432 317.942ZM169.006 325.799C164.816 325.799 161.212 324.911 158.193 323.136C155.193 321.342 152.884 318.857 151.269 315.678C149.671 312.5 148.872 308.842 148.872 304.705C148.872 300.515 149.679 296.839 151.295 293.679C152.929 290.501 155.246 288.024 158.247 286.248C161.247 284.455 164.816 283.558 168.953 283.558C172.522 283.558 175.647 284.206 178.328 285.502C181.009 286.799 183.131 288.619 184.694 290.962C186.256 293.306 187.117 296.058 187.277 299.219H176.57C176.269 297.177 175.47 295.534 174.173 294.292C172.895 293.031 171.217 292.401 169.14 292.401C167.382 292.401 165.846 292.88 164.532 293.839C163.236 294.78 162.224 296.156 161.496 297.967C160.768 299.778 160.404 301.971 160.404 304.545C160.404 307.156 160.759 309.375 161.469 311.204C162.197 313.033 163.218 314.426 164.532 315.385C165.846 316.344 167.382 316.824 169.14 316.824C170.436 316.824 171.599 316.557 172.629 316.025C173.676 315.492 174.537 314.719 175.212 313.707C175.905 312.678 176.357 311.444 176.57 310.005H187.277C187.1 313.13 186.247 315.882 184.72 318.262C183.211 320.623 181.125 322.47 178.461 323.801C175.798 325.133 172.646 325.799 169.006 325.799ZM210.387 301.349V325H199.041V270.455H210.068V291.309H210.547C211.47 288.894 212.962 287.003 215.021 285.636C217.081 284.251 219.665 283.558 222.772 283.558C225.613 283.558 228.09 284.18 230.203 285.423C232.333 286.648 233.985 288.414 235.156 290.723C236.346 293.013 236.932 295.756 236.914 298.952V325H225.568V300.977C225.586 298.455 224.947 296.493 223.651 295.091C222.372 293.688 220.579 292.987 218.271 292.987C216.726 292.987 215.359 293.315 214.169 293.972C212.997 294.629 212.074 295.588 211.399 296.848C210.742 298.091 210.405 299.592 210.387 301.349ZM268.987 325.799C264.778 325.799 261.156 324.947 258.12 323.242C255.102 321.52 252.776 319.087 251.142 315.945C249.509 312.784 248.692 309.047 248.692 304.732C248.692 300.524 249.509 296.831 251.142 293.652C252.776 290.474 255.075 287.997 258.04 286.222C261.023 284.446 264.521 283.558 268.534 283.558C271.233 283.558 273.745 283.993 276.071 284.863C278.415 285.716 280.457 287.003 282.197 288.725C283.955 290.447 285.322 292.614 286.298 295.224C287.275 297.816 287.763 300.852 287.763 304.332V307.449H253.22V300.417H277.083C277.083 298.784 276.728 297.337 276.018 296.076C275.308 294.815 274.322 293.83 273.062 293.12C271.819 292.392 270.372 292.028 268.72 292.028C266.998 292.028 265.471 292.427 264.139 293.226C262.825 294.007 261.796 295.064 261.05 296.396C260.304 297.71 259.922 299.174 259.905 300.79V307.475C259.905 309.499 260.277 311.248 261.023 312.722C261.787 314.196 262.861 315.332 264.246 316.131C265.631 316.93 267.273 317.33 269.173 317.33C270.434 317.33 271.588 317.152 272.635 316.797C273.683 316.442 274.58 315.909 275.325 315.199C276.071 314.489 276.639 313.619 277.03 312.589L287.524 313.281C286.991 315.803 285.899 318.004 284.248 319.886C282.614 321.751 280.501 323.207 277.909 324.254C275.334 325.284 272.36 325.799 268.987 325.799ZM299.667 325V284.091H310.667V291.229H311.093C311.839 288.69 313.091 286.772 314.848 285.476C316.606 284.162 318.63 283.505 320.921 283.505C321.489 283.505 322.102 283.54 322.759 283.612C323.416 283.683 323.993 283.78 324.49 283.904V293.972C323.957 293.812 323.22 293.67 322.279 293.546C321.338 293.422 320.477 293.359 319.696 293.359C318.027 293.359 316.535 293.723 315.221 294.451C313.925 295.162 312.895 296.156 312.132 297.434C311.386 298.713 311.013 300.186 311.013 301.855V325H299.667Z" fill="#3D3D3D" fill-opacity="0.19"/>
</svg>
