<svg xmlns="http://www.w3.org/2000/svg" fill="none" viewBox="0 0 400 400">
  
  
  
  
  
<g transform="matrix(3.6363636363636362,0,0,3.6363636363636362,0,0)"><path fill="#a79376" d="M72.6 61.5065H72.567H72.6ZM26.6752 77.55C26.8842 77.583 28.0282 77.638 28.0282 77.44C28.0282 77.3245 27.8192 77.33 27.8192 77.33C27.8467 76.45 28.9632 76.23 29.7607 76.692C29.9805 76.8185 30.1837 76.9716 30.3657 77.1485C29.2382 77.209 27.7422 77.979 27.8412 79.0955C27.898 79.3865 28.0201 79.6611 28.1982 79.8985C28.3764 80.1354 28.6059 80.3293 28.8697 80.465C29.1994 80.7116 29.5749 80.8903 29.9743 80.9902C30.3737 81.0906 30.7891 81.1098 31.1962 81.048C31.9212 80.8633 32.5591 80.4315 33.0002 79.827C33.9971 79.8586 34.9724 79.5327 35.7502 78.9085C35.783 78.8823 35.8102 78.8498 35.83 78.8131C35.8499 78.776 35.862 78.7357 35.8657 78.694C35.8657 78.5015 35.8657 78.5125 34.7657 77.2915C34.7345 77.2566 34.6955 77.2301 34.6519 77.2136C34.6082 77.1971 34.5613 77.1911 34.5149 77.1966C34.4686 77.2016 34.4242 77.2181 34.3855 77.2443C34.3469 77.2704 34.315 77.3057 34.2927 77.3465C34.2737 77.3703 34.2571 77.3964 34.2432 77.4235C34.1558 77.5876 34.0146 77.7163 33.8433 77.7888C33.672 77.8607 33.4811 77.8717 33.3027 77.8195C32.7527 77.66 32.0432 76.2025 30.7507 75.3335C29.6232 74.5745 28.1107 74.349 27.0437 75.251C26.5844 75.6451 26.2579 76.1713 26.1087 76.758C26.0493 76.939 26.0611 77.1356 26.1417 77.308C26.2862 77.4478 26.4747 77.5335 26.6752 77.55ZM28.7432 79.5905C28.5924 79.4828 28.4877 79.3223 28.45 79.1408C28.4123 78.9593 28.4443 78.7705 28.5397 78.6115C28.7836 78.2741 29.1225 78.0179 29.5132 77.8745C29.198 78.4089 28.9399 78.9745 28.7432 79.563V79.5905ZM33.9242 78.7215C34.0562 78.3255 33.9242 78.463 34.1442 78.364C34.3108 78.281 34.4616 78.1692 34.5897 78.034L35.0902 78.628C34.6757 78.8906 34.2174 79.0771 33.7372 79.178C33.7922 79.035 33.8802 78.815 33.9242 78.694V78.7215ZM31.9332 77.319C32.4557 77.9735 32.8902 78.5565 33.6877 78.4905C33.5739 78.7274 33.4818 78.974 33.4127 79.2275C33.0112 79.255 32.9562 79.1615 32.7967 79.2275C32.4832 79.3485 31.9662 80.476 30.7122 80.4705C30.7902 80.2958 30.8403 80.1102 30.8607 79.9205C31.2155 79.849 31.5477 79.6922 31.8287 79.464C31.9491 79.3595 32.0273 79.2151 32.0487 79.057C32.0487 78.8645 31.9827 78.617 31.5757 78.2925C31.7273 77.9712 31.847 77.6361 31.9332 77.2915V77.319ZM30.0852 79.398C29.6012 79.1395 30.4262 78.683 30.9597 78.6995C31.0822 78.7004 31.2021 78.7361 31.3052 78.8021C31.4084 78.8681 31.4907 78.9626 31.5427 79.0735C31.4692 79.1917 31.3723 79.2939 31.258 79.3732C31.1437 79.453 31.0144 79.5084 30.8779 79.5359C30.7415 79.5639 30.6008 79.5634 30.4645 79.535C30.3281 79.5066 30.1991 79.4507 30.0852 79.3705V79.398ZM30.7342 76.032C31.1076 76.3496 31.4468 76.7053 31.7462 77.0935C31.5721 77.4106 31.4391 77.7489 31.3502 78.1C31.119 78.0335 30.8767 78.0156 30.6383 78.0468C30.3999 78.078 30.1704 78.1577 29.9642 78.2815C28.9577 78.8315 29.1942 80.036 30.5912 79.8985C30.5091 80.0566 30.448 80.2248 30.4097 80.399C29.8519 80.2876 29.3304 80.0401 28.8917 79.6785C29.2815 79.0726 29.5851 78.4153 29.7937 77.726C30.0075 77.6279 30.2388 77.5733 30.474 77.5656C30.7092 77.5582 30.9435 77.5976 31.1632 77.682L31.2787 77.2475L31.1577 77.1925C30.8992 77.0165 30.7837 76.879 30.4867 76.6425C30.5969 76.4417 30.6801 76.2272 30.7342 76.0045V76.032ZM28.6002 75.152C29.2885 75.1643 29.9549 75.3958 30.5032 75.812C30.4047 76.0361 30.3309 76.2703 30.2832 76.5105C30.0196 76.3038 29.7085 76.1653 29.3782 76.109C29.0479 76.0521 28.7087 76.0787 28.3912 76.186C28.5072 75.8523 28.5775 75.5044 28.6002 75.152ZM27.3407 75.581C27.6456 75.3436 28.012 75.1987 28.3967 75.163C28.226 75.5328 28.12 75.9288 28.0832 76.3345C27.9193 76.4326 27.7852 76.5737 27.6951 76.7424C27.605 76.9106 27.5623 77.1003 27.5717 77.2915C27.1863 77.3126 26.8007 77.2548 26.4387 77.121C26.5205 76.51 26.8408 75.9563 27.3297 75.581H27.3407ZM19.1237 74.6625C18.1337 74.2335 15.9337 75.504 15.5322 76.186C15.4741 76.3363 15.4741 76.5031 15.5322 76.6535C15.8787 77.968 19.1127 82.61 19.7122 83.3305C19.8167 83.4625 19.9597 83.281 19.8662 83.127C19.5802 82.654 19.6132 83.6055 21.0762 78.87C21.2117 78.8168 21.3379 78.7426 21.4502 78.65C21.5012 78.5931 21.5294 78.5198 21.5294 78.4437C21.5294 78.3676 21.5012 78.2938 21.4502 78.2375C21.4002 78.1756 21.343 78.1201 21.2797 78.0725L21.6262 76.791L23.0012 77.55C22.7231 78.2448 22.5203 78.9676 22.3962 79.706C21.8416 79.9058 21.3219 80.1918 20.8562 80.553C20.5317 80.9105 21.0432 81.5705 21.3622 81.9665C21.6812 82.3625 21.9507 82.632 22.0112 82.6925C22.0717 82.753 22.2642 82.6925 22.2477 82.5935C22.2128 82.5137 22.1664 82.4399 22.1102 82.3735C21.8121 81.9096 21.5563 81.4201 21.3457 80.9105C21.7731 80.6547 22.2244 80.4411 22.6932 80.2725C22.8637 80.212 23.3917 80.047 23.5347 80.135C24.2403 80.5067 24.9763 80.8174 25.7347 81.0645C25.7653 81.0791 25.8005 81.081 25.8324 81.0695C25.8644 81.0581 25.8906 81.0347 25.9052 81.004C25.9198 80.9733 25.9216 80.938 25.9102 80.9063C25.8989 80.8743 25.8753 80.8481 25.8447 80.8335L24.8932 80.256C25.0957 79.7967 25.2256 79.3086 25.2782 78.8095L27.6267 80.08C27.7697 80.1625 27.8797 79.937 27.7752 79.8765C27.6707 79.816 20.5427 75.284 19.1237 74.6625ZM18.2877 75.2455C18.4796 75.1877 18.6842 75.1877 18.8762 75.2455C19.0027 75.3005 19.3107 75.4655 19.7287 75.6965C19.5877 76.0856 19.4917 76.4898 19.4427 76.901C19.0742 76.692 18.8542 76.5325 18.5627 76.582C18.4038 76.6177 18.2551 76.6892 18.1282 76.791C18.1832 76.362 18.2327 76.032 18.2877 75.2455ZM16.0877 76.4555C16.6581 75.9114 17.3501 75.5118 18.1062 75.2895C17.8126 76.587 17.6068 77.9024 17.4902 79.2275C16.9356 78.3493 16.4677 77.4189 16.0932 76.45L16.0877 76.4555ZM18.5847 81.081C18.2822 80.5805 17.9522 80.025 17.6387 79.4805C17.8257 78.694 17.8862 78.331 18.0017 77.5885C18.3026 78.1105 18.6505 78.6037 19.0412 79.0625C18.8194 79.7174 18.6682 80.3939 18.5902 81.081H18.5847ZM19.5472 82.665C19.3492 82.3515 19.0962 81.928 18.7662 81.3835C18.975 80.6932 19.1132 79.9837 19.1787 79.266C19.2997 79.5575 20.3777 79.1395 20.6692 79.0295C20.4547 79.706 19.7067 82.06 19.5527 82.665H19.5472ZM19.3822 79.0955C19.0413 78.5056 18.74 77.8937 18.4802 77.264L18.6507 77.1705C18.7277 77.2145 20.6087 78.3255 20.7462 78.4135C20.3175 78.6862 19.8624 78.9144 19.3877 79.0955H19.3822ZM21.0322 77.8855C20.6197 77.6105 20.0587 77.275 19.6297 77.0275C19.7764 76.6379 19.8726 76.2313 19.9157 75.8175L21.4777 76.6975C21.4502 76.9065 21.2632 77.3355 21.0652 77.8855H21.0322ZM24.6732 80.0855L23.8262 79.574C23.4498 79.4255 23.031 79.4255 22.6547 79.574C22.8679 78.9309 23.0225 78.27 23.1167 77.5995L25.1077 78.6995C24.9043 79.1482 24.7689 79.6244 24.7062 80.113L24.6732 80.0855Z"></path><path fill="#a79376" d="M106.893 82.0435C106.002 73.7495 98.3235 60.995 93.7365 54.0265C96.2977 54.2314 98.8685 54.2956 101.436 54.219C102.168 54.219 104.082 54.087 104.451 54.0155C104.665 53.9715 104.698 53.768 104.374 53.757C104.049 53.746 101.739 53.636 101.426 53.6305H95.832C94.974 53.6635 93.632 53.7405 93.555 53.7405C91.905 51.227 90.7555 49.654 90.7445 49.6485C90.7321 49.6357 90.7165 49.6256 90.7 49.6192C90.6831 49.6128 90.6652 49.61 90.6469 49.6109C90.629 49.6123 90.6116 49.6169 90.5955 49.6256C90.5795 49.6339 90.5658 49.6453 90.5548 49.6595C90.5438 49.6737 90.536 49.6902 90.5314 49.7076C90.5273 49.7255 90.5268 49.7434 90.5305 49.7613C90.5337 49.7787 90.541 49.7956 90.5511 49.8103C90.5616 49.825 90.5749 49.8374 90.5905 49.8465C90.8435 50.05 101.959 66.2915 105.358 77.4785C106.706 81.917 107.503 87.4885 103.158 89.0285C92.84 92.7135 12.0285 93.9125 4.38906 89.5785C3.32756 88.979 3.08006 87.7305 3.28906 86.0475C3.61356 83.71 4.87304 80.5475 6.39105 77.0055C8.10155 78.6555 22.2915 91.685 24.5905 91.1955C26.8895 90.706 39.82 84.7 40.3535 83.5505C40.6635 82.7521 40.8274 81.9042 40.8375 81.048C40.9027 80.9582 40.933 80.8482 40.9229 80.7377C40.9128 80.6277 40.8629 80.5246 40.7825 80.4485C39.93 79.6015 23.0175 66.1925 21.9285 66.231C21.1695 66.264 19.7945 67.045 19.14 67.43C18.9278 67.0826 18.6119 66.8113 18.2369 66.6531C17.8618 66.495 17.4467 66.4593 17.05 66.55C16.6761 66.7008 16.3412 66.935 16.0707 67.2339C15.8001 67.5331 15.6009 67.8897 15.488 68.277C15.4942 68.3068 15.5105 68.3334 15.534 68.3526C15.5575 68.3719 15.587 68.382 15.6173 68.382C15.6477 68.382 15.6771 68.3719 15.7006 68.3526C15.7242 68.3334 15.7404 68.3068 15.7465 68.277C16.0774 67.7174 16.6018 67.2989 17.2205 67.1C17.4779 67.0606 17.741 67.095 17.9796 67.199C18.2181 67.3031 18.4222 67.4731 18.568 67.6885L12.452 70.301C12.1273 69.9674 11.7219 69.7226 11.275 69.5915C10.23 69.3165 9.52604 70.004 9.10804 71.0105C9.09888 71.0394 9.09993 71.0706 9.11107 71.099C9.12221 71.1274 9.14279 71.1508 9.16928 71.1654C9.19577 71.1806 9.22657 71.1856 9.2565 71.1806C9.28643 71.1755 9.31365 71.1599 9.33355 71.137C10.0375 70.1195 10.8515 69.773 11.825 70.587C10.648 71.1095 9.00354 71.852 7.84854 72.424C7.93104 72.292 19.8 50.798 19.8 50.743C20.3225 49.775 21.373 48.0425 22.4565 47.817C22.9463 47.7102 23.4459 47.6548 23.947 47.652C23.1825 48.917 16.9785 59.202 16.9675 60.654C16.9675 62.304 17.2535 62.0455 18.1335 62.304C19.0135 62.5625 68.255 62.26 68.343 62.26C69.1955 62.26 72.5285 62.15 72.8365 61.9245C73.7935 61.2205 73.579 60.17 73.161 59.0645C73.062 58.8005 72.5615 57.706 71.8905 56.243C74.778 55.374 76.9505 56.4795 77.1485 61.193C77.3465 65.2685 75.7405 66.5115 72.666 66.3355C70.1965 66.1925 68.4915 65.4665 67.9525 66.429C67.3475 67.5015 69.0195 69.9105 69.7455 70.9115C69.641 70.9115 65.0375 70.818 63.877 70.7685C62.2417 70.7053 60.6045 70.7254 58.971 70.829C57.8462 70.8538 56.7279 71.0069 55.638 71.2855C55.2255 71.489 54.692 72.5505 54.4665 72.996C54.021 73.8705 51.9915 79.3595 51.4305 80.9435C51.1005 81.8565 49.984 84.8815 50.732 85.415C50.7045 86.0035 50.798 86.79 51.315 87.065C51.832 87.34 58.938 87.538 59.4825 87.549C60.445 87.5765 70.1745 87.703 76.384 87.428C82.5935 87.153 85.305 86.559 85.1455 86.5755C85.3032 86.5292 85.4448 86.4399 85.5548 86.317C85.6643 86.1947 85.7381 86.0443 85.767 85.8825C85.8518 85.476 85.8252 85.0543 85.69 84.6615C86.383 83.314 81.1415 72.127 79.6895 71.3405C79.6038 71.2924 79.5075 71.2658 79.409 71.2635C79.1175 71.2635 72.5945 70.9885 70.059 70.906C69.509 70.1305 67.7215 67.21 68.409 66.5885C69.454 65.6755 78.1825 70.2515 77.715 61.1435C77.473 57.024 75.5755 54.6095 71.7255 56.0065C71.39 55.2805 68.574 49.2635 67.8205 47.663C70.7396 47.8377 73.6679 47.7735 76.5765 47.4705C76.6182 47.9839 76.7658 48.483 77.0101 48.9363C77.2544 49.3896 77.5899 49.7879 77.9955 50.105C80.1955 51.755 88.9515 51.5075 90.541 49.489C90.9865 48.8799 91.2945 48.1814 91.4435 47.4416C91.5924 46.7019 91.5791 45.9388 91.4045 45.2045C91.5507 45.1114 91.6644 44.9749 91.729 44.814C91.817 44.6435 91.729 44.429 91.3495 44.352C90.86 44.2786 90.365 44.2492 89.87 44.264C89.87 43.813 89.8975 42.9715 89.87 42.0145C89.9195 41.9815 90.277 41.5525 90.3155 41.503C90.7537 40.9908 91.1002 40.4065 91.3385 39.776C91.52 39.2645 91.5915 38.676 91.113 38.39C90.376 37.9885 89.859 38.7255 89.6115 39.5505C89.3805 38.28 88.847 36.4155 87.571 36.6025C85.404 36.9325 86.9 42.185 87.604 44.264C86.9857 44.1769 86.3578 44.1769 85.7395 44.264C86.427 42.537 86.779 40.304 85.0135 39.9685C84.7458 39.9093 84.4667 39.9299 84.2105 40.0276C83.9547 40.1254 83.7329 40.296 83.5725 40.5185C83.5372 40.394 83.4708 40.2805 83.3795 40.1887C83.2888 40.0969 83.1756 40.0296 83.0514 39.9934C82.9272 39.9571 82.7956 39.9529 82.6696 39.9813C82.5435 40.0096 82.4262 40.0696 82.3295 40.1555C81.521 40.7385 81.983 42.075 82.9235 42.515C82.874 43.0804 82.874 43.6491 82.9235 44.2145C82.3382 44.1438 81.7456 44.1567 81.1635 44.253C81.131 42.9101 80.9838 41.5724 80.7235 40.2545C81.0576 40.0167 81.339 39.712 81.549 39.3598C81.7593 39.0076 81.8941 38.6155 81.9445 38.2085C82.0215 37.477 81.763 36.8665 81.1525 36.707C80.388 36.509 79.937 37.0425 79.805 37.807C79.1285 36.872 77.803 36.5365 77.1595 37.609C75.097 35.464 74.1015 36.663 74.624 37.609C75.0145 38.335 76.032 38.742 76.824 38.9675C76.824 40.1995 77.374 41.239 78.056 42.3005C78.5125 43.0155 79.024 43.703 79.42 44.209C78.5643 44.1815 77.7077 44.2368 76.8625 44.374C76.3455 44.5115 76.263 44.8855 76.7415 45.155C76.5903 45.7997 76.5348 46.4631 76.5765 47.124C73.6221 46.9668 70.6599 47.0365 67.716 47.333C67.529 46.9315 66.9735 45.76 66.9075 45.6225C66.8415 45.485 67.3695 43.89 68.112 29.062C71.522 28.776 86.856 29.117 88.264 28.5725C88.3447 28.5435 88.4162 28.4936 88.4716 28.4279C88.5266 28.3622 88.5633 28.283 88.5775 28.1985C89.045 26.664 89.364 13.475 88.5775 12.2485C88.385 11.946 87.6975 11.8525 87.318 11.7975C82.4175 11.0825 61.9685 11.3905 60.918 11.946C59.8675 12.5015 60.313 17.9245 60.511 19.0025C49.8905 18.6615 25.366 19.327 23.056 20.1905C22.506 20.3885 22.3025 21.142 22.1925 21.7085C21.2795 26.422 23.8425 41.591 24.7005 46.277C24.6455 46.277 24.7005 46.277 24.0295 47.322C23.4616 47.2799 22.8906 47.3096 22.33 47.41C21.076 47.6025 19.921 49.335 19.283 50.413C19.2555 50.468 17.633 53.163 17.391 53.603C16.0105 53.3885 9.59204 53.471 8.77804 53.515C7.96404 53.559 7.12805 53.6195 6.39105 53.6745C6.25905 53.6745 6.24805 53.9275 6.39105 53.933C7.93105 54.0265 8.49754 54.0595 9.69104 54.076C12.6115 54.12 16.918 54.241 17.0555 54.2245C16.7695 54.725 12.5345 62.26 11.968 63.327C9.50405 67.947 7.56804 72.1765 7.45254 72.534C6.81322 72.8246 6.21271 73.1945 5.66504 73.634C5.4884 74.1185 5.3828 74.6263 5.35155 75.141C5.32405 76.0265 5.64304 76.241 6.13254 76.736C4.8191 79.5502 3.7393 82.4679 2.90406 85.459C2.63139 86.669 2.62013 87.9235 2.87106 89.1385C3.09563 90.3531 3.5154 91.5232 4.11406 92.6035C4.38298 92.8767 4.73147 93.0577 5.10954 93.1205C6.55604 93.5275 11.0385 94.05 12.54 94.2205C12.4269 94.8924 12.3955 95.5758 12.4465 96.2555C12.4481 96.9559 12.5499 97.6521 12.749 98.3235C12.7509 98.34 12.7559 98.3561 12.7639 98.3707C12.772 98.3854 12.7828 98.3982 12.7958 98.4088C12.8089 98.4193 12.8238 98.4271 12.8398 98.4317C12.8559 98.4367 12.8727 98.4381 12.8893 98.4363C12.9059 98.4344 12.922 98.4294 12.9367 98.4212C12.9514 98.4134 12.9643 98.4024 12.9747 98.3895C12.9852 98.3762 12.993 98.3616 12.9977 98.3455C13.0024 98.3295 13.0039 98.3125 13.002 98.296C13.09 97.6104 13.114 96.9183 13.0735 96.228C13.0699 95.5634 12.9943 94.9016 12.848 94.2535C13.607 94.3195 14.3385 94.3745 14.9765 94.3965C14.8751 95.0382 14.8474 95.6899 14.894 96.338C14.8959 97.0384 14.9978 97.7346 15.1965 98.406C15.1965 98.4395 15.2099 98.4716 15.2336 98.4954C15.2573 98.5192 15.2895 98.5325 15.323 98.5325C15.3566 98.5325 15.3888 98.5192 15.4125 98.4954C15.4363 98.4716 15.4495 98.4395 15.4495 98.406C15.5405 97.7208 15.5663 97.0283 15.5265 96.338C15.5228 95.6959 15.449 95.0556 15.3065 94.4295C16.533 94.457 34.584 96.0795 65.758 95.4635C74.1125 95.2985 84.1555 94.9135 92.4275 94.006C92.3184 94.6692 92.2868 95.343 92.334 96.0135C92.3367 96.712 92.4403 97.4069 92.642 98.076C92.6383 98.0944 92.6383 98.1136 92.6429 98.1319C92.647 98.1503 92.6557 98.1672 92.6677 98.1819C92.6796 98.1966 92.6942 98.2085 92.7112 98.2163C92.7282 98.2245 92.747 98.2287 92.7657 98.2287C92.7845 98.2287 92.8033 98.2245 92.8203 98.2163C92.8372 98.2085 92.8524 98.1966 92.8643 98.1819C92.8757 98.1672 92.8845 98.1503 92.8886 98.1319C92.8932 98.1136 92.8936 98.0944 92.8895 98.076C92.9858 97.3913 93.0114 96.6983 92.9665 96.008C92.9605 95.3288 92.8813 94.6518 92.73 93.9895C93.3405 93.9235 94.754 93.7475 94.875 93.731C94.7668 94.3906 94.737 95.0607 94.787 95.7275C94.7875 96.4279 94.8892 97.1245 95.0895 97.7955C95.0932 97.829 95.1101 97.8597 95.1363 97.8808C95.1628 97.9019 95.1963 97.9119 95.2297 97.9083C95.2632 97.9046 95.2939 97.8877 95.315 97.8615C95.3365 97.8349 95.3462 97.8015 95.3425 97.768C95.4333 97.0842 95.4571 96.3935 95.414 95.7055C95.4103 95.0277 95.331 94.3525 95.1775 93.6925C97.658 93.357 105.242 92.334 106.276 90.2165C107.497 87.802 107.399 84.6615 106.893 82.0435ZM56.8425 73.1885C56.903 73.04 58.7455 72.6385 60.7585 73.1885C60.7768 73.1844 60.7961 73.1849 60.8144 73.1894C60.8328 73.1936 60.8497 73.2023 60.8644 73.2137C60.879 73.2256 60.891 73.2408 60.8987 73.2577C60.907 73.2747 60.9111 73.2935 60.9111 73.3123C60.9111 73.3311 60.907 73.3499 60.8987 73.3668C60.891 73.3838 60.879 73.3989 60.8644 73.4104C60.8497 73.4223 60.8328 73.431 60.8144 73.4351C60.7961 73.4397 60.7768 73.4397 60.7585 73.436C59.7561 73.6139 58.7327 73.64 57.7225 73.513C57.2495 73.436 56.65 73.4305 56.826 73.1885H56.8425ZM85.118 86.2675C80.0305 87.2355 51.9255 87.0155 51.502 86.8175C51.0785 86.6195 51.04 85.9815 51.029 85.5635C54.076 86.5535 83.8475 85.789 85.503 84.9145C85.591 85.3985 85.613 86.174 85.1015 86.2675H85.118ZM74.4425 73.249C74.4425 73.062 75.6525 72.9575 75.7075 72.952C76.4271 72.8966 77.1494 72.8966 77.869 72.952C78.2705 72.996 78.826 73.051 78.782 73.2215C78.738 73.392 77.9075 73.4635 77.7645 73.4855C77.2269 73.535 76.6874 73.557 76.1475 73.5515C75.7845 73.5405 74.404 73.4745 74.426 73.249H74.4425ZM81.51 75.0805C82.8859 77.7022 84.0414 80.4343 84.964 83.248C85.0813 83.6032 85.1464 83.974 85.1565 84.348C82.676 85.118 54.087 85.91 51.194 85.0795C51.0565 85.041 51.018 85.0795 50.985 84.8485C50.776 83.3525 53.2235 77.407 53.79 76.021C64.196 75.6745 81.4 75.141 81.4935 75.0805H81.51ZM76.879 38.72C76.2777 38.3896 75.7318 37.9664 75.262 37.466C75.0475 37.1415 75.097 36.916 75.7295 37.224C76.1255 37.4055 76.681 37.73 77.055 37.9555C76.9588 38.2002 76.8996 38.4579 76.879 38.72ZM90.079 39.7045C90.519 38.9125 90.9535 38.687 90.9095 39.1545C90.673 39.9911 90.337 40.7962 89.9085 41.5525C89.8755 41.0025 89.837 40.634 89.793 40.271C89.815 40.194 89.925 39.963 90.0625 39.7045H90.079ZM87.7415 44.4895C87.8515 44.803 87.923 44.99 87.9285 45.001C87.9345 45.0166 87.9436 45.0308 87.9555 45.0428C87.967 45.0549 87.9808 45.0645 87.9963 45.0711C88.0115 45.0778 88.028 45.0814 88.0449 45.0816C88.0614 45.0818 88.0779 45.0787 88.0935 45.0725C88.3355 44.979 87.978 44.7535 87.406 41.437C87.2355 40.447 86.7295 37.3945 87.7305 37.2515C88.5445 37.1305 88.9845 39.149 89.1385 39.9465C89.424 41.4837 89.6078 43.0381 89.6885 44.5995C89.688 44.63 89.6986 44.6595 89.7183 44.6828C89.738 44.706 89.7655 44.7214 89.7958 44.7261C89.8255 44.7308 89.8567 44.7245 89.8824 44.7083C89.908 44.6921 89.9273 44.6671 89.936 44.638C89.9378 44.6069 89.9378 44.5756 89.936 44.5445C90.4333 44.5591 90.9274 44.6274 91.41 44.748C91.3486 44.8197 91.2716 44.8762 91.1845 44.913C90.0295 45.507 86.537 45.3915 85.3325 45.3695C85.4975 45.0395 85.613 44.7865 85.7395 44.484C86.3968 44.592 87.0673 44.5939 87.725 44.4895H87.7415ZM83.4515 43.285C83.578 42.185 83.8585 40.4305 84.9695 40.6395C86.0805 40.8485 85.8 42.46 85.558 43.538C85.409 44.1564 85.2252 44.766 85.008 45.364H83.358C83.3447 44.6701 83.3704 43.976 83.435 43.285H83.4515ZM82.753 40.7C82.7787 40.6756 82.8089 40.6569 82.8424 40.645C82.8754 40.6331 82.9111 40.6282 82.946 40.6308C82.9812 40.6334 83.0156 40.6434 83.0468 40.66C83.078 40.6766 83.1055 40.6997 83.127 40.7275C83.2145 40.8152 83.2938 40.9109 83.3635 41.0135C83.2072 41.3642 83.0981 41.7341 83.039 42.1135C82.753 41.7175 82.3845 40.997 82.753 40.7ZM81.0205 37.356C81.7355 37.5815 81.1745 39.4625 80.696 40.0345C80.564 39.4425 80.3665 38.867 80.1075 38.3185C80.267 37.8345 80.5365 37.202 81.0205 37.3505V37.356ZM79.6675 44.55C79.937 44.891 80.113 45.1 80.113 45.1C80.135 45.1216 80.1639 45.1344 80.1946 45.1362C80.2253 45.1381 80.2555 45.1287 80.2794 45.1098C80.3037 45.091 80.3202 45.064 80.3261 45.0338C80.3321 45.0037 80.3266 44.9725 80.311 44.946C80.311 44.946 79.3375 43.56 78.5345 42.1245C77.9295 41.0245 77.352 39.9245 77.5115 38.709C77.638 37.752 78.144 37.345 78.9965 37.9005C80.2285 38.6925 80.7895 43.5765 80.9655 45.0505C80.9673 45.0891 80.9811 45.1261 81.0045 45.1567C81.0283 45.1872 81.0608 45.2097 81.0975 45.221C81.246 45.221 81.224 45.0615 81.2185 44.9845C81.213 44.9075 81.2185 44.5225 81.2185 44.484C81.8029 44.5579 82.3941 44.5579 82.9785 44.484C83.0115 44.8855 83.05 45.199 83.0775 45.364C81.125 45.364 78.7655 45.496 77.1485 44.8635C77.9795 44.6991 78.8214 44.5943 79.6675 44.55ZM77.033 45.3585C77.8374 45.6703 78.6853 45.8558 79.5465 45.9085C80.52 45.9965 87.1475 46.0075 87.901 45.969C89.0372 45.9502 90.1624 45.7402 91.2285 45.3475C91.3307 46.0226 91.2922 46.712 91.1153 47.372C90.9384 48.0315 90.6267 48.6475 90.2 49.181C88.8635 50.7485 80.41 51.106 78.3805 49.676C77.044 48.7575 76.802 46.9205 77.033 45.353V45.3585ZM72.6 61.5065C72.7155 61.875 20.273 61.8915 20.218 61.886C18.018 61.886 18.568 61.886 17.831 61.7045C17.633 61.6605 17.5945 61.6605 17.556 61.468C17.5094 61.166 17.4965 60.8598 17.5175 60.555C17.5291 60.5775 17.5477 60.5958 17.5706 60.6068C17.5934 60.6174 17.6192 60.6206 17.644 60.6155C17.644 60.6155 72.5835 59.8675 72.941 59.8565C73.0895 60.5 73.1115 61.0995 72.6 61.5065ZM88.0715 28.127C88.0715 28.127 88.1045 28.072 88.1155 28.0885C88.1265 28.105 88.0715 28.1215 88.044 28.127H88.0715ZM60.72 14.256C60.72 13.8985 60.863 12.5455 61.182 12.3805C61.908 12.0175 84.9805 11.7095 88.132 12.694C88.682 13.849 88.506 26.8235 88.044 28.127C85.338 28.5505 71.72 28.5175 68.178 28.8805C68.3925 24.552 68.486 20.9055 68.31 20.196C68.2761 20.1035 68.2211 20.0201 68.1496 19.9523C68.0781 19.8845 67.9919 19.8343 67.8975 19.8055C66.693 19.283 62.161 19.1345 60.841 19.0905C60.6696 17.4849 60.6293 15.8681 60.72 14.256ZM22.6875 28.105C22.605 26.95 22.198 21.12 23.298 20.713C23.848 20.5205 25.784 20.328 28.5945 20.163C33.979 19.8275 42.4655 19.558 50.1875 19.503C51.9035 19.503 66.4015 19.3765 67.8205 20.35C68.2385 22.253 66.902 43.395 66.605 45.4355C53.6085 45.859 38.2085 46.497 25.102 46.178C24.882 44.9185 23.199 35.2 22.6875 28.105ZM24.9315 46.5465C24.9326 46.5337 24.9326 46.5209 24.9315 46.508C34.199 46.794 63.2005 45.8425 66.7315 45.8205C67.122 46.728 72.6055 58.894 72.8365 59.5705C72.776 59.5705 17.6 60.3185 17.5285 60.3735C18.2215 58.0525 23.9525 48.2405 24.9315 46.5465ZM40.051 83.3965C39.644 84.1885 27.313 89.6995 24.7775 90.464C24.8267 90.2106 24.8452 89.9521 24.8325 89.694C28.578 88.396 36.707 84.9695 40.3535 82.544C40.2841 82.8401 40.1826 83.1279 40.051 83.402V83.3965ZM40.4305 82.181C39.3305 82.83 38.28 83.281 24.827 89.397C24.8276 89.1482 24.7943 88.9002 24.728 88.66C26.488 87.835 38.423 83.2095 40.5515 81.367C40.524 81.6035 40.4855 81.8895 40.4305 82.1865V82.181ZM12.1 70.895C12.3645 71.2067 12.5282 71.5912 12.5695 71.9978C12.6107 72.4043 12.5276 72.8136 12.331 73.172C12.243 73.3095 12.452 73.4525 12.54 73.3095C12.8721 72.9474 13.0684 72.4818 13.0955 71.9914C13.1225 71.5009 12.9788 71.0165 12.6885 70.62C15.3615 69.3935 17.9905 68.2385 18.711 67.925C18.8913 68.2912 18.9878 68.6927 18.9935 69.1011C18.9992 69.509 18.914 69.9133 18.744 70.2845C18.678 70.4605 18.876 70.5265 18.9695 70.411C19.272 70.0265 19.4603 69.5649 19.5129 69.0786C19.5654 68.5924 19.48 68.101 19.2665 67.661C19.8605 67.3255 21.2465 66.561 21.923 66.561C22.77 66.561 39.9575 80.542 40.2765 80.861C38.841 82.3405 25.5145 87.615 24.3925 88.154C22.0275 87.604 7.59554 75.1905 6.24254 73.9145C7.08404 73.216 11.154 71.335 12.1 70.895ZM5.82454 74.1675C7.54054 75.845 21.857 88.341 24.255 88.737C24.207 88.9442 24.1848 89.1569 24.189 89.3695C20.339 87.4885 9.33904 77.9625 5.69804 74.899C5.71454 74.899 5.79704 74.36 5.84104 74.1675H5.82454ZM5.90705 76.054C5.7519 75.818 5.67495 75.5389 5.68705 75.2565C9.28405 78.8865 19.437 87.813 24.1835 89.672C24.1738 89.9663 24.2034 90.2601 24.2715 90.5465C21.45 89.914 6.28105 76.505 5.92355 76.054H5.90705ZM106.007 90.035C102.454 97.086 6.03904 95.2435 4.47706 92.4935C3.81496 91.3427 3.36769 90.0809 3.15706 88.77C3.36923 89.2348 3.72363 89.6198 4.16906 89.87C12.265 94.5835 92.8125 93.3515 103.328 89.573C105.556 88.77 106.678 87.0375 106.931 84.623C107.08 86.477 106.759 88.3387 105.996 90.035H106.007Z"></path><path fill="#a79376" d="M23.6499 52.6295C62.5405 53.1795 66.253 52.844 67.342 52.6735C67.6005 52.635 67.7655 52.547 67.7545 52.2445C67.7545 51.447 65.8845 47.7895 65.3895 47.5365C65.1695 47.421 25.7894 47.9765 25.6519 48.0205C25.6263 48.0265 25.6023 48.0384 25.5814 48.0544C25.5606 48.0705 25.5433 48.0906 25.5309 48.114C25.1569 48.7245 23.3309 51.7385 23.4134 52.4205C23.4223 52.4773 23.4509 52.5296 23.494 52.5676C23.5372 52.6057 23.5923 52.6277 23.6499 52.6295ZM25.8114 48.4C26.2074 48.3505 64.9495 47.9655 65.186 47.9875C65.5967 48.5783 65.9643 49.1975 66.286 49.841C65.384 49.841 25.0689 50.0555 24.8599 50.061C25.1019 49.577 25.4209 49.027 25.8114 48.4ZM24.7114 50.325C24.9259 50.325 65.7195 50.116 66.418 50.0995C66.7801 50.7733 67.0661 51.4855 67.2705 52.2225C65.3125 52.536 47.4705 52.382 23.8479 52.2225C24.0686 51.5561 24.3541 50.9135 24.7004 50.303L24.7114 50.325ZM54.0045 54.4995C53.895 54.2566 53.7157 54.0517 53.4893 53.911C53.2634 53.7698 53.0003 53.6993 52.734 53.7075C51.337 53.7075 39.6054 53.383 38.5494 53.812C37.8752 54.6288 37.3536 55.5606 37.0094 56.562C36.9764 56.804 37.0974 56.914 37.2459 56.9305C40.5459 57.288 51.4855 57.629 54.3235 57.1065C54.6755 57.0405 54.7195 56.6665 54.648 56.309C54.478 55.6912 54.2625 55.0862 54.0045 54.4995ZM37.3999 56.562C37.7158 55.6696 38.1447 54.8213 38.6759 54.0375C39.5119 53.7625 50.3855 54.3345 52.7505 54.329C52.8912 54.324 53.0305 54.3597 53.1515 54.4317C53.2725 54.5041 53.3702 54.6095 53.4325 54.736C53.6997 55.3071 53.9083 55.9043 54.054 56.518C51.2655 56.9525 39.4239 56.705 37.3999 56.562ZM92.202 55.2035C91.4265 54.1365 87.538 54.186 86.2345 54.2245C85.1345 54.2245 81.136 54.406 81.136 55.484C81.1406 55.5711 81.1658 55.6564 81.2098 55.732C81.2538 55.8076 81.3152 55.8713 81.389 55.9185C81.4935 56.001 80.773 63.25 81.763 67.1385C82.0875 68.4255 82.5055 69.0635 83.732 69.597C86.086 70.62 89.991 70.3945 91.5585 68.211C91.872 67.573 91.806 65.714 91.8335 65.1475C94.27 65.6315 96.2665 64.6415 96.7835 62.018C97.108 60.3295 96.69 59.224 95.9695 58.553C95.4883 58.1611 94.919 57.8912 94.3112 57.767C93.703 57.6423 93.0737 57.6666 92.477 57.838C92.4564 57.8449 92.4339 57.8472 92.4124 57.8435C92.3904 57.8403 92.3697 57.8321 92.3523 57.8188C92.3345 57.8059 92.3198 57.789 92.3102 57.7693C92.3001 57.7496 92.295 57.728 92.2955 57.706C92.2955 57.4145 92.4 55.44 92.202 55.2035ZM81.752 55.319C83.237 54.45 89.287 54.384 91.2395 55.2695C91.3055 55.3025 91.553 55.429 91.553 55.484C91.553 55.539 91.3 55.671 91.2395 55.6985C89.7655 56.364 84.502 56.6665 81.7355 55.6545C81.543 55.55 81.7355 55.341 81.7355 55.319H81.752ZM92.631 58.399C93.131 58.2551 93.6581 58.2345 94.1678 58.3385C94.6775 58.443 95.1541 58.6694 95.557 58.9985C96.151 59.5485 96.448 60.4945 96.173 61.897C96.1185 62.3847 95.9493 62.8522 95.6798 63.2624C95.4103 63.6721 95.0478 64.0131 94.622 64.2565C93.72 64.6626 92.7043 64.7401 91.751 64.4765C91.7043 64.4596 91.6543 64.4522 91.6048 64.4554C91.5548 64.4586 91.5062 64.4719 91.4618 64.4944C91.4173 64.5173 91.3784 64.5489 91.3468 64.5874C91.3151 64.6259 91.2917 64.6704 91.278 64.7185C91.1295 65.1365 91.3385 66.825 91.036 67.892C89.6445 69.7785 86.086 69.949 83.9795 69.0635C82.9125 68.607 82.6155 68.134 82.3295 66.9955C81.5925 64.295 81.5485 58.795 81.7135 56.089C83.446 56.9085 89.4465 57.145 91.806 55.935C91.806 57.64 91.597 57.926 92.026 58.2725C92.109 58.3353 92.2048 58.3788 92.3065 58.4008C92.4078 58.4224 92.5132 58.4219 92.6145 58.399H92.631ZM39.2039 70.0535C37.7595 68.8284 36.2056 67.7385 34.5619 66.7975C33.9287 66.424 33.2552 66.1233 32.5544 65.901C31.9659 65.747 31.7184 66.0495 31.8394 66.451C32.0873 67.0276 32.415 67.5661 32.8129 68.0515C34.0784 69.6534 35.5337 71.0958 37.1469 72.347C39.5999 74.3985 42.7789 76.8845 45.0999 78.65C45.2182 78.7366 45.3525 78.7985 45.495 78.832C45.6375 78.8659 45.7853 78.8709 45.93 78.8471C46.0744 78.8228 46.2124 78.7701 46.3366 78.6917C46.4603 78.6138 46.5671 78.5116 46.651 78.3915C47.058 77.946 47.311 77.165 46.8545 76.7415C46.3265 76.2685 43.0979 73.227 39.2039 70.0535ZM33.9349 68.8325L33.1814 67.617C33.4497 67.5056 33.6765 67.3131 33.8304 67.067L35.0239 67.551C34.7244 67.6106 34.4538 67.7692 34.2561 68.002C34.0584 68.2348 33.9452 68.5273 33.9349 68.8325ZM35.6234 70.235C35.2259 69.9004 34.8579 69.5324 34.5234 69.135C34.5619 68.4695 34.7709 68.1725 35.4364 68.1505C35.8798 68.3623 36.2985 68.6226 36.6849 68.926C36.3891 68.998 36.1252 69.1653 35.9335 69.4013C35.7417 69.6378 35.6328 69.9307 35.6234 70.235ZM45.0284 78.2375C44.4179 77.726 36.2999 70.84 35.7994 70.4C35.8414 70.092 35.9759 69.8042 36.1851 69.5746C36.3942 69.3445 36.6683 69.1836 36.9709 69.113C38.8684 70.521 41.5964 72.853 46.354 76.813C46.1688 76.8034 45.9837 76.835 45.8119 76.9047C45.6401 76.9743 45.4855 77.0807 45.3592 77.2164C45.2329 77.352 45.1378 77.5138 45.0807 77.6903C45.0235 77.8667 45.0057 78.0533 45.0284 78.2375ZM88.6105 84.3315C89.298 84.799 89.7765 84.5845 90.222 83.9355C91.322 82.3735 95.172 75.46 95.172 75.405C95.172 75.35 95.216 75.4545 95.0345 73.2325C95.0267 73.1491 94.9965 73.0689 94.947 73.0011C94.8979 72.9332 94.831 72.8801 94.754 72.8471C94.677 72.8136 94.5922 72.8017 94.5092 72.8127C94.4258 72.8232 94.347 72.8562 94.281 72.908L92.4 74.2775C92.4 74.2775 88.2255 82.907 88.1815 82.984C88.1059 83.2256 88.1068 83.4845 88.1833 83.7256C88.2603 83.9667 88.4093 84.178 88.6105 84.3315ZM94.435 73.579C94.468 73.9805 94.512 74.514 94.545 74.8825C94.1366 74.6868 93.709 74.5342 93.269 74.426L94.435 73.579ZM92.862 74.8C93.3387 75.1378 93.8896 75.3569 94.468 75.438C94.3855 75.581 90.1835 83.248 90.1395 83.325C90.0116 83.0651 89.8017 82.8548 89.5423 82.7264C89.2829 82.5981 88.9882 82.5591 88.704 82.6155C89.133 81.818 92.708 75.075 92.862 74.8Z"></path><path fill="#a79376" d="M90.332 63.8935C90.2729 63.8101 90.1977 63.7395 90.1106 63.6859C90.0235 63.6322 89.9268 63.596 89.826 63.58C89.5006 63.4929 89.1701 63.4269 88.836 63.382C89.023 64.691 89.133 66.132 89.1275 66.2585C89.1192 66.3424 89.078 66.4194 89.0134 66.473C88.9483 66.5262 88.8649 66.5523 88.781 66.5445C88.6971 66.5349 88.6197 66.4927 88.5665 66.4267C88.5129 66.3612 88.4872 66.2768 88.495 66.1925C88.495 66.099 88.462 65.7195 88.4345 63.327C87.3345 63.1895 82.038 62.777 82.247 63.833C82.247 63.888 81.8125 66.583 83.4955 67.8755C85.1785 69.168 88.5445 68.915 89.7215 67.6005C90.0556 67.2004 90.2761 66.7177 90.3595 66.2035C90.4897 65.4381 90.48 64.6557 90.332 63.8935ZM91.652 58.916C91.652 59.1635 91.322 61.0555 91.102 63.5965L91.366 63.6515C92.334 63.8568 93.3419 63.7468 94.2425 63.338C94.5569 63.1634 94.8168 62.9062 94.9942 62.5937C95.172 62.2811 95.26 61.9263 95.249 61.567C95.2866 61.1206 95.2087 60.6719 95.0235 60.264C94.8383 59.856 94.5519 59.5022 94.1912 59.2368C93.8305 58.971 93.4079 58.8019 92.9633 58.7455C92.5187 58.6896 92.0677 58.7482 91.652 58.916ZM91.8995 59.103C92.2506 59.0475 92.6095 59.0677 92.9518 59.1626C93.2947 59.2575 93.6127 59.4247 93.885 59.653C94.1467 59.8927 94.3493 60.1897 94.4772 60.5211C94.605 60.852 94.6545 61.2081 94.622 61.5615C94.5725 62.975 93.1205 63.2445 91.729 63.1015C91.795 62.1005 91.85 60.951 91.8995 59.103ZM38.6651 54.0375C38.6651 54.0375 38.6706 54.043 38.6651 54.0375V54.0375ZM86.009 26.8179C86.0076 26.9159 86.0255 27.0132 86.0617 27.1042C86.0984 27.1952 86.152 27.2781 86.2208 27.3482C86.289 27.4182 86.3711 27.474 86.4609 27.5123C86.5512 27.5506 86.6479 27.5708 86.746 27.5715C86.8959 27.5747 87.043 27.5334 87.169 27.4526C87.2951 27.3718 87.3945 27.2553 87.4537 27.1179C87.5132 26.9806 87.5307 26.8286 87.5036 26.6814C87.4766 26.5341 87.406 26.3983 87.301 26.2913C87.1965 26.1843 87.0623 26.1108 86.9156 26.0804C86.7694 26.05 86.6168 26.0639 86.4783 26.1204C86.3395 26.1769 86.2208 26.2734 86.1373 26.3977C86.0539 26.5219 86.009 26.6683 86.009 26.8179ZM25.8116 44.9624C25.9381 45.2099 26.1031 45.2375 26.2076 45.1605C26.3121 45.0835 61.1435 44.7809 63.734 44.6434C64.2913 44.652 64.8468 44.5817 65.384 44.4344C66.6215 43.3344 67.1055 22.7699 66.6215 21.8184C65.384 19.3489 26.6531 20.9385 24.2716 21.659C22.3741 22.231 24.9371 43.2079 25.8116 44.9624ZM24.1671 22.5499C24.1671 22.4509 24.2881 22.0659 24.3816 22.0384C27.0161 21.2464 65.2685 19.943 66.308 22.011C66.3969 22.4247 66.4372 22.8474 66.429 23.2705C66.5225 25.6685 66.429 30.8054 66.1815 35.4089C66.132 36.2889 65.7415 43.4994 65.1695 44.1539C62.887 44.6379 27.7146 44.7479 26.1526 44.8084C25.2616 42.7404 23.3366 26.1799 24.1671 22.5499ZM86.8175 14.6904C86.9669 14.6937 87.114 14.6525 87.2401 14.5719C87.3661 14.4914 87.4651 14.3752 87.5247 14.2382C87.5848 14.1011 87.6022 13.9495 87.5756 13.8024C87.5485 13.6553 87.4789 13.5195 87.3748 13.4122C87.2703 13.305 87.137 13.2312 86.9907 13.2001C86.8445 13.1691 86.6924 13.1822 86.5535 13.2379C86.4146 13.2935 86.2959 13.3892 86.2116 13.5127C86.1272 13.6362 86.0819 13.782 86.0805 13.9314C86.0782 14.0299 86.0956 14.1278 86.1318 14.2194C86.1676 14.311 86.2217 14.3946 86.2904 14.4652C86.3587 14.5359 86.4408 14.5921 86.5315 14.6308C86.6218 14.6695 86.719 14.6898 86.8175 14.6904Z"></path><path fill="#a79376" d="M34.9307 36.4099H41.4647C42.2207 36.407 42.9448 36.1042 43.478 35.568C44.011 35.0319 44.3096 34.3061 44.3082 33.5499V28.2479C44.3082 27.4902 44.0099 26.7629 43.4777 26.2235C42.9455 25.6842 42.2223 25.3761 41.4647 25.3659H34.9307C34.5518 25.3645 34.1764 25.438 33.8261 25.5824C33.4757 25.7267 33.1574 25.9389 32.8895 26.2068C32.6216 26.4747 32.4094 26.793 32.2651 27.1433C32.1208 27.4937 32.0472 27.8691 32.0487 28.2479V33.5499C32.0501 33.927 32.1258 34.3 32.2714 34.6478C32.417 34.9956 32.6297 35.3113 32.8973 35.5768C33.165 35.8424 33.4823 36.0527 33.8311 36.1956C34.18 36.3386 34.5537 36.4114 34.9307 36.4099ZM32.5162 28.2479C32.5262 27.6122 32.7843 27.0056 33.2354 26.5576C33.6865 26.1095 34.2949 25.8556 34.9307 25.8499H41.4647C41.7857 25.8463 42.1044 25.9063 42.4022 26.0265C42.6999 26.1467 42.9709 26.3247 43.1995 26.5502C43.4281 26.7758 43.6097 27.0443 43.7339 27.3404C43.8581 27.6365 43.9224 27.9543 43.9232 28.2754V33.5499C43.9217 33.8714 43.857 34.1893 43.7327 34.4857C43.6083 34.7821 43.4268 35.0511 43.1986 35.2774C42.9703 35.5036 42.6996 35.6827 42.4021 35.8043C42.1046 35.926 41.7861 35.9879 41.4647 35.9864H34.9307C34.6121 35.985 34.297 35.9209 34.0033 35.7976C33.7096 35.6744 33.443 35.4945 33.2188 35.2683C32.9946 35.042 32.8171 34.7738 32.6966 34.479C32.576 34.1841 32.5147 33.8685 32.5162 33.5499V28.2479ZM52.5965 40.3369C52.7065 40.6614 52.9815 40.5899 53.0585 40.3864C53.163 40.0949 53.7735 37.9994 53.8505 37.6364C54.274 37.5044 53.0805 37.9169 56.771 36.5749C56.8095 36.5601 56.842 36.5341 56.8654 36.5002C56.8888 36.4663 56.9012 36.4263 56.9012 36.3852C56.9012 36.3441 56.8888 36.3041 56.8654 36.2702C56.842 36.2363 56.8095 36.2103 56.771 36.1954L51.117 33.9349C51.0822 33.9185 51.0437 33.9115 51.0056 33.9145C50.9671 33.9176 50.9305 33.9305 50.8988 33.9523C50.8672 33.9739 50.8415 34.0036 50.825 34.0382C50.8081 34.0728 50.8007 34.1111 50.8035 34.1494C50.8035 34.1494 52.294 39.4624 52.5965 40.3369ZM51.37 34.5234L56.133 36.3989C55.495 36.6354 54.417 37.0424 53.9 37.2514C53.669 37.3394 53.5755 37.3779 53.5205 37.4494C53.4655 37.5209 53.658 37.0919 52.8495 39.5834L51.37 34.5234ZM64.35 18.3974C64.3564 18.4304 64.3743 18.4601 64.4004 18.4812C64.4265 18.5024 64.4595 18.5136 64.493 18.5129C64.6085 18.5129 68.167 18.8539 68.893 18.6614C69.3605 18.5349 69.443 17.7099 69.487 17.2259C69.542 16.4944 69.487 14.7014 69.179 14.0909C68.761 13.2659 65.6755 13.5409 64.779 13.7004C64.5411 13.7339 64.3138 13.8204 64.1135 13.9534C63.9971 14.0887 63.9292 14.2591 63.921 14.4374C63.9155 15.7693 64.0594 17.0976 64.35 18.3974ZM64.5095 14.3769C65.3785 14.1074 67.8535 14.0029 68.64 14.3769C68.9095 15.0919 69.0525 17.5504 68.728 18.1224C68.2165 18.2544 65.0925 18.2544 64.57 18.2599C64.5535 17.8309 64.3005 15.5154 64.5095 14.3769ZM71.731 18.3754C71.7383 18.4079 71.7567 18.437 71.7823 18.458C71.8085 18.4789 71.8405 18.4905 71.874 18.4909C71.9895 18.4909 75.548 18.8319 76.274 18.6394C76.7415 18.5129 76.824 17.6879 76.8735 17.2039C76.923 16.4724 76.8735 14.6794 76.56 14.0689C76.142 13.2384 73.0565 13.5189 72.16 13.6784C71.9226 13.7142 71.6957 13.8005 71.4945 13.9314C71.3804 14.0682 71.313 14.2377 71.302 14.4154C71.297 15.7473 71.4409 17.0756 71.731 18.3754ZM71.8905 14.3549C72.7595 14.0799 75.2345 13.9809 76.021 14.3549C76.2905 15.0699 76.4335 17.5284 76.109 18.0949C75.5975 18.2324 72.4735 18.2324 71.951 18.2379C71.9345 17.8089 71.6815 15.4934 71.8905 14.3549ZM79.453 18.6174C79.4594 18.6504 79.4773 18.6801 79.5034 18.7012C79.5295 18.7224 79.5625 18.7336 79.596 18.7329C79.7115 18.7329 83.27 19.0739 83.996 18.8814C84.4635 18.7549 84.546 17.9299 84.59 17.4459C84.645 16.7144 84.59 14.9214 84.282 14.3109C83.864 13.4859 80.7785 13.7609 79.882 13.9204C79.6446 13.9553 79.4172 14.0417 79.2165 14.1734C79.1001 14.3087 79.0322 14.4791 79.024 14.6574C79.0185 15.9893 79.1624 17.3176 79.453 18.6174ZM79.6125 14.5969C80.4815 14.3274 82.9565 14.2229 83.743 14.5969C84.0125 15.3119 84.1555 17.7704 83.831 18.3424C83.3195 18.4744 80.1955 18.4744 79.673 18.4799C79.6565 18.0509 79.4035 15.7354 79.6125 14.5969ZM71.7805 26.8344C71.819 26.9444 71.907 26.9554 71.9235 26.9499C72.0445 26.9499 75.5975 27.2909 76.3235 27.0984C76.791 26.9719 76.8735 26.1469 76.923 25.6629C76.9725 24.9314 76.923 23.1384 76.615 22.5334C76.1915 21.7029 73.106 21.9834 72.215 22.1374C71.9753 22.1715 71.7466 22.2579 71.544 22.3904C71.429 22.5286 71.3611 22.7003 71.3515 22.8799C71.3465 24.21 71.4904 25.5364 71.7805 26.8344ZM71.9455 22.8139C72.8145 22.5444 75.284 22.4399 76.0705 22.8139C76.34 23.5289 76.483 25.9874 76.1585 26.5594C75.647 26.6914 72.5285 26.6914 72.006 26.6969C71.984 26.2679 71.731 23.9524 71.9455 22.8139ZM84.6395 22.3079C85.5195 21.0099 86.2895 19.8384 86.317 19.7834C86.3445 19.7284 85.943 19.2334 85.7065 19.5854C84.0235 22.1759 84.2545 21.9284 84.1335 21.8844C83.1655 21.5324 80.0415 21.6534 79.552 22.1099C79.222 22.4179 79.3485 23.5344 79.387 24.0129C79.035 23.8149 78.7655 23.6719 78.6665 23.6334C78.4135 23.5344 78.43 23.7819 78.5675 23.8699L79.4255 24.4199C79.4952 25.1427 79.607 25.8608 79.761 26.5704C79.7665 26.6039 79.7839 26.6343 79.8105 26.6556C79.8366 26.6769 79.8701 26.6877 79.904 26.6859C80.0195 26.6859 83.578 27.0269 84.304 26.8344C85.25 26.5704 84.9585 23.0999 84.6395 22.3079ZM79.9205 22.5334C81.2144 22.2391 82.555 22.2147 83.8585 22.4619L81.95 25.4704C81.7575 25.3604 80.729 24.7554 79.871 24.2714C79.8348 23.6973 79.8513 23.1211 79.9205 22.5499V22.5334ZM84.139 26.2734C83.622 26.4109 80.5035 26.4109 79.981 26.4164C79.981 26.1964 79.8985 25.4759 79.86 24.6784L81.95 25.9764C82.0027 25.9822 82.0563 25.9729 82.104 25.9495C82.1517 25.9262 82.1915 25.8897 82.2195 25.8444C82.3955 25.6189 83.281 24.3319 84.183 23.0064C84.3535 23.9964 84.4085 25.8004 84.15 26.2734H84.139ZM62.271 14.5089C62.4204 14.5111 62.5666 14.4689 62.6922 14.3877C62.8173 14.3065 62.9154 14.1899 62.9745 14.0528C63.0332 13.9156 63.0502 13.7641 63.0227 13.6173C62.9952 13.4706 62.925 13.3353 62.8205 13.2286C62.716 13.1219 62.5827 13.0486 62.4365 13.018C62.2903 12.9874 62.1385 13.0009 62.0001 13.0568C61.8617 13.1126 61.743 13.2083 61.6591 13.3317C61.5752 13.4551 61.5294 13.6007 61.5285 13.7499C61.5285 13.9484 61.606 14.139 61.7448 14.2809C61.8837 14.4228 62.0725 14.5046 62.271 14.5089Z"></path></g></svg>