<svg width="2335" height="371" viewBox="0 0 2335 371" fill="none" xmlns="http://www.w3.org/2000/svg">
<path d="M195.663 173.963V164.455H240.461V173.963H223.762V219H212.363V173.963H195.663ZM272.793 201.582V178.091H284.139V219H273.246V211.569H272.82C271.896 213.966 270.36 215.893 268.212 217.349C266.081 218.805 263.48 219.533 260.408 219.533C257.674 219.533 255.268 218.911 253.191 217.668C251.113 216.425 249.489 214.659 248.317 212.368C247.163 210.078 246.577 207.335 246.559 204.138V178.091H257.905V202.114C257.923 204.529 258.571 206.438 259.849 207.841C261.127 209.243 262.841 209.945 264.989 209.945C266.357 209.945 267.635 209.634 268.825 209.012C270.014 208.373 270.973 207.432 271.701 206.189C272.447 204.946 272.811 203.411 272.793 201.582ZM319.474 178.091V186.614H294.838V178.091H319.474ZM300.431 168.29H311.777V206.429C311.777 207.477 311.937 208.293 312.256 208.879C312.576 209.447 313.02 209.847 313.588 210.078C314.174 210.309 314.848 210.424 315.612 210.424C316.145 210.424 316.677 210.38 317.21 210.291C317.743 210.184 318.151 210.104 318.435 210.051L320.22 218.494C319.651 218.672 318.852 218.876 317.823 219.107C316.793 219.355 315.541 219.506 314.067 219.559C311.333 219.666 308.936 219.302 306.876 218.467C304.834 217.633 303.245 216.337 302.109 214.579C300.972 212.821 300.413 210.602 300.431 207.92V168.29ZM349.409 219.799C345.272 219.799 341.694 218.92 338.676 217.162C335.675 215.387 333.358 212.919 331.724 209.758C330.091 206.58 329.274 202.896 329.274 198.705C329.274 194.479 330.091 190.786 331.724 187.626C333.358 184.447 335.675 181.979 338.676 180.222C341.694 178.446 345.272 177.558 349.409 177.558C353.546 177.558 357.115 178.446 360.116 180.222C363.134 181.979 365.46 184.447 367.093 187.626C368.727 190.786 369.544 194.479 369.544 198.705C369.544 202.896 368.727 206.58 367.093 209.758C365.46 212.919 363.134 215.387 360.116 217.162C357.115 218.92 353.546 219.799 349.409 219.799ZM349.462 211.01C351.344 211.01 352.916 210.477 354.176 209.412C355.437 208.329 356.387 206.855 357.026 204.991C357.683 203.126 358.011 201.005 358.011 198.625C358.011 196.246 357.683 194.124 357.026 192.26C356.387 190.396 355.437 188.922 354.176 187.839C352.916 186.756 351.344 186.214 349.462 186.214C347.562 186.214 345.964 186.756 344.668 187.839C343.39 188.922 342.422 190.396 341.765 192.26C341.126 194.124 340.806 196.246 340.806 198.625C340.806 201.005 341.126 203.126 341.765 204.991C342.422 206.855 343.39 208.329 344.668 209.412C345.964 210.477 347.562 211.01 349.462 211.01ZM381.421 219V178.091H392.421V185.229H392.847C393.593 182.69 394.845 180.772 396.602 179.476C398.36 178.162 400.384 177.505 402.675 177.505C403.243 177.505 403.856 177.54 404.513 177.612C405.169 177.683 405.747 177.78 406.244 177.904V187.972C405.711 187.812 404.974 187.67 404.033 187.546C403.092 187.422 402.231 187.359 401.45 187.359C399.781 187.359 398.289 187.723 396.975 188.451C395.679 189.162 394.649 190.156 393.886 191.434C393.14 192.713 392.767 194.186 392.767 195.855V219H381.421ZM416.61 219V178.091H427.956V219H416.61ZM422.309 172.817C420.623 172.817 419.175 172.258 417.968 171.14C416.778 170.003 416.184 168.645 416.184 167.065C416.184 165.502 416.778 164.162 417.968 163.043C419.175 161.907 420.623 161.338 422.309 161.338C423.996 161.338 425.434 161.907 426.624 163.043C427.831 164.162 428.435 165.502 428.435 167.065C428.435 168.645 427.831 170.003 426.624 171.14C425.434 172.258 423.996 172.817 422.309 172.817ZM453.21 219.772C450.6 219.772 448.274 219.32 446.232 218.414C444.19 217.491 442.574 216.132 441.384 214.339C440.213 212.528 439.627 210.273 439.627 207.574C439.627 205.301 440.044 203.393 440.878 201.848C441.713 200.303 442.849 199.06 444.288 198.119C445.726 197.178 447.359 196.468 449.188 195.989C451.035 195.509 452.97 195.172 454.994 194.977C457.373 194.728 459.291 194.497 460.747 194.284C462.203 194.053 463.26 193.716 463.916 193.272C464.573 192.828 464.902 192.171 464.902 191.301V191.141C464.902 189.455 464.369 188.15 463.304 187.226C462.256 186.303 460.765 185.841 458.829 185.841C456.788 185.841 455.163 186.294 453.956 187.2C452.748 188.087 451.949 189.206 451.559 190.555L441.065 189.703C441.598 187.217 442.645 185.069 444.208 183.258C445.77 181.429 447.785 180.026 450.253 179.05C452.739 178.055 455.616 177.558 458.883 177.558C461.155 177.558 463.331 177.825 465.408 178.357C467.503 178.89 469.359 179.716 470.974 180.834C472.608 181.953 473.895 183.391 474.836 185.149C475.777 186.889 476.248 188.975 476.248 191.408V219H465.488V213.327H465.168C464.511 214.605 463.632 215.733 462.532 216.71C461.431 217.668 460.108 218.423 458.563 218.973C457.018 219.506 455.234 219.772 453.21 219.772ZM456.459 211.942C458.128 211.942 459.602 211.614 460.88 210.957C462.159 210.282 463.162 209.376 463.89 208.24C464.618 207.104 464.982 205.816 464.982 204.378V200.037C464.627 200.268 464.138 200.481 463.517 200.676C462.913 200.854 462.23 201.022 461.466 201.182C460.703 201.324 459.939 201.457 459.176 201.582C458.412 201.688 457.72 201.786 457.098 201.875C455.767 202.07 454.604 202.381 453.609 202.807C452.615 203.233 451.843 203.81 451.292 204.538C450.742 205.248 450.467 206.136 450.467 207.201C450.467 208.746 451.026 209.927 452.144 210.744C453.281 211.543 454.719 211.942 456.459 211.942ZM500.896 164.455V219H489.55V164.455H500.896ZM548.522 189.756L538.135 190.396C537.958 189.508 537.576 188.709 536.99 187.999C536.404 187.271 535.632 186.694 534.673 186.267C533.732 185.824 532.604 185.602 531.29 185.602C529.533 185.602 528.05 185.974 526.843 186.72C525.635 187.448 525.032 188.425 525.032 189.65C525.032 190.626 525.422 191.452 526.203 192.127C526.985 192.801 528.325 193.343 530.225 193.751L537.629 195.243C541.607 196.06 544.572 197.374 546.525 199.185C548.478 200.996 549.455 203.375 549.455 206.322C549.455 209.004 548.664 211.356 547.084 213.38C545.522 215.404 543.373 216.985 540.639 218.121C537.922 219.24 534.788 219.799 531.237 219.799C525.822 219.799 521.507 218.672 518.293 216.417C515.097 214.144 513.224 211.054 512.674 207.148L523.833 206.562C524.17 208.213 524.987 209.474 526.283 210.344C527.58 211.196 529.24 211.623 531.264 211.623C533.252 211.623 534.85 211.241 536.058 210.477C537.283 209.696 537.904 208.693 537.922 207.468C537.904 206.438 537.469 205.594 536.617 204.938C535.765 204.263 534.451 203.748 532.675 203.393L525.591 201.981C521.596 201.182 518.622 199.797 516.669 197.826C514.733 195.855 513.766 193.343 513.766 190.289C513.766 187.661 514.476 185.397 515.896 183.498C517.335 181.598 519.35 180.133 521.942 179.103C524.552 178.073 527.606 177.558 531.104 177.558C536.271 177.558 540.337 178.65 543.302 180.834C546.285 183.018 548.025 185.992 548.522 189.756Z" fill="#3D3D3D" fill-opacity="0.19"/>
<path d="M524.663 54.9627V45.4545H569.461V54.9627H552.762V100H541.363V54.9627H524.663ZM601.793 82.5817V59.0909H613.139V100H602.246V92.5692H601.82C600.896 94.9663 599.36 96.8928 597.212 98.3487C595.081 99.8047 592.48 100.533 589.408 100.533C586.674 100.533 584.268 99.9112 582.191 98.6683C580.113 97.4254 578.489 95.6587 577.317 93.3683C576.163 91.0778 575.577 88.3345 575.559 85.1385V59.0909H586.905V83.1143C586.923 85.5291 587.571 87.4379 588.849 88.8406C590.127 90.2433 591.841 90.9446 593.989 90.9446C595.357 90.9446 596.635 90.6339 597.825 90.0124C599.014 89.3732 599.973 88.4322 600.701 87.1893C601.447 85.9464 601.811 84.4105 601.793 82.5817ZM648.474 59.0909V67.6136H623.838V59.0909H648.474ZM629.431 49.2898H640.777V87.429C640.777 88.4766 640.937 89.2933 641.256 89.8793C641.576 90.4474 642.02 90.8469 642.588 91.0778C643.174 91.3086 643.848 91.424 644.612 91.424C645.145 91.424 645.677 91.3796 646.21 91.2908C646.743 91.1843 647.151 91.1044 647.435 91.0511L649.22 99.494C648.651 99.6715 647.852 99.8757 646.823 100.107C645.793 100.355 644.541 100.506 643.067 100.559C640.333 100.666 637.936 100.302 635.876 99.4673C633.834 98.6328 632.245 97.3366 631.109 95.5788C629.972 93.821 629.413 91.6016 629.431 88.9205V49.2898ZM678.409 100.799C674.272 100.799 670.694 99.9201 667.676 98.1623C664.675 96.3867 662.358 93.9187 660.724 90.7582C659.091 87.5799 658.274 83.8956 658.274 79.7053C658.274 75.4794 659.091 71.7862 660.724 68.6257C662.358 65.4474 664.675 62.9794 667.676 61.2216C670.694 59.446 674.272 58.5582 678.409 58.5582C682.546 58.5582 686.115 59.446 689.116 61.2216C692.134 62.9794 694.46 65.4474 696.093 68.6257C697.727 71.7862 698.544 75.4794 698.544 79.7053C698.544 83.8956 697.727 87.5799 696.093 90.7582C694.46 93.9187 692.134 96.3867 689.116 98.1623C686.115 99.9201 682.546 100.799 678.409 100.799ZM678.462 92.0099C680.344 92.0099 681.916 91.4773 683.176 90.4119C684.437 89.3288 685.387 87.8551 686.026 85.9908C686.683 84.1264 687.011 82.0046 687.011 79.6254C687.011 77.2461 686.683 75.1243 686.026 73.2599C685.387 71.3956 684.437 69.9219 683.176 68.8388C681.916 67.7557 680.344 67.2141 678.462 67.2141C676.562 67.2141 674.964 67.7557 673.668 68.8388C672.39 69.9219 671.422 71.3956 670.765 73.2599C670.126 75.1243 669.806 77.2461 669.806 79.6254C669.806 82.0046 670.126 84.1264 670.765 85.9908C671.422 87.8551 672.39 89.3288 673.668 90.4119C674.964 91.4773 676.562 92.0099 678.462 92.0099ZM710.421 100V59.0909H721.421V66.2287H721.847C722.593 63.6896 723.845 61.772 725.602 60.4759C727.36 59.1619 729.384 58.505 731.675 58.505C732.243 58.505 732.856 58.5405 733.513 58.6115C734.169 58.6825 734.747 58.7802 735.244 58.9045V68.9719C734.711 68.8121 733.974 68.6701 733.033 68.5458C732.092 68.4215 731.231 68.3594 730.45 68.3594C728.781 68.3594 727.289 68.7234 725.975 69.4513C724.679 70.1616 723.649 71.1559 722.886 72.4343C722.14 73.7127 721.767 75.1864 721.767 76.8555V100H710.421ZM745.61 100V59.0909H756.956V100H745.61ZM751.309 53.8175C749.623 53.8175 748.175 53.2582 746.968 52.1396C745.778 51.0032 745.184 49.6449 745.184 48.0646C745.184 46.5021 745.778 45.1616 746.968 44.043C748.175 42.9066 749.623 42.3384 751.309 42.3384C752.996 42.3384 754.434 42.9066 755.624 44.043C756.831 45.1616 757.435 46.5021 757.435 48.0646C757.435 49.6449 756.831 51.0032 755.624 52.1396C754.434 53.2582 752.996 53.8175 751.309 53.8175ZM782.21 100.772C779.6 100.772 777.274 100.32 775.232 99.4141C773.19 98.4908 771.574 97.1325 770.384 95.3391C769.213 93.5281 768.627 91.2731 768.627 88.5742C768.627 86.3015 769.044 84.3928 769.878 82.848C770.713 81.3033 771.849 80.0604 773.288 79.1193C774.726 78.1783 776.359 77.468 778.188 76.9886C780.035 76.5092 781.97 76.1719 783.994 75.9766C786.373 75.728 788.291 75.4972 789.747 75.2841C791.203 75.0533 792.26 74.7159 792.916 74.272C793.573 73.8281 793.902 73.1712 793.902 72.3011V72.1413C793.902 70.4545 793.369 69.1495 792.304 68.2262C791.256 67.3029 789.765 66.8413 787.829 66.8413C785.788 66.8413 784.163 67.294 782.956 68.1996C781.748 69.0874 780.949 70.206 780.559 71.5554L770.065 70.7031C770.598 68.2173 771.645 66.0689 773.208 64.2578C774.77 62.429 776.785 61.0263 779.253 60.0497C781.739 59.0554 784.616 58.5582 787.883 58.5582C790.155 58.5582 792.331 58.8246 794.408 59.3572C796.503 59.8899 798.359 60.7156 799.974 61.8342C801.608 62.9528 802.895 64.391 803.836 66.1488C804.777 67.8888 805.248 69.9751 805.248 72.4077V100H794.488V94.3271H794.168C793.511 95.6055 792.632 96.733 791.532 97.7095C790.431 98.6683 789.108 99.4229 787.563 99.9734C786.018 100.506 784.234 100.772 782.21 100.772ZM785.459 92.9421C787.128 92.9421 788.602 92.6136 789.88 91.9567C791.159 91.282 792.162 90.3764 792.89 89.2401C793.618 88.1037 793.982 86.8164 793.982 85.3782V81.0369C793.627 81.2678 793.138 81.4808 792.517 81.6761C791.913 81.8537 791.23 82.0224 790.466 82.1822C789.703 82.3242 788.939 82.4574 788.176 82.5817C787.412 82.6882 786.72 82.7859 786.098 82.8746C784.767 83.07 783.604 83.3807 782.609 83.8068C781.615 84.233 780.843 84.81 780.292 85.538C779.742 86.2482 779.467 87.136 779.467 88.2013C779.467 89.7461 780.026 90.9268 781.144 91.7436C782.281 92.5426 783.719 92.9421 785.459 92.9421ZM829.896 45.4545V100H818.55V45.4545H829.896ZM877.522 70.7564L867.135 71.3956C866.958 70.5078 866.576 69.7088 865.99 68.9986C865.404 68.2706 864.632 67.6935 863.673 67.2674C862.732 66.8235 861.604 66.6016 860.29 66.6016C858.533 66.6016 857.05 66.9744 855.843 67.7202C854.635 68.4482 854.032 69.4247 854.032 70.6499C854.032 71.6264 854.422 72.4521 855.203 73.1268C855.985 73.8015 857.325 74.343 859.225 74.7514L866.629 76.2429C870.607 77.0597 873.572 78.3736 875.525 80.1847C877.478 81.9957 878.455 84.375 878.455 87.3224C878.455 90.0036 877.664 92.3562 876.084 94.3803C874.522 96.4045 872.373 97.9847 869.639 99.1211C866.922 100.24 863.788 100.799 860.237 100.799C854.822 100.799 850.507 99.6715 847.293 97.4165C844.097 95.1438 842.224 92.0543 841.674 88.1481L852.833 87.5621C853.17 89.2134 853.987 90.4741 855.283 91.3441C856.58 92.1964 858.24 92.6225 860.264 92.6225C862.252 92.6225 863.85 92.2408 865.058 91.4773C866.283 90.696 866.904 89.6928 866.922 88.4677C866.904 87.4379 866.469 86.5945 865.617 85.9375C864.765 85.2628 863.451 84.7479 861.675 84.3928L854.591 82.9812C850.596 82.1822 847.622 80.7972 845.669 78.8263C843.733 76.8555 842.766 74.343 842.766 71.2891C842.766 68.6612 843.476 66.3974 844.896 64.4975C846.335 62.5977 848.35 61.1328 850.942 60.103C853.552 59.0732 856.606 58.5582 860.104 58.5582C865.271 58.5582 869.337 59.6502 872.302 61.8342C875.285 64.0181 877.025 66.9922 877.522 70.7564Z" fill="#3D3D3D" fill-opacity="0.19"/>
<path d="M1047.66 279.963V270.455H1092.46V279.963H1075.76V325H1064.36V279.963H1047.66ZM1124.79 307.582V284.091H1136.14V325H1125.25V317.569H1124.82C1123.9 319.966 1122.36 321.893 1120.21 323.349C1118.08 324.805 1115.48 325.533 1112.41 325.533C1109.67 325.533 1107.27 324.911 1105.19 323.668C1103.11 322.425 1101.49 320.659 1100.32 318.368C1099.16 316.078 1098.58 313.335 1098.56 310.138V284.091H1109.9V308.114C1109.92 310.529 1110.57 312.438 1111.85 313.841C1113.13 315.243 1114.84 315.945 1116.99 315.945C1118.36 315.945 1119.63 315.634 1120.82 315.012C1122.01 314.373 1122.97 313.432 1123.7 312.189C1124.45 310.946 1124.81 309.411 1124.79 307.582ZM1171.47 284.091V292.614H1146.84V284.091H1171.47ZM1152.43 274.29H1163.78V312.429C1163.78 313.477 1163.94 314.293 1164.26 314.879C1164.58 315.447 1165.02 315.847 1165.59 316.078C1166.17 316.309 1166.85 316.424 1167.61 316.424C1168.14 316.424 1168.68 316.38 1169.21 316.291C1169.74 316.184 1170.15 316.104 1170.44 316.051L1172.22 324.494C1171.65 324.672 1170.85 324.876 1169.82 325.107C1168.79 325.355 1167.54 325.506 1166.07 325.559C1163.33 325.666 1160.94 325.302 1158.88 324.467C1156.83 323.633 1155.25 322.337 1154.11 320.579C1152.97 318.821 1152.41 316.602 1152.43 313.92V274.29ZM1201.41 325.799C1197.27 325.799 1193.69 324.92 1190.68 323.162C1187.67 321.387 1185.36 318.919 1183.72 315.758C1182.09 312.58 1181.27 308.896 1181.27 304.705C1181.27 300.479 1182.09 296.786 1183.72 293.626C1185.36 290.447 1187.67 287.979 1190.68 286.222C1193.69 284.446 1197.27 283.558 1201.41 283.558C1205.55 283.558 1209.11 284.446 1212.12 286.222C1215.13 287.979 1217.46 290.447 1219.09 293.626C1220.73 296.786 1221.54 300.479 1221.54 304.705C1221.54 308.896 1220.73 312.58 1219.09 315.758C1217.46 318.919 1215.13 321.387 1212.12 323.162C1209.11 324.92 1205.55 325.799 1201.41 325.799ZM1201.46 317.01C1203.34 317.01 1204.92 316.477 1206.18 315.412C1207.44 314.329 1208.39 312.855 1209.03 310.991C1209.68 309.126 1210.01 307.005 1210.01 304.625C1210.01 302.246 1209.68 300.124 1209.03 298.26C1208.39 296.396 1207.44 294.922 1206.18 293.839C1204.92 292.756 1203.34 292.214 1201.46 292.214C1199.56 292.214 1197.96 292.756 1196.67 293.839C1195.39 294.922 1194.42 296.396 1193.77 298.26C1193.13 300.124 1192.81 302.246 1192.81 304.625C1192.81 307.005 1193.13 309.126 1193.77 310.991C1194.42 312.855 1195.39 314.329 1196.67 315.412C1197.96 316.477 1199.56 317.01 1201.46 317.01ZM1233.42 325V284.091H1244.42V291.229H1244.85C1245.59 288.69 1246.84 286.772 1248.6 285.476C1250.36 284.162 1252.38 283.505 1254.67 283.505C1255.24 283.505 1255.86 283.54 1256.51 283.612C1257.17 283.683 1257.75 283.78 1258.24 283.904V293.972C1257.71 293.812 1256.97 293.67 1256.03 293.546C1255.09 293.422 1254.23 293.359 1253.45 293.359C1251.78 293.359 1250.29 293.723 1248.98 294.451C1247.68 295.162 1246.65 296.156 1245.89 297.434C1245.14 298.713 1244.77 300.186 1244.77 301.855V325H1233.42ZM1268.61 325V284.091H1279.96V325H1268.61ZM1274.31 278.817C1272.62 278.817 1271.18 278.258 1269.97 277.14C1268.78 276.003 1268.18 274.645 1268.18 273.065C1268.18 271.502 1268.78 270.162 1269.97 269.043C1271.18 267.907 1272.62 267.338 1274.31 267.338C1276 267.338 1277.43 267.907 1278.62 269.043C1279.83 270.162 1280.44 271.502 1280.44 273.065C1280.44 274.645 1279.83 276.003 1278.62 277.14C1277.43 278.258 1276 278.817 1274.31 278.817ZM1305.21 325.772C1302.6 325.772 1300.27 325.32 1298.23 324.414C1296.19 323.491 1294.57 322.132 1293.38 320.339C1292.21 318.528 1291.63 316.273 1291.63 313.574C1291.63 311.301 1292.04 309.393 1292.88 307.848C1293.71 306.303 1294.85 305.06 1296.29 304.119C1297.73 303.178 1299.36 302.468 1301.19 301.989C1303.03 301.509 1304.97 301.172 1306.99 300.977C1309.37 300.728 1311.29 300.497 1312.75 300.284C1314.2 300.053 1315.26 299.716 1315.92 299.272C1316.57 298.828 1316.9 298.171 1316.9 297.301V297.141C1316.9 295.455 1316.37 294.15 1315.3 293.226C1314.26 292.303 1312.76 291.841 1310.83 291.841C1308.79 291.841 1307.16 292.294 1305.96 293.2C1304.75 294.087 1303.95 295.206 1303.56 296.555L1293.06 295.703C1293.6 293.217 1294.65 291.069 1296.21 289.258C1297.77 287.429 1299.79 286.026 1302.25 285.05C1304.74 284.055 1307.62 283.558 1310.88 283.558C1313.16 283.558 1315.33 283.825 1317.41 284.357C1319.5 284.89 1321.36 285.716 1322.97 286.834C1324.61 287.953 1325.9 289.391 1326.84 291.149C1327.78 292.889 1328.25 294.975 1328.25 297.408V325H1317.49V319.327H1317.17C1316.51 320.605 1315.63 321.733 1314.53 322.71C1313.43 323.668 1312.11 324.423 1310.56 324.973C1309.02 325.506 1307.23 325.772 1305.21 325.772ZM1308.46 317.942C1310.13 317.942 1311.6 317.614 1312.88 316.957C1314.16 316.282 1315.16 315.376 1315.89 314.24C1316.62 313.104 1316.98 311.816 1316.98 310.378V306.037C1316.63 306.268 1316.14 306.481 1315.52 306.676C1314.91 306.854 1314.23 307.022 1313.47 307.182C1312.7 307.324 1311.94 307.457 1311.18 307.582C1310.41 307.688 1309.72 307.786 1309.1 307.875C1307.77 308.07 1306.6 308.381 1305.61 308.807C1304.61 309.233 1303.84 309.81 1303.29 310.538C1302.74 311.248 1302.47 312.136 1302.47 313.201C1302.47 314.746 1303.03 315.927 1304.14 316.744C1305.28 317.543 1306.72 317.942 1308.46 317.942ZM1352.9 270.455V325H1341.55V270.455H1352.9ZM1400.52 295.756L1390.14 296.396C1389.96 295.508 1389.58 294.709 1388.99 293.999C1388.4 293.271 1387.63 292.694 1386.67 292.267C1385.73 291.824 1384.6 291.602 1383.29 291.602C1381.53 291.602 1380.05 291.974 1378.84 292.72C1377.64 293.448 1377.03 294.425 1377.03 295.65C1377.03 296.626 1377.42 297.452 1378.2 298.127C1378.98 298.801 1380.33 299.343 1382.23 299.751L1389.63 301.243C1393.61 302.06 1396.57 303.374 1398.52 305.185C1400.48 306.996 1401.45 309.375 1401.45 312.322C1401.45 315.004 1400.66 317.356 1399.08 319.38C1397.52 321.404 1395.37 322.985 1392.64 324.121C1389.92 325.24 1386.79 325.799 1383.24 325.799C1377.82 325.799 1373.51 324.672 1370.29 322.417C1367.1 320.144 1365.22 317.054 1364.67 313.148L1375.83 312.562C1376.17 314.213 1376.99 315.474 1378.28 316.344C1379.58 317.196 1381.24 317.623 1383.26 317.623C1385.25 317.623 1386.85 317.241 1388.06 316.477C1389.28 315.696 1389.9 314.693 1389.92 313.468C1389.9 312.438 1389.47 311.594 1388.62 310.938C1387.76 310.263 1386.45 309.748 1384.68 309.393L1377.59 307.981C1373.6 307.182 1370.62 305.797 1368.67 303.826C1366.73 301.855 1365.77 299.343 1365.77 296.289C1365.77 293.661 1366.48 291.397 1367.9 289.498C1369.33 287.598 1371.35 286.133 1373.94 285.103C1376.55 284.073 1379.61 283.558 1383.1 283.558C1388.27 283.558 1392.34 284.65 1395.3 286.834C1398.29 289.018 1400.03 291.992 1400.52 295.756Z" fill="#3D3D3D" fill-opacity="0.19"/>
<path d="M1066.66 54.9627V45.4545H1111.46V54.9627H1094.76V100H1083.36V54.9627H1066.66ZM1143.79 82.5817V59.0909H1155.14V100H1144.25V92.5692H1143.82C1142.9 94.9663 1141.36 96.8928 1139.21 98.3487C1137.08 99.8047 1134.48 100.533 1131.41 100.533C1128.67 100.533 1126.27 99.9112 1124.19 98.6683C1122.11 97.4254 1120.49 95.6587 1119.32 93.3683C1118.16 91.0778 1117.58 88.3345 1117.56 85.1385V59.0909H1128.9V83.1143C1128.92 85.5291 1129.57 87.4379 1130.85 88.8406C1132.13 90.2433 1133.84 90.9446 1135.99 90.9446C1137.36 90.9446 1138.63 90.6339 1139.82 90.0124C1141.01 89.3732 1141.97 88.4322 1142.7 87.1893C1143.45 85.9464 1143.81 84.4105 1143.79 82.5817ZM1190.47 59.0909V67.6136H1165.84V59.0909H1190.47ZM1171.43 49.2898H1182.78V87.429C1182.78 88.4766 1182.94 89.2933 1183.26 89.8793C1183.58 90.4474 1184.02 90.8469 1184.59 91.0778C1185.17 91.3086 1185.85 91.424 1186.61 91.424C1187.14 91.424 1187.68 91.3796 1188.21 91.2908C1188.74 91.1843 1189.15 91.1044 1189.44 91.0511L1191.22 99.494C1190.65 99.6715 1189.85 99.8757 1188.82 100.107C1187.79 100.355 1186.54 100.506 1185.07 100.559C1182.33 100.666 1179.94 100.302 1177.88 99.4673C1175.83 98.6328 1174.25 97.3366 1173.11 95.5788C1171.97 93.821 1171.41 91.6016 1171.43 88.9205V49.2898ZM1220.41 100.799C1216.27 100.799 1212.69 99.9201 1209.68 98.1623C1206.67 96.3867 1204.36 93.9187 1202.72 90.7582C1201.09 87.5799 1200.27 83.8956 1200.27 79.7053C1200.27 75.4794 1201.09 71.7862 1202.72 68.6257C1204.36 65.4474 1206.67 62.9794 1209.68 61.2216C1212.69 59.446 1216.27 58.5582 1220.41 58.5582C1224.55 58.5582 1228.11 59.446 1231.12 61.2216C1234.13 62.9794 1236.46 65.4474 1238.09 68.6257C1239.73 71.7862 1240.54 75.4794 1240.54 79.7053C1240.54 83.8956 1239.73 87.5799 1238.09 90.7582C1236.46 93.9187 1234.13 96.3867 1231.12 98.1623C1228.11 99.9201 1224.55 100.799 1220.41 100.799ZM1220.46 92.0099C1222.34 92.0099 1223.92 91.4773 1225.18 90.4119C1226.44 89.3288 1227.39 87.8551 1228.03 85.9908C1228.68 84.1264 1229.01 82.0046 1229.01 79.6254C1229.01 77.2461 1228.68 75.1243 1228.03 73.2599C1227.39 71.3956 1226.44 69.9219 1225.18 68.8388C1223.92 67.7557 1222.34 67.2141 1220.46 67.2141C1218.56 67.2141 1216.96 67.7557 1215.67 68.8388C1214.39 69.9219 1213.42 71.3956 1212.77 73.2599C1212.13 75.1243 1211.81 77.2461 1211.81 79.6254C1211.81 82.0046 1212.13 84.1264 1212.77 85.9908C1213.42 87.8551 1214.39 89.3288 1215.67 90.4119C1216.96 91.4773 1218.56 92.0099 1220.46 92.0099ZM1252.42 100V59.0909H1263.42V66.2287H1263.85C1264.59 63.6896 1265.84 61.772 1267.6 60.4759C1269.36 59.1619 1271.38 58.505 1273.67 58.505C1274.24 58.505 1274.86 58.5405 1275.51 58.6115C1276.17 58.6825 1276.75 58.7802 1277.24 58.9045V68.9719C1276.71 68.8121 1275.97 68.6701 1275.03 68.5458C1274.09 68.4215 1273.23 68.3594 1272.45 68.3594C1270.78 68.3594 1269.29 68.7234 1267.98 69.4513C1266.68 70.1616 1265.65 71.1559 1264.89 72.4343C1264.14 73.7127 1263.77 75.1864 1263.77 76.8555V100H1252.42ZM1287.61 100V59.0909H1298.96V100H1287.61ZM1293.31 53.8175C1291.62 53.8175 1290.18 53.2582 1288.97 52.1396C1287.78 51.0032 1287.18 49.6449 1287.18 48.0646C1287.18 46.5021 1287.78 45.1616 1288.97 44.043C1290.18 42.9066 1291.62 42.3384 1293.31 42.3384C1295 42.3384 1296.43 42.9066 1297.62 44.043C1298.83 45.1616 1299.44 46.5021 1299.44 48.0646C1299.44 49.6449 1298.83 51.0032 1297.62 52.1396C1296.43 53.2582 1295 53.8175 1293.31 53.8175ZM1324.21 100.772C1321.6 100.772 1319.27 100.32 1317.23 99.4141C1315.19 98.4908 1313.57 97.1325 1312.38 95.3391C1311.21 93.5281 1310.63 91.2731 1310.63 88.5742C1310.63 86.3015 1311.04 84.3928 1311.88 82.848C1312.71 81.3033 1313.85 80.0604 1315.29 79.1193C1316.73 78.1783 1318.36 77.468 1320.19 76.9886C1322.03 76.5092 1323.97 76.1719 1325.99 75.9766C1328.37 75.728 1330.29 75.4972 1331.75 75.2841C1333.2 75.0533 1334.26 74.7159 1334.92 74.272C1335.57 73.8281 1335.9 73.1712 1335.9 72.3011V72.1413C1335.9 70.4545 1335.37 69.1495 1334.3 68.2262C1333.26 67.3029 1331.76 66.8413 1329.83 66.8413C1327.79 66.8413 1326.16 67.294 1324.96 68.1996C1323.75 69.0874 1322.95 70.206 1322.56 71.5554L1312.06 70.7031C1312.6 68.2173 1313.65 66.0689 1315.21 64.2578C1316.77 62.429 1318.79 61.0263 1321.25 60.0497C1323.74 59.0554 1326.62 58.5582 1329.88 58.5582C1332.16 58.5582 1334.33 58.8246 1336.41 59.3572C1338.5 59.8899 1340.36 60.7156 1341.97 61.8342C1343.61 62.9528 1344.9 64.391 1345.84 66.1488C1346.78 67.8888 1347.25 69.9751 1347.25 72.4077V100H1336.49V94.3271H1336.17C1335.51 95.6055 1334.63 96.733 1333.53 97.7095C1332.43 98.6683 1331.11 99.4229 1329.56 99.9734C1328.02 100.506 1326.23 100.772 1324.21 100.772ZM1327.46 92.9421C1329.13 92.9421 1330.6 92.6136 1331.88 91.9567C1333.16 91.282 1334.16 90.3764 1334.89 89.2401C1335.62 88.1037 1335.98 86.8164 1335.98 85.3782V81.0369C1335.63 81.2678 1335.14 81.4808 1334.52 81.6761C1333.91 81.8537 1333.23 82.0224 1332.47 82.1822C1331.7 82.3242 1330.94 82.4574 1330.18 82.5817C1329.41 82.6882 1328.72 82.7859 1328.1 82.8746C1326.77 83.07 1325.6 83.3807 1324.61 83.8068C1323.61 84.233 1322.84 84.81 1322.29 85.538C1321.74 86.2482 1321.47 87.136 1321.47 88.2013C1321.47 89.7461 1322.03 90.9268 1323.14 91.7436C1324.28 92.5426 1325.72 92.9421 1327.46 92.9421ZM1371.9 45.4545V100H1360.55V45.4545H1371.9ZM1419.52 70.7564L1409.14 71.3956C1408.96 70.5078 1408.58 69.7088 1407.99 68.9986C1407.4 68.2706 1406.63 67.6935 1405.67 67.2674C1404.73 66.8235 1403.6 66.6016 1402.29 66.6016C1400.53 66.6016 1399.05 66.9744 1397.84 67.7202C1396.64 68.4482 1396.03 69.4247 1396.03 70.6499C1396.03 71.6264 1396.42 72.4521 1397.2 73.1268C1397.98 73.8015 1399.33 74.343 1401.23 74.7514L1408.63 76.2429C1412.61 77.0597 1415.57 78.3736 1417.52 80.1847C1419.48 81.9957 1420.45 84.375 1420.45 87.3224C1420.45 90.0036 1419.66 92.3562 1418.08 94.3803C1416.52 96.4045 1414.37 97.9847 1411.64 99.1211C1408.92 100.24 1405.79 100.799 1402.24 100.799C1396.82 100.799 1392.51 99.6715 1389.29 97.4165C1386.1 95.1438 1384.22 92.0543 1383.67 88.1481L1394.83 87.5621C1395.17 89.2134 1395.99 90.4741 1397.28 91.3441C1398.58 92.1964 1400.24 92.6225 1402.26 92.6225C1404.25 92.6225 1405.85 92.2408 1407.06 91.4773C1408.28 90.696 1408.9 89.6928 1408.92 88.4677C1408.9 87.4379 1408.47 86.5945 1407.62 85.9375C1406.76 85.2628 1405.45 84.7479 1403.68 84.3928L1396.59 82.9812C1392.6 82.1822 1389.62 80.7972 1387.67 78.8263C1385.73 76.8555 1384.77 74.343 1384.77 71.2891C1384.77 68.6612 1385.48 66.3974 1386.9 64.4975C1388.33 62.5977 1390.35 61.1328 1392.94 60.103C1395.55 59.0732 1398.61 58.5582 1402.1 58.5582C1407.27 58.5582 1411.34 59.6502 1414.3 61.8342C1417.29 64.0181 1419.03 66.9922 1419.52 70.7564Z" fill="#3D3D3D" fill-opacity="0.19"/>
<path d="M1223.66 173.963V164.455H1268.46V173.963H1251.76V219H1240.36V173.963H1223.66ZM1300.79 201.582V178.091H1312.14V219H1301.25V211.569H1300.82C1299.9 213.966 1298.36 215.893 1296.21 217.349C1294.08 218.805 1291.48 219.533 1288.41 219.533C1285.67 219.533 1283.27 218.911 1281.19 217.668C1279.11 216.425 1277.49 214.659 1276.32 212.368C1275.16 210.078 1274.58 207.335 1274.56 204.138V178.091H1285.9V202.114C1285.92 204.529 1286.57 206.438 1287.85 207.841C1289.13 209.243 1290.84 209.945 1292.99 209.945C1294.36 209.945 1295.63 209.634 1296.82 209.012C1298.01 208.373 1298.97 207.432 1299.7 206.189C1300.45 204.946 1300.81 203.411 1300.79 201.582ZM1347.47 178.091V186.614H1322.84V178.091H1347.47ZM1328.43 168.29H1339.78V206.429C1339.78 207.477 1339.94 208.293 1340.26 208.879C1340.58 209.447 1341.02 209.847 1341.59 210.078C1342.17 210.309 1342.85 210.424 1343.61 210.424C1344.14 210.424 1344.68 210.38 1345.21 210.291C1345.74 210.184 1346.15 210.104 1346.44 210.051L1348.22 218.494C1347.65 218.672 1346.85 218.876 1345.82 219.107C1344.79 219.355 1343.54 219.506 1342.07 219.559C1339.33 219.666 1336.94 219.302 1334.88 218.467C1332.83 217.633 1331.25 216.337 1330.11 214.579C1328.97 212.821 1328.41 210.602 1328.43 207.92V168.29ZM1377.41 219.799C1373.27 219.799 1369.69 218.92 1366.68 217.162C1363.67 215.387 1361.36 212.919 1359.72 209.758C1358.09 206.58 1357.27 202.896 1357.27 198.705C1357.27 194.479 1358.09 190.786 1359.72 187.626C1361.36 184.447 1363.67 181.979 1366.68 180.222C1369.69 178.446 1373.27 177.558 1377.41 177.558C1381.55 177.558 1385.11 178.446 1388.12 180.222C1391.13 181.979 1393.46 184.447 1395.09 187.626C1396.73 190.786 1397.54 194.479 1397.54 198.705C1397.54 202.896 1396.73 206.58 1395.09 209.758C1393.46 212.919 1391.13 215.387 1388.12 217.162C1385.11 218.92 1381.55 219.799 1377.41 219.799ZM1377.46 211.01C1379.34 211.01 1380.92 210.477 1382.18 209.412C1383.44 208.329 1384.39 206.855 1385.03 204.991C1385.68 203.126 1386.01 201.005 1386.01 198.625C1386.01 196.246 1385.68 194.124 1385.03 192.26C1384.39 190.396 1383.44 188.922 1382.18 187.839C1380.92 186.756 1379.34 186.214 1377.46 186.214C1375.56 186.214 1373.96 186.756 1372.67 187.839C1371.39 188.922 1370.42 190.396 1369.77 192.26C1369.13 194.124 1368.81 196.246 1368.81 198.625C1368.81 201.005 1369.13 203.126 1369.77 204.991C1370.42 206.855 1371.39 208.329 1372.67 209.412C1373.96 210.477 1375.56 211.01 1377.46 211.01ZM1409.42 219V178.091H1420.42V185.229H1420.85C1421.59 182.69 1422.84 180.772 1424.6 179.476C1426.36 178.162 1428.38 177.505 1430.67 177.505C1431.24 177.505 1431.86 177.54 1432.51 177.612C1433.17 177.683 1433.75 177.78 1434.24 177.904V187.972C1433.71 187.812 1432.97 187.67 1432.03 187.546C1431.09 187.422 1430.23 187.359 1429.45 187.359C1427.78 187.359 1426.29 187.723 1424.98 188.451C1423.68 189.162 1422.65 190.156 1421.89 191.434C1421.14 192.713 1420.77 194.186 1420.77 195.855V219H1409.42ZM1444.61 219V178.091H1455.96V219H1444.61ZM1450.31 172.817C1448.62 172.817 1447.18 172.258 1445.97 171.14C1444.78 170.003 1444.18 168.645 1444.18 167.065C1444.18 165.502 1444.78 164.162 1445.97 163.043C1447.18 161.907 1448.62 161.338 1450.31 161.338C1452 161.338 1453.43 161.907 1454.62 163.043C1455.83 164.162 1456.44 165.502 1456.44 167.065C1456.44 168.645 1455.83 170.003 1454.62 171.14C1453.43 172.258 1452 172.817 1450.31 172.817ZM1481.21 219.772C1478.6 219.772 1476.27 219.32 1474.23 218.414C1472.19 217.491 1470.57 216.132 1469.38 214.339C1468.21 212.528 1467.63 210.273 1467.63 207.574C1467.63 205.301 1468.04 203.393 1468.88 201.848C1469.71 200.303 1470.85 199.06 1472.29 198.119C1473.73 197.178 1475.36 196.468 1477.19 195.989C1479.03 195.509 1480.97 195.172 1482.99 194.977C1485.37 194.728 1487.29 194.497 1488.75 194.284C1490.2 194.053 1491.26 193.716 1491.92 193.272C1492.57 192.828 1492.9 192.171 1492.9 191.301V191.141C1492.9 189.455 1492.37 188.15 1491.3 187.226C1490.26 186.303 1488.76 185.841 1486.83 185.841C1484.79 185.841 1483.16 186.294 1481.96 187.2C1480.75 188.087 1479.95 189.206 1479.56 190.555L1469.06 189.703C1469.6 187.217 1470.65 185.069 1472.21 183.258C1473.77 181.429 1475.79 180.026 1478.25 179.05C1480.74 178.055 1483.62 177.558 1486.88 177.558C1489.16 177.558 1491.33 177.825 1493.41 178.357C1495.5 178.89 1497.36 179.716 1498.97 180.834C1500.61 181.953 1501.9 183.391 1502.84 185.149C1503.78 186.889 1504.25 188.975 1504.25 191.408V219H1493.49V213.327H1493.17C1492.51 214.605 1491.63 215.733 1490.53 216.71C1489.43 217.668 1488.11 218.423 1486.56 218.973C1485.02 219.506 1483.23 219.772 1481.21 219.772ZM1484.46 211.942C1486.13 211.942 1487.6 211.614 1488.88 210.957C1490.16 210.282 1491.16 209.376 1491.89 208.24C1492.62 207.104 1492.98 205.816 1492.98 204.378V200.037C1492.63 200.268 1492.14 200.481 1491.52 200.676C1490.91 200.854 1490.23 201.022 1489.47 201.182C1488.7 201.324 1487.94 201.457 1487.18 201.582C1486.41 201.688 1485.72 201.786 1485.1 201.875C1483.77 202.07 1482.6 202.381 1481.61 202.807C1480.61 203.233 1479.84 203.81 1479.29 204.538C1478.74 205.248 1478.47 206.136 1478.47 207.201C1478.47 208.746 1479.03 209.927 1480.14 210.744C1481.28 211.543 1482.72 211.942 1484.46 211.942ZM1528.9 164.455V219H1517.55V164.455H1528.9ZM1576.52 189.756L1566.14 190.396C1565.96 189.508 1565.58 188.709 1564.99 187.999C1564.4 187.271 1563.63 186.694 1562.67 186.267C1561.73 185.824 1560.6 185.602 1559.29 185.602C1557.53 185.602 1556.05 185.974 1554.84 186.72C1553.64 187.448 1553.03 188.425 1553.03 189.65C1553.03 190.626 1553.42 191.452 1554.2 192.127C1554.98 192.801 1556.33 193.343 1558.23 193.751L1565.63 195.243C1569.61 196.06 1572.57 197.374 1574.52 199.185C1576.48 200.996 1577.45 203.375 1577.45 206.322C1577.45 209.004 1576.66 211.356 1575.08 213.38C1573.52 215.404 1571.37 216.985 1568.64 218.121C1565.92 219.24 1562.79 219.799 1559.24 219.799C1553.82 219.799 1549.51 218.672 1546.29 216.417C1543.1 214.144 1541.22 211.054 1540.67 207.148L1551.83 206.562C1552.17 208.213 1552.99 209.474 1554.28 210.344C1555.58 211.196 1557.24 211.623 1559.26 211.623C1561.25 211.623 1562.85 211.241 1564.06 210.477C1565.28 209.696 1565.9 208.693 1565.92 207.468C1565.9 206.438 1565.47 205.594 1564.62 204.938C1563.76 204.263 1562.45 203.748 1560.68 203.393L1553.59 201.981C1549.6 201.182 1546.62 199.797 1544.67 197.826C1542.73 195.855 1541.77 193.343 1541.77 190.289C1541.77 187.661 1542.48 185.397 1543.9 183.498C1545.33 181.598 1547.35 180.133 1549.94 179.103C1552.55 178.073 1555.61 177.558 1559.1 177.558C1564.27 177.558 1568.34 178.65 1571.3 180.834C1574.29 183.018 1576.03 185.992 1576.52 189.756Z" fill="#3D3D3D" fill-opacity="0.19"/>
<path d="M1523.66 54.9627V45.4545H1568.46V54.9627H1551.76V100H1540.36V54.9627H1523.66ZM1600.79 82.5817V59.0909H1612.14V100H1601.25V92.5692H1600.82C1599.9 94.9663 1598.36 96.8928 1596.21 98.3487C1594.08 99.8047 1591.48 100.533 1588.41 100.533C1585.67 100.533 1583.27 99.9112 1581.19 98.6683C1579.11 97.4254 1577.49 95.6587 1576.32 93.3683C1575.16 91.0778 1574.58 88.3345 1574.56 85.1385V59.0909H1585.9V83.1143C1585.92 85.5291 1586.57 87.4379 1587.85 88.8406C1589.13 90.2433 1590.84 90.9446 1592.99 90.9446C1594.36 90.9446 1595.63 90.6339 1596.82 90.0124C1598.01 89.3732 1598.97 88.4322 1599.7 87.1893C1600.45 85.9464 1600.81 84.4105 1600.79 82.5817ZM1647.47 59.0909V67.6136H1622.84V59.0909H1647.47ZM1628.43 49.2898H1639.78V87.429C1639.78 88.4766 1639.94 89.2933 1640.26 89.8793C1640.58 90.4474 1641.02 90.8469 1641.59 91.0778C1642.17 91.3086 1642.85 91.424 1643.61 91.424C1644.14 91.424 1644.68 91.3796 1645.21 91.2908C1645.74 91.1843 1646.15 91.1044 1646.44 91.0511L1648.22 99.494C1647.65 99.6715 1646.85 99.8757 1645.82 100.107C1644.79 100.355 1643.54 100.506 1642.07 100.559C1639.33 100.666 1636.94 100.302 1634.88 99.4673C1632.83 98.6328 1631.25 97.3366 1630.11 95.5788C1628.97 93.821 1628.41 91.6016 1628.43 88.9205V49.2898ZM1677.41 100.799C1673.27 100.799 1669.69 99.9201 1666.68 98.1623C1663.67 96.3867 1661.36 93.9187 1659.72 90.7582C1658.09 87.5799 1657.27 83.8956 1657.27 79.7053C1657.27 75.4794 1658.09 71.7862 1659.72 68.6257C1661.36 65.4474 1663.67 62.9794 1666.68 61.2216C1669.69 59.446 1673.27 58.5582 1677.41 58.5582C1681.55 58.5582 1685.11 59.446 1688.12 61.2216C1691.13 62.9794 1693.46 65.4474 1695.09 68.6257C1696.73 71.7862 1697.54 75.4794 1697.54 79.7053C1697.54 83.8956 1696.73 87.5799 1695.09 90.7582C1693.46 93.9187 1691.13 96.3867 1688.12 98.1623C1685.11 99.9201 1681.55 100.799 1677.41 100.799ZM1677.46 92.0099C1679.34 92.0099 1680.92 91.4773 1682.18 90.4119C1683.44 89.3288 1684.39 87.8551 1685.03 85.9908C1685.68 84.1264 1686.01 82.0046 1686.01 79.6254C1686.01 77.2461 1685.68 75.1243 1685.03 73.2599C1684.39 71.3956 1683.44 69.9219 1682.18 68.8388C1680.92 67.7557 1679.34 67.2141 1677.46 67.2141C1675.56 67.2141 1673.96 67.7557 1672.67 68.8388C1671.39 69.9219 1670.42 71.3956 1669.77 73.2599C1669.13 75.1243 1668.81 77.2461 1668.81 79.6254C1668.81 82.0046 1669.13 84.1264 1669.77 85.9908C1670.42 87.8551 1671.39 89.3288 1672.67 90.4119C1673.96 91.4773 1675.56 92.0099 1677.46 92.0099ZM1709.42 100V59.0909H1720.42V66.2287H1720.85C1721.59 63.6896 1722.84 61.772 1724.6 60.4759C1726.36 59.1619 1728.38 58.505 1730.67 58.505C1731.24 58.505 1731.86 58.5405 1732.51 58.6115C1733.17 58.6825 1733.75 58.7802 1734.24 58.9045V68.9719C1733.71 68.8121 1732.97 68.6701 1732.03 68.5458C1731.09 68.4215 1730.23 68.3594 1729.45 68.3594C1727.78 68.3594 1726.29 68.7234 1724.98 69.4513C1723.68 70.1616 1722.65 71.1559 1721.89 72.4343C1721.14 73.7127 1720.77 75.1864 1720.77 76.8555V100H1709.42ZM1744.61 100V59.0909H1755.96V100H1744.61ZM1750.31 53.8175C1748.62 53.8175 1747.18 53.2582 1745.97 52.1396C1744.78 51.0032 1744.18 49.6449 1744.18 48.0646C1744.18 46.5021 1744.78 45.1616 1745.97 44.043C1747.18 42.9066 1748.62 42.3384 1750.31 42.3384C1752 42.3384 1753.43 42.9066 1754.62 44.043C1755.83 45.1616 1756.44 46.5021 1756.44 48.0646C1756.44 49.6449 1755.83 51.0032 1754.62 52.1396C1753.43 53.2582 1752 53.8175 1750.31 53.8175ZM1781.21 100.772C1778.6 100.772 1776.27 100.32 1774.23 99.4141C1772.19 98.4908 1770.57 97.1325 1769.38 95.3391C1768.21 93.5281 1767.63 91.2731 1767.63 88.5742C1767.63 86.3015 1768.04 84.3928 1768.88 82.848C1769.71 81.3033 1770.85 80.0604 1772.29 79.1193C1773.73 78.1783 1775.36 77.468 1777.19 76.9886C1779.03 76.5092 1780.97 76.1719 1782.99 75.9766C1785.37 75.728 1787.29 75.4972 1788.75 75.2841C1790.2 75.0533 1791.26 74.7159 1791.92 74.272C1792.57 73.8281 1792.9 73.1712 1792.9 72.3011V72.1413C1792.9 70.4545 1792.37 69.1495 1791.3 68.2262C1790.26 67.3029 1788.76 66.8413 1786.83 66.8413C1784.79 66.8413 1783.16 67.294 1781.96 68.1996C1780.75 69.0874 1779.95 70.206 1779.56 71.5554L1769.06 70.7031C1769.6 68.2173 1770.65 66.0689 1772.21 64.2578C1773.77 62.429 1775.79 61.0263 1778.25 60.0497C1780.74 59.0554 1783.62 58.5582 1786.88 58.5582C1789.16 58.5582 1791.33 58.8246 1793.41 59.3572C1795.5 59.8899 1797.36 60.7156 1798.97 61.8342C1800.61 62.9528 1801.9 64.391 1802.84 66.1488C1803.78 67.8888 1804.25 69.9751 1804.25 72.4077V100H1793.49V94.3271H1793.17C1792.51 95.6055 1791.63 96.733 1790.53 97.7095C1789.43 98.6683 1788.11 99.4229 1786.56 99.9734C1785.02 100.506 1783.23 100.772 1781.21 100.772ZM1784.46 92.9421C1786.13 92.9421 1787.6 92.6136 1788.88 91.9567C1790.16 91.282 1791.16 90.3764 1791.89 89.2401C1792.62 88.1037 1792.98 86.8164 1792.98 85.3782V81.0369C1792.63 81.2678 1792.14 81.4808 1791.52 81.6761C1790.91 81.8537 1790.23 82.0224 1789.47 82.1822C1788.7 82.3242 1787.94 82.4574 1787.18 82.5817C1786.41 82.6882 1785.72 82.7859 1785.1 82.8746C1783.77 83.07 1782.6 83.3807 1781.61 83.8068C1780.61 84.233 1779.84 84.81 1779.29 85.538C1778.74 86.2482 1778.47 87.136 1778.47 88.2013C1778.47 89.7461 1779.03 90.9268 1780.14 91.7436C1781.28 92.5426 1782.72 92.9421 1784.46 92.9421ZM1828.9 45.4545V100H1817.55V45.4545H1828.9ZM1876.52 70.7564L1866.14 71.3956C1865.96 70.5078 1865.58 69.7088 1864.99 68.9986C1864.4 68.2706 1863.63 67.6935 1862.67 67.2674C1861.73 66.8235 1860.6 66.6016 1859.29 66.6016C1857.53 66.6016 1856.05 66.9744 1854.84 67.7202C1853.64 68.4482 1853.03 69.4247 1853.03 70.6499C1853.03 71.6264 1853.42 72.4521 1854.2 73.1268C1854.98 73.8015 1856.33 74.343 1858.23 74.7514L1865.63 76.2429C1869.61 77.0597 1872.57 78.3736 1874.52 80.1847C1876.48 81.9957 1877.45 84.375 1877.45 87.3224C1877.45 90.0036 1876.66 92.3562 1875.08 94.3803C1873.52 96.4045 1871.37 97.9847 1868.64 99.1211C1865.92 100.24 1862.79 100.799 1859.24 100.799C1853.82 100.799 1849.51 99.6715 1846.29 97.4165C1843.1 95.1438 1841.22 92.0543 1840.67 88.1481L1851.83 87.5621C1852.17 89.2134 1852.99 90.4741 1854.28 91.3441C1855.58 92.1964 1857.24 92.6225 1859.26 92.6225C1861.25 92.6225 1862.85 92.2408 1864.06 91.4773C1865.28 90.696 1865.9 89.6928 1865.92 88.4677C1865.9 87.4379 1865.47 86.5945 1864.62 85.9375C1863.76 85.2628 1862.45 84.7479 1860.68 84.3928L1853.59 82.9812C1849.6 82.1822 1846.62 80.7972 1844.67 78.8263C1842.73 76.8555 1841.77 74.343 1841.77 71.2891C1841.77 68.6612 1842.48 66.3974 1843.9 64.4975C1845.33 62.5977 1847.35 61.1328 1849.94 60.103C1852.55 59.0732 1855.61 58.5582 1859.1 58.5582C1864.27 58.5582 1868.34 59.6502 1871.3 61.8342C1874.29 64.0181 1876.03 66.9922 1876.52 70.7564Z" fill="#3D3D3D" fill-opacity="0.19"/>
<path d="M1959.38 325H1948.84L1968.04 270.455H1980.24L1999.47 325H1988.92L1974.35 281.641H1973.93L1959.38 325ZM1959.73 303.613H1988.5V311.55H1959.73V303.613ZM2010.73 325V284.091H2020.07V290.909H2020.5C2021.25 288.548 2022.52 286.728 2024.34 285.449C2026.16 284.153 2028.25 283.505 2030.59 283.505C2031.13 283.505 2031.72 283.532 2032.38 283.585C2033.05 283.62 2033.61 283.683 2034.06 283.771V292.64C2033.65 292.498 2033 292.374 2032.11 292.267C2031.24 292.143 2030.4 292.081 2029.58 292.081C2027.83 292.081 2026.24 292.463 2024.84 293.226C2023.46 293.972 2022.37 295.011 2021.57 296.342C2020.77 297.674 2020.37 299.21 2020.37 300.95V325H2010.73ZM2067.59 284.091V291.548H2044.07V284.091H2067.59ZM2049.88 274.29H2059.52V312.695C2059.52 313.991 2059.71 314.986 2060.1 315.678C2060.51 316.353 2061.04 316.815 2061.7 317.063C2062.36 317.312 2063.09 317.436 2063.89 317.436C2064.49 317.436 2065.04 317.392 2065.54 317.303C2066.05 317.214 2066.44 317.134 2066.71 317.063L2068.33 324.6C2067.82 324.778 2067.08 324.973 2066.12 325.186C2065.18 325.4 2064.03 325.524 2062.66 325.559C2060.25 325.63 2058.07 325.266 2056.14 324.467C2054.2 323.651 2052.66 322.39 2051.53 320.685C2050.41 318.981 2049.86 316.85 2049.88 314.293V274.29ZM2080.15 325V284.091H2089.79V325H2080.15ZM2085 278.285C2083.47 278.285 2082.16 277.779 2081.06 276.767C2079.96 275.737 2079.41 274.503 2079.41 273.065C2079.41 271.609 2079.96 270.375 2081.06 269.363C2082.16 268.333 2083.47 267.818 2085 267.818C2086.54 267.818 2087.86 268.333 2088.94 269.363C2090.04 270.375 2090.59 271.609 2090.59 273.065C2090.59 274.503 2090.04 275.737 2088.94 276.767C2087.86 277.779 2086.54 278.285 2085 278.285ZM2122.05 325.799C2117.97 325.799 2114.46 324.902 2111.53 323.109C2108.62 321.316 2106.37 318.839 2104.79 315.678C2103.23 312.5 2102.45 308.842 2102.45 304.705C2102.45 300.55 2103.25 296.884 2104.85 293.706C2106.44 290.51 2108.7 288.024 2111.61 286.248C2114.54 284.455 2118 283.558 2122 283.558C2125.32 283.558 2128.26 284.171 2130.81 285.396C2133.39 286.603 2135.44 288.317 2136.97 290.536C2138.49 292.738 2139.36 295.312 2139.58 298.26H2130.36C2129.99 296.289 2129.1 294.647 2127.7 293.333C2126.31 292.001 2124.46 291.335 2122.13 291.335C2120.16 291.335 2118.43 291.868 2116.94 292.933C2115.45 293.981 2114.28 295.49 2113.45 297.461C2112.63 299.432 2112.22 301.793 2112.22 304.545C2112.22 307.333 2112.63 309.73 2113.45 311.737C2114.27 313.725 2115.41 315.261 2116.88 316.344C2118.38 317.409 2120.12 317.942 2122.13 317.942C2123.55 317.942 2124.82 317.676 2125.94 317.143C2127.08 316.593 2128.03 315.803 2128.79 314.773C2129.55 313.743 2130.08 312.491 2130.36 311.017H2139.58C2139.35 313.912 2138.49 316.477 2137.02 318.714C2135.55 320.934 2133.54 322.674 2131 323.935C2128.46 325.178 2125.48 325.799 2122.05 325.799ZM2161.63 270.455V325H2151.99V270.455H2161.63ZM2194.16 325.799C2190.06 325.799 2186.52 324.947 2183.53 323.242C2180.57 321.52 2178.29 319.087 2176.69 315.945C2175.09 312.784 2174.29 309.064 2174.29 304.785C2174.29 300.577 2175.09 296.884 2176.69 293.706C2178.3 290.51 2180.56 288.024 2183.45 286.248C2186.35 284.455 2189.75 283.558 2193.65 283.558C2196.17 283.558 2198.55 283.967 2200.79 284.783C2203.05 285.582 2205.03 286.825 2206.76 288.512C2208.5 290.199 2209.86 292.347 2210.86 294.957C2211.85 297.55 2212.35 300.639 2212.35 304.226V307.182H2178.82V300.684H2203.11C2203.09 298.837 2202.69 297.195 2201.91 295.756C2201.13 294.3 2200.04 293.155 2198.63 292.321C2197.25 291.486 2195.63 291.069 2193.79 291.069C2191.82 291.069 2190.08 291.548 2188.59 292.507C2187.1 293.448 2185.94 294.691 2185.1 296.236C2184.29 297.763 2183.87 299.441 2183.85 301.27V306.942C2183.85 309.322 2184.29 311.364 2185.16 313.068C2186.03 314.755 2187.24 316.051 2188.81 316.957C2190.37 317.844 2192.2 318.288 2194.29 318.288C2195.7 318.288 2196.96 318.093 2198.1 317.702C2199.24 317.294 2200.22 316.699 2201.06 315.918C2201.89 315.137 2202.52 314.169 2202.95 313.015L2211.95 314.027C2211.38 316.406 2210.3 318.484 2208.7 320.259C2207.12 322.017 2205.1 323.384 2202.63 324.361C2200.16 325.32 2197.34 325.799 2194.16 325.799ZM2257.34 294.904L2248.55 295.863C2248.3 294.975 2247.87 294.141 2247.25 293.359C2246.64 292.578 2245.83 291.948 2244.8 291.468C2243.77 290.989 2242.5 290.749 2241.01 290.749C2239.01 290.749 2237.32 291.184 2235.95 292.054C2234.6 292.924 2233.94 294.052 2233.96 295.437C2233.94 296.626 2234.37 297.594 2235.26 298.34C2236.17 299.086 2237.66 299.698 2239.73 300.178L2246.71 301.669C2250.58 302.504 2253.46 303.826 2255.34 305.637C2257.24 307.449 2258.2 309.819 2258.22 312.749C2258.2 315.323 2257.45 317.596 2255.95 319.567C2254.48 321.52 2252.43 323.047 2249.8 324.148C2247.17 325.249 2244.16 325.799 2240.75 325.799C2235.74 325.799 2231.71 324.751 2228.66 322.656C2225.6 320.543 2223.78 317.605 2223.2 313.841L2232.6 312.935C2233.02 314.782 2233.93 316.175 2235.31 317.116C2236.7 318.058 2238.5 318.528 2240.72 318.528C2243.01 318.528 2244.85 318.058 2246.23 317.116C2247.64 316.175 2248.34 315.012 2248.34 313.627C2248.34 312.456 2247.88 311.488 2246.98 310.724C2246.09 309.961 2244.71 309.375 2242.82 308.967L2235.85 307.502C2231.92 306.685 2229.02 305.309 2227.14 303.374C2225.26 301.42 2224.32 298.952 2224.34 295.969C2224.32 293.448 2225.01 291.264 2226.39 289.418C2227.79 287.553 2229.74 286.115 2232.22 285.103C2234.73 284.073 2237.61 283.558 2240.88 283.558C2245.67 283.558 2249.45 284.579 2252.2 286.621C2254.97 288.663 2256.68 291.424 2257.34 294.904Z" fill="#3D3D3D" fill-opacity="0.19"/>
<path d="M1647.66 173.963V164.455H1692.46V173.963H1675.76V219H1664.36V173.963H1647.66ZM1724.79 201.582V178.091H1736.14V219H1725.25V211.569H1724.82C1723.9 213.966 1722.36 215.893 1720.21 217.349C1718.08 218.805 1715.48 219.533 1712.41 219.533C1709.67 219.533 1707.27 218.911 1705.19 217.668C1703.11 216.425 1701.49 214.659 1700.32 212.368C1699.16 210.078 1698.58 207.335 1698.56 204.138V178.091H1709.9V202.114C1709.92 204.529 1710.57 206.438 1711.85 207.841C1713.13 209.243 1714.84 209.945 1716.99 209.945C1718.36 209.945 1719.63 209.634 1720.82 209.012C1722.01 208.373 1722.97 207.432 1723.7 206.189C1724.45 204.946 1724.81 203.411 1724.79 201.582ZM1771.47 178.091V186.614H1746.84V178.091H1771.47ZM1752.43 168.29H1763.78V206.429C1763.78 207.477 1763.94 208.293 1764.26 208.879C1764.58 209.447 1765.02 209.847 1765.59 210.078C1766.17 210.309 1766.85 210.424 1767.61 210.424C1768.14 210.424 1768.68 210.38 1769.21 210.291C1769.74 210.184 1770.15 210.104 1770.44 210.051L1772.22 218.494C1771.65 218.672 1770.85 218.876 1769.82 219.107C1768.79 219.355 1767.54 219.506 1766.07 219.559C1763.33 219.666 1760.94 219.302 1758.88 218.467C1756.83 217.633 1755.25 216.337 1754.11 214.579C1752.97 212.821 1752.41 210.602 1752.43 207.92V168.29ZM1801.41 219.799C1797.27 219.799 1793.69 218.92 1790.68 217.162C1787.67 215.387 1785.36 212.919 1783.72 209.758C1782.09 206.58 1781.27 202.896 1781.27 198.705C1781.27 194.479 1782.09 190.786 1783.72 187.626C1785.36 184.447 1787.67 181.979 1790.68 180.222C1793.69 178.446 1797.27 177.558 1801.41 177.558C1805.55 177.558 1809.11 178.446 1812.12 180.222C1815.13 181.979 1817.46 184.447 1819.09 187.626C1820.73 190.786 1821.54 194.479 1821.54 198.705C1821.54 202.896 1820.73 206.58 1819.09 209.758C1817.46 212.919 1815.13 215.387 1812.12 217.162C1809.11 218.92 1805.55 219.799 1801.41 219.799ZM1801.46 211.01C1803.34 211.01 1804.92 210.477 1806.18 209.412C1807.44 208.329 1808.39 206.855 1809.03 204.991C1809.68 203.126 1810.01 201.005 1810.01 198.625C1810.01 196.246 1809.68 194.124 1809.03 192.26C1808.39 190.396 1807.44 188.922 1806.18 187.839C1804.92 186.756 1803.34 186.214 1801.46 186.214C1799.56 186.214 1797.96 186.756 1796.67 187.839C1795.39 188.922 1794.42 190.396 1793.77 192.26C1793.13 194.124 1792.81 196.246 1792.81 198.625C1792.81 201.005 1793.13 203.126 1793.77 204.991C1794.42 206.855 1795.39 208.329 1796.67 209.412C1797.96 210.477 1799.56 211.01 1801.46 211.01ZM1833.42 219V178.091H1844.42V185.229H1844.85C1845.59 182.69 1846.84 180.772 1848.6 179.476C1850.36 178.162 1852.38 177.505 1854.67 177.505C1855.24 177.505 1855.86 177.54 1856.51 177.612C1857.17 177.683 1857.75 177.78 1858.24 177.904V187.972C1857.71 187.812 1856.97 187.67 1856.03 187.546C1855.09 187.422 1854.23 187.359 1853.45 187.359C1851.78 187.359 1850.29 187.723 1848.98 188.451C1847.68 189.162 1846.65 190.156 1845.89 191.434C1845.14 192.713 1844.77 194.186 1844.77 195.855V219H1833.42ZM1868.61 219V178.091H1879.96V219H1868.61ZM1874.31 172.817C1872.62 172.817 1871.18 172.258 1869.97 171.14C1868.78 170.003 1868.18 168.645 1868.18 167.065C1868.18 165.502 1868.78 164.162 1869.97 163.043C1871.18 161.907 1872.62 161.338 1874.31 161.338C1876 161.338 1877.43 161.907 1878.62 163.043C1879.83 164.162 1880.44 165.502 1880.44 167.065C1880.44 168.645 1879.83 170.003 1878.62 171.14C1877.43 172.258 1876 172.817 1874.31 172.817ZM1905.21 219.772C1902.6 219.772 1900.27 219.32 1898.23 218.414C1896.19 217.491 1894.57 216.132 1893.38 214.339C1892.21 212.528 1891.63 210.273 1891.63 207.574C1891.63 205.301 1892.04 203.393 1892.88 201.848C1893.71 200.303 1894.85 199.06 1896.29 198.119C1897.73 197.178 1899.36 196.468 1901.19 195.989C1903.03 195.509 1904.97 195.172 1906.99 194.977C1909.37 194.728 1911.29 194.497 1912.75 194.284C1914.2 194.053 1915.26 193.716 1915.92 193.272C1916.57 192.828 1916.9 192.171 1916.9 191.301V191.141C1916.9 189.455 1916.37 188.15 1915.3 187.226C1914.26 186.303 1912.76 185.841 1910.83 185.841C1908.79 185.841 1907.16 186.294 1905.96 187.2C1904.75 188.087 1903.95 189.206 1903.56 190.555L1893.06 189.703C1893.6 187.217 1894.65 185.069 1896.21 183.258C1897.77 181.429 1899.79 180.026 1902.25 179.05C1904.74 178.055 1907.62 177.558 1910.88 177.558C1913.16 177.558 1915.33 177.825 1917.41 178.357C1919.5 178.89 1921.36 179.716 1922.97 180.834C1924.61 181.953 1925.9 183.391 1926.84 185.149C1927.78 186.889 1928.25 188.975 1928.25 191.408V219H1917.49V213.327H1917.17C1916.51 214.605 1915.63 215.733 1914.53 216.71C1913.43 217.668 1912.11 218.423 1910.56 218.973C1909.02 219.506 1907.23 219.772 1905.21 219.772ZM1908.46 211.942C1910.13 211.942 1911.6 211.614 1912.88 210.957C1914.16 210.282 1915.16 209.376 1915.89 208.24C1916.62 207.104 1916.98 205.816 1916.98 204.378V200.037C1916.63 200.268 1916.14 200.481 1915.52 200.676C1914.91 200.854 1914.23 201.022 1913.47 201.182C1912.7 201.324 1911.94 201.457 1911.18 201.582C1910.41 201.688 1909.72 201.786 1909.1 201.875C1907.77 202.07 1906.6 202.381 1905.61 202.807C1904.61 203.233 1903.84 203.81 1903.29 204.538C1902.74 205.248 1902.47 206.136 1902.47 207.201C1902.47 208.746 1903.03 209.927 1904.14 210.744C1905.28 211.543 1906.72 211.942 1908.46 211.942ZM1952.9 164.455V219H1941.55V164.455H1952.9ZM2000.52 189.756L1990.14 190.396C1989.96 189.508 1989.58 188.709 1988.99 187.999C1988.4 187.271 1987.63 186.694 1986.67 186.267C1985.73 185.824 1984.6 185.602 1983.29 185.602C1981.53 185.602 1980.05 185.974 1978.84 186.72C1977.64 187.448 1977.03 188.425 1977.03 189.65C1977.03 190.626 1977.42 191.452 1978.2 192.127C1978.98 192.801 1980.33 193.343 1982.23 193.751L1989.63 195.243C1993.61 196.06 1996.57 197.374 1998.52 199.185C2000.48 200.996 2001.45 203.375 2001.45 206.322C2001.45 209.004 2000.66 211.356 1999.08 213.38C1997.52 215.404 1995.37 216.985 1992.64 218.121C1989.92 219.24 1986.79 219.799 1983.24 219.799C1977.82 219.799 1973.51 218.672 1970.29 216.417C1967.1 214.144 1965.22 211.054 1964.67 207.148L1975.83 206.562C1976.17 208.213 1976.99 209.474 1978.28 210.344C1979.58 211.196 1981.24 211.623 1983.26 211.623C1985.25 211.623 1986.85 211.241 1988.06 210.477C1989.28 209.696 1989.9 208.693 1989.92 207.468C1989.9 206.438 1989.47 205.594 1988.62 204.938C1987.76 204.263 1986.45 203.748 1984.68 203.393L1977.59 201.981C1973.6 201.182 1970.62 199.797 1968.67 197.826C1966.73 195.855 1965.77 193.343 1965.77 190.289C1965.77 187.661 1966.48 185.397 1967.9 183.498C1969.33 181.598 1971.35 180.133 1973.94 179.103C1976.55 178.073 1979.61 177.558 1983.1 177.558C1988.27 177.558 1992.34 178.65 1995.3 180.834C1998.29 183.018 2000.03 185.992 2000.52 189.756Z" fill="#3D3D3D" fill-opacity="0.19"/>
<path d="M1475.66 280.963V271.455H1520.46V280.963H1503.76V326H1492.36V280.963H1475.66ZM1552.79 308.582V285.091H1564.14V326H1553.25V318.569H1552.82C1551.9 320.966 1550.36 322.893 1548.21 324.349C1546.08 325.805 1543.48 326.533 1540.41 326.533C1537.67 326.533 1535.27 325.911 1533.19 324.668C1531.11 323.425 1529.49 321.659 1528.32 319.368C1527.16 317.078 1526.58 314.335 1526.56 311.138V285.091H1537.9V309.114C1537.92 311.529 1538.57 313.438 1539.85 314.841C1541.13 316.243 1542.84 316.945 1544.99 316.945C1546.36 316.945 1547.63 316.634 1548.82 316.012C1550.01 315.373 1550.97 314.432 1551.7 313.189C1552.45 311.946 1552.81 310.411 1552.79 308.582ZM1599.47 285.091V293.614H1574.84V285.091H1599.47ZM1580.43 275.29H1591.78V313.429C1591.78 314.477 1591.94 315.293 1592.26 315.879C1592.58 316.447 1593.02 316.847 1593.59 317.078C1594.17 317.309 1594.85 317.424 1595.61 317.424C1596.14 317.424 1596.68 317.38 1597.21 317.291C1597.74 317.184 1598.15 317.104 1598.44 317.051L1600.22 325.494C1599.65 325.672 1598.85 325.876 1597.82 326.107C1596.79 326.355 1595.54 326.506 1594.07 326.559C1591.33 326.666 1588.94 326.302 1586.88 325.467C1584.83 324.633 1583.25 323.337 1582.11 321.579C1580.97 319.821 1580.41 317.602 1580.43 314.92V275.29ZM1629.41 326.799C1625.27 326.799 1621.69 325.92 1618.68 324.162C1615.67 322.387 1613.36 319.919 1611.72 316.758C1610.09 313.58 1609.27 309.896 1609.27 305.705C1609.27 301.479 1610.09 297.786 1611.72 294.626C1613.36 291.447 1615.67 288.979 1618.68 287.222C1621.69 285.446 1625.27 284.558 1629.41 284.558C1633.55 284.558 1637.11 285.446 1640.12 287.222C1643.13 288.979 1645.46 291.447 1647.09 294.626C1648.73 297.786 1649.54 301.479 1649.54 305.705C1649.54 309.896 1648.73 313.58 1647.09 316.758C1645.46 319.919 1643.13 322.387 1640.12 324.162C1637.11 325.92 1633.55 326.799 1629.41 326.799ZM1629.46 318.01C1631.34 318.01 1632.92 317.477 1634.18 316.412C1635.44 315.329 1636.39 313.855 1637.03 311.991C1637.68 310.126 1638.01 308.005 1638.01 305.625C1638.01 303.246 1637.68 301.124 1637.03 299.26C1636.39 297.396 1635.44 295.922 1634.18 294.839C1632.92 293.756 1631.34 293.214 1629.46 293.214C1627.56 293.214 1625.96 293.756 1624.67 294.839C1623.39 295.922 1622.42 297.396 1621.77 299.26C1621.13 301.124 1620.81 303.246 1620.81 305.625C1620.81 308.005 1621.13 310.126 1621.77 311.991C1622.42 313.855 1623.39 315.329 1624.67 316.412C1625.96 317.477 1627.56 318.01 1629.46 318.01ZM1661.42 326V285.091H1672.42V292.229H1672.85C1673.59 289.69 1674.84 287.772 1676.6 286.476C1678.36 285.162 1680.38 284.505 1682.67 284.505C1683.24 284.505 1683.86 284.54 1684.51 284.612C1685.17 284.683 1685.75 284.78 1686.24 284.904V294.972C1685.71 294.812 1684.97 294.67 1684.03 294.546C1683.09 294.422 1682.23 294.359 1681.45 294.359C1679.78 294.359 1678.29 294.723 1676.98 295.451C1675.68 296.162 1674.65 297.156 1673.89 298.434C1673.14 299.713 1672.77 301.186 1672.77 302.855V326H1661.42ZM1696.61 326V285.091H1707.96V326H1696.61ZM1702.31 279.817C1700.62 279.817 1699.18 279.258 1697.97 278.14C1696.78 277.003 1696.18 275.645 1696.18 274.065C1696.18 272.502 1696.78 271.162 1697.97 270.043C1699.18 268.907 1700.62 268.338 1702.31 268.338C1704 268.338 1705.43 268.907 1706.62 270.043C1707.83 271.162 1708.44 272.502 1708.44 274.065C1708.44 275.645 1707.83 277.003 1706.62 278.14C1705.43 279.258 1704 279.817 1702.31 279.817ZM1733.21 326.772C1730.6 326.772 1728.27 326.32 1726.23 325.414C1724.19 324.491 1722.57 323.132 1721.38 321.339C1720.21 319.528 1719.63 317.273 1719.63 314.574C1719.63 312.301 1720.04 310.393 1720.88 308.848C1721.71 307.303 1722.85 306.06 1724.29 305.119C1725.73 304.178 1727.36 303.468 1729.19 302.989C1731.03 302.509 1732.97 302.172 1734.99 301.977C1737.37 301.728 1739.29 301.497 1740.75 301.284C1742.2 301.053 1743.26 300.716 1743.92 300.272C1744.57 299.828 1744.9 299.171 1744.9 298.301V298.141C1744.9 296.455 1744.37 295.15 1743.3 294.226C1742.26 293.303 1740.76 292.841 1738.83 292.841C1736.79 292.841 1735.16 293.294 1733.96 294.2C1732.75 295.087 1731.95 296.206 1731.56 297.555L1721.06 296.703C1721.6 294.217 1722.65 292.069 1724.21 290.258C1725.77 288.429 1727.79 287.026 1730.25 286.05C1732.74 285.055 1735.62 284.558 1738.88 284.558C1741.16 284.558 1743.33 284.825 1745.41 285.357C1747.5 285.89 1749.36 286.716 1750.97 287.834C1752.61 288.953 1753.9 290.391 1754.84 292.149C1755.78 293.889 1756.25 295.975 1756.25 298.408V326H1745.49V320.327H1745.17C1744.51 321.605 1743.63 322.733 1742.53 323.71C1741.43 324.668 1740.11 325.423 1738.56 325.973C1737.02 326.506 1735.23 326.772 1733.21 326.772ZM1736.46 318.942C1738.13 318.942 1739.6 318.614 1740.88 317.957C1742.16 317.282 1743.16 316.376 1743.89 315.24C1744.62 314.104 1744.98 312.816 1744.98 311.378V307.037C1744.63 307.268 1744.14 307.481 1743.52 307.676C1742.91 307.854 1742.23 308.022 1741.47 308.182C1740.7 308.324 1739.94 308.457 1739.18 308.582C1738.41 308.688 1737.72 308.786 1737.1 308.875C1735.77 309.07 1734.6 309.381 1733.61 309.807C1732.61 310.233 1731.84 310.81 1731.29 311.538C1730.74 312.248 1730.47 313.136 1730.47 314.201C1730.47 315.746 1731.03 316.927 1732.14 317.744C1733.28 318.543 1734.72 318.942 1736.46 318.942ZM1780.9 271.455V326H1769.55V271.455H1780.9ZM1828.52 296.756L1818.14 297.396C1817.96 296.508 1817.58 295.709 1816.99 294.999C1816.4 294.271 1815.63 293.694 1814.67 293.267C1813.73 292.824 1812.6 292.602 1811.29 292.602C1809.53 292.602 1808.05 292.974 1806.84 293.72C1805.64 294.448 1805.03 295.425 1805.03 296.65C1805.03 297.626 1805.42 298.452 1806.2 299.127C1806.98 299.801 1808.33 300.343 1810.23 300.751L1817.63 302.243C1821.61 303.06 1824.57 304.374 1826.52 306.185C1828.48 307.996 1829.45 310.375 1829.45 313.322C1829.45 316.004 1828.66 318.356 1827.08 320.38C1825.52 322.404 1823.37 323.985 1820.64 325.121C1817.92 326.24 1814.79 326.799 1811.24 326.799C1805.82 326.799 1801.51 325.672 1798.29 323.417C1795.1 321.144 1793.22 318.054 1792.67 314.148L1803.83 313.562C1804.17 315.213 1804.99 316.474 1806.28 317.344C1807.58 318.196 1809.24 318.623 1811.26 318.623C1813.25 318.623 1814.85 318.241 1816.06 317.477C1817.28 316.696 1817.9 315.693 1817.92 314.468C1817.9 313.438 1817.47 312.594 1816.62 311.938C1815.76 311.263 1814.45 310.748 1812.68 310.393L1805.59 308.981C1801.6 308.182 1798.62 306.797 1796.67 304.826C1794.73 302.855 1793.77 300.343 1793.77 297.289C1793.77 294.661 1794.48 292.397 1795.9 290.498C1797.33 288.598 1799.35 287.133 1801.94 286.103C1804.55 285.073 1807.61 284.558 1811.1 284.558C1816.27 284.558 1820.34 285.65 1823.3 287.834C1826.29 290.018 1828.03 292.992 1828.52 296.756Z" fill="#3D3D3D" fill-opacity="0.19"/>
<path d="M2.66335 67.9627V58.4545H47.4609V67.9627H30.7617V113H19.3626V67.9627H2.66335ZM79.793 95.5817V72.0909H91.1389V113H80.2457V105.569H79.8196C78.8963 107.966 77.3604 109.893 75.212 111.349C73.0813 112.805 70.4801 113.533 67.4084 113.533C64.674 113.533 62.2681 112.911 60.1907 111.668C58.1133 110.425 56.4886 108.659 55.3168 106.368C54.1626 104.078 53.5767 101.335 53.5589 98.1385V72.0909H64.9048V96.1143C64.9226 98.5291 65.5707 100.438 66.8491 101.841C68.1275 103.243 69.8409 103.945 71.9893 103.945C73.3565 103.945 74.6349 103.634 75.8246 103.012C77.0142 102.373 77.973 101.432 78.701 100.189C79.4467 98.9464 79.8107 97.4105 79.793 95.5817ZM104.714 113V72.0909H115.714V79.2287H116.14C116.886 76.6896 118.138 74.772 119.895 73.4759C121.653 72.1619 123.677 71.505 125.968 71.505C126.536 71.505 127.149 71.5405 127.805 71.6115C128.462 71.6825 129.04 71.7802 129.537 71.9045V81.9719C129.004 81.8121 128.267 81.6701 127.326 81.5458C126.385 81.4215 125.524 81.3594 124.743 81.3594C123.074 81.3594 121.582 81.7234 120.268 82.4513C118.972 83.1616 117.942 84.1559 117.179 85.4343C116.433 86.7127 116.06 88.1864 116.06 89.8555V113H104.714ZM139.903 113V72.0909H151.249V113H139.903ZM145.602 66.8175C143.915 66.8175 142.468 66.2582 141.261 65.1396C140.071 64.0032 139.477 62.6449 139.477 61.0646C139.477 59.5021 140.071 58.1616 141.261 57.043C142.468 55.9066 143.915 55.3384 145.602 55.3384C147.289 55.3384 148.727 55.9066 149.917 57.043C151.124 58.1616 151.728 59.5021 151.728 61.0646C151.728 62.6449 151.124 64.0032 149.917 65.1396C148.727 66.2582 147.289 66.8175 145.602 66.8175ZM176.503 113.772C173.893 113.772 171.567 113.32 169.525 112.414C167.483 111.491 165.867 110.132 164.677 108.339C163.506 106.528 162.92 104.273 162.92 101.574C162.92 99.3015 163.337 97.3928 164.171 95.848C165.006 94.3033 166.142 93.0604 167.581 92.1193C169.019 91.1783 170.652 90.468 172.481 89.9886C174.328 89.5092 176.263 89.1719 178.287 88.9766C180.666 88.728 182.584 88.4972 184.04 88.2841C185.496 88.0533 186.552 87.7159 187.209 87.272C187.866 86.8281 188.195 86.1712 188.195 85.3011V85.1413C188.195 83.4545 187.662 82.1495 186.597 81.2262C185.549 80.3029 184.058 79.8413 182.122 79.8413C180.081 79.8413 178.456 80.294 177.248 81.1996C176.041 82.0874 175.242 83.206 174.851 84.5554L164.358 83.7031C164.891 81.2173 165.938 79.0689 167.501 77.2578C169.063 75.429 171.078 74.0263 173.546 73.0497C176.032 72.0554 178.909 71.5582 182.176 71.5582C184.448 71.5582 186.623 71.8246 188.701 72.3572C190.796 72.8899 192.652 73.7156 194.267 74.8342C195.901 75.9528 197.188 77.391 198.129 79.1488C199.07 80.8888 199.541 82.9751 199.541 85.4077V113H188.781V107.327H188.461C187.804 108.605 186.925 109.733 185.824 110.71C184.724 111.668 183.401 112.423 181.856 112.973C180.311 113.506 178.527 113.772 176.503 113.772ZM179.752 105.942C181.421 105.942 182.895 105.614 184.173 104.957C185.452 104.282 186.455 103.376 187.183 102.24C187.911 101.104 188.275 99.8164 188.275 98.3782V94.0369C187.92 94.2678 187.431 94.4808 186.81 94.6761C186.206 94.8537 185.523 95.0224 184.759 95.1822C183.996 95.3242 183.232 95.4574 182.469 95.5817C181.705 95.6882 181.013 95.7859 180.391 95.8746C179.06 96.07 177.897 96.3807 176.902 96.8068C175.908 97.233 175.136 97.81 174.585 98.538C174.035 99.2482 173.759 100.136 173.759 101.201C173.759 102.746 174.319 103.927 175.437 104.744C176.574 105.543 178.012 105.942 179.752 105.942ZM224.189 58.4545V113H212.843V58.4545H224.189ZM271.815 83.7564L261.428 84.3956C261.251 83.5078 260.869 82.7088 260.283 81.9986C259.697 81.2706 258.925 80.6935 257.966 80.2674C257.025 79.8235 255.897 79.6016 254.583 79.6016C252.826 79.6016 251.343 79.9744 250.136 80.7202C248.928 81.4482 248.325 82.4247 248.325 83.6499C248.325 84.6264 248.715 85.4521 249.496 86.1268C250.278 86.8015 251.618 87.343 253.518 87.7514L260.922 89.2429C264.9 90.0597 267.865 91.3736 269.818 93.1847C271.771 94.9957 272.748 97.375 272.748 100.322C272.748 103.004 271.957 105.356 270.377 107.38C268.815 109.404 266.666 110.985 263.932 112.121C261.215 113.24 258.081 113.799 254.53 113.799C249.115 113.799 244.8 112.672 241.586 110.417C238.39 108.144 236.517 105.054 235.967 101.148L247.126 100.562C247.463 102.213 248.28 103.474 249.576 104.344C250.873 105.196 252.533 105.623 254.557 105.623C256.545 105.623 258.143 105.241 259.351 104.477C260.576 103.696 261.197 102.693 261.215 101.468C261.197 100.438 260.762 99.5945 259.91 98.9375C259.058 98.2628 257.744 97.7479 255.968 97.3928L248.884 95.9812C244.889 95.1822 241.915 93.7972 239.962 91.8263C238.026 89.8555 237.059 87.343 237.059 84.2891C237.059 81.6612 237.769 79.3974 239.189 77.4975C240.627 75.5977 242.643 74.1328 245.235 73.103C247.845 72.0732 250.899 71.5582 254.397 71.5582C259.564 71.5582 263.63 72.6502 266.595 74.8342C269.578 77.0181 271.318 79.9922 271.815 83.7564Z" fill="#3D3D3D" fill-opacity="0.19"/>
<path d="M524.663 279.963V270.455H569.461V279.963H552.762V325H541.363V279.963H524.663ZM601.793 307.582V284.091H613.139V325H602.246V317.569H601.82C600.896 319.966 599.36 321.893 597.212 323.349C595.081 324.805 592.48 325.533 589.408 325.533C586.674 325.533 584.268 324.911 582.191 323.668C580.113 322.425 578.489 320.659 577.317 318.368C576.163 316.078 575.577 313.335 575.559 310.138V284.091H586.905V308.114C586.923 310.529 587.571 312.438 588.849 313.841C590.127 315.243 591.841 315.945 593.989 315.945C595.357 315.945 596.635 315.634 597.825 315.012C599.014 314.373 599.973 313.432 600.701 312.189C601.447 310.946 601.811 309.411 601.793 307.582ZM648.474 284.091V292.614H623.838V284.091H648.474ZM629.431 274.29H640.777V312.429C640.777 313.477 640.937 314.293 641.256 314.879C641.576 315.447 642.02 315.847 642.588 316.078C643.174 316.309 643.848 316.424 644.612 316.424C645.145 316.424 645.677 316.38 646.21 316.291C646.743 316.184 647.151 316.104 647.435 316.051L649.22 324.494C648.651 324.672 647.852 324.876 646.823 325.107C645.793 325.355 644.541 325.506 643.067 325.559C640.333 325.666 637.936 325.302 635.876 324.467C633.834 323.633 632.245 322.337 631.109 320.579C629.972 318.821 629.413 316.602 629.431 313.92V274.29ZM678.409 325.799C674.272 325.799 670.694 324.92 667.676 323.162C664.675 321.387 662.358 318.919 660.724 315.758C659.091 312.58 658.274 308.896 658.274 304.705C658.274 300.479 659.091 296.786 660.724 293.626C662.358 290.447 664.675 287.979 667.676 286.222C670.694 284.446 674.272 283.558 678.409 283.558C682.546 283.558 686.115 284.446 689.116 286.222C692.134 287.979 694.46 290.447 696.093 293.626C697.727 296.786 698.544 300.479 698.544 304.705C698.544 308.896 697.727 312.58 696.093 315.758C694.46 318.919 692.134 321.387 689.116 323.162C686.115 324.92 682.546 325.799 678.409 325.799ZM678.462 317.01C680.344 317.01 681.916 316.477 683.176 315.412C684.437 314.329 685.387 312.855 686.026 310.991C686.683 309.126 687.011 307.005 687.011 304.625C687.011 302.246 686.683 300.124 686.026 298.26C685.387 296.396 684.437 294.922 683.176 293.839C681.916 292.756 680.344 292.214 678.462 292.214C676.562 292.214 674.964 292.756 673.668 293.839C672.39 294.922 671.422 296.396 670.765 298.26C670.126 300.124 669.806 302.246 669.806 304.625C669.806 307.005 670.126 309.126 670.765 310.991C671.422 312.855 672.39 314.329 673.668 315.412C674.964 316.477 676.562 317.01 678.462 317.01ZM710.421 325V284.091H721.421V291.229H721.847C722.593 288.69 723.845 286.772 725.602 285.476C727.36 284.162 729.384 283.505 731.675 283.505C732.243 283.505 732.856 283.54 733.513 283.612C734.169 283.683 734.747 283.78 735.244 283.904V293.972C734.711 293.812 733.974 293.67 733.033 293.546C732.092 293.422 731.231 293.359 730.45 293.359C728.781 293.359 727.289 293.723 725.975 294.451C724.679 295.162 723.649 296.156 722.886 297.434C722.14 298.713 721.767 300.186 721.767 301.855V325H710.421ZM745.61 325V284.091H756.956V325H745.61ZM751.309 278.817C749.623 278.817 748.175 278.258 746.968 277.14C745.778 276.003 745.184 274.645 745.184 273.065C745.184 271.502 745.778 270.162 746.968 269.043C748.175 267.907 749.623 267.338 751.309 267.338C752.996 267.338 754.434 267.907 755.624 269.043C756.831 270.162 757.435 271.502 757.435 273.065C757.435 274.645 756.831 276.003 755.624 277.14C754.434 278.258 752.996 278.817 751.309 278.817ZM782.21 325.772C779.6 325.772 777.274 325.32 775.232 324.414C773.19 323.491 771.574 322.132 770.384 320.339C769.213 318.528 768.627 316.273 768.627 313.574C768.627 311.301 769.044 309.393 769.878 307.848C770.713 306.303 771.849 305.06 773.288 304.119C774.726 303.178 776.359 302.468 778.188 301.989C780.035 301.509 781.97 301.172 783.994 300.977C786.373 300.728 788.291 300.497 789.747 300.284C791.203 300.053 792.26 299.716 792.916 299.272C793.573 298.828 793.902 298.171 793.902 297.301V297.141C793.902 295.455 793.369 294.15 792.304 293.226C791.256 292.303 789.765 291.841 787.829 291.841C785.788 291.841 784.163 292.294 782.956 293.2C781.748 294.087 780.949 295.206 780.559 296.555L770.065 295.703C770.598 293.217 771.645 291.069 773.208 289.258C774.77 287.429 776.785 286.026 779.253 285.05C781.739 284.055 784.616 283.558 787.883 283.558C790.155 283.558 792.331 283.825 794.408 284.357C796.503 284.89 798.359 285.716 799.974 286.834C801.608 287.953 802.895 289.391 803.836 291.149C804.777 292.889 805.248 294.975 805.248 297.408V325H794.488V319.327H794.168C793.511 320.605 792.632 321.733 791.532 322.71C790.431 323.668 789.108 324.423 787.563 324.973C786.018 325.506 784.234 325.772 782.21 325.772ZM785.459 317.942C787.128 317.942 788.602 317.614 789.88 316.957C791.159 316.282 792.162 315.376 792.89 314.24C793.618 313.104 793.982 311.816 793.982 310.378V306.037C793.627 306.268 793.138 306.481 792.517 306.676C791.913 306.854 791.23 307.022 790.466 307.182C789.703 307.324 788.939 307.457 788.176 307.582C787.412 307.688 786.72 307.786 786.098 307.875C784.767 308.07 783.604 308.381 782.609 308.807C781.615 309.233 780.843 309.81 780.292 310.538C779.742 311.248 779.467 312.136 779.467 313.201C779.467 314.746 780.026 315.927 781.144 316.744C782.281 317.543 783.719 317.942 785.459 317.942ZM829.896 270.455V325H818.55V270.455H829.896ZM877.522 295.756L867.135 296.396C866.958 295.508 866.576 294.709 865.99 293.999C865.404 293.271 864.632 292.694 863.673 292.267C862.732 291.824 861.604 291.602 860.29 291.602C858.533 291.602 857.05 291.974 855.843 292.72C854.635 293.448 854.032 294.425 854.032 295.65C854.032 296.626 854.422 297.452 855.203 298.127C855.985 298.801 857.325 299.343 859.225 299.751L866.629 301.243C870.607 302.06 873.572 303.374 875.525 305.185C877.478 306.996 878.455 309.375 878.455 312.322C878.455 315.004 877.664 317.356 876.084 319.38C874.522 321.404 872.373 322.985 869.639 324.121C866.922 325.24 863.788 325.799 860.237 325.799C854.822 325.799 850.507 324.672 847.293 322.417C844.097 320.144 842.224 317.054 841.674 313.148L852.833 312.562C853.17 314.213 853.987 315.474 855.283 316.344C856.58 317.196 858.24 317.623 860.264 317.623C862.252 317.623 863.85 317.241 865.058 316.477C866.283 315.696 866.904 314.693 866.922 313.468C866.904 312.438 866.469 311.594 865.617 310.938C864.765 310.263 863.451 309.748 861.675 309.393L854.591 307.981C850.596 307.182 847.622 305.797 845.669 303.826C843.733 301.855 842.766 299.343 842.766 296.289C842.766 293.661 843.476 291.397 844.896 289.498C846.335 287.598 848.35 286.133 850.942 285.103C853.552 284.073 856.606 283.558 860.104 283.558C865.271 283.558 869.337 284.65 872.302 286.834C875.285 289.018 877.025 291.992 877.522 295.756Z" fill="#3D3D3D" fill-opacity="0.19"/>
<path d="M766.663 173.963V164.455H811.461V173.963H794.762V219H783.363V173.963H766.663ZM843.793 201.582V178.091H855.139V219H844.246V211.569H843.82C842.896 213.966 841.36 215.893 839.212 217.349C837.081 218.805 834.48 219.533 831.408 219.533C828.674 219.533 826.268 218.911 824.191 217.668C822.113 216.425 820.489 214.659 819.317 212.368C818.163 210.078 817.577 207.335 817.559 204.138V178.091H828.905V202.114C828.923 204.529 829.571 206.438 830.849 207.841C832.127 209.243 833.841 209.945 835.989 209.945C837.357 209.945 838.635 209.634 839.825 209.012C841.014 208.373 841.973 207.432 842.701 206.189C843.447 204.946 843.811 203.411 843.793 201.582ZM890.474 178.091V186.614H865.838V178.091H890.474ZM871.431 168.29H882.777V206.429C882.777 207.477 882.937 208.293 883.256 208.879C883.576 209.447 884.02 209.847 884.588 210.078C885.174 210.309 885.848 210.424 886.612 210.424C887.145 210.424 887.677 210.38 888.21 210.291C888.743 210.184 889.151 210.104 889.435 210.051L891.22 218.494C890.651 218.672 889.852 218.876 888.823 219.107C887.793 219.355 886.541 219.506 885.067 219.559C882.333 219.666 879.936 219.302 877.876 218.467C875.834 217.633 874.245 216.337 873.109 214.579C871.972 212.821 871.413 210.602 871.431 207.92V168.29ZM920.409 219.799C916.272 219.799 912.694 218.92 909.676 217.162C906.675 215.387 904.358 212.919 902.724 209.758C901.091 206.58 900.274 202.896 900.274 198.705C900.274 194.479 901.091 190.786 902.724 187.626C904.358 184.447 906.675 181.979 909.676 180.222C912.694 178.446 916.272 177.558 920.409 177.558C924.546 177.558 928.115 178.446 931.116 180.222C934.134 181.979 936.46 184.447 938.093 187.626C939.727 190.786 940.544 194.479 940.544 198.705C940.544 202.896 939.727 206.58 938.093 209.758C936.46 212.919 934.134 215.387 931.116 217.162C928.115 218.92 924.546 219.799 920.409 219.799ZM920.462 211.01C922.344 211.01 923.916 210.477 925.176 209.412C926.437 208.329 927.387 206.855 928.026 204.991C928.683 203.126 929.011 201.005 929.011 198.625C929.011 196.246 928.683 194.124 928.026 192.26C927.387 190.396 926.437 188.922 925.176 187.839C923.916 186.756 922.344 186.214 920.462 186.214C918.562 186.214 916.964 186.756 915.668 187.839C914.39 188.922 913.422 190.396 912.765 192.26C912.126 194.124 911.806 196.246 911.806 198.625C911.806 201.005 912.126 203.126 912.765 204.991C913.422 206.855 914.39 208.329 915.668 209.412C916.964 210.477 918.562 211.01 920.462 211.01ZM952.421 219V178.091H963.421V185.229H963.847C964.593 182.69 965.845 180.772 967.602 179.476C969.36 178.162 971.384 177.505 973.675 177.505C974.243 177.505 974.856 177.54 975.513 177.612C976.169 177.683 976.747 177.78 977.244 177.904V187.972C976.711 187.812 975.974 187.67 975.033 187.546C974.092 187.422 973.231 187.359 972.45 187.359C970.781 187.359 969.289 187.723 967.975 188.451C966.679 189.162 965.649 190.156 964.886 191.434C964.14 192.713 963.767 194.186 963.767 195.855V219H952.421ZM987.61 219V178.091H998.956V219H987.61ZM993.309 172.817C991.623 172.817 990.175 172.258 988.968 171.14C987.778 170.003 987.184 168.645 987.184 167.065C987.184 165.502 987.778 164.162 988.968 163.043C990.175 161.907 991.623 161.338 993.309 161.338C994.996 161.338 996.434 161.907 997.624 163.043C998.831 164.162 999.435 165.502 999.435 167.065C999.435 168.645 998.831 170.003 997.624 171.14C996.434 172.258 994.996 172.817 993.309 172.817ZM1024.21 219.772C1021.6 219.772 1019.27 219.32 1017.23 218.414C1015.19 217.491 1013.57 216.132 1012.38 214.339C1011.21 212.528 1010.63 210.273 1010.63 207.574C1010.63 205.301 1011.04 203.393 1011.88 201.848C1012.71 200.303 1013.85 199.06 1015.29 198.119C1016.73 197.178 1018.36 196.468 1020.19 195.989C1022.03 195.509 1023.97 195.172 1025.99 194.977C1028.37 194.728 1030.29 194.497 1031.75 194.284C1033.2 194.053 1034.26 193.716 1034.92 193.272C1035.57 192.828 1035.9 192.171 1035.9 191.301V191.141C1035.9 189.455 1035.37 188.15 1034.3 187.226C1033.26 186.303 1031.76 185.841 1029.83 185.841C1027.79 185.841 1026.16 186.294 1024.96 187.2C1023.75 188.087 1022.95 189.206 1022.56 190.555L1012.06 189.703C1012.6 187.217 1013.65 185.069 1015.21 183.258C1016.77 181.429 1018.79 180.026 1021.25 179.05C1023.74 178.055 1026.62 177.558 1029.88 177.558C1032.16 177.558 1034.33 177.825 1036.41 178.357C1038.5 178.89 1040.36 179.716 1041.97 180.834C1043.61 181.953 1044.9 183.391 1045.84 185.149C1046.78 186.889 1047.25 188.975 1047.25 191.408V219H1036.49V213.327H1036.17C1035.51 214.605 1034.63 215.733 1033.53 216.71C1032.43 217.668 1031.11 218.423 1029.56 218.973C1028.02 219.506 1026.23 219.772 1024.21 219.772ZM1027.46 211.942C1029.13 211.942 1030.6 211.614 1031.88 210.957C1033.16 210.282 1034.16 209.376 1034.89 208.24C1035.62 207.104 1035.98 205.816 1035.98 204.378V200.037C1035.63 200.268 1035.14 200.481 1034.52 200.676C1033.91 200.854 1033.23 201.022 1032.47 201.182C1031.7 201.324 1030.94 201.457 1030.18 201.582C1029.41 201.688 1028.72 201.786 1028.1 201.875C1026.77 202.07 1025.6 202.381 1024.61 202.807C1023.61 203.233 1022.84 203.81 1022.29 204.538C1021.74 205.248 1021.47 206.136 1021.47 207.201C1021.47 208.746 1022.03 209.927 1023.14 210.744C1024.28 211.543 1025.72 211.942 1027.46 211.942ZM1071.9 164.455V219H1060.55V164.455H1071.9ZM1119.52 189.756L1109.14 190.396C1108.96 189.508 1108.58 188.709 1107.99 187.999C1107.4 187.271 1106.63 186.694 1105.67 186.267C1104.73 185.824 1103.6 185.602 1102.29 185.602C1100.53 185.602 1099.05 185.974 1097.84 186.72C1096.64 187.448 1096.03 188.425 1096.03 189.65C1096.03 190.626 1096.42 191.452 1097.2 192.127C1097.98 192.801 1099.33 193.343 1101.23 193.751L1108.63 195.243C1112.61 196.06 1115.57 197.374 1117.52 199.185C1119.48 200.996 1120.45 203.375 1120.45 206.322C1120.45 209.004 1119.66 211.356 1118.08 213.38C1116.52 215.404 1114.37 216.985 1111.64 218.121C1108.92 219.24 1105.79 219.799 1102.24 219.799C1096.82 219.799 1092.51 218.672 1089.29 216.417C1086.1 214.144 1084.22 211.054 1083.67 207.148L1094.83 206.562C1095.17 208.213 1095.99 209.474 1097.28 210.344C1098.58 211.196 1100.24 211.623 1102.26 211.623C1104.25 211.623 1105.85 211.241 1107.06 210.477C1108.28 209.696 1108.9 208.693 1108.92 207.468C1108.9 206.438 1108.47 205.594 1107.62 204.938C1106.76 204.263 1105.45 203.748 1103.68 203.393L1096.59 201.981C1092.6 201.182 1089.62 199.797 1087.67 197.826C1085.73 195.855 1084.77 193.343 1084.77 190.289C1084.77 187.661 1085.48 185.397 1086.9 183.498C1088.33 181.598 1090.35 180.133 1092.94 179.103C1095.55 178.073 1098.61 177.558 1102.1 177.558C1107.27 177.558 1111.34 178.65 1114.3 180.834C1117.29 183.018 1119.03 185.992 1119.52 189.756Z" fill="#3D3D3D" fill-opacity="0.19"/>
<path d="M2.66335 279.963V270.455H47.4609V279.963H30.7617V325H19.3626V279.963H2.66335ZM79.793 307.582V284.091H91.1389V325H80.2457V317.569H79.8196C78.8963 319.966 77.3604 321.893 75.212 323.349C73.0813 324.805 70.4801 325.533 67.4084 325.533C64.674 325.533 62.2681 324.911 60.1907 323.668C58.1133 322.425 56.4886 320.659 55.3168 318.368C54.1626 316.078 53.5767 313.335 53.5589 310.138V284.091H64.9048V308.114C64.9226 310.529 65.5707 312.438 66.8491 313.841C68.1275 315.243 69.8409 315.945 71.9893 315.945C73.3565 315.945 74.6349 315.634 75.8246 315.012C77.0142 314.373 77.973 313.432 78.701 312.189C79.4467 310.946 79.8107 309.411 79.793 307.582ZM126.474 284.091V292.614H101.838V284.091H126.474ZM107.431 274.29H118.777V312.429C118.777 313.477 118.937 314.293 119.256 314.879C119.576 315.447 120.02 315.847 120.588 316.078C121.174 316.309 121.848 316.424 122.612 316.424C123.145 316.424 123.677 316.38 124.21 316.291C124.743 316.184 125.151 316.104 125.435 316.051L127.22 324.494C126.651 324.672 125.852 324.876 124.823 325.107C123.793 325.355 122.541 325.506 121.067 325.559C118.333 325.666 115.936 325.302 113.876 324.467C111.834 323.633 110.245 322.337 109.109 320.579C107.972 318.821 107.413 316.602 107.431 313.92V274.29ZM156.409 325.799C152.272 325.799 148.694 324.92 145.676 323.162C142.675 321.387 140.358 318.919 138.724 315.758C137.091 312.58 136.274 308.896 136.274 304.705C136.274 300.479 137.091 296.786 138.724 293.626C140.358 290.447 142.675 287.979 145.676 286.222C148.694 284.446 152.272 283.558 156.409 283.558C160.546 283.558 164.115 284.446 167.116 286.222C170.134 287.979 172.46 290.447 174.093 293.626C175.727 296.786 176.544 300.479 176.544 304.705C176.544 308.896 175.727 312.58 174.093 315.758C172.46 318.919 170.134 321.387 167.116 323.162C164.115 324.92 160.546 325.799 156.409 325.799ZM156.462 317.01C158.344 317.01 159.916 316.477 161.176 315.412C162.437 314.329 163.387 312.855 164.026 310.991C164.683 309.126 165.011 307.005 165.011 304.625C165.011 302.246 164.683 300.124 164.026 298.26C163.387 296.396 162.437 294.922 161.176 293.839C159.916 292.756 158.344 292.214 156.462 292.214C154.562 292.214 152.964 292.756 151.668 293.839C150.39 294.922 149.422 296.396 148.765 298.26C148.126 300.124 147.806 302.246 147.806 304.625C147.806 307.005 148.126 309.126 148.765 310.991C149.422 312.855 150.39 314.329 151.668 315.412C152.964 316.477 154.562 317.01 156.462 317.01ZM188.421 325V284.091H199.421V291.229H199.847C200.593 288.69 201.845 286.772 203.602 285.476C205.36 284.162 207.384 283.505 209.675 283.505C210.243 283.505 210.856 283.54 211.513 283.612C212.169 283.683 212.747 283.78 213.244 283.904V293.972C212.711 293.812 211.974 293.67 211.033 293.546C210.092 293.422 209.231 293.359 208.45 293.359C206.781 293.359 205.289 293.723 203.975 294.451C202.679 295.162 201.649 296.156 200.886 297.434C200.14 298.713 199.767 300.186 199.767 301.855V325H188.421ZM223.61 325V284.091H234.956V325H223.61ZM229.309 278.817C227.623 278.817 226.175 278.258 224.968 277.14C223.778 276.003 223.184 274.645 223.184 273.065C223.184 271.502 223.778 270.162 224.968 269.043C226.175 267.907 227.623 267.338 229.309 267.338C230.996 267.338 232.434 267.907 233.624 269.043C234.831 270.162 235.435 271.502 235.435 273.065C235.435 274.645 234.831 276.003 233.624 277.14C232.434 278.258 230.996 278.817 229.309 278.817ZM260.21 325.772C257.6 325.772 255.274 325.32 253.232 324.414C251.19 323.491 249.574 322.132 248.384 320.339C247.213 318.528 246.627 316.273 246.627 313.574C246.627 311.301 247.044 309.393 247.878 307.848C248.713 306.303 249.849 305.06 251.288 304.119C252.726 303.178 254.359 302.468 256.188 301.989C258.035 301.509 259.97 301.172 261.994 300.977C264.373 300.728 266.291 300.497 267.747 300.284C269.203 300.053 270.26 299.716 270.916 299.272C271.573 298.828 271.902 298.171 271.902 297.301V297.141C271.902 295.455 271.369 294.15 270.304 293.226C269.256 292.303 267.765 291.841 265.829 291.841C263.788 291.841 262.163 292.294 260.956 293.2C259.748 294.087 258.949 295.206 258.559 296.555L248.065 295.703C248.598 293.217 249.645 291.069 251.208 289.258C252.77 287.429 254.785 286.026 257.253 285.05C259.739 284.055 262.616 283.558 265.883 283.558C268.155 283.558 270.331 283.825 272.408 284.357C274.503 284.89 276.359 285.716 277.974 286.834C279.608 287.953 280.895 289.391 281.836 291.149C282.777 292.889 283.248 294.975 283.248 297.408V325H272.488V319.327H272.168C271.511 320.605 270.632 321.733 269.532 322.71C268.431 323.668 267.108 324.423 265.563 324.973C264.018 325.506 262.234 325.772 260.21 325.772ZM263.459 317.942C265.128 317.942 266.602 317.614 267.88 316.957C269.159 316.282 270.162 315.376 270.89 314.24C271.618 313.104 271.982 311.816 271.982 310.378V306.037C271.627 306.268 271.138 306.481 270.517 306.676C269.913 306.854 269.23 307.022 268.466 307.182C267.703 307.324 266.939 307.457 266.176 307.582C265.412 307.688 264.72 307.786 264.098 307.875C262.767 308.07 261.604 308.381 260.609 308.807C259.615 309.233 258.843 309.81 258.292 310.538C257.742 311.248 257.467 312.136 257.467 313.201C257.467 314.746 258.026 315.927 259.144 316.744C260.281 317.543 261.719 317.942 263.459 317.942ZM307.896 270.455V325H296.55V270.455H307.896ZM355.522 295.756L345.135 296.396C344.958 295.508 344.576 294.709 343.99 293.999C343.404 293.271 342.632 292.694 341.673 292.267C340.732 291.824 339.604 291.602 338.29 291.602C336.533 291.602 335.05 291.974 333.843 292.72C332.635 293.448 332.032 294.425 332.032 295.65C332.032 296.626 332.422 297.452 333.203 298.127C333.985 298.801 335.325 299.343 337.225 299.751L344.629 301.243C348.607 302.06 351.572 303.374 353.525 305.185C355.478 306.996 356.455 309.375 356.455 312.322C356.455 315.004 355.664 317.356 354.084 319.38C352.522 321.404 350.373 322.985 347.639 324.121C344.922 325.24 341.788 325.799 338.237 325.799C332.822 325.799 328.507 324.672 325.293 322.417C322.097 320.144 320.224 317.054 319.674 313.148L330.833 312.562C331.17 314.213 331.987 315.474 333.283 316.344C334.58 317.196 336.24 317.623 338.264 317.623C340.252 317.623 341.85 317.241 343.058 316.477C344.283 315.696 344.904 314.693 344.922 313.468C344.904 312.438 344.469 311.594 343.617 310.938C342.765 310.263 341.451 309.748 339.675 309.393L332.591 307.981C328.596 307.182 325.622 305.797 323.669 303.826C321.733 301.855 320.766 299.343 320.766 296.289C320.766 293.661 321.476 291.397 322.896 289.498C324.335 287.598 326.35 286.133 328.942 285.103C331.552 284.073 334.606 283.558 338.104 283.558C343.271 283.558 347.337 284.65 350.302 286.834C353.285 289.018 355.025 291.992 355.522 295.756Z" fill="#3D3D3D" fill-opacity="0.19"/>
<path d="M835.663 145.963V136.455H880.461V145.963H863.762V191H852.363V145.963H835.663Z" fill="#3D3D3D" fill-opacity="0.19"/>
</svg>
